<mxfile host="www.draw.io" modified="2019-12-08T16:31:41.378Z" agent="Mozilla/5.0 (Macintosh; Intel Mac OS X 10_11_6) AppleWebKit/537.36 (KHTML, like Gecko) Chrome/78.0.3904.108 Safari/537.36" etag="y9Z7smnkGCrvGamuKG35" version="12.3.8" type="github" pages="1">
  <diagram id="hAx0dIUJQ4FakxPcNWTP" name="Page-1">
    <mxGraphModel dx="1026" dy="1614" grid="1" gridSize="10" guides="1" tooltips="1" connect="1" arrows="1" fold="1" page="1" pageScale="1" pageWidth="850" pageHeight="1100" math="0" shadow="0">
      <root>
        <mxCell id="0"/>
        <mxCell id="1" parent="0"/>
        <mxCell id="-ClTl8FYW49d9pKGoOFr-21" value="" style="ellipse;whiteSpace=wrap;html=1;aspect=fixed;fillColor=none;strokeColor=#67AB9F;strokeWidth=3;" vertex="1" parent="1">
          <mxGeometry x="30" y="-110" width="80" height="80" as="geometry"/>
        </mxCell>
        <mxCell id="-ClTl8FYW49d9pKGoOFr-15" style="edgeStyle=orthogonalEdgeStyle;curved=1;orthogonalLoop=1;jettySize=auto;html=1;exitX=0.5;exitY=1;exitDx=0;exitDy=0;entryX=0;entryY=0.5;entryDx=0;entryDy=0;strokeColor=#000000;" edge="1" parent="1" source="MjYCwgeEQzr5eumAuSV6-1" target="-ClTl8FYW49d9pKGoOFr-12">
          <mxGeometry relative="1" as="geometry"/>
        </mxCell>
        <mxCell id="MjYCwgeEQzr5eumAuSV6-1" value="Crude Oil" style="rounded=0;whiteSpace=wrap;html=1;" parent="1" vertex="1">
          <mxGeometry x="20" y="10" width="120" height="60" as="geometry"/>
        </mxCell>
        <mxCell id="-ClTl8FYW49d9pKGoOFr-16" style="edgeStyle=orthogonalEdgeStyle;curved=1;orthogonalLoop=1;jettySize=auto;html=1;exitX=0.5;exitY=1;exitDx=0;exitDy=0;entryX=1;entryY=0.5;entryDx=0;entryDy=0;strokeColor=#000000;" edge="1" parent="1" source="MjYCwgeEQzr5eumAuSV6-2" target="-ClTl8FYW49d9pKGoOFr-12">
          <mxGeometry relative="1" as="geometry"/>
        </mxCell>
        <mxCell id="MjYCwgeEQzr5eumAuSV6-2" value="Natural Gas" style="rounded=0;whiteSpace=wrap;html=1;" parent="1" vertex="1">
          <mxGeometry x="160" y="10" width="120" height="60" as="geometry"/>
        </mxCell>
        <mxCell id="-ClTl8FYW49d9pKGoOFr-10" style="edgeStyle=orthogonalEdgeStyle;curved=1;orthogonalLoop=1;jettySize=auto;html=1;exitX=0.5;exitY=1;exitDx=0;exitDy=0;entryX=0.5;entryY=0;entryDx=0;entryDy=0;strokeColor=#000000;" edge="1" parent="1" source="MjYCwgeEQzr5eumAuSV6-6" target="MjYCwgeEQzr5eumAuSV6-8">
          <mxGeometry relative="1" as="geometry"/>
        </mxCell>
        <mxCell id="MjYCwgeEQzr5eumAuSV6-6" value="Raw material&lt;br&gt;(Pallates)" style="rounded=0;whiteSpace=wrap;html=1;" parent="1" vertex="1">
          <mxGeometry x="89" y="160" width="120" height="60" as="geometry"/>
        </mxCell>
        <mxCell id="-ClTl8FYW49d9pKGoOFr-11" style="edgeStyle=orthogonalEdgeStyle;curved=1;orthogonalLoop=1;jettySize=auto;html=1;exitX=0.5;exitY=1;exitDx=0;exitDy=0;strokeColor=#000000;" edge="1" parent="1" source="MjYCwgeEQzr5eumAuSV6-8" target="MjYCwgeEQzr5eumAuSV6-11">
          <mxGeometry relative="1" as="geometry"/>
        </mxCell>
        <mxCell id="MjYCwgeEQzr5eumAuSV6-8" value="Bottle" style="rounded=0;whiteSpace=wrap;html=1;" parent="1" vertex="1">
          <mxGeometry x="90" y="248" width="120" height="60" as="geometry"/>
        </mxCell>
        <mxCell id="MjYCwgeEQzr5eumAuSV6-11" value="Waste bottle" style="rounded=0;whiteSpace=wrap;html=1;" parent="1" vertex="1">
          <mxGeometry x="90" y="370" width="120" height="60" as="geometry"/>
        </mxCell>
        <mxCell id="-ClTl8FYW49d9pKGoOFr-17" style="edgeStyle=orthogonalEdgeStyle;curved=1;orthogonalLoop=1;jettySize=auto;html=1;exitX=0.5;exitY=1;exitDx=0;exitDy=0;entryX=0.5;entryY=0;entryDx=0;entryDy=0;strokeColor=#000000;" edge="1" parent="1" source="-ClTl8FYW49d9pKGoOFr-12" target="MjYCwgeEQzr5eumAuSV6-6">
          <mxGeometry relative="1" as="geometry"/>
        </mxCell>
        <mxCell id="-ClTl8FYW49d9pKGoOFr-12" value="" style="shape=image;html=1;verticalLabelPosition=bottom;labelBackgroundColor=#ffffff;verticalAlign=top;imageAspect=1;aspect=fixed;image=img/clipart/Gear_128x128.png" vertex="1" parent="1">
          <mxGeometry x="134" y="90" width="30" height="36" as="geometry"/>
        </mxCell>
        <mxCell id="-ClTl8FYW49d9pKGoOFr-19" value="" style="shape=image;verticalLabelPosition=bottom;labelBackgroundColor=#ffffff;verticalAlign=top;aspect=fixed;imageAspect=0;image=data:image/png,iVBORw0KGgoAAAANSUhEUgAAAbkAAAF5CAYAAAACvFScAAAX9WlDQ1BJQ0MgUHJvZmlsZQAAeJyVWQk8VV3X3+ecO5jnebzmKWOZ52ue51nluq55yhwVITJEgymSQjL0SGRIKYlUJFQqlUiSUimlTPmOoZ73fd5v+H379zvn/K299tpr7//aw3IB4OUihYcHw0wAhIRGRdibEAmubu4E/CSAAAyogQhQIpEjw/VtbS0BWn5//70sjKDaaHkou27rP+v/18LsQ4kkAwDZotjbJ5IcguLLAGB4yOERUQBgB1G5SGxU+Dr+hmK2CNRBAHBU69hvE/OtY+9NrLCh42hvgGJDAKjoSKQIPwAY1u0TYsh+qB2GcLSOJdQnIBRVTUWxDtmf5AMATzeqsy0kJGwdz6FY0vtf7Pj9m03vPzZJJL8/eHMsG4XKMCAyPJi09/85Hf93CQmO/t2HMPrQ+UeY2q+PGZ236qAwi3VMh+Jrod7WNihmQfGdAJ8N/XU86h9t6rSlP0uONEDnDHAAlGwfkqEFitG5hDmig5z0t7ASKWKjLaoPWwdEmTluYe+IMPst+3BMaLC15Zadw/4Us9/4NCXSyOG3jm+AsRmK0UiDL8f7O7ps+gl3xwQ4W6OYAcWDkUEOFlttx+L9Dax/60RE26/7LIrib74RxvabOghXSOTvcSFyZNJGX1wo1ovydzTdbIu4UiJdLX/74EMxNNr0AfGhhDpt+Yag0UW032qbFh5su6WPnKYEm9hvzjPSEBnj8LvtcBQaYJvzgLwOJJnbbvqPLIRH2Tpu+obBAEtgAAwBAUSjjzcIA4EgYGC2dRb9a7PGGJBABPADFCC7JfndwmWjJhR9O4B48BFFFBD5px1xo5YCYlD56h/p5lsW+G7Uxmy0CAJvURyC4cHoYDQxluhbD32UMGoY9d/tCIy/e8UZ4QxxpjhjnNQfP8io18HoEwEC/huZBfqloKNb9yX09xj+tod9ix3CvsY+xo5jnwFn8GbDypbW7oDkiH94TgBWYBy1Zrw1Om/U5sxvHYw46rUyhojRRv1HfcdwYHiALGYHOhJ9jC46NmVU+q8eRv/x7e+5/Gd/617/63i25AzSDMpbXnj/Ycbgj9Y/rRj8yxz5oF+Lf2oih5EmpBe5idxFriGtgIDcQNqQfqRjHf+JhDcbkfC7N/sN34JQOwG/dRTqFGYUVv6jd9KWBxEbfIMoSlzU+oIwCAvfGxHg5x9F0Ed3ZArBLJQst42gpKCoDsD6/r65fczbb+zbEMeDv2X+bQBongKA2udvmW8mALXn0XB3/1smcQIA7msANIeRoyNiNmWY9RcW0ABGdGVwAwH09JBEx6QEVIAm0ANGwBzYAEfgBnahs+4PQlCvY8E+cBCkgSxwFOSDYlAGKkA1+As0glZwDdwEt0EfGASPwXM0NqbABzAHFsAyBEF4iB5ihbghQUgMkoGUIDVIBzKCLCF7yA3ygvygUCga2gelQFnQcagYOgvVQJegK9BN6C40BD2DJqAZ6Cu0BCMwHcwG88PisDysBuvDFrAjvBP2g/fA8XAqnAMXweXwBbgFvgn3wY/hcfgD/B0BCC3CgQghsogaYoDYIO6ILxKBHEAykQKkHKlH2lGuHyLjyCyyiMFhWDEEjCwan6YYJwwZswdzAJONKcZUY1ow3ZiHmAnMHOYXlh7Lh5XBamDNsK5YP2wsNg1bgK3CNmN70LUzhV3A4XAcOAmcKro23XCBuARcNq4UdxHXiRvCTeK+4/F4brwMXhtvgyfho/Bp+JP4C/gb+GH8FP4nFS2VIJUSlTGVO1UoVTJVAVUt1XWqYappqmVqJmoxag1qG2of6r3UudSV1O3UD6inqJdpmGkkaLRpHGkCaQ7SFNHU0/TQvKCZp6WlFaZVp7WjDaBNoi2ibaC9QztBu0jHQidNZ0DnSRdNl0N3nq6T7hndPD09vTi9Hr07fRR9Dn0N/S36MfqfDKwMcgxmDD4MiQwlDC0MwwyfGKkZxRj1GXcxxjMWMDYxPmCcZaJmEmcyYCIxHWAqYbrC9ITpOzMrsyKzDXMIczZzLfNd5ncseBZxFiMWH5ZUlgqWWyyTrAirCKsBK5k1hbWStYd1ig3HJsFmxhbIlsX2F9sA2xw7C/sOdmf2OPYS9g72cQ6EQ5zDjCOYI5ejkWOEY4mTn1Ofk8KZwVnPOcz5g4uXS4+LwpXJdZHrMdcSN4HbiDuI+xh3K/dLHgyPNI8dTyzPaZ4enlleNl5NXjJvJm8j7ygfzCfNZ8+XwFfB18/3nV+A34Q/nP8k/y3+WQEOAT2BQIE8gesCM4KsgjqCAYJ5gjcE3xPYCfqEYEIRoZswJ8QnZCoULXRWaEBoWVhC2Ek4Wfii8EsRGhE1EV+RPJEukTlRQVEr0X2idaKjYtRiamL+YoVivWI/xCXEXcTTxVvF30lwSZhJxEvUSbyQpJfUldwjWS75SAonpSYVJFUqNSgNSytL+0uXSD+QgWVUZAJkSmWGtmG3qW8L3Va+7Yksnay+bIxsneyEHIecpVyyXKvcJ3lReXf5Y/K98r8UlBWCFSoVniuyKJorJiu2K35VklYiK5UoPdpOv914e+L2tu1fdsjsoOw4veOpMquylXK6cpfyqoqqSoRKvcqMqqiql+op1SdqbGq2atlqd9Sx6kT1RPVr6osaKhpRGo0anzVlNYM0azXfaUloUbQqtSa1hbVJ2me1x3UIOl46Z3TGdYV0Sbrluq/1RPR89Kr0pvWl9AP1L+h/IioQI4jNxB8GGgb7DToNEUMTw0zDASMWIyejYqMxY2FjP+M64zkTZZMEk05TrKmF6THTJ2b8ZmSzGrM5c1Xz/ebdFnQWDhbFFq8tpS0jLNutYCtzqxNWL6zFrEOtW22AjZnNCZuXthK2e2yv2uHsbO1K7N7aK9rvs+91YHXY7VDrsOBIdMx1fO4k6RTt1OXM6OzpXOP8w8XQ5bjLuKu8637XPjcetwC3Nne8u7N7lft3DyOPfI8pT2XPNM+RnRI743be3cWzK3hXx27G3aTdTV5YLxevWq8Vkg2pnPTd28z7lPcc2YBcSP7go+eT5zND0aYcp0z7avse933np+13wm/GX9e/wH82wCCgOOBLoGlgWeCPIJug80FrwS7BF0OoQrxCroSyhAaFdocJhMWFDYXLhKeFj+/R2JO/Zy7CIqIqEorcGdkWxYZedfqjJaMPRU/E6MSUxPyMdY5timOOC43r3yu9N2PvdLxx/LkETAI5oWuf0L6D+yb26+8/ewA64H2gK1EkMTVxKskkqfogzcGgg/eTFZKPJ39LcUlpT+VPTUqdPGRyqC6NIS0i7Um6ZnrZYczhgMMDGdszTmb8yvTJvJelkFWQtZJNzr53RPFI0ZG1HN+cgVyV3NNHcUdDj44c0z1WfZz5ePzxyRNWJ1ryCHmZed/yd+ffLdhRUFZIUxhdOF5kWdR2UvTk0ZMrxf7Fj0uIJRdP8Z3KOPWj1Kd0+LTe6foy/rKssqUzAWeenjU521IuXl5QgauIqXhb6VzZe07tXE0VT1VW1er50PPj1fbV3TWqNTW1fLW5dXBddN3MBc8Lg38Z/tVWL1t/9iLHxawG0BDd8P6S16WRRovGria1pvrLYpdPNbM2Z7ZALXtb5lr9W8fb3NqGrphf6WrXbG++Knf1/DWhayUd7B2512mup15fuxF/43tneOfsTb+bk127u57fcr31qNuue6DHoufObePbt3r1e2/c0b5z7a7G3Sv31O619qn0tfQr9zffV77fPKAy0PJA9UHboPpg+5DW0PVh3eGbDw0f3n5k9qjvsfXjoRGnkadPPJ+MP/V5+u5Z8LMvozGjy8+TXmBfZL5kelkwxjdW/krq1cVxlfGOCcOJ/tcOr59Pkic/vIl8szKV+pb+bcG04HTNO6V312aMZwbfe7yf+hD+YXk27SPzx1OfJD9d/qz3uX/OdW7qS8SXta/Z89zz57/t+Nb13fb72ELIwvKPzJ/cP6sX1RZ7l1yWppdjV/ArRatSq+2/LH69WAtZWwsnRZA2rgII+sC+vgB8Re8N9G4AsKJ5HA3DZv61VRBoPe0AkAVsjJAwl3CCeCJVFnUfLZbOnj6H4TmTKHMiy102bvZYjgGubdypPM/5tPlPC6wSPIV6RIRFM8TmJOwl26QFZJK3TcqZyl9QpFEK3j6gLKOSrTqujtEQ0lTXctAO1knTLdNr1R8ivjNYM+IwljMxNHUzCzZPtMizPG91xbofXfGf7dYcGBz5nbY5a7qYujq7ebuHeSR4pu88vqt0d7VXI6nD+zZ50Oc55ZXvqN8D/1sBbYEXg6qCS0NOhGaGpYTH74mICIr0jfKK9oxxjXWKc9hrF2+XYL/PYb/zAbfEXUk+B4OSI1MSUg8dOpJ2Mr3ycENGR2Zf1mj29JGFXNxRjmNix5VPGOU55HsXhBceKMo+WVx8vqTp1I3SvtMjZeNnPpydL1+txJ6jr2I7z1stVCNeK1Mnf2H7Xyr1ahc1GrQuaTfqNOlc1m3WadFu1WrTvKLernpV5ZpKh+Z14g2zTpubLl27b/l2h/RE3o7vTbyTejfjXk7fsf4T9/MH8h/kDR4fyhnOeJjyKOHxnhHfJ25PLZ5pjko/53qBvPj0cmSs41XleMZE6Gu7SaU3bG/mp1re7p3Wmv71rnPm4HviB/hD12zSR+2Pi2jMBM+Jzo1+yf6q/fXjfNE3/W8z37MXZBf6flB+/Pp5bFFk8dKS1lLPssXywIr1Sv+qyWrnL9VfdWuCa7lra/8t/+70xQyfmVRQ/kfYpNj3cwyj/GfwTPOZ8FcKUhH8hO6IyIjmiP2QcJO8tsU/Uf6cIkaJsr1LmaASr3pX7a36vCbQotPm1BHVldVT1zckWhs4Ge4yCjAON4kx3W+Wap5pkWOZZ1VoXWJz2vasXYX9OYdzjlVO552rXKpcq9yq3M95VHpW7Dy7q2x3qVcJqdj7JLnAJ5eS7pvoF+MfHhAY6B3kEewUYh1qEkYM196jFrE9Uj5KOlo8RiSWEMe3lyeeM4FjH9t+1gMsicxJzAeZk1lS0KvLIdY0tnS2wxwZ6GUjizub9wghRypX+SjxmPVxjxP+edH5yQW5haVFtSfbintLHp+aLJ0vg8+wnBUuV6owqHQ8R6mKPZ9RXVpTX3uz7tGFd3+tXmRuELuk0WjbRLkc35zbUtXa3jZ85V37yjV8B9N1rhuETumbO7p0bpl02/W43/bpDb0Tdzfl3pG+wv6z92sHLj/oGLw99GD4ycPxR9OPP418e7L8DB7FP6d7wfSSbYzzFc8434Tga+FJkTciU6JvBd6uTY++a5rJfE/6oDxLNfvsY/WnqM86c9i5u18OfzX6ujbf+M37O+P31gW3hcUfR3+K/by8qLvYs2S0dHNZffnCCt/KoZXPq7arDb8Yf1F+XVtjWfNaa9jgXwy6BRcghzAp2DicP96Dypxal0aeVopOil6EQYRRkEmIWZJFhlWJTYVdj8OS05mLzB3Ks583h6+Ev1qgRbCH8EjojfBnkRUxWnEeCWFJOSktaaIMh8zbbZdlU+Qc5EXk5xQ6FLOV3LeLo/eW68pZKk6qBNUZtSb1fRpGmnSaD7VOapN0JHRmdS/pReur668QOw2SDQ2N8Eb3jLNMLE3pTQfMcs1tLZgthi3zrdyt+a3Hbc7ZBtrJ2n2xb3bY66jlBJy6nQ+7WLoyuj50K3B39+D3GPcs30nZJbnrw+6/vMJIiqR572ZyrI+azyKl3TfBT9Nvxf96wIFAncBfQZ3BySEmobShg2GF4Tv3iOx5H9EUuS/KKJox+nnM+djIOP29jHtfxTckJO9z3C+5f/XAcGJN0sGDbslKKXQp06m3DpWl7Ut3P6yewZWxkDmS1ZpdeCQuxz1X56j4MeZjK8ffnhjOu5FfV1BUmFoUeZJUbFuif0qpVOw0VxndGejM4tkv5R8qpipfn5uoGj8/UT1Z8672U933C6v1uItMDXyXJBtVmowvOzf7tsS0Hm47faWzfeYaa4fO9eAbJZ0DXdhbet2JPV29dHc8717qY+iPuP/igcPgg2HXh+8epz6Revp09MQL9zHJcXhiavLR1MD04Mzoh7lPDHPbv3p9y1sYWmRe9litW+d/8/9w6wWnAkCBKADOLwBwRL/5n9E8kx8AThoAbOlRmTqAJ0wA/CgeQLmev8+P9QwWPW+wgArQAibADniBMJBGs04tNK+2AzvRHDoGHAJ5aGZ5GfSAJ+A9+IXmjpJoxugEhUBpUBmaGT6GvsD0sAxsDgfAmXAdfB/+grAjGogXko40IM8wCEYO44E5jOZtM1hxLBlbgX2D5mRBuEu4RTwRfwQ/SiVFtZeqj1qQOpr6PppDJdO8otWlPUOH0PnTPaBXo69kYGZIYvjCSGEcZbJn6mM2Ye5mMWS5zWrOOsjmyvaaPYx9heMIpxjnba5AbibuVh4vXjredr4gfj7+IYF0QV3Bn4TLQnuEFYS/iDSJxoppiSPi/RL5kiQpWall6XsyxdtCZPXkOOU+yt9WOKOYoOS6XWUH544l5TGVLtVatXz1JI1QTS8te21THT1dDT0VfWWiqoGmIdHIwtjVxNd0r9kR80qL65bPrZZtBGwN7YLtixx6HRed5Vx8Xc+6jXkIepJ31uz66qVLyvWe8FGm5PhO+xsFnA78FmwZUh2GDffe0x0pGZUbvRhLiXscb5pwfb/KgaakHQfbUoipD9JI6T8z8rOUs5/nHD6qcezrifr8PYUaJ2mLX526drrsTFp5ZKVvFamaVOt94cpFtktxTWMtNm09V4kd9zo9u372VN7Z2Sc1gBtceoR/ojAa9/LNRNyUyozIR+KXogXppYX1+Pkf+ddE+bcFnhv8p4ITKP9NW/yvQiyQBMq/IxQMHYJOo/w/guZQ/qVhM5T/jD/8ayIk5DByCRnFYDEKmJ2YLEw75hNWDhuGbcT+wOng0nBDeH58EP4qFQOVN1UrNSN1IPVtGlGaVJppWgvaRjpeujQ0JybTP0Lz3xuMqoyNTPJM9czyzE0saiydrBasT9h82X6wZ3IIcrRwOnDOc+Vza3C/4knnVeJ9xZfDr8s/L1AtuJvAhe5wx4TtRFhFRkRPifmIy4kvSfRKFkkFSOvIsMp82NYje1YuSd5LwUBRUolR6cf2yR1DyjdVGlXL1Y6qH9AI0/TWcta20jHW1dfT0dciahvoGRoYmRs7mHiaBpjFmKdZFFrWWt2wHrH5bEdtL+ZAdCQ7pTpXu9x3nXfn9TDxjNx5ZtegF0xS8Q4hV/iM+XL5OfnnBbwOUgnOCZlGz77SPSuRO6NuxojH5sT9jPdJeLifeKA5SeZgeYpAanEaT3pphkhmXbbyke5cp6Pvjx/M485vK3QtWi2uOGVdulpWf5ZUwVk5XHWs2qGW7QJXvWKDXWP85bqWt1dkriZ0PO007urqce5dvXfrfuVg7cPRJ7qjr8buTOKn62b7vib+fLXFP4yyTw0YUO75gQTKvC6wQnkPAYko69XgOhgBnyEaSBwygLyhZKgS6oU+wMywOuwNH4GvwNMIB2KKJCAXkSmMAMYVcwIziCVgo7D9OHFcCu4N3hRfT8VNlU71gzqY+g2NF7qyvWln6KLoYfo8BmmGHkYyE5apjtmZBWFpZg1mE2d7w17FEcy5g/MXVz/3aZ4IXgs+SX4q/o8CjwU7CQ1ClcIlIoWiBWIl4hUS9ZI3pB5Jz26jlpWWs5WPV6hRfLGdZYeVco7KkBqHuodGpeYnbW2dHN0JfRVijsE7IwPjclPIjGzeYylllWu9YLvb7q7DDsdyZ2aXZNdv7v4er3Y6o1xZke6TrXyGfV38XgVQAt8E+4bMhkWEL0UcimKJrohVirsd757weX9qIl/S5WTrlOlDSek8h5szbbNmjhzKFTx69bjzibn87EKJop5i71OgtKxM98xY+YFKwrnu84E1jLUNF/T/un/RreFtY2TTanNGK2tbcbvA1TMdgtdLOzluZnatdAf1PO7VuHPq7nKffX/V/Z8PiIMZQwMP6R+ZPT440vzk7TOWUe3n3i/SXtaM3X71enzpNeuk+Bv1KZO3TtOkd8EzUe/3fzg4e+hj2qfDn9Pn0r+kfk2eP/Bt7/fIhaAf3j89Fh2WTJe1VxRXxX5xr9Gt8x/pu11pcxegIwKAHVtbmxcHAH8cgNVja2vL5WtrqxVosoGeKZ3Bm7/tbJw1TACcYYIgCL4nVEz4528s/wVkQreBoLbV2AABAABJREFUeF7s/deTHOmyJ4h5iIzUolSW1hIFrRvd6NPqiHvu3p2ZuztGW86O8YEvfKbxn+ALn9ZIs6GRXPLujs3uVbN3rjiqz2kNoKGBQqG0lplVqXVmCLqHV3QWdKPRaKCA7+tOVFVmZGSkxxfx+9z95z8HEENYQFhAWEBYQFhAWEBYQFhAWEBYQFhAWEBYQFhAWEBYQFhAWEBYQFhAWEBYQFhAWEBYQFhAWEBYQFhAWEBYQFhAWEBYQFhAWEBYQFhAWEBYQFhAWEBYQFhAWEBYQFhAWEBYQFhAWEBYQFhAWEBYQFhAWEBYQFhAWEBYQFhAWEBYQFhAWEBYQFhAWEBYQFhAWEBYQFhAWEBYQFhAWEBYQFhAWEBYQFhAWEBYQFhAWEBYQFhAWEBYQFhAWEBYQFhAWEBYQFhAWEBYQFhAWEBYQFhAWEBYQFhAWEBYQFhAWEBYQFhAWEBYQFhAWEBYQFhAWEBYQFhAWEBYQFhAWEBYQFjgLbaA9CZ8d6Nac0mVahgfXihXAqDX/KAb9N1MUNUiuFwFcGsV/L1qqWoFwAJwyYalKDVFdZlvgg3EdxAWEBYQFhAWeNQCBxLkdLOmIlDJSs3w1MqVoLmT6CrHkz3V+E6Pnky3GoVCVClXVUmRdcnjTqg+X0JqDqc1r3dX93qLEshVM+gue0LBlBoJpxSvLy2pSlmWXbqYJMICwgLCAsICb44FDhTIGbWKT8pk2qWddDcUCw2QLjXDzk7UXFgdy69u9hU3Y9HaTjJi5EseV1FXQJENCGhl1eMuqU2hhC/oL+puT0mSEB/DvmKouamq9HWtQlf7PWhtmYLmyCoE/AnJ6y29OadYfBNhAWEBYYG31wIHBuRqhq6oicRo8v7URenSxHvV+O6AeyfTY27tNih3tv1WIiUDpEDFhww6/tQxKOkCA+grKvivhv9hFBPclgmWVAKv5Qa/qb/fVYTBrlVjrHdKPTR4xT3Ye0PqaplVfYGkonnLb+/UEN9cWEBYQFjg4FvgQICcXqu6pEKhS758+y8X/vT5J8pvrp4oTadaXHpRNaAiYSIOAawCbvtRRpCTEdYQyhDadPyNhom/038WbmnisxX8aSAU5iGAzwYM/Vg07R/piYeODt93HRu96u3rnYDOtmkrGNySvQLsDv5UF99AWEBY4G20wGsPciUD02qZXEdhYeED/3/4x/9+8+++/Flr6mZAgQzkEMAMfLgQtGSELvLXZIQxpJXgwLQdDvLmaBj2s+zhSbilDB58zoSq/Qy97sVnw1YNWir6z3vj/lNjU/r5458Hx8d+q/R2z0uaVpBUF+9aDGEBYQFhAWGBA2EBRoLXeCi1Wsjcjp/aunTtdOQ3l86nUzt+PzQiSIUQoPIIXQRuefybAE3Cv5xB+E0Ap+DzFLSkLdirI3Cj//h5zd7CQqirQUpKQ9GT/nS3w1haDejb602HNra6/B/97G/cPd2TlmEkJEURQPcazxdxaMICwgLCAvst8FqDnGkWPBDbHZC+uPFv3f/0zfu7G1uNjV1R2D0chVw2C8HLqwhQBTs8qUJpH8DRV3Tv+560BWOTjnk5AkYCOPb2igh0xt4+ZAjjMx5IqtWFWGNtYTtcvrzYm0+kejs/+Nl/Nt858l9MvZiWVZ9gYYrrSFhAWEBY4ABY4LUFOVOvymYu016bXbgg//HSufVvZzs6tCC0/fI8wIcnARIpgKZvYfuf7qGZSwhSBFpENiFfjjJy9FO2aSc0yMtzBgc1aXvAZ8kEDID0nGWHMl34r4J7LSpbc8tNy//yx7OVRNrvCymbnUPDt0y9tiOL+roDML3FIQoLCAu87RZ4bUFOyhablJsz/5X8T5/9G+lvvxoahw11c3AMoL8N4NfnAHxegMEO2G12QeT/W0MPbNVmVUpIPCGyCbInbZoJ+XgMas6o7YUuOVdHJBTy+kwMVpJ/x8QUoqjUwIcBUQ8U5dFrlWjl2nIgYZX/z+2//OX/Kr176k+mXtqQVW/tbZ9A4vsLCwgLCAu8zhZ4LUGuWisGq0vLh4yr134xefXmiSOwq6gIN+Uclq/dvQ+ptdMQHD8K6uEj0LO8Ce4/LYGxuoh2rthZN8drsxCkKCRJ3h3n5Hiwt/f4wR4eUVjID9TwX5uVKZWh6Pvm62/OZHM5V6cbUkNnz1R0o7qtKprI0b3OM1wcm7CAsMBbbYHXDuSsTCoMt2d+Dp9+/Qv4H/5wtmvrfoMFMUnBXFpPvAqlv8mBNNAJ6r8NAoz1QO0X56Aa24Wdv5fAPbUInbBr00/INyPiiWEDHQ9iVTqDiSo0yMsjCCS/jzw/Zxvia5I/B5DFvB8GMqXuO5sNxaX0mWUw/k8DuXJQ+fhnv8GXd97qGSS+vLCAsICwwGtsgdcK5GpWUYOlzdH0jVu/3Pjm2w86thaiClRkGQOHOhYMUP4sDxswdf0WnOtsA0+LDxq6OkH+6APw5XT05qogFzJ26JE9OmJPEoQ5DMu600XPkrdGsOZk6xwQJMhj9iWFMgn2VJuR6ZJUycgW/Mv3po6Fm1oKh0cGlvRKKaO6vXUkfY1Ptjg0YQFhAWGBt80Crw3IGXpFkhPpNrg6ecb7d1+cDv3h5oAXw5SUU6vYNW2AWTYilsgw9Mfb4FmugoWvyj9/H+DEMJQa0Gtr8ED6PwehdncRuiFug5SMCigSvr9ihyupqo4VUJxh7uXr6l4de3BEQKHt2dOj95JnSPk8kBuW4805uHxmZ2jgI18wvG1Vq1RHJ8KWb9vVI76vsICwwGtvgdcG5KSaHsisbY5V70y8L/1hdhyLvV1uO4BoIpWEvC7VLv0mD8yPheD5hbsw/3kL9EUbIfLBeQgeGgalZEElj480Uk9WU7auiYKBS4Iq8sy4kICbE+wfhE4EZA5K8d/0L/uD+4eEb9fKuiu3vNk0df3m2Uh/33I0EkngNsnX/myLAxQWEBYQFnjLLPBagJxhVDRpKTaoXrl/ovb1RK8G65qGXhPlw4j9yGFFUifh8jSXzYRMQuRvJsDviQBEwqCdOwZwaABxSYJqowabf+eB3M1l6IeVvYAldthBuKOKOAe2nDAl+2lcckCDWZZMVqFtKOhpP1T+fE8ZwbZY9hXuTp3Kd1zLt3R2L1jV8lVJ8wi25Vt2AYmvKywgLPB6W+C1ADm9WGzQpufOVi/f+rj01cq4D7IIVUQaYTEuGgxEDEuaHbbEKgKIQfU/3YBUfwt4Qx4IDvUj43IQgm7UpVT94Gr4Glx/zKA/l7GhisKNpI/igBntg/bLebv9Hp7DxGTgo9Al5flgT9VLNWw/T6pu7jSu3bp7WD02frK5s3UeN4693qdbHJ2wgLCAsMDbZYFXDnJWOtug3587D19ee1/+3cR5FXZCDDG1fR4X59MIjGgwUJmYoyuApc+D+bdfgitdBPjgAmgnj4DW1Q3GX/hAaQlA1a3C6uUp6EjNczGA7Q1y8JJClFxbR/sl/40edfkvZyoQ6YTg1nAxyBqIdwRzaqrkzswvt+3cnTweHBq6bRWLGcnnE50L3q5rSHxbYQFhgdfYAq8U5Eyz7IKp1bHMlVvvSV/cPKfGVoN+KGDaiyBkv0IJeVQEP6xSwlDnwmxbHrfC4u/7M1C9n4X8VhqkdA4a3zsDxkAHSIF3QFZV8LYGwPc/5hESs7iPwh7I1evl6JP408hDpLq6+qDfHZDDNq24IQIkgZ2MJQvVmlRbT4R3Z2YPt8/On27oaFvFzekhhrCAsICwgLDAa2CBVwpyUjLTCjcmLlQ/v/qe+e1CbxhyyJckL4t9q2fRFZ0SAQXLC6oIdpm/QR5mtgBSARvp/DmyLpubAS6egx6fBtJSFtY/x+456CFSUQB5cA69hPJ0XDJAXhx5kB7bqyPiCcGqoSLo6kh9wQfU0Bs0+cgUFSvySmVXcnmtJzM5daFjdHja0qtbkqqJ3NxrMLnFIQgLCAsIC7wykMMwZbg4OXna88cr7/r+8+QJBRKeAAIPQQ91hNs/KCP2OMgjIKL/3OihudEDo5Y76u/KUM0jr9KjQvC982AMRsH0nwbYzkPGXYOO3xXwHVRQkEEopTDk/po4Zm8y4LF/R69X8VcKkWKzHcCOqzj22JkKwrFkSeVYoil1f3Y8fXptJDgycBU3QGFNMYQFhAWEBYQFXrUFXgnI1fSKArOrY4mrt95135w6o0LSi76WTfAgsgkN8pWe3eyOirzr26k2aGUg9c0ElIMSBHMYmvz1BXC1od7lB+dgsIrhyo0SJO5tIGmF/DQSdqY6bqftDoUrqXBhj02JrxBVxT4m+2A4d+cM26FTEIKLVS29tRVOrK91u7K5BtPQ07KC7p8YwgLCAsICwgKv1AKvBOSkYjEEV+98IP/h21/IE4sdfsii6yajB1ez818OjDwL5CyknnC/OAo0oiIJenQuLC1QEejM3+bBmIhDoZSF0C8/BvNEP7jCH0I1FITknQnw/GYSKvMbCGkxfGBhuU1EYZis2Qonsu3vlfEZ3YVHhAfjqvFPw9orNUC2peTGSrxSVba2E8HCxnq0moxH/U2NW3hgKLQphrCAsICwgLDAq7TATw5yViEfyC0uHfFeuv7n+esL424oII2DJbQc4eT94La/DerTDMVFANRZgGvZDCSYxDaWIf6Hr+AEKl/KqIjSGI0CfPwhtPT1AQRbIf3tXaj+cRqBjOQnqS9d0fYjnfo4/jwEXcI2CaEUD0zC4gbJxF8Q6OzjNlBVxVShmi1Kie1YOBLbaW3oGfAIkHuV01p8trCAsICwAFvgJwU500R0mF45Kn129d/Jf331VHd6ASvayG+iwm+XHSYkf+ppXQIed+K4pIA6wLlwX4QvJL+Vgwg6U4Ev8gBfpKCaToN26iToH54B9d0ToA93QPzDQyBfvAuZ25OgfD0PwUQc31tBz46Ox7Cb9lj4my5X7b1bOhJSZDxKAz05E309BD/DKIO7jP0KyjXsJB5rr25s9sN4/i7uSOTlxFUmLCAsICzwii3wk4KcXiuHXBOTP5+8cvWjvvRmAPsI7MEa18FxW5xnBSkftZgj1cXw6JBGOH+mY5nBFszB7G9M6JicAVOpwOD7F0Ft64CRBmRfdgwCDI1AzfUpbP/tVQx4xu3Sb+ZePthsFeOU6MmhB2dScFQH08ItDCao4N9KMZMJ5+PxDsgVGi3LXJYkREQxhAWEBYQFhAVemQV+MpCz0nkv3J56F/7qt7/q/udrQxEoS26kf1h2Jg4B4ztwY+LJo4O9tccN7ujtFBTQFpRhYxY/sy7zcOjeLqj37oCE6T91Beu138EGrG0Icv3t+IhC/lAbrLw3CMkbd8E/vQ3V3QSoyzHcSxlc2ByBBhlLqWp4FCQVXcGSAm4+sKeaIhmFQkhPJHugUMAd24m7J32ZV3bCxQcLCwgLCAu8TRb4SUDOrFVlWNseuX/r9rnoP987ij3e0B9ilX+ieRBAsSDy83tx3+dkMW8Tpb6QYLJ2eR7SpSLE53og3NsF4QunoOHYYYgcGod3W1pBPorlBvcXIT8xCZtXbsDm9DrU5AyWDqCvVqviPioImtQbgTvWEVGF/0Wg1k1VkiSKl2JykDJ4YggLCAsICwgLvEoL/CQgJ2WzDfDHa3/p/9vP/ncarAQaMG9G5dgEOuSDcRUcy2rV1UeebRaHhUkSXU4xN8cHyasjrKHBTXoYRNFpM5ZBurEM2o37uEUDSP/tHLg+vADSu8dB6usAuHAczJOjYGwch9rHJ6GyvALuNLZNLRSgsLUNiUQSPMkKmGX05ArY465Sg2C2Blq1DIaG7EyVZDdtSWkBcs8+hWILYQFhAWGBl2qBlw5yZjGnVecWx7RL1/71zq1FLM2WURyLWJAEcBSm5JY2Dtnkh/hzjxJVnLCmU3NHeENfldqiMh+EFE+qSE7Z+hxDmylsy7O5CN7Th6FjfAz8PT3gHxmFwfYO6Mlg0TgCmVUqgbSyDhubGyBvpiCfyYGZ2IFCMgnFhVWoLG6jAoqrpno9eVC1KqbrRD7upU5dsXNhAWEBYYFnW+Clg5y0Ee9VLt38OfyP1zE4uKNRqI9o/hSk5EwaeW/Pl7qqK1myFBfrnnDwcP9geTB1718q8nYhsBG5hfCngs/XIJxYgtqfYlC+MQ/qsVtgnD0GxoWToPVjRwNs4eNxISD7kSKDGpjQ0wsDFWzZU2JPDjIJSC8vwdZv/gSrtZoFfl9JDQYyoLlRLVqQTp49/cQWwgLCAsICL9cCLxXkjGzab35z64OVG3c/7ITVYARBiHJZBG+UxWIe5PMBHPMnqdCAf9JgiHs0Okh7rzMkuTccCn/tASsRU6hcgFr3IGhl8lD6Kg3z8SRUNlbB190J5dYmcPv9CHYR8AUCEIi2gg//xrwbSPjR4ZAftMYwyAHseODxgCfoN9yhcAa8Huztg4V1YggLCAsICwgLvFILvDSQM8t5SVraGIJLtz+Cb2aPm1BQvJgDo6EjY5GKv/cD3LMSWI5gswNctB8nj8f5OEd38kHdS7augh4c+Y76d5BKcMteIJcKEBtThTTUZqpITElC6vY9KAY94PZ6weXzgcfnhUBzkw12Fkp5UcYtIKMiCublEkhUsfJV8PqCeSUSiYPbjcV5AuNe6cwWHy4sICwgLIAWeGkgZ2SywcrU7DHlyztn5antsAYawgLl3qjEmrp0U8F2fTwL5Fhf8sGtLFuOi8CNgW0/AO4/u+z10WfWG6+iTom9PYc0ad90PGU0SAmU1aJdJydhcLWGGUQdwazqRtGwsBsjkVgqjm6cgd6cyyaIYvAzjmUGpmL5/IGiOxhKgqZhuFKgnLjChAWEBYQFXrUFXgrImZmMok9MHS5/c/0T7YuZTh+UECr89nclRiUBCnlVNB4HbvufY4ByCq75FSdMySDlgBv393bAzjFsvdHqg++1+Y92CQN9QhUFvSRbrpm6zVXwRROBDTwk34V6KjUMqZZQqrlSRBjE76AxsYUCrTKCnaFrIEciRTnkTyoB3y6KNleRXiNcuVc9u8XnCwsIC7z1FngpIAfbsV7r8u2f57+ZONMC295mG+C4To09psfn0OrA9OB5cfrLOc866MHPU8iRySf7naeHG5+a+PkMTPwKvYN9uKodxCwgKSVnSzUrUAtggQOWA8gKvqemg1JECHSj5FgFvT+sl7NqmM+jSji7BzgqXgZcoDT4ixjOTLuDwRQosugn99ZfWsIAwgLCAq+DBX50kKvFNpqlr66/C5/d+Df6lfVRGYvGZJveQVBS3Qsbksa/42M93QwszlXPszFphVmUD9bG1ffjvMehnbCHR34XVefxe51QJWbSMJBZw4dmN92pNAdB6mqGYFML5t5kyO3sgj6zijk4AzQ6DPTsyMujvnJUEm4XiYe8NV9fZzY6OLASaGmJITpybFQMYQFhAWEBYYFXaoEfFeSsZNJXuTd5tvbltV95/mVirA2ySLyndjg0CEIoVUWEExqG/fNB0v/jbfGgV0aqkRwuZJblo+PhsCV3KHBgjT8Xs2gIbdRTXMMwpQZ5BLRayA3KcB+Ezp6EvkNjqEYpw9adu5DLFhHsUqDKZZBc1IbHKWJQ7D3LbU254JGR+eDI0D01FIpLKnZnFUNYQFhAWEBY4JVb4EcDOaNaUmF2aTh/7e4HyZv3znRgp2+XrRzJdWkS+krkydF4FsmEgavucdFfDpg9iVyyf5v9VnUAj0GOQJEDllW7jzjn5Mi/rIWQPTnSC50XzkPHzz+C6Ngo1AxUM0FPbfbyDcjuplCQGTmZCnlvXPZQwy/iCgf0xr6e9fYjh7/2d7TPWapL9JF75dNaHICwgLCAsABb4EcDOWtntxUboZ73/eM379W+nhlUoShrdtMaysIVbdYiAxd383ZAbD/hn1mODgPyURIJ+YDc3JSHQzXZXyPHIPgwjBqUacNndfso6HPy+C/FFIlwQpzKYncUWi6chfa/+HPwnUX9SiwZqCV3IOf1cD85GXN0VByHTiTVyVEHglyzz2rq6spHzp264z557Atoap6VJRczasQQFhAWEBYQFnjlFvhRQM5KJiKJO3dPGN/e/AV8Po8IUXW5IYRfzmV7b6TkT+oiT+oTx0xHHg+DFNfHOV7dg+HJR0sKHgdw9f06dBPqFkdHRZlB8i0tSYPGjg7oPXoEWoeGsQAOFU5Qi7KGOpWx9XXIJ9P2aoA8OSgh1PqRdYLkE9mt1doHemJDhw/fCnd2zEtuL8VjxRAWEBYQFhAWeE0s8MIgZ1YLMtyYOeH5zZWf1/76+jkvrHhlZFNSvotq4dDfQYArfBeqdJiSjj/HTVIZ5Ah0Hs6xcQUba1s+DJL7gZH3W/fg9tNaqAeBbpNfAMu9VTsfl8bfyeVKRsOoVdkF/nfOgHLmCEA0ApaFebtcBsz781C+NwNKIm3zQw0knGDjVzDxK2PhnKWf6Yp5zh6/5h8Zuqr6g4nX5JyKwxAWEBYQFhAW2LPAC4NcPpNp8d6dfG/72p0PrdR2e6/Nm1QwFFix4YmCgpT5csKS+4GJgMgRZN7PoHz07Hwfesrjz6m8V/TNR8ACYHxcBMIyRJoicPj0Ceh9713Uq8QGqqhVWauUILWyCovXrsLS0iJ04ZYS1rJTCQHqS1NTcMsbDWbax8bu9588+am3KbokKZogm4jLSlhAWEBY4DWzwAuBnBVLhqpfXPlQ/ts/nev47M5YBXIu6ram2gqRui3fxQBXr4urgxn5Xs5/dW9uf86NbOVIL+//7ek2JMYj7UXf8w5L+JM8N/LkZEgiuNERZcJe8LeiJuWffwChv/gLcB0/CrVgEGvgUFVzexdKV25C5Q/fQPPUGngKKOZcUKCIAGjVDGtnNFoYO3lsrv3Xv/zPrlPHP4VwcOs1O6/icIQFhAWEBYQF0AI/GOQsC7mFVyaOL1278Z7/3uK5MOQRRTjPRfk3ejgNRX8MSz9KJqnvlRiTzNl0uocTRYVFnFkxhfiTBLfEp9TsTuQSlgd09vdB18nT0Dg8BFaQApIIuthdIL++AUvz85BBsJN0KjmgT0DPlOiU+CVbO9q3Tp07+23oyPhtKRjakRSXUDf5MU6y2IewgLCAsMCPbIEfDHIQizfD19ffb/rDrV/KW1stMqRRdp/u9ejt2AfpZN+YbGjs5cSc43c8Okew6+HvVRdkpj09SFh0cnN1ViXn4khkmagk9DxpU9JfKYjYcIt9Bmz/jpRPJMT22rFhCH1wEQKnjoGEwsuKgqolBkL05hZUvr0O2Yl7ANs74NZpb9QgSINMg89siDakgx9e+Mb90Xu/Vdo6piXNy3URYggLCAsICwgLvHYWeJxk/zMP0irmXbsLi0cL3975VeXmSj9ghwHKfdF/D5d3Owojz9zpYzZgT+xBJ+lJDE16+36FS1ZGIcjjwCW1Z3Xkv/wNERg+dgzaz52FQFsn9jh1Y1kAYCPUDCzen4Sp6zdhFxukkhdni5zY7E7JUoLewtDxI4vHL5y/rPX23pR82DtODGEBYQFhAWGB19YCP8yTW9keNC7fuWB+M9Pthx3UAKESAfKkmCPJgykl1p4H9yTqCIPIftkuBhVunsPUlP2hysf1jXOsy74jVcRRVZ5q18FhP+89kgnDYLHBDy1H+qD5nXPgGT8ECuXhqD8cdviu3rwDiS+/RkblBASwrxxCnw1vBfBh2YC7ZJ04NNf+i48+DR45fEkKBnZf27MqDuzAW8DKZlXI5f1QKqIkTwWVC6pIMcZGvBLqy8kWBinUGmiKDpqrBl63iYQpU2pq/eEMrQNvMfEFhAUeb4HnBrlSrazAP39xInXn/ruurZ1WL5SpNHqPwP84PZJHvbv9h+KwKxkWOYfmaE9yyJJAinyxJ+ukOOUCLNzFmibkwbEcNB2bQnrKNsj5upth6ORR8B4aB7WxEdN4MlSqJagtLcPalW9h49YESBvb4MlQsJMAFu8tPs1oGGzb6bz43tehd87/Tm5qXlBdfsGmFFfVj2YBq1py10olfyWdCZWSyfDipUuR4vp6czGRDJu5fESvVkki3JJkuVpTTFNR1ILkcRc0v6+ohgIVV8BfnPn0NyV/UzQbaGnOegLhAvZCLEtut9BR/dHOktjRQbTAc4OcUsgH4N7sBWli6RRWnXkxu2V7OwxCrOVIsMKsSKcpKfZfewJIsQ/HXcJ5H05vOEeYmZuhPgxyDrCxr0f/0pFQr28SECPviz7bwGf5k3XU0CSZMd+549D0swsgd3eBRWxJHQvDt7cgc+0GZDAXpy9tQCBFaba9fbo8RnGsIz524fzt6Mfv/1bt656U3QEh3XUQZ/trdsxmtaxK2UIDJFNNcOnGoLW6MVZYX+tOb2x17WxvN6R2Yw2FfN5t1mqaUdMlWVJ0nJWmTj17JdmSNcV0aW5L9nsNxecpevyhUmM0mmjp6Eo0dnYtujvaV6y5+QlobNiSmpqyr9nXF4cjLPCTWOC5Qa68s9Psur/wnuv2brMLihKVCrDPwx4bsRoJqEhIizwxR4754W/j5Nqc4Ob+MCSHMHk8XqaLX9sv68UcSpcdnmSgY8Bk6COvToXWo53gu/guSEg2sUIBu+ZNSmVgd3IaYtduQun+ErjXMjb/EuM/eOwauNqC2YaTR6Y6P/nwN55DozdlfyT1k5wZ8SFvtAWsbDqcWVttNyfnT2anZ8ZhZvmd0tJGb34jFqmsJYIFzHtjCQ5K42FsgyhdlkmicvZlwVEJkpfjBaEe8UDZJZkVQzWqPm8t09JUDLS1pn2d7XH50NDllrHRz5NrC9ci0dYULtBEBOKNnlniyz1sgecCOaucl3fu3m12r8UbZFu3n7wldc9rI3/OCTUy/YTDjQ9yW+o0kkfTB/ya006VK+OeNpzecKxKiWFH3Jh8MHqequF4f+TLuaBwpBlaLp6CMBZ+y61RdDrxq1dx64VlyF65Don70wDraXCh2gl5pARw5Z5wreXo6FrTJx/8LnL+1JemLyBUTcQ19EIWQNKWB3Nt7XDt3tnK3YnT+cs3L+5MLXUbUztRSc8jflVkF85kn71g5GVjSSWtVIyRINDZM3rvIqL2TzRkA4PzuKq0ymWlnCxopZ2sP7m02WRFZtuVqem2zNDkycjmmX9sOH36KyudmZYiYSE/90JnUbz5IFnguUAONa1UyGabYCfr9tiw4nTmfpDmT+DEnhy3JWXo2g9Yj5I6nXDlw1m9h9mV+41LhQX0SdQLjjxGiiHSA3t1270PGODwK7qx3c+xEQh99A7IvT1g+tx4UzAhg73i4NptKF+5BdL0JriredsTlajBa9BvQH9nsvPC2bvB9y/8xupom1ckVYgvH6TZ/Rodq2kUJb1cDsH8ymhiZuZd3++v/1elK7dHrImFjmbI4ySl2IOzJNRRONzC8hfKLeO8NjANIOEVsufCyWWeht912MAyFwUb0aumggCIOIivW+WibKUyAWkp40/Prneltja7w6tb455ffvJXxvbmHSx/yb9G5hGHIizw0izwfCCnW2o5Vwj4MxXMxVEQpU7Ld8DJCS/We7rxsXPujLsQ8AW6fzh5tf1izE8mmjifQZc6lQZQZRz1mOM+bzxswgg+qrIfPP0t0H38OASxbAB8AftWImWysHtvEtJXr0FibgWsNDFE+Qiplk7taChExsdm+86evWy1tq/IErLZxBAW+AEWsKoVBeKJLmlx6Qj88cr/cfPGnaO+f5nrKdV2NS+G/Am7KKfMlClW6qHcthcfdIGiCI+d3y7LCHTovFnYEQPduu+y3NSHXtJxVlO7jL3ICZfz0F50qbZTdMcn5/rL6Yynoaab7733ns/a3v5WamsTebofcD7FWw6WBZ4P5Gq6KuXLfnmripQN1jMhFREGBi4CdxiR9BtDhpOrI1KKE0R0ZLwcIGOPsD4cBRN+xiGZOPLNlb1ihTISSXT83KKdc3MygQR9dCz0nAZFBLj2UyfAi9qU0NuHNwjsjIA3A2V+EfJffAP5q7fAjWQTp6KuhoEiqztUajg6uhz+6OJv4cihLy2XJla9B2tevzZHa5Rzai0e63R9cfu/M7689Av5P/zpYhQ23W4ULlfs7C+VvFBXDJY8oPAkVWcS8HnwQc+RIB1dZYmaZl91RT8u4BDt5AoCHV5wGqIgwZlTxMPJAs6PU2ZZtTRoyKsuY3q9azfzp3+1tpnuagXj/26srlxSenoF0L02s0UcyMuwwPOBHIX/Dcxu4+qQIYzFjvd36Hbo//WDfXxe7WFP72lfztnW2ROrYZLfRv/ycTCY0qVOAEd0GLzogx5oHOuDw++dB2l0FCy8teDdAYrYYUC/PQGrdycANpJAvh3dcGx/MuTTw8P98cMXzt7wnTr1FTQ2LikSLqHFEBZ4TgtY5ZKrtrXZn7p++wPP3/3+v5+7cX+oB1bcLJtA0MVXi4qzjzNwJD3HCz+nyS8t7FQbrqgMhuY9/o1eG/UzpLcTyO2/1jjc7sL+h7g3E+XRXR4I9DSghF0vVCpVeW013nzt60unGoLyv3+nVPYU11b+5OsWQPecp1ZsfoAs8Hwgh1xKSVHRD0KsA4MuMztowiQTujxZ2d+pdSM7PEtS5Umij/tr32g/rB7JSYm8zd6kgm9SyHQIJnRjoNsBrYwVKDcGwHu0H1x/9jNQPnkPqk3NgGAFSrkKpdllyHxzBVx35sGTK6HvRoQVIpuELPNQf0z55OJl38cf/Gerr/uGpHpEkv4ATejX6lB3ku3yZ9f/jfkPv/tL+IcvDvVDWaXsMQ0uvGGmJMEaRUZ4yWjYfGAuw2H/LLAXueC8NcqNowdHkQqSHqerjkCS/D8WYqAlIF51yFEpRLyQPtQBrefOYZeNdyC9tQ3wV/+oLd1c6Mj94+d/sbWZbG9SrFRlfemKu6tf1NO9VpNHHMyPZYHnAzm8glRUWHAparVmyA8uIvcAzjkwp8i7DmJOscCjPeP4PQ86S+y98XucEKjjt5EOJv9OFzeN/YoptB9sgtrbCuMXzmOY8j2AtnYwMHFPEAjFPCxOT0Mew5Wl3RyGhDgfSA2BNH8o3zMyMN1y/OinSnfXhAC4H2uavX37qeWz4dKNO0dyX3zz5ws37x85hADHkOV033jYJkzj4gIcjkrwzKQFHXOOKfjIMQu+huweHtSp3qC/nOf4yqBrw4ttpFqOHIbzv/w5wMnjEECxgy0V9xJQIb+TDd29dmfM1x/99YWO1k0rn12UAiHnIn37Tpj4xm+sBZ4P5FzISQx480avp1RZVBBqWMaL4MMBNQq80FqVxZDrw4G2h2W5HHjizgUsokyXNq1QyXNj3Ule57IOpWnX5dGgNS95jXR7oAufQ5USlHtRcPm9MxD6FV7cxw/jXQAveErK09vuz4CMXpyyuALhcga3d+OKWIOd3mA5dPrIQs8vP/oX3/nTfzSbGtff2LMuvthLtYCVyWoomHBS/ecv/tz9//vimAbbAc9ecYuzcMNYA05H8usoTM50LAY1uprqHCea+1l74pq4IKOlmGUvzOiZdfy3ashQ1BAIsebTVca6Tnx30qdBYaAROt85BqH/7tcAZ06BMbMGd65cg8zGpv2pDUXUBytutxa+vfGXZSwgh0jzX+EuYy/VMGLnwgKvwALPB3KY//Z4PAW3x12hqh1aTBLUOR3jfqzjZzlluh1wGYKjqMK5P67Fe9JQ8XiinVFoGBkBGTt+WxhiZc6mAun4NpS/uQxLc7MQ2M7ZR07g6gKX0TXQu9l/4fyVrhMnrlsNjTFkU4pygR/rhL5F+6kaRdWaWx7e/ebKJ2tXb/xsCNJBkiSgeUYlLdwWitZb2vewCjOR94/9He/peTsjjaFJm0xlXxkyhDsaUbruOBz/+SegnTgBtWIJFnDeX7t2HdqxNyKNvU6Oyk4s1nn77p1/ZRwev1JKp3a9kQbhzX2PMyM2OTgWeD6Q01y6GQwnzPZgpnDfZbmhJlG9HK9DWdDLGU8DIt7mwQ41rH5JdW3kran2q0X7smUPjgZfnuw10jOKnZWjSiKsg8ORVjF7MdYJnedPgf/dcwCdnTZFhroJqKhHmfzTZ1D6x99D09SKndGjQFDC02T5httTbR9c+Nr7qw//FgYHbsuqR8h2HZw5/FodqWtuvQ3+6cuPG/9fn/45TN8f9UHCrt2mnC8TTthLo76GNIMpC0eDiSaszuNUy3HQUSZ5cHvOl/YYzE6bqgZ7Pxi50F24fx1iqg8qx3D+f3wBWv/1L8E7PgY17I+4c+k65D/9BpqwFlQ1MBuIjwq2QFTwv5ZY3ueenB8tTdz/VbV3YA53iYk7MYQF3hwLPIsX8sA3ldweM9QQzmrRpg30mFBHj7twM6OL/nN291y7tT/DKRznqjdOwvPDEV12cnN8SASn3FqnPlyNHmgb6IUxXL229A+ApTFRxdJ1qMzOwZ1vr0L8PtbEpYoIcnSMCJ8+V7F7ZHB99MSJmw1dXdPYPkdQqt+c+f2TfhNrczMUvzNxYvHStf86Mz0/joswFxe3cJbsQQWfR700Lrmh7cu4dZ0HwoqwvH39GqPlHgUnsQDcflUCf1sYhsbH4eTFi9B17Igd6t+6dRuufP4FbNxfAKVEzYLxekAhBIv40fhQDFMq7aQD81MzZ3bm5k/osRjRPsUQFnhjLPB8nhx+bSXSmIaBjnhmpCEfnF1vxHJrvMhoVUo5OK7x4YodR9iLox/sqRFFmi9WehetQunhtNWhLTnv5lT6OHZ+kJRCHhiXLhCPktbGlLtDVuVgO7jOnwDPscNghENIs8bjLZXAWFkD/ctLIF29A3I6YX9yHt+jSB0V6f2jM55fvv9795FD38jBcPyNObPii/ykFrBKWRm+ujWq/fbKx56/nzwcgG0EC1Oitk80aIbSoPnK18ODwxE4cFoN898c7aBrif1Aj30dkUYrtwhmddZUYxSUwSiEz49D+ON3wX9yHIxKFbLXbkHy738HhSs3wLcUA68Lr8waidzhlYienOnC/F8Vc+qxsqc0M3uycOv2X0JfN+rbwfJPajzxYcICL9ECzw1yasCfg/6eFbmjKQGzrgiuUmUGNSaMcADF8bCYF8k5Ngoz1lezRB6hC53q2egSplsAXbT880FPkGHzQa+NV7YU7mGtS1ckBJGhfmg6dhSsrg7QUVkTymUoryzD9FeXwH3pKpgbu7hnCnFSCXuj0XK8azP47rkrLWdP/UFqi85LLo9QNXmJk+1N3nU+ueNT7k6eKV2+/wsLdlo0qCCfl4PpNFcdGpYzlx9vC2YLE4HKYRI719N+b45gil6nbYPY+T544Sj4L5wC5d3j4Do8ZLeP2rk3Dfe/+BLyl2+DYc97XD7WnIIFpIdpuLTES0QmZmZFl0q7iXBsbuFsdGVlpJpOrmmRRpGbe5Mn7Fv03Z4b5CRNq8BQz3JttGuh+nm0uwg1j1PTw/4V8Su5fseWIkJjEsDRxc4Kl3vK6XuXvePvOftglibzzB5OsjvnhWuCaARtbme+oQmipw9BKzZCDYyPAoQDmHtA+NzdhdIX30L8t3+E0FeTEKqhV2evY11W4WhnMvjeO/c73n3v997BgTtyIJx+i867+Ko/ogWsTEbK3rzZZWCPRWV6pRcJ+qgBRws6uiK4HMDJozlarHWtH0fmjlsEc37baVLllNBQJSfRpOjaMiEOzXaocvd8G3QeGoG2n78HAVT1kdqa8e24xeQs5H7/Fex+dR2klU3wYU5a9zm9C/iLq1WijuFRSLhExENUkzmtvLDUk5mZfy84fvQmbiKaAv+Ic0Ts6tVZ4PlBTlFMa37hXmRs+LK7fXLc2Mp2o9CQrWNJhaxOqJHAh34negddukSYdkIs9HWdcA0TVBwv0DEEP/s49cr6TYJ+I+8QE/MDnRA9ewaip06D0t6Kag+4bi4WILu4BAkM1ZTvzkC4tg2oYmkn75ERWm44dGg+cvHdP3mHByfkQDD56k6B+OQDb4Fs3lNa3ugzFzaHPdhjEQOJ2B+AC7a/E1He+5L1v5057kQtuPCGBi/wnLIC8uUowE7Pu/E/PzS+cwgCA90QPD0MwSNj4D4yjK2jglBNJSG5uAzJb76F2FfXQJ9ZBx8yKyUVCxY03KMNarh3bHMslRBI8Sd9EKk6uCsVqba944svLJ4JrG92W9lCUgr5hdLPgZ+c4gs8N8jZJmtuXm48ceSacvr2zxL/tNOG0KZRbo6bljqalQRy1neMMEeu6OECgDqQ1aMj/BzfDpxCcAY93jd1CaDbQBZZld72Bmyfcwwi750D72Af1oGj4l8+DzUkmux8fQVS9+6BGs/gu734XgWyQX+tbbhrI3rx3OehU0e+UBoiW7LiNC8RE0JY4AdYIJmKVNc2+o3NZASrLhG1aLnH+TT2zmgx9iDRhHwyJ0PH85ylvXiRSMFNzjNX8JFHzRMXPkonu6AbiVXtP38HXMNDtuABhIM43zFCcW0CancmIXvvPsSwbVRuehU0JFhZGLo00YvT20LQ0NIMUtAH2UwOaotbIJURPkt43aF+kZtEnuMZd2ZldSA3P3cGhgYW8VDowhFDWOBAW+AHgRz2o8qUNzcm5LNH75fmN0bL0/lOLFCVynhpYvjSvpxpfUokFPbg9o96fu1xnhptuf8dXG7uDKa2fCfA3OyH9mNjEL14AXz4EzAvp2OPuPLSMiT+9BVsfPE1SnetQlAnASRsn0PEsu7GVMf504vB985+qfa0z8huUS5woGfw63Dwu+motbbdZy6nmpHQLzviXJyrJqCj5R6VcNdLLzX0yRwtE5ZfJmkFljagkLphl34H8G8UDD/RDT4UBTPPjoE8OgbSCZzrfj/WvxUgt70BcP0+pL69DbVvJ6F2G8ENxZ+9eOURbJYpSun3QGR0BI68cxaszjaI4QIwaXwNqbVtkBCLSZlVqxKk6nJufas1NTv7Se34kW8EyL0Ok0scw4ta4AeBHH2ou7EpDudPXdJWVvvKa6mQUYiFiBtJOumsgU6r0UfT7Pvr5x5XS+eQVpzXOGzj+HZ006CaILoh4G+H+6Dzg/PQfvIYSC3YCLVWg/LqGmxfugSxTz9DL24OmvWsXS5ArE2UuK1Gjhxa6Xn/3S/l3r55S/MUXtSA4v1vtwWsYkGFf/i0W9pMUMlAgIClruLjdPGmnBzRqZxXKUfNTP2yvfiy8CfVehIQYrvUdi+YYXy9JQKhnlYkU42BD4XBoL8Pn8PqOOq9MzEDMDkDmcVFqNyehtRddLy243ZA3mPnABkyS9RjDhtjNWCUo/ejDwD6+qFtcBCWcxXI6FcBe9wx/9NeAaL/mcH+c0uLx1KLS8eQgDKLBBQhivB2T/ED/+1/MMhJHk/V2ohdVVPvNge3dxv0f6mcxWYgbmqmU8XLq7hHNHEAyrGU3R0Ax8MAx7V2HN6hTMb+MCVx0+pte7BIXPNYkb6WkufD81n143e8Zl9X2HLjV1nZgPRlJJr88XOwPr2D6fks3kqqdk6jAF6rsbMloV04f9k6feozCEXWZAV51GIIC7yABfTdlKYurA95Z3bQvSpqmk2xcjLNDshRMQAXzFiAIIWjiF4ahd0z+LfVF4YqynApXS2gtDUBNATBQvKURIDW0YbKPW0AmHOzdITRQga8VxcghlEKz2/vgntuG5d9SC5BnghLlVOIE7sQ2OU6dB35kf+MIU8UFoPmRoDWTlBDAehA3dYZDFuWUmkwdrIot06BUVwGFqqu2spGR2p25oLnzPFPcYeCgPIC80O89dVb4AeDnH3oDZGNrhPHLsuL291rO7lw4VppVIYckpOZT1bvb+XkJlgX5VljP8DVt+VqIbxsDbMvstF94fhU88V3Pw0MD84rmuffVbK5vyxMT6mbCHLb92ehCTMZql0mywBpRkP5rnNH1kInTl6SW1vnbJaoGMICL2iB9Oa2FppZPGLN77aji4VcRdIAosAkFWlTBSl7VRQ8pH4BWLqCW3ih1hmGEAKab7wH3L1dAEiegi4Es6Ywth1ANiW1hcIO9ljMCVBAfQIs5pbWdwA7fGNYcgFWb9yD8NyqHddQ7Y6KFN1wgI2rVe3ZX8MrBtmV1RwGLeiBW6leH4TGRqENH1voDZZ386CjLJjdhRFT4eVUWtteXB7W1jbwgATIveAUEW9/xRZ4IZCTfO5KrVK5L//q3S9qcjVq+nVJ/rw6ZkJOpT4BLGfEwRtHoNkBOW65Wh+OcLMjzrz/Pax9gkQTt9fytfiT0ocn77l/9fPfek4d+ScrHFbMVPZvq9Oz7xe+uNxmoQitf3oJPy+L73FhkAjzdBCoVE4MrDRgCx3p8PhlK+ATq9NXPPHelI8vb2x4fPdX2kMQ8xVwjuawrKWAj3xzCHEKmbxFBDlsclpqD4ILPahafxeEGhug2tsBcns7uPt6wBWNgtyE+TdKZutI2CphAUIO5+8W6iXHUbzg5n0o3L0PwSvL4F7YQbjMwRAu4rAlsJ3/zuD1QTpBTm9FWthRMJQiGD5kVFYyOhjJPFg7aVwiYiwF2cfYFRz8R49A4OYt7EiQADlTtiFSy2AcppR1V1fXByvzi4ettbUFqbtbyNy9KRP2LfweLwRyZC+X212yEunrAx8Yrp5yrbyVKivbdxYGkPLlfhjInmZfpzZu/zb1WCIHgCSfUh0YH443/+LnXwbeOf+Z5A2lconEierde6fnv/lW2b3OdUGsmeK0pMR2qM2BXP/Rw3exluhTDAXtIKVahCnfwsn+Mr6yTnksw6zghWQheUTyoacWOdML6tFecPkCdl838KAiEIUhm/FBebUGDENG8YEeFSC9H1B2DpJIZMxnoBLfhfTaFqTW16G0Fbf/RhCF9P0t6Kgk7K8QsjVPyDPkwD6L6tUH9yzgEhy7gQ+KMqe3tmBtchKiJ49gPj0Kls8LvaPDEMJWPKW1TajsIAgW8vY7raouZVPJUGpl5V3Y3b2GTxLTUgxhgQNpgRcGOfrWUlMkXiyX/qiE3AmpyVsp/e7Li8o/3ztWQ+0+N642GXDqFXFsKf7b8eCcfJxjRXqV/TcWrKW6OyOsGZGe9lSguSkuFXISLK2crc3MfZz+/PLF2pU7QdfCiqWaMaz+ofd48VbghWw0Wmk7MbIOH134Zzg8fE1yucSq9EBO1dfzoH3NzTVk7K6nb/v1XHNQ6/z1SfD++UdQPXcEWY0IchLSG6keTUNAQ7CzsG2qLXWA8lqQTIKEVH9YXMN8MjbOWUPprZkVcF1ZxYwdvgZpXK4V0B9jOVVSQqGh24s4UlOhfdFf3D+caC22M2hvRX0ODMzIYSwFGZTFmVXY8n4DnhMnoeVcGCyvBnJfO0TeOYOfi7J36DFqCwV7gahCWarF0hFrfvFnsLj8hVUpLktun6iZez2noDiqZ1jgRwE5+gyfx5u38vm7XR9Z0GW5jN2UqcxemhgxIOPFhPazE3FPOFCqtmNRWrz8ylXX8sJSa+33n57VXfJobivRG9/aPqZNr/Vr80m3B3Mi/IUIOm02pdnY2pQ6cvTYvHbkCEqehHgpLIawwI9kgcbmprza2rJYA1/Sagy0ekZHJDh+FLT+Hq59sRURUPcnh70Lt0t2R7gy/i2jl7aysARwew5SC0j7X4qDtpLHfB1VxZVt4S6/HXB34zym3yi3RzhTV55zShKcrgUPfyXuskjcYixqqFRgbWUVjHlkHI8jU9PTAJqC/ee6e6Gjrw82QndwK6KecH1qrVJV4rF44/rS0vHmZOpP+FT6RzKZ2I2wwE9qgR8N5OiopUAga9ZK16xIaKfS3jSXOtL6Z7XPrl2oZQpNDfGUXTLktUGLLl4uliUCM90L2JOrdzFgT44GhWWYlh3eLquZ7ek+dXL13xt6repJVjxdUHEj/GHQh7e27BycC/1HrDPqbkhb75645fnlB79VurvnJEkRenw/6fR68z/Mdexwxfq//Yc7mVOts9Jmqsl9Ywb5JqiE/LUfJzdymzC/BqkcwFYKpCx2oi8gNaWA0Y0buzBU3kEDYZ0b4Gv4L3cEp0EQx22EKU9W2deOh1+vS+Nxc2LuBUJkF6Kc0LWg7b2HpNNp0gdjFVDNNNTmlkFKIpuysRGr4hACW1vBhS15lIE7mJtLg7aVB79RAE+qqMLyalN+cvLdwMrqX+Mu0m/+2RTf8E20wI8Kcvbl5/JWrHJpof3C+Uo0HNmthlqq07fvjtYuz3QVCrkgpshJC93mm5H+HqlBMDhxA0jH5XNEj7iFD7+OP1GUyHBV4xmV8n14K8DOISyDW7/4ecWLmbhi11D/Uujcmc+0sZErpiSLMOWbOINfh+802L8Y6O+6k5zcOrbxDzfCtdUl2AnjvK5ibVwRC71zZQjMYc7LDh/agXdo2YMwKtomwj9fAzUbmrjHHC3uqOvAk8vUnuTB0b7qbbD2DIQZw2q+AnGspZOwO3itD9mcSA9DEha0oycn9fXC8tQc1BDkaOCnS5V8WdlYW20szs72W/HYohRtFdfQ6zDfxDE8lwV+dJCzLzCPV0ePbsUVDOSV3s611uXz3YVrty5s3Z+8IE/OHyokM8HGdVnGVSaGF4nqzJLOXAvnlB/QxU4rVoI3rqFT7YJaykwYqPDu1NLRe2gvxOT04qrXYxW7Qnn15MidwY9/9nnDxXN/grbmJUUWNXHPNTPExt/fAiMDW8bpQ1f8t+d+4V+YDKs3NhHEKI9MnEeqmyOeI0MHq1lSJIMrRmkbahrFIOdQRhzSFGel92ta0nacg6PsGQcXyVPj5aEj7MyHTp4heXJ0XVHAs4o6lsXVVShM3gdtfADklhZb19Ld3QFB9OZgehaqiTRAjPKAKAedKGrG0lZH6frdCzAyTi145r+/UcSWwgKvhwVeCsjZF5jLS+i0a1QL2Wh7dMHqaF+PHhtfNC7d/GR+anoQpNm+yloKFWCLpK63F6rhi5wBjy9a53Kln1xxxJc5JdhJ6d1p77On+2e6G8Op6PGxlcjP37/UffG9z6UeDFO63cx+EUNY4CVYQBofqmb+l/9tCou215SFWex1U0QficTKyfEhMOMaOVam5OFEH0jQq87oqAvaObWi9D6HLcy0kjqJyxF7plwaL/nodaebAXfx4OpS9gsJGnO7SVhEbcvW2DlowJClorjAGw5De38vbHV2QHV6AazYrr01Xm9yNVH0pdfWz+iLy3etUnFF8vpEO6qXMIfELl+eBV4ayDmHrGh+iiXu4gVS1rp64tLA4Hx1cXGodOPuyaV7UyeLCyuDtXjKLydLilqpYfixZhfQsnfGYRwCN7roeMWKiXtwY/WPYlVlrDtXUOEhrFpS2Fd29bRthw4dmug4f+Za8Pzpz9TOrnm8KJmaJoawwEu0gDXUvWGNdE/lP2t+B2AzqGAKi5dkBDEsSkCD2uVwIyqW9SLyiBOi55/kezmdCEjYmfst8k+nwbDzRZzroy62sP8rEsjRO+kid9v+nw7u7SSWI0xDeHoGJKzTg2YktiDjU+nqBu/ICChT02AsbNtREy8yO6W04q2sbB4qTE1/7P/Z+c9wV6Kx8EucR2LXP74FXjrIfXc5en0U7M+blfxOU2f7tNnTP+MfG5sv3574MLGw1FHcioWruwk/pIuqK1F1WdxCHAUYmFGGgGdg8MVQfaqudkQqnqCvbPm9VcWrVY2GsO6LNqX8g4PT7mOHLgeGBm+gqskihk2FB/fjzxmxx8dYwB1tzLp72hernU2ZykYcaweocIBJIUyxZEUS7qdYl7AjUGPaCD8YFPd3LOBwPT2YNUXQ+aDoOQUs670Xnf04AMhLRbrQaU9qGjuGb27Dxr0piI6MgRqOgKF4QGlqgobhYch3d0GpAcviUhkbbnWoqfmt3cjW9Nyh4NoaKaAIkBNXwIGywE8Gco5VZHcgp5t6XsGf3vbWmDU2PB/c2mjOb261Fnd2GivZrA8KJU+tUvMYVd1VRRKlXq2piizrStBXCAaD2UBrayoUjmRRXR2vT09VCQVKnnAoqTa3rEFLdBZ8vgTKdjlslAN1QsTBHkwLeHv6y9Zf/c2MNRJd0zfW2lygYv8m7A9uxyPIo+JMnNNyak/e4Dsvjr/1oxoF7ME9DGr7c3gslUchUQ5V7g9+Uk6O/2b/0ASvjiqaW0nsHH4fYAzzcAhqGM5H+mUAfCMD0HBoFEro5ZULVYhUS5Qvl1xbBU8KF6LG/ekRa3tzUWrrYHaKGMICB8ACPznIkU1U2e7fRo1Kk0atvBAY6fN48vlgLZcLG6WS1yhXfAhwmlU11Fq1EjR1Q6V6WtXrqbiDwaQWCae8fl/O8rgqIMuGpKo1yaWWLNVdkhW3UE0/ABPvjTzE9tZZq7ftDlaNHkIQi7DHxqQoUq3kXuHOJfd8paP74e/RdzKEOmXgddtyOIQ4zBS2pJ8+yndji54ENhSOT0xA04nj4MacnIzS0v6OdogiyOVv9UBxawdlxTjQiqLTamU90ZCcnh2Fk6du4m4EyL2RE/jN/FKvBOT2m1JxeSikSI+kWSsrkmGi7CWq+NHi17BwIWniw8KlLEYrFaxzc7nKlqoQuFVkVRN1b2/mvDyY36q1JQYD3TfNoab3y/PBEIIR6v87Xhfn1Bywej6Ie7o5WNyLG1yxzit7fs6ncQ0eAx6HLfGy2UxBHMWZFSoOb2sFBfU0NZT68mApQWp0COLYYby0RQQUEpk2JT1ecOcXl4/BwvIdK59dkwIhQUA5mLP0rTvqVw5y+y0uuzwEWiKP9tZNwzfkC7c2FZXx4Xvuw31T+vzKIKr9eEiagD04pxaOvys3U91fGfr8NqgTVgjgnAIcRxCP83pcbODQV6hInOr0dAgnilCZWoEElhOERgZBC2KRAYUt21uxM8IYeLGTR+02dg/HEgc/bl+BvFZeXT9Wnpq+oJw/fRl3LdSDnv+UiXe8Ags83Lb7FRyC+EhhgTfDAlJr1ELAmI0eHbsqQ1u8hCxgrv5kgQKnnbBTJsN/07ru4ccPswfT/h/N61G+jiCv7tmxDENhKQmbVBuH8mJSPo9KC+gRYujSjwSUVhRvVvsaEdxYFoyyBbXdVPva1MyFzPp66w87QvEuYYGf3gIC5H56m4tPfJMt0NWZVE4dvlH91fBMDkJVKvamB7IU7Qe3nCJviv+zQ4d2GQE1pao3XH2ciRyCCYUQHx70GnttBHQOO5Or45jy4jRw5Xd6qbTAykFtagGqtybBRCUU6oYgeb0o8dULwdMnwHdsFMrYRIiCoaQuFF7K+rO37w/lZmb69a0NVosWQ1jgNbeAALnX/ASJwztYFnA1Rizo7r6vjQ9d1ZoaEwgP6B+RcJcjX0e+HbdVdQSWf4xvuL/R8H4dWPLB6p4cfdL+vKAM+c0EbN6bhsTyCtTyRRuCA1hW0HPoEAydPgVBbOTKtX1uAmIlPRPzr87PD5iJFPYNEkNY4PW3gAC51/8ciSM8aBboaI1Vjo99VjzVM6FDCPtyBxAmPOhTUSthkvoirR7mTBEhxKmmcyBoLzxov+6oltCFymwszrFx5RzLePG/vBcuHH90kEyXhsDKRQZEh+HPD6JwtHFrDkqTWAQe2wKzVoWqhrm5nl6wLpwG5egIahI1Ip3Si9LnFcltJr3FmYWTsLTaY+Yy4v5x0ObmW3i8YpK+hSddfOWXawGps9XydXbca+3quIO9uSscRHRo/qwpWQ8pvtxjcfbO3t3+InOuylPQw8ysJmFuZgaSq2soKF1mrib2vvN3dUH/0BD4sKt5FXWG9rofyLHNrbHM3MypSiaFrRbEEBZ4vS0gQO71Pj/i6A6oBaojXYnisaFL5Wj3ehJ8JpWBe+wMGSmcPN9lxwBl2kLm9GCP7vv3MOVidAo6GnYujh7s9Uk2c9JdTUFtcg6MySmQUilbm0V2YRaupQ0slPqqHuqARGtoD5pdLv/S9nDxxr33zcXljgN6esRhv0UWeL6r7S0yjPiqwgIvYoFQb4/eNTQwERnvuoSghjVlVFb2oOPD3t2rHVxXZ0I+k0W5rxjo6TQYBnd49CAJpae3B4aGh8AfprY/diBUrpYr3qXFxdGV1ZWhwva659V+A/HpwgJPt4AAOTFDhAVelgVGB9YqFw9f2R1u28K+GYgQ5MWRP+f7jojCXQbILyP5ZPLT9ncicLoqOm1S+UDZs3Nq7fj3h4ezDT1fV8Yk9RKbKWlvXm/Pg15mLIuNQRbBwCJwOUuCJriNVwO5uxNCx08C9A98xwFtTGU91uRyb/ne1BlpfavNKuZfNVa/rDMo9vsGWECA3BtwEsVXeD0tII0M19Sx4Rutg91zmIczqVEwNvP9LlzJrXJIfPxxVJH6d3r4dQawOgA+HuAcoWZ+1WnL8yD4sUqK3eEjU4b42iYszcxBMh7Dp/E1GbemkoKuTgijgLMDtQjLSjWb9S7PzR/Nz84et3KoNyuGsMBragEBcq/piRGH9WZYQB/qW60eHbpSgfZyGryWZstkOcQTIoJQtI/KC6itDrfWocGe2oNAxYzKx3tuz7KWsy9madbzeVzQgMLNZhWsmS1I35lEpuUcQDpnb2Vp6Pe1t4De0wbFpkbUcAmgJ1jDfeTcxt25E8Wvrv1aX1zqMYtp4c096ySI11+JBQTIvRKziw99WyygtrakosND97zQsY2CqzZMKd/VzfHlxzVuToudx1+S+9vxcF8CAsrHb8vCXk6hueP1MXw6cmIMpHUYpUCpWczB7uIaoBAzWHEUaKbjws7haksT9KLUV3SsBww/5RGJAAOqsZJuXZ+YOrk2O3ekkE4H35ZzKr7nwbKAALmDdb7E0R4wC6j9vYZnfGgC/vXwrRSEa6wwSb4c5eKoto36Ezy+tu3hr1rvOcftdbgr3ZMHK1Yy2DkF4k6XcGZb1kOl3EEc6/c2ElC7Nw/6DPaUK2CeDt+gonhz2+HD0Do+CnpDwPY4JeRoeqpld3FutXf37uSZ2tJ6t5XNChWUAzY/34bDFSD3Npxl8R1fqQWkrs5lODl2Uxpu3i1DERVQqDqNisMpPGlTPOzBpP4nDyeftj+v9n3eVw+BUsUefwb7lM4r7O0RdCnob2ZnV2B9YhLSmxsgmVis7tYggMLNLT09AGECOS5HR76lasSSgZ2ZuSO56bnjZkZ4c690ookPf6wFBMiJiSEs8JItIPf1luDoyLfSsb6ZCvhNakVKCihEQnG6gO9nSz7pcDisWR9c/8ag5TRL3S/v9bSvxRopTqiUt6RAqoqSzNX5bYjdQ5CbxtxcBoWbZYRjnx/cHZ3oyYXxU4mjSblFkFBFxVVaXhsp3L73QXVltb9Wyj9Ycf6SbSt2LyzwLAsIkHuWhcTrwgI/hgWG+yb8J8f/pEFrqbxHNOFeAEwFeRzR5OGPdUoBnOf3e2OOB1j3zZ5+0I4sGG21/z3UikfNpCE3twjZCeweHtuxIRTQm7O6O8CFveckLBenkCt1HcfCcpe6mm5LTkydis/MHi2nkyI392PMF7GPH80CAuR+NFOKHQkLPMUCbS270ePjV31D/ctZ0DAISAXXboQ40hfhgoCHQYxzcE8eTinBD6E18uftr8mTqGf4nleoQzmWgtzsAliLK2DoWMiuoIPW2Q6R/l5QWgN2HpEGHqMkZ6vu7OJG28b9qbHc6lobNlUV3py4GF4bCwiQe21OhTiQN9kCUrTZMg8hAeWDI9fSzZFCGdUgWU2Syge4AQ8/CGqIKFIv4X7YLk4jVA45cshyP2vyaXYk9OFO4vx5jgdJeUHdzthVcX8V0GJ5MJFpmZudhzKWE1CPcyvaApHDh8DT0wyVoGvv/SQ/XVVdq+mG3PT80cLM3Ahk0qE3+VyK73awLCBA7mCdL3G0B9gCnuaWOJw7ctdzpGMJO7chrhBAeTBoGUB4YWLifnWS/Z7dw88/aAan6eqDzz7oGRK8MaPzYd3Lep6Pi8Ptpq5mDQrbu7CJDVWzMew1h8XhEnYP78Fmqi3Ybw4aSQGT+5EjUEoWVNRcbKc9v7J+GFIZ0VT1gM1Tq1aTnMcBO/RnHu6j3Ref+RaxgbCAsMAPsYAUiRjWremvjI25Xvh8oa8AuZAbIYd4iuRHGd+14KGSAm6hs384YOSEJ9n/oyY65BXqtif2oAAYv5tLCfhd1G6HmrdK34Gqk5Or+5K0nQolUOZ2odA3D57FBTtUCRE/eHo7QTs8CpXFRaitbNkep2I3ezU1b7LY6o9nR5Gs0mnqpXlZ9eo/xE7iPT+NBQyUY5PKumJVKz59a9sLholVKbKkb2wakttbk7xaSVJV7K/k/v5q4D/NoT/XpwiQey5ziY2FBV7QAp1t06MnT3yljl//KHV/5igChOy2SwmYsUg9wx8W+XIyc/tBbn9ZwA89osczMfnzKZCqI3gltnagvDAHfUePIMgFwePzgtbYCKqHcol0FFyth6As1SpVdzmbixqFYqulG+Q6CpD7oSfnR36fVdMxFm3i2qXqM8qloJLcCZWu325wJVJtGI5uL+TzYUPH1oeqWnD7vKa3qbGktUXX1JbGLSsZT6C8W6GmenKay3XgAE+A3I88mcTuhAWeZgEpGikU15ZvqJ+cuL1WzPR1L6+gvj+BBYGc3/bfiALCzVI5d0bP7Ac+5y7zIrkGzubVx36SC30qwa6LyglWd8DEhqpwcgWgDzvrKBJUPDKU3TLKTGs2/YTavpI0mFmsaka20Gjmy02yIdG9pSJmw6u3gFksKrAWj0B8ZwjuLw8qSytn4e7cgHd5ewDuJJsDkNM0KGLImRc3GrgtaG6owOmuBAx1zcJI3y0Y7L3qGu5eRiWcpNUYScuq68AsYATIvfo5KI7gLbOAt7l5G44fnWicmD1jLS8FTShjJZofgYW8owo+qEHp00WbX7bJONeGGijZKqTXtyGP3Qm0i6fApSDhRHUh2ZJ9OAqyclNYhFzDki0TW+dJkirL0g8hfb7sr/XW7L9iGZJi6G49kw7sTEx0G1fvfbAyM3fRc2ehJ7OTbuuc3oiYUPFHoIJzr45X6MfbEy+/u2kWfrcctr4ONZdOtvWEu9pPW6dGJ/uHRuarxw5ds5LpHSscyIAsV2VJfrWT9RlnVYDcWzPtxRd9XSwgeQMV6+7U1dTa2CHp6+UeVU8EfQgoCoKciWBXs0OWxHKkn4/2KHBydbzy5twdUU+eNPZ7aeR1Pa0wgV6nPVKmkGBMxuPQsM9ceW4BAju7AD4f6DtJ0PLF7/KGvB0WRfiUqhHypqWANyEp6oELa70u8+NFj8MqF1ywsdEGU4vHlC+uvd/w7Z1T8IepYxrshk1IuXpwFYJeOvaYoFpHjhiwnqrdFQMZUQUIgqZUoOiTCgmv+vV6BLcYN/6XKx96Iu0F96+PrMP48JfS2cNfQ0/XlJXOJsDnzkqa+7X07gTIveiMEu8XFvghFmhtnuwdG/vSe/zO6eKNxDHMf8kevOWQjoiJD8NeXb8YTuyHR/r9+xaK09fhfB0v0PUienO7u9CwkwBFy8La8jI2Wc1juNLpiGDv2dJ87orfF8irbk1Hh+C1Xt3/kFN2EN6j14p+Y32jP37p2unY19/+2v/HO+/UZmPRVkBiCc4n0tmhwQLfdN5ontGZ5sIVGYp7oXLagsAP3XIwPbTcKkPCt5vOBVf/IeMN3LwfKi9M9XeODE5Kp8buBvv75q10Km4F/BjK1CgU8doMAXKvzakQB/I2WcBqCKTg+PBN+dTg/cyNzeEAJPzcYltF38mFNxzXHv+Rnns82DkF3d8XvOimRgxMZBc80dRcN2cHH+2bnYp+ZWC3AKXpBcj946egYlF44eoENMwlnUycnZOTIGDIna1xebhnFqJNyzUXdUMX46eygGHqspzMtMHViXH47NInjf/5i4vKjfkjfoiFkX2Lp5VL/ZEza8OZQxpiT47KSkh1h5714k9su2T7dRRToMpJLj1BH54iDEpvsRSRZtZC1ZnFNg+EL8qfDK67sEEwHBm9JQ0NXLemF5ahObxr+b15061WVPnVsjMFyP1Us1B8jrDAPgvImteqJWOrysjAvHZialO/nRg0MITEMskUOqK6OQ5C7rEXn2i/7+cy0Y3Naenz5FPhdLNj4gtl5RAUMS+3u7AG27/7I3YlwCObXAGlUrKPyylkd4O3Eu7tiUfGRu5Cc9OqJh8cYsKbMDFruVyDNHn/RPyzrz6p/P7bi6Eb9w9pkA34EeBqOI84y0s6O46gG3tyzOblGcZZVpolpKnKixwGRCYpcc8MDwbVFXsnVSg0WBjaTP0xH0zeXOipnJjp0Ib6hrWRvgVtqHvO29u5YnS3rVrldEHX3DmX7H0lCx8Bcm/CDBff4UBaQAqG8nBk8F7lRO+0cnu1swYpH62nCVjolkM3JFY3Ie+rXjf3tCDms8KSVftWxeXgRC15XFdyDmMxd5P+dVklsLbKUKM8XBnfVcvZe3DZr5qQBa/hOdURixw9NOEb7p8ygwFM3onxU1nAyuQb9cmpM+Zvv/4A8GHemh+WIB6g1u5F+wxRm1vuMUheGuXiaEaxLJyjwFZX2dl/3LzYIZIseYA0G007EkAcTH6nhVIGNX81lfDJn+UC8mdLo3JPJK32Nu66eztLMNo7Db09E2pPx21rEpW/2yK74PHkJX/gJwM8AXI/1UwUnyMs8JAFVJfXtCam73rH+u6pvZMnYCXlxbU2CYjY8FKX3npyQJJuOrTa5pU3MyI5x1InNzpAxit5W8/E3rcz9tMgH/yd+xQ47Dstx7dKh+ZiN1qlm2bUk28e7ttuOzQyozW3rCtu72uVk3mTJ55pVDxYDnBo+5tvT5W/uHpOurUwqEICAS6HJQFU+s+ycaiw851vzvPBabzLYUqeO4+PCdCyiCGScsUUwqQCE9ojhTFdSJWiUCap3oDPhJyvtpoLm6sbPemvFiu1/vs9Vn/L4eJo17FAd/d69XDPdHNb+2pue23NHw5nJM2flxTl+wUjfuCJFCD3Aw0n3iYs8KNYoLVp3XVo+I77aO/71ZVtlBUpqFRIgCw3e/XtQNJ+8OFbkqNU4jAwaQvnRsXhp/0whu1Q8T8qNufbG4Pi0+4ttGLn19k75HAVDQpqkadHXiHuz7I6m7L+scFpX2/XAgR9mR/FLmInz7SAWSupsBPvhEvXT5u/v/xJ/tLcERekgzg7ZAIiEhnw751DLvGn+UF5NYcwROo3FBZnn4w8fGfUtVPr84VVc2gGlfFfzY418KtYUmKH2QlONPzLkrBuEsOkRS8s5btrS2tR6U+zQ2ZvpACHO9Zdne1pGB+8LfX3TMFg311rA2m74UACWbkvhZ0pQO6ZU0lsICzw8iwgRVsKxYl7096h3ukMzBzWIdPgxpsIA8l+EKqXfjvhSsfTc25ZDEj0KtNGnEHbcekArcYZHJ9VxObAG98Y68FN/gz+HN2+0Xmq3u62HReGKSHasoQr89LLs5bY834LSOViKD47O+S+dO2c9Yfpoy5INQKydKl2EQs/7HngtaXiCNg4tPzweefO8Uw12j/fHPFvjgpw+LzetYI9eBrWnmfHJQjUVYOC7dRESrb9PtwCP7iKybiYV1/ZtkorW90l8NXSx6cOefs6FqunR277h/onYLh3Wl/f3JTD4awc9Od/zDMtQO7HtKbYl7DAD7CApzW6AsOD0/rZzo3KtXjID9R4lMJIvFJmUKFRz5MR7Dg3LAcKnZvQw7V1DIa0hmdlEiaM1329xwOe4+09+ir7cTLkQbWC/c2pyNjgPW2w9y4EA6jkLMZPYQHDqGowNd+fvnTjRPXO9BETkiETavZJ44UMZ9Iq39W/8Rww9rw1VqpxogE8y/Zr4LC3T89SaJJnmDPPCAA5TE5b0KxiSgpq4djbM4GFfiMPjz6JIJCe1yUMd6o1SKi1O7le685ya3lyoU/rbb0gHx1clocGpiWcR9bE7Bw0RratUAABz/fCoUwBcj/FjBSfISzwFAsYkXBGHR28rx8bvG9dW+1VYAdVUIgI4OTmndom9uHoBuTcpPbffPh3Xo8/nMWjvRF5pfadR+fwKB++hzD7jrOCHAJ1WJ7OTdC1x74rtnqK0fGB1abjR25qvR1TUiCCPXnE+CksYJUKIbg5eU7//Na7xXtr3TIU3ORds7dOvzH0UHKUaCJUlMJzx1m0cC6OBzMoaQuHcMTPM8vySfJx9eUPfS55i9ysiarrHC4m9Uvk2crDtzenw1BCEcysqzYfD8jzs0PlP86cLA+2p8zjPTPmof5L8ujAVWmkZ9pY3UiY0XDe5Qn84FCmALmfYkaKzxAWeIoFXJrbsmZWptzjgxPKoXun9KlVvwl5lFsigHE4bPUg44P5uUd3vL/FDt90HFpBXRXzyYfjeI51/5G2dUS86HfK4+Dt0dD6u7a6Tx+/Ex0fv61EmgWj8iea5Wat6iotzKFU18138nOr41UoYXc/A3XU6osgDjA7wLXfH6sf5H6Rby4Fr4ORs6B5nJfv5PTqgMjgWgdD7onIgMusTWcOMTWK2J30bvLvLFRY0aUq7ATyC2lPYWHdDwPTna7h9nc84/1L3vGRm/LRobvW4vIGhJGZ6XZXMHf3XCoJAuR+ookpPkZY4KkWaG3YNE8MXZNP9p82pha7aqB7fHuBIl5h20qS9i5IOplGzQ4lPX04dBTq5E23HdoDrdqpBOBxN7D9vE7O0vDti553SONp8FjuiDcXvnBmwvfBxT/IAwN3ZV9Y5OJ+oikupXIt6Rv3TpUv3z2kLmx3VqHsIsXTB5mx3NGCQpZ0viljxh6b49HxwXLZPw0OKzpsWi5kefxw4IwWUBy4pvmxP6zuhNIf7XNI76V8HpUhEPTSrKTPaWJCi2phTtpaXA1XFu/3W78Lv2N2dv+q+sn4jGtk8Ip+ZOiSq6N9obS9nnL7/UU52PC9WLwC5H6iiSk+RljgaRaQIqGqOTd/TxobnKjCvZNlyHVjuBJZck55AIWXKvbKGCvX9uDvwQWtsxLnFTa/zwld0g3P0bngm1v93/3HtZ98QPBGg2kqTBqnG1ot6C53HhlYbX3n/BeBsdHrks+fFmf3p7GAZWELo29vH5q5euO4Nrfehl3cNec8Mcw5WjUMOxREpH85iMl9Cnk4oEjEFIZAXjBV7W2d4pH9wcqHF0XPIi893iKOt0n1enRcTGAxkSKzx9AkZW9EW0Mpwq5nZyPnTf3VbsB/ZLKncrjvREd351L+SP9cT3//lLG5PiOHIwmsuXtqtwsBcj/N3BSfIizwTAsYXc0x9Z3Dt9L/h/nju3+VbgxCOUg5DdaxpNtNzV5r11CciVbkJOhMiX2SAKPBsMZrc87IEDCxykURV83Mu+RbmePJPd6fc9QMOUTKfhxJQhEpXasVz/SvNPzi4y9975z9o9Tauopahc9yKJ/53cUG388Cpll1y3en363cvH9KymYi2PUPw9p8vuoNmhjCCKoI5Nz4Okl/03YP3/CpbIC9fT7LTo0mLYocOopzZA93lGfO5XNFDr+bf1SGQMPxLNnjpMgE748AjxpPeVFQugW2mqR7apNyb2LABT4dIn1lODO4JP/Z2X+E00c/NbY356VIOCF7/I/VKRcg9/3mlthKWOClW8DljejW3MLNwLEjJ6wTS0Pm7Y1RhCW7qQ3Xy9XJIqxWQh6dw4vjxjfOTYPX5bw908Sf72bkfFlmYrKHgLBqhKMNu8fPnbnc+f57/wLNbauSqj2tAcJLt9nb9gHlXC5YWV0bKmbznR4wXdSs9mk2YAYk//fwhs4McdoqMYvyQUISv/bkwe8hoOT59fBq59HPfHRvDwZa2fckihTNcA5petC7o3xy1V3BToYbadO3++mmN1HZdg8szo+aPzvzdePhsatmMrVmBvxJVUOB8H1DgNzbdpWI7/t6W6CzdaPw4fHPUvG1xuLtWLMOu83DGLakmwdS9u0bQMX22eo5k/3wxbcQ8t3IgyOxZ3oQWYS3Yp+PxoMZF6cdj0MmsPXnMQtHt5o0eYuyqqcuDG30vHPucsO//dd/ZY4duqn4vdnX25hv1tGZekkuLMy3FZdXOl3xTBi9ITydrGXi8GD3gwxxHSkHS7OFfX4Fwt/ldXmmONtTKQDvx1FA4TnCsnLODGNiigNTvNB6tJRlv9UfB6wPzj+ehwxEBHAsIM1Bcl5g0dylI2HZcgOOwhaqq5R93V9tj2tf3Rkx/nbiV9qHR5bgwvE/KoeG/mDNbUxBW8OOFPTZSWwBcm/WdSC+zQG3gOQL6Ob2xo2Wk6faap9s9Mb+eP1nJmTCDviYGDTkGjkCPLohUQL/0RX0i5qBNQopiOS2Qq2RXPvhgfXgL372efvF9/7BGj90R/b7BcC9qJGf8/2moas7Ozvh/G4qaNQMF573J3FDnnPPP3xzBkmuzHvc2C8g92B5woNbO+xOZmU+KITgACW/RgBIgExiYjL2vMspm/FFrfbXMbUwP60Fjgx2ek8euhM8efiytb6xAu2YAvjhX0+8U1hAWOBlWEBu68xZS0tfFfVS71abKln/8fr7NciEuiCNYRsv3lLKdviJvTMW2rWDifYqHYWUEfhquHanDB61VkGm5t5tiNun0KB3cTCIB1NKJHy3Bx8qlLDbc603VGkc7lkNnjt5tePUqSvKmRNfoKrJiuz1i3q4l3Hin7FPqVzxGyvrA6WVjbB3t+BGL8u+/zuF/Y+GCvkV8o+yNl0f8OwSLhKJnz23/YP9QSf6zP4bA44DM/waF3g786ZObmKv7sF9OsHOR0sS6vvYfwxMnqrDmhOZoONimTnKL3ttsKMcHo2A3WmhHFJupoetm4td1ud3LmpH+/9bOHvsLlw4+akAuVcwWcVHCgs80wKt0a3Q+bN/fwJcMRVrZnf+8eY7Fiy04ipWVvCypqwFARXfRIipxoFIJnQzHZzrlJiAwo1z+AbkhIM4NMRF37QtKRmiJqGl+oLl9rH2nejpo/Ndp09+aZ09fsXd1XnfaoxsSa7Xs/vzM+15wDcwdewJt7nWFN/c6qwkMiHSp2RQIfh4dlqUc3MOaL2YMTi0SVGE5+dX1kHw8SD3qOSc891Yc5PnL5fDMLwSNcsFUeg05ePNcrVU0LZmt7uXV2+FYDsekTM7bQLkXux8i3cLC7wUCyAtn+5Jc9bGZs5sbCxlj7WvVv8mdDE+u3WoFda9KIMrueybDeUcbGI/PshvI8jjy9/hZBIrLrx3iyAY47ARX/pVXNvTXqh5Dnp/Ohzv2AkeHZ2Inj1xveWdM5fdvb33sQh3x3JpeUXFMiYxXokFJMPQYDsxUFpaG5bjuYALNSp5YcLyWg8r3PDZd2CINUvpr/zeIshRo2SWbf208n7qe6NXuJKNhpOb43AiP0u5YV5qPXwc+z07J3+3X1OV3v047+9xBqYyB+pdx59Ytud5ElCqE33SzYtDMPTz9+TISL+rvIFNMP7uS/BfudtQvJEJapulHgFyr2TKig8VFvh+FpA6O7bNnd3ft7VEFt2ehk3v9TsXGv7h7oUc7DQYkNxj11XsGw5rwVNYh0t5uUUO9+0mIKzXzjmZEvsGif+rhq+9Jdt8eGCj8czRm55zJ7/wHx27pna2LUm+MN9ZxHi1FjBqbtjcGkptx9oakXCCPjjig8NodEgkD3tWDzJqHcBytEgIqB7vTz37qzqA9nTm5cOQ9uz9PrqFc4R1vUwukaGJq2EReReoH5wB75/9TILWFql6E2Q54La8UMZDs1zS1rZLgNwPsfu+91jVCkYOLPSf8WEvgCgdjEo1qqxLGsqziSEs8IIWkFuaU1YudwNFa3eafnH2Jrx39evc1PTF2sTSaG4x3qMm015c2UseqEiUiWPdefLSOEzpVNhRfV3e1odXLDMUNjyRQKHW37IdaG1Z844NLXQeOTzdNDp0Bzo6Z81QcAf7wnGlrhiv3gLFYrC2sHpI34yPoBeGrbmZeVgX23526JC2pznB/eXoL+oXQPzZR/krTOPn4GG9fJy3cz7J8d6cEpfHGanOwPx+QYB6Ns7Zm0M04dgDh1y5ZdR2ZxdEf/UeRD/+GcDIEEAiA+pmAiqxNObocrgVLe12Bbvy+85e00RtOFQbsCxTlaqGt1au+s1sOpKdnQ+YpQqyAUwJV8yyrKiGorl02esu1dY2irrfk3dpWsnUXCVZkUuqIuqKvq/NxXZ1C0hB1GwGWLasyhqC3ULg9KH70r35Q/7FlZPKzEZ/bXWnF+4nm7DQAFV1CZtqeFehlpky9jpRTAPchhuaDfdopBxuDBW0vvYY9vVa0we7FrXO9nlXf/eUt6Nt3gpiUa3m/8m6Notz/P0sUM7mQtmV9X59J92AQIDuTb31LQMdg8jTGIz0ukM4YvB5EiPSKQxgStPDNXB1IHLg7+kkT/qUZ0Mw26F+TA8fHRVE8NBR5tmFmTjf+RGQPrkAcHgUShYSrybuQ/bmJBiTO/gqCdkRiFPhjRhPtIBZqklStRaGXL4JFjaaIJeNIsPJB8ls1LWbbLI2tzuqyWTEyhZ8ioH3ElWVDJeKS2rssxXwGVI4UEW5ppQSDG5ZLQ3LSmPDgrWTWLU8vqQc9FJnejGEBZ7LApLkpkXskpFOx+W+vllIpW7A2k63sRHrK2/F2mqpTJNZLPqNYkmDSlV10bLfpeqyz1MKNYTzUnfLbnNzSwLaozFobkLAbFyHgC9h+XxpZE1+Ly3A5zpgsfELW0CvlJXc9JQ/G9+NmIUqdRuwVU64Vc7jhxPAdLJrHF5kzRv6jVYx3MxJ2/Pp2C90Rp3kwTk/Gg9n5pjMRKOuW1kXY3aExbn3YD0nVz/eOvDxb48DXT5+51P4k1ahE3qGBqDplxdBPnsE13MuMG9OgPzPX4P3N/fAMKmyk0SgWfNFgNxj5oih67KZLQb1lfVoIbY7qiyvD5d3E0PaZnxAzxcbta1UqxVLhtT53YCRyKmoHydRApep24pVoRomBDq53a2X24JlV8CfyfU0b4e6OiaNI8O3I11dN8ubG0taOJSQ/UEBdi98G3j7dqBEsMsywIJplBalEd1nFcshKZPxK4Vc2F2s+lylstdd0z14g5FkxaXjwqvmCwUz0BTIQCCUNX2uvOR2FWXp5XRjfvvOyMv7xhQ9MkoVXy1X9MnZKirgOC1wHbbkfqLI4zMkzhZOt3fWMXXkkdmre1iiqw50D343x1t0uL2Op0b3QKdUYD8RhstTGCwf9DTrx/r03B69yk1gLWQWl94ZAeWXH4Lvk/cAOqMAV2Yg+7ur4P1/34QGWEZYK+7VeHI/RgFy+85fVa+orkK1GRZWBmB+pbc6MXs2u7Qy6prbHM0ibdc9nwpVC1XVAzlkNhmShiwfinJTFT7rBLoI5LAxIK6Uysh8WlJcxSXNhcoT/lRToCkUDfUZtztOGH2976snR681DvTdspaW56GhcRs9PpHgf3n3iTd2z7LipXsHzR17/hjliizppkcyTKSjUVdmiktJpiVLhuVSK4pHE3m2AzYbLHSZTBO9Icv8ztViTuT3y3M97utSMI8AhyYD+VzU493pIPgkPcr93p3jX+0Hwnpgk707Z3CZQ93ro+fZn3QaST35hDCLkzikbpQmCGCFXBu0fnwWvL/CPFxnJxipJMDlG1D+6hZuuYmvF/YAu+67CpDbs69VLWt6Kt1ZmVk6Zl6+88vqlTtnXH83fcwDCXcEmTphNLSMJZV8ggjcaG3CQrm8CqJgANFcNdulJr+Om1R66KfsT3i8SkLxFqYWGgtwazT5fu+J7FDPlO/Usa/944e+KayuLmjR6K7L4xE3oQN2E3qdDlfxuOnuIqIDr9NJecFjsalDsmyoqlqRXQoinQNwdKpZYPlx42n0fCbhM6yROiSJZzlVd09iXD4MqVyWUO8nzvJbT/bJuF2UU3jAYcwnfVZdZo47jJM8XQlLBsKnR8H1i/NgnRgETB1B8t4UNH12HZpuLuK+qOSd7sh0fyaWMXuqbz3IITsSHbJqE6xu9FXuTx/KX7r5UfHr2x9nriy3NkFCIdEkJ5LNJ5R1IvhUkrQS85Vo0O+8NnFOkfMbaQTQVjSRanIB4p6tK6XejaWVpurKYnfr1NR45/mzX3ecPv2NlSssSUG/uEm94I1BvF1Y4I2xAAKcy+ut+cKBsuRVdcjwN3MAZj/4fF+ChxNidNrxcC0cLdNZ8JsB8snk8PpnOnfHuvLKo3avE1QerMDbnyfkb8T/PuqhEhxWXQ0Ap0ahdaAP62VQ/GBmHra/vQlwaRFdi8JeUPTRer23GuSMSsltbcQGjMXVM+q3d9/Xvrh+wv+7qcMBWPM1o9FUpKFyPJmAi4RuuR08J1Gdag3P3mRgUVFK6XLbC25RSB3A2C3n9wbsv03orJlKeT0ZTq7HD2UmF3v0ueVj6urWqOfPfvG/VYqFG26fALo35iYlvoiwwAtYADnbuhLwlVyNkULV7yrh/cT/HSLgL/u7Uzz7Y/iWz2JfgN6RQ1FhUQG6txEVxWmh+rT9PQh0HKB0vDvnfXVx5wcBjYsAnBhYPZi5H6T5aPjeW0FG5dYnPdBzAYkmzc1glAqgfHETAr+/Du7iMhokbQc1a3vfgPN3LHv31oKcqdeUSnynCy5d+2TtyvVfwpX757Vrq00KZBTs42VDG3tqPBlYwc2h6dLP/c0s2QXnmiQnlED1J+SckwPNayPWHaiffoZJzVVM5UO703N9O+XaR9uWbg5Y6B1ms3elUGhvzfbsqSu2EBYQFngzLSDJkuXz+gwLiUMq0olI0I3uLNxL0GmFRN/daZRb964cizzs4dWjT/VaOKfcmoGKlf9pfD+Pjj+Ja+f4Pud0Edh/VuoNXvmO6Ygx72/myrDNOTXyMGt4D/VCC3SfQIDDcgHQNMgtLILr6g3ITK0j2YSgjY7escb+++xbDHJSOh+Fu9MXPf/TH3/d8dtvPzEh6VZwNUDmImFbSslS7o1PFkeOqeaCB60N6LG/PoQAkbsv8QnjHkvUrISmJJFSCCbJs6NB0MmrjjK4JUl2raXDsDZ1JJnOtjXHUoOd/+pXf23kUv+iBBuE2vv+q0T8LizwllkA2bGWntgtWJFQshr0FZAdYOKiWXEW1U6/QGcpzZm2/bD2qOjXg2xLEszi7BX3CSciCmlC8l2s3p7p8Yavk/wffJ0/48EauroSJVfsOUUQnAiiz3Nk59jbLEAQEtANrf/NGaj9mw8BTg4D7BZBv3IPIv/pHgwj2UTF+7aJ+TjmUbJ4MwuRO6Xjb9mEoa9rWDUZ5td7Fqdmjvnnlo67Iesm7XXufOu0LyGjO47uD2cxOeZ18nj1lQ77ds5UlBXM2hmSK7GVbPz20pXjq7Ke7/XKu1Yxd03yIfVbDGEBYYG31gKK5i4GGxu3fV43rbSxU6qssN/CYEAkNyRb6Hj3QgkmFTW/JBXvLchCsrD32rMHASYLerMn5ihTPvudL7IFw7Oj28IaKw+CIt0lgyNRCJ0+BqHhQfQ4EHKXp+He3bvYVy6GtD7Ha2SuxOO+61sZrpTLVS9Mr5/0fzt7tLYQb6KTmkQJ2yKEcN1QgWbbQZbsuno6BcSr5BPPkrdOFLteFcInuq46wGrw3ACFqSgOi4iJLCrum8RpJIyJUyMUPLWoQgiSDuFU1W2mCz3lciVQ1q1GyOt/YxUyfyf5w44b+SKzSrxXWEBY4ABawFLlstQR3dbbmtYt8IzhXWOvYSrdYehOoui17rb7Sm/7uqa5Ib2T7KptJLsCyXIY40ZIoHNu/5W9yBR3qXAG3cvIl6OGvBTDogU/sd8od+a3C6pVu3nT/sERrjooOXvb79k93JHeqZNzlFecRA/T8ugICvZRmXiHNPB+nMbC7+SfHYK2908AhFsAxQ8A/vkK9PyXu3g8G3iHpv6K5H8y2JOCK8OmQ/5zGvIcwJP+Iods1GphZWn1dG5tczgEbrV76KglHW5FiEHdvxsbYK1TQWEKjUcTiODuwQnBQPe09RHTejl4yXk6pqFwj16HQ0SrFAqMolwYljTt1fbj71hopxaS6fDMnYnhmt/zQXOTfwqBbgKBrvQi31u8V1hAWOBgWkBS1DK0NC21d3Ytqn5fqVrIYKE/95OjgbCkt/Z2bvV/fPHTlrb2Unx6/vDKzYnx0s3VwWIx1WyA7sF7DWpecoscvnvt95r4Ob5jkV/I3eQJxujOxJXAzv2sbsPvy+Z8utX3dxznOycBloLw2naqByKnEOB6uwGJgpCYmoaGL65DfjWO7XWe3mLIuW+/dZ6cVTNkWN/ohKmlzvA32+3WiSbF/IuLoHx4ApQwMiDvr8Lu5zdh+4vb0LlI1FR0lzEXt9+N5rwbA1k9qvz40+h4fbzScOCNGEzsHxKEVjD4YJm4CrFwUqHOM0GqGiu5pfx6T7JiWFLAv9kvu1E3s3ZNklzsToohLCAs8NZYQNLcNSO2vhQ+OjahD7dtFibMoGZkqDu4TUCx/Ri3p2Z2dcXgvfM3Q++dvdxx/uTA1u3Js4nJ6bOVmZXBarrQ0pDIeOkt5KHx/YvbNTn3MS4p4HICp1icGjjR3c5ne4wyMsTZo/PY4s77iS8O5D3o4fG9j4bDv6RjptuYU1bFMTDuUWcv+9HFaIfa4Aj0//oCuN49AxD0gfLtNBj/5U+gfHUHetHHoxwi91R0HAouad/zbG2n4u2U9aoZvuR2vMW/tNZoQU6rWX5JR2EupakBlaw7QW3thuZgC0RcXnD/P6n/0haaKm2bjpmSTgCSr6/HMYj2X3nO6w+nfnlyEnTifzinUEHXPud1Vx8nGerU5ddjrambt9+PtrQUmwd7FnGr2FtzZYsvKiwgLPCdBaRgYHdwbHQmP9i/kl7dxTieHMFbB94y7NJnOZ3OdmXiO92thn5PGx6YxHvGamPfEL5nbKt6496p5dnZbmlioT8fyzVjr3AEOxSbxzczPYSLup2Qo+PpcZKGgaRi37M4j8aDOxj88IY9j55c5kEQOPnAc6Qf5JNHQWpF6a6tHch9/g3MXbmJJeEkwMwdNjiNxHfTB4dT4P42hivT+TZ9auGQNbEuByEjFe/gCW7AgkI/GqV0EqCvH9T3joLaFoLSoV7YnrwP/i/uQ3JuBzrsEKaFlNWSbV6KXrMaOHGC2FNzqCT7g5l8Clg1nNcsTvkBnRb255B1YocROGhAWTp7KklS0gy57i+PJTxXpMDwwD0rnf5cikQE41Lc/IQF3jYLaJ5iYLB/1XX88EpleWVITqYCeK/A3nL2UlmprSXbq9emzpe7ejfVhkjG1di85joeueod6NoyTh27UVlYaC/em+rfXVo8o88sjuUS6V7/Rt4nl7DW3Kqh/m51jwfOdy8mtBALnOuCqS2vUwrFf3vsZ8ijY4jkHvNM5X8wlOgs8h0lSe5yyA1QnYpjqoszMG5G7PZ8exNIxwcABnvAylehdO0OWH//J2i6t4BHRXDLBQYcYSMPziHh8D20Ho59yxRPMO8lw42ZocTc4oh7Y6fdhcbCujhIfX4P8kYOXIkdCL9/DlcP4xAY6welLQotR4fB0zcEvrvYIPmvZ5DOSo4UlVDSaaIUGbndFAGoR34fBLi6O/9wHs8JEVgoFQ9VRx6MSxBYNgzTwRReXck17CpzXdVL354939IWwxq/67KKkphiCAsIC7w1FpBVj2no1V3/6Micv+v2IfnGSif6V7hCtuW0FCleCscn5o8Wmi+lIhFPsvfkcU3rat+Qfc1LUlPzcnNvd9AYGekMooSgNDH1zvry6qg8v9qR39xtlbYSEStd8OA9DUGzgoxMuvvQfYiiV3wvYmBiv43uXdyRnsUM95NNHj4hDsA51W8MUA8mevj9DE4KEk5CY11gHMIecY0NUI7twsqd+9B4bw5f4bIu01aactI/HK51Btfe1cfblZNDJW+4v3BGvr94HCAdoVUEwZMOcYzzosLJfWTuzOHv720AnDgK2kgfaMePAnR3gefcIbCO3YPc4hKY1xYhe28X/NY2nuCirVZJcjjMJKJ0rTMhyNTslVGok6cFn0pW5aYTg6eAcBIDB7ZPqBOTiSkvFj5nGbhNregqxHeaCzdu/0xv76zAQMccvpx8a65u8UWFBYQFbAtgzVwVersW3IPdS7XuyZHaWtGPXhR6YRQPqrmNxa2OpHTtIi6OoRLP3HadPnwTom3rckPzhi8YTMPwUDbY2ZGAkcFldzzWqS+tdyY2NgYLiyu96Y3NHmM73mHGU1EzVnC7qgUMZVKtL0EIF1jRcMSd899FnrhHAIUQ6d7FZViON8hwUy+WqpNXmNDCIVICItqygGQTT2MfNGELHWN8xJbvkpc2wZhbw70mMYhJWTb24PZ3QdifDuJPdAh/xAt9i0Y5sdviuT11Hu6tY3fdgk+1hTxJUpmSquhyJ4pQ/Ls0FBHoqu9jLu7X70DjkXGw+tvA6G4Gs78TfLE4aKcWwbuAUjKXp6B2ZQ3fvY1WzNjuM68hWKmSVxcsS8rCpExZccrL2RXD52o4NWgxQjio03Si04inELlQdhjTQKDMga8wu3xo5drNUvjjc3+v1/Jp1RXYX9r/Fp1J8VWFBd5aCxjQ1rIQGOi9XYo2HM+upbBRbgWZlgQ0NfxR8VUWtvoKxeuBhXhqWF1c7Mf6svvq4bFbzUhKUVqa4ygPFrMaA3F/b8eCNTIUVPO5UG11a6BxZfWoubw2XllbHygsrfdWp9cbyxspN4pgYOF5vWyb6Sawd/ekBT6XSqk2/DklVvXz8yAAcbqGvUQnysV3S/oOVaS1aCe7wH1kFMyudrytYmpoZhVgBe+76FCQZ+kw7/Z7a4+fDY6Ix1syV6x0LpC+c3fAc+P+mLoQC6GiiUzA46RROZJLsd4EGHcrUNxAry6NztK5LZDOHga1CZOfwSC0jiBBpaMXIjsJgKPjULw4C7VvMWf31RKeujjGp4vMjrTXJ9yPgFlD9El0kgjs6g0FbTEaYlbSKaZaOXsQ0RfBrorghoxLO6qsVxQzlQ5vzsz1matrPZHWtmXcUAg5vyXzV3xNYQEbCCTJsvLpzebxkcnU4aHpnXS6ybUQ78KFscqEEHpUtfJWvClfznrM9eWov+PuaW185IQ6fmjSd/zYTVdX17rUHI55FCwsb3TnvI3NMasFHcDhkS1Ipe/qOztd2fnFgd07k2Mbc/Od5eWtnmIq26jFS9SRHL1GWoJTVIqiVKT5T8VXHJXieFVd6PlJPRLqcl7kZ7F0Ih1/jfzB5kbUp2wCWcO97ayAOT0P1dmEnfejO7bTI9xhOHBF3INF5FyyxdG1t8eTy5fChbml4eAXi5FG1KckCv+DOTL6W0JnOYdx3xzoiRRY/zEJ1ufLkP/1PLgGeiB7pBMC7R0gD3SC1jkE8nAv6BeOgXX4HsDYDTAu34PKvVU0Kkp12W14qnufQaDH+gQ8MSikSdOBjmCvjaHETS+cQTDopvo5+zj5py+ruUrra83p5ZVea3QMk84C5MStT1jgrbOA350NHR6ZV987M7FeyEShUNVgO9mK8R/0uAiADEqjuLWUrKmpRES/t9KXv78ystp77x3XO0uD/adOfaufGL3vizTuqOFQWvW4dSUYjpUsc9fV0X7P0gcDvkOjTY3j48P69PSJyv2508mVlSPK0kZLPp31qgsZFy7ZZbxb4cqcCsgZ4ip7gUxKAZFsPaVw3HsEE6cFT70xD581iqNRCIs9Ox07DfigGsRbm9cHZhWFD7fiUJtbB1cxb9P7WCzfea9D4HsQ4Jj0QvdZhr+3AuSsGsp4za12JdfW+yKwq5LK9sORWl4DccaMo8SkOZmEzEYedv7nBPh7IhA/2grdWJTovnAcPKOoodbaBqF2zP3+zA+RtmawOqKQHJyC0vYuFNYzUN1ApWzUVMPoOJ5KUq2kFQ8BHJZm2hI07OWhohdOT/T18Nzo1GMcazzto9AQdk2cLsiXsSSaVpJUylVUa2MramVyIatS3pHcnv08l7fuehdfWFjgbbOAJHlNyyhth86duzRULCnJilXLTM4frq2nomqt5MFqNryL2Pcy/OnCO4fl1tdTDdvbWW+xmNcqiyuj5sKhm+1dXSvB4aH5hu6eDSOfjxs1vahqdlPdpFmrpt0oJ4ghzh04fGSzsLExX5lb7NhY2wiWF1YbEjs7neXN3ZZaqhSwypJs4v2NwIT4CQR8BFqaHY/iGBkr99JPDmzS4O5znOCpIhyqyJCQ+yOgULfvSAgbTyOrMrYD+lbaDoWywhQXptfzboS0tL965oZLC/iz3xqQA93UIJ4Y1Fc3e12QQJAjZg5BDac8ucbfyaCx0DI948fQJY1gOQHmLEBoNojPhaB4HosST41BFb04eXQQ5J4WJKschtp4J1Q3T0N1Ow6VjSQU17dBW8SVSCYLgZ081HazUFvdxj3TyocJs+TZKUYVgwB4wv342QEScUbQ05Ci61NAdamgeXA9RGd1OQVlw1Dkre0OwDAFmPqyvWQRQ1hAWOCtsoCkeKtWKXunyeMqqMFQstR+rajfvj9mzG93SqmK3wVlYl0iwNFyGjEDMm5LB7f/Vma8dGt2pHxr4pTc3LidOX18Qjp54pJ25NCs2tG6Vk2mEnLAW8QFdc0I+naUoD8td3csapXDf3Cl0qHm3d3G6vzioL60dF6fmj22u745asUToUoqq9YSWbmSrUgkVUgsBDfe4Zh3LuNPJpyE9tI49VIrJqkQBZAUTqSxTpCOYqeBlhbQUwmo4P3SvUyEk4odF6O7NOUEubLP8eAI0uv+GrVL5do+Btu3wpND3VIPbMb7Clu77RhB1rgSbT9ng1cfjmq1o0JJRqLBtFlaGZQwkFmAjW8t8H67CjtLc9A4OgCRc0cgeGQM3C3N0D6MJ2gQH0WEqmQaYBNze1mUnaTfV9YhhbI0hQwqqKCMVxVXKrlqBuRqETw+DbzhALhQKppKNLHDMyhBLwQCAYiEI6AXCrD69XVYmViSc0kEuEwWmyoZHNAWQ1hAWOCts4Dlduca+/pnGxVPpbmpJZ9pji7Go5NDuRVkSS4mO/RiGbkHNTfe7lW83SNT0v4PQ5qmUllLN28tp0PFcqEhtrY24pm+P9082D/fNDZ0PzLYv+zBPJ3sdpclRUYpSznr0lxpaI3G2qItqtTVs9Z7/Pg6nFhZSy6vrCEzsyW2thpJL6025bd3WvVM1mslsuhy0SLecSW4xo61UhxiXr3rAFHtyJNr7G4HP0bLSCGjsLwC6/OLKN+F91AbrtgxYLEx7kdHg5mf9Dvf07lKzyG4vC3F4KVSCCZXjjbfjh1BRFA5U+asAhzqP5nHATr26mg9QoNcbDKxZ+8yGkM2pYXioIHfzoPy2zC4e0fAdXEciSjDYGG+zurDEGZ/F1bqD4F1iKyOqVLsEQfZHBhbu1DLYTNWrIszsH27O4nueC4LqscDQUy4+iNB/EAMMmDSNRgKQMjjtfko5fkFqK3FrPUV1NZMp1ulVAYLSXTqhsGFI2IICwgLvFUWkGU33abypmlMkRfmPzT4bWhusV2fnR/Oz86fK61tHDE24h21TC7siWew0YrpCppVlaJYjUYKkyF4a7uX98G9ha7q57eOZrubU3B4cF09dnhCPTJ2y+runINweBvCoZTs8xYlr7csqWqt1hCIQUMgo/b1TPnKZzX3bipsbW71u+fmTklzsxcKs/NHKotrLblYXMnFspKKqRhvGe+4iEHEVOACcgYkly0HXUVNqRAEBsKgIpPdag1jLUEWLKyLK91fwC1TthdIUhw0nCyb01CIm1jXZRO5XZpTuv4WgJxRLSvVpdVWbX75cGk7F7IzpXuDk1mOR8cKaPVH/TWn2SmdHtLidsoYiUtURe7HzgqeiJVdKJ64B6WeJggN9ULzmRMQxfq6PCqCk2xXsBnBq7kFm9q2QzOucADzbEirxGwtenkV9PqoXMCLzr0HM4ZYimmXDVSx2Hw3CZX1DVhfXIZEMiHVqlW3Xq4Eq7lCVK5WCOTEEBYQFniLLSDLCt28sma1VGho64zBkcPLsLqxbS0ub6TnFrtjq6uN2bm5juxOqgEWM40GlLwqKF6822EWRKZMCAaTSmpuZk1bK2aD0yurHZ5bN45r3e1roba2dW9//0pbV/eKp7d7PdTUGJc8viJ2K0equLzr8eBuOjxb/mjrCgz0bcDx41swO7cbuzMxOH/ndufu1FxTKZFxG6Uq5Qb33AUukmKQYu0o8st8jQFoxK7fLroPJrYxvYPchlzBZjKwTiX95Ko9hjVuzcOkFR71Ozjz2QlQ3/hwpZTJBmBufhC+nGrogh2VQMoxKq8KONJLIjXOeLBlO3l0da8PJ8h321EPOg+avgG11GxSyW1Mu94O4dZN4A5/C0pvI4YbfQhcaOYxdMEH+1A2rA2TeyEEPFytYDU/hPF16viURrDb3sGf2Pwvj6uYfAFKG1uwOrcAiZUVyCSSYCxugJatyKV80VtIpwMuHdWcxRAWEBYQFqB7mOYlrCDJv6xhVjasd45/GchlA2Z8N+SeX2wpLy0NVGbmTqyvb4yFZ5eHy4ViS2Qtj/XClsuPNXZBsDRpbcslr62E9RtyN2bUTlUgpOsj7UVXT3siePzwRmh0+LJ6/NA96Gq/hV0RtpA1V8AmdiamWKqqp2FejjbFYWzgc9+7J6LNk6dOFS5f+2B3FnOAG9uthVQmnFlM2aV00RwJLDNvnO7CW4MR8B3vhY7+dlD9GDPDKJcnicXB6bJNASTvk2h8BFqBPceEsm3ciJr1hIlT6giKcaqJInZvQTF4rVAIrW9sNHdvxZHSIUsEcvqPxLzn1QPFl2ll4cLfqCstZe7SsJOpYr3dGgo8E6gqUFqeA184CFudYfD4sZtcVws0RFtBagpArlaGwk4KUEsOKpk0GCVcJJWwCDKRgTKSVijMadV0CGVo8SSZumEYxVKpFtSFspe4uwkLCAs8agFFdtPNIUcPo5rbaWzt2O49dnxF2tpeqq2unaxcu7G5MDvfUXUtdRcXk+0m5LGg3MR2PBR4ciENTsGOX5ZcgZyrMAueWCzpz8e3osEb13v02wOHh4ZHxt3HDt9p7+1edrdFd9xefwm9O8zJWGlMt+wG2lq3hgOB7eGuvpi5tn5WX1lpWZyZG9n87MrQxtxGGO+TmBukIivSrrTAh2UDrV2dyGtotWEP8D5YzGZBz1PwkcbjSOR1qWjagoKUDHKO9i8D3RvtyVn5osu8O9nnnl05pcKOK2IzbdhldooFHneBOIQTx6NjDW4uMWBj0mkhh5vrO2i1wJHfCv7M27+F7VWEhKwmqofzQGER10m4rfsWn648Momsdh/ko278vQrVPIJasQaaiScVC8DtUCZKfAV1ar+DfCJsx6PaoIYReNms4pori4ooQvFE3OGEBYQFnmoBRQsSOS1DDyw72lCPHb2nnT7Z2rq22lqanO9Zm1+6ULw/e6SwvD4AK8mIu1LEpImJtcQsfaxBTsKSJU/wbgpJLBCq3plty0S+vKgf6olpg0NLkRNHZjyjIxNSX+88NEQw3KRtYf+7khQI7VpD/utqf++sVDntjW4sDxmdLe8vXrpyIX/jzkg5k1MakkQ4saCAe9a9+ImaCsVMDlLrK7CyswoJXwFk5LDQPbNMnhzm95Io9cU3ZPT47A5l9A/K5WMfdII3pULVdKQsjOmk5gbrjQY5qNaCRmx3fGd9q6MZC8Dd6OjuH8+WhalL1OxfRzgdwp3m7fWIcH2PVBpAgwocCew0VNfmU0A8ERl9yRqUsP4jvYXJWAyp47LJprkomBaW7Po4XOfgQyLFEwI53B2duBq+3+VxVwKhYMbl+k4iRVzmwgLCAsICz7QA1tXSwjhlVvPZlrbomjUwutSxtbsO9ybXd+5MnExMznQX5tdaK6upJmxF5seFOdbacTuePbaAZKTy/lIq49up5f2JpfUOY2l+oGWgf7xhfOx+2+jobLivZ1aLNm+qbnfVQnam6nLvym5NirhHUoE/x36YPm/D9tZ270Yh72NmJPpztSpUqnhvxJ/UHDWHxJNisYDcOqosZm6ljgchUb0wcRpskMNX6DlbNKNqJ5ywWAy5DOiE4H0T6X6Gry1ceLNBrlBoUBfWDnnnNvtdkMavT4RWLsLm8fSU1sMenTODiMLKRYns2dW12ZymEaxYyYNVvA3018js9MmUbKVcoEN0le1zhl6hxCsUycSTRMQT9P4lav6LqTfulUvJV48hB4N5rbGhILlEA9VnXtViA2EBYYFHLCBrAbrrFOhhFUpp6G1bazx5+Ip7YbFrd2Hh0O7c/FhmbmmksBFr8S6mkERQ07A8G8FOxgRMmUggUmRdRyWKlLu6nfQVphZ69DsTp8zurlJloC8V6e1dC7VjB4T29lVoa52VwoFJVVF0takp1tnUnEv5fBWQVR+VBFAUrIZC9CVUODEwcuVyecDtwciXB9VPAm6oFhH4KAhJvHgk7El25RQ6ceqe4gkFtOjGWsE7cRXvrBoSWyyPUelu2vGcOrLwxoKcSSons0sNsLwxqK+no5iwJLRAU3Eh+IOt37//VUBQw1I0PPaLj7K3x+BWFx8lYCK1E9qWQpvMDmKAY9ILVsUhlLl1ya2ZlmxJRg3j1aal2MsnGva5ZBVMzP1ZkZbmrBubqCoC5L7/iRNbCgsICzzWApLfmzWNat7dEN7Wujtn/ONj0x0rKyOF+zPnklMzQ+WW2e7k6nbU2toK4b0MBZux2A73RKQ7vOdhG++sZuIjl8z6S+tb1ubMQperpemIO9qsuHt7sJJqMOfubP9PHp/nlppNd8/PzfZkUimXiZ6YhRlACdXpTaobRpDTMSWDESrwIMNS0dB3RPEw0qq0dSoxU8g96/acC/Tq7DujXS2Mz5l4h8QDQt/TUhp9hbbhgdWeC+c/f2NBTirXAhBLtkkzG93BeAbjlEEb5Jx2egz9+1NaTzZFvciAcm6UqeN8GxufuZnOw+mSy9RYlqAhYOMUKTGBSFTMxHgxCZtiLBq8htzZkPEO9897WltjZq4QTq+v91V2Em2+TJacb3Lk0LOj/Wkgu1Td39a6I7W27oCKSxsxhAWEBYQFXtACsqLRbQ4p3pC3yqVdQC8sODI6Ez672Yo1dwMwv3i4cHdqNL652eueTzTqpZrPbZVU0ithwWZ8ewqr4LIlqRbPKJWVTasQ8Ehy4ySUoy1Bran5f+/WtItyterb3twMVDZ2fVoOQQ4RylbbxNuojukZ1CsDlcAPHybyE+gnSYLZEswYj6QwpFNKbmKtMZVbUREEcRZqigdDmhKU2hqKwcOjC12ffPBZ6wfv/eMbC3JGsRyA7VhUubPV5MWvzyBEXtjDatXO7HgwdFkPadZnj+O1OWFM+tupoauDplOFz54XhTT5ffw8SdLQbOISSHTBm3yl9pH+5d6PP/zMd2jkbg17Oi18dflfrRUKYSuOBZtufD81Die4szQLJVd1f0tzTAoFdy1ZESD3ghe3eLuwgLDAgxaQPF5SFsSmmrCBSksB1+DghGsr9m15fG68cXb2XZQPG9/a2OpWF2ONeq6ErMySQmR+6j6AXV3BJPDKlSUzngNzI4GZvU0klfiC2EGBpDFIk1JScyXQKNlGC3j00AwELySNIw8B3QIkklAurkZEOwxjsh9n+yj2cESesR+D7bnJxF2w7+tYLhDylZpHhlY6P/rgy94PP/wX90D/1BsJcmYZC6YX19qLy6vDgfh2ALUq0UIY9/0BClgO4YQ75XKY0gFKx/xsfV5tcIGiA3QconSaCHKejpujEjrVwKfLfW27TSeP3+h+/92v3aPD982Z+URqcfX0xuT9HiwID8mGSt68PXS3YnkjoVKgtW1H8vszqstefYkhLCAsICzwUiyg+v22d2fmiztSR+dO+9Hxzerxo33ehcVDpenpgc3V1X59fbu9lsqHlVRZlU1MteH9jXjnFMUyKjp2CcMaYg/l0/ZujHg/IxUUWxCfQox4F5MwVFnDTgN6BZtQozeHFQzcSBoRigglTuc5GyT3vqlFQmUY7qygQhRqbUK5vaHQPDo83//x+1+1f/zBP4aGhyYljz/7RoKcVKkF9O2docz8yqgHdjWvDSwU2/1hdWWsZk2EFR6sneZU1+9v/cAA53h6zqxjAiw3m+C8HIswQ4O3jCrgy5HTp26rw0Mz2EMpIW/H21R/II+6XmVbkW0vp0r8k5pLrQXbW1LhTuwH5fVT0lgMYQFhAWGBl24BOeCj3pWL2NFl3dPfHek8feyLyvzckGdu/oJ+b+rCztLycGl5M2JspT2QK2IYk2JVNIgDgZQ5w2cDEg1iimOqxb5TStgk2iaT1Gqo6ZuCSioJgV5sZYZFDDLm5iwEOh3Vy6wqscwpB4hhyT19RYUIKHhrrfo0C/OJhcYzx2d6fvb+px3vv/s73/DATcvjocL4N7ROrlQOG1s7/YX17Q4DCtihiLWvGZgc/bPHhy0fV3L4uDCl05DvQQILnwT+nHo5Aa1CHOCjVQiVN1YV2fJEQpVoX99CZHhkRmlo2rVlNTFALekGpuEkzMLhSSSWbAkngYZcFLdabOnrWWvt7NyUNbfQrHzpl7b4AGEBYYH9FkBGNwWh4ka1thtqbEy1jAzH4ND4fGxh/nD83tTQ9sJCV3F9q68YS0aMfFmWUL+CQpH2PXGPGGJzDLAhtI0+NnOFsBDb6qCqUwWlvGSUOdSwpTVm9LAIgOre+K5N7HSbmY6cQnvRH0L5Lxm56f2tu51Hx6d6P/roi8azZ/7g7uqeRieA6gLt8cZ5cqaBGcjlTb+6ut2uLSZaUeiFyjzQlt/fi3OAzoEpRw9tP1ByLzgOPu7P0TkA92BdHbrSe6BH5FtsrAPloAu8IX/N3doRk1ui67h0yZq6Gayki03lVC4olXXMxnEcWqECEaTfSk3hWDuGNP3NUSq2FPk4cf8RFhAWeCUWUDTsmwoQq5lGXG1vmwkfHftMOX2sR56bPZW7N/VBdnruXHZzK4LNXF1mtoCl4XnZqCFDAen+FpYJYH6OS6UcICqUwMROLdUtbEUWR3lDrJFTkHiiYaiTCtIp9Fmzm/aQhhhSUWTJKrQ0VsLR5oTv4ukr3e9f/F3LyWNfqy0tK5LqIa/zu/HGgRzoBraMS7day5tD+kquBcmo6LJRStQh+NPP7yf5yOBW7x9e99L2unnbIMfD8RD3e3D7De2QVLgvOGYHVZ/ubWzIhqLNSdXry1OVY7lQcu9ir7gEFkrWypWw5UYeEcY16b0Ear62lrXG0eEpFMTMSardMUgMYQFhAWGBV2YBl4zqXCQObdRynlAo1dzdnYSRsWpxbiEbW1hoS88uNmytrQbK29st5Ww2omMokw7WVaO7GjYwo+7fRFrBkKWOqk+x+SVw+QPYlzMGpTR2a8G9k3YwPXQsWnD5PJbRFCmFmsM7kfGRhUPHjt5veO/c166RoauotrKJAGdngt5okDNLZa+yGWt331seCNUwPmzLanE7HfbmKBb89MFlBg+GHbl0gBOg9T5zD/I+Hoc6rLFNNf2ciC3arErZ0pvCBUyMrvh7+6bkUCAhKYqVWt9W8vF4tLq9E7XyJV/NY7eAAgWzc1LAk3cN9q7BQPcKyuY8sFJ5ZTNcfLCwgLCAsABaQFZs9SUKEWZ0o7qojI/+TUsq3ehfWh0wZ6ffyU7ef7eyvDoG67HGcqmimck8clQMyVurSDICnj+F70wVYFe/BaXpFTDQk8sv72CqBoWZfW4sMfBa1WafEWxqyGtHRufaR0ev+985/Sku+ieUaMuWrHmIIPPY8cZ5ckat5jGSyUZpebcBQ4noxRHIcajS9ojsn9yldv+osygftROzKcl7Iw/wwUJyfl+9gd+TDO0Ug9vNISTFaGxv2x0cG5tq6uzcweaHVQxVSonlVV8hl22sFssYbMbINSZlOdSK8jQNoVzj4MAstLYuS6odFxdDWEBYQFjgtbOAqtiL8KJpVJKBhuZYdGBgC/N2ldzaWqa6uhGObcWCucX14Pb2thd20p5aqYQiKpaGqSZ3ulg0d7fKFiodmu6Q23S3hHTN4615gsGSt7M90T80ONN64Z3P5bGhy9DZtiz5/Da55GnjjQI5jPlK5sZWWI0nm2Ej6YlABTGNAIoURxgXyK8iN/nh8aTYHz3viHE9WDy+/68HfUOnmMD5DAJUUsau4XFUZDe4GrxV98DQinL46C1oaFjHQLUllcseSO50WDvxdjWX93ozVVkzkFarKJBv85fDvR1J3ygxMBswYC2GsICwgLDA620BWbE7IaTxcRuLumeCZ8/6oFTyaru70fzKare8ujqSXlkf3t2O98j5QtiD7mDQ4zYVVdFNVSlDwLvj9gd2XA3h3XBT01qgs3OuqatrTe5oj2F8i7oefK+UzRsFcrJpuvPZXETf3WkPQd5Vb7LAQcMXGftDmD9kP07Ojs6Ly6vVWrAVhdbWtgYeN7vZpVI4HYsNxmKxlmql4pJdWCiC/EoEaUtza0ZHZ2e2taMjhdRbwar8ISdAvEdYQFjglVlAklRqxGk347QsazPY3j7XfuLEdUhmByCROAbIR8CYpwGaqwIu7PAjYWbH446B3x8HrzsDbm8ehZ3zyEV47hv5GwVyUEDO4la831jf6sTsF6qecZsbKstg76qeT6uHJ+thSy7T5lccwgmDE4UqsajR3t/+wTk5pwvBftKJ81mUg6O9UpsI8iErAZ8VaGoselCpGxobly1FJZCTIZNr1pdX+4zNWKMnXtI41YqMIr+3anS1xXxD/TNaW3QZvb5HEquvbOaKDxYWEBYQFnhOCyCzkm6cdq87VEjZhO6O63iLRKfEvvk6t1FM1mBhHJbJoeTY9/LYnnQYbxbIVcqh8m6iL7ObRikv6ofEX4/qK2jsKaB9l5t72Ch1Xctnn7XHyX49uj9mYXKrCG4RiLJcBnpx+fbOrpjm92VRi9LSdV3D+pDOxPrGoXwuEya1byegqqqa3hxtTvUMDs6Z4UhakrEyUgxhAWEBYYE3wAIy9RZjD8/28l7GeJKQ48v4rJe6T2olCpl8RF3ZalFXdxsx1reHE9SkgXwtlhJlsHuUX0nVbrZQqF359mDZAP/NiiVPYmYyqaUu30wgSBBXRO+Pe9/S0KDi91d8nZ1UW4Ktwr120hSbu/qRedRrzC+3unfTYczCYhkkiUFLlhINJJTRvkkY6ZuRXJ6XNhFe6skROxcWEBYQFnhFFnhzPDmqEEynW/TNWE8llm/ACgwi39slhKx7RvBEIPesAoJHzwSHLhnEaDzYdP3B7Z3CA8fvpgAyAefe35bscWcaW6JrnnAwK2FDQXp3MZf37WDngWx8JyoVDWxBT4FKFA9TNANDm5nI4MA09mRalGXBqnxF14n4WGEBYYEDaoE3xpOTCmU/bO60u+a3etyZUkABbK9tAxNBDAEdt8h53OAaugeHo3JCP50O4N/3HBsIppg9Rf9btvuAE5JxMx7LsLCI0YMsISXgS6PAsoXyNnJlN9FSXF1vwfq+kDtTxn5N3C2hGg0W3e1tycBQ/xxEwoJV+X1PgNhOWEBYQFhgzwJvBMhZWDpQzedCFrZ/sJbjnSgOirKe1DGA5bwsWy1yTz/N9usehLQfI8nlEFvIrvSZBKv6HtnECXVST9twW2vc3d21qOwJLFuVmicX3+nKbm23mYl8wGU3ebdzeZaMpBOsp8vge2KW5hKhSnHZCgsICwgLPKcF3giQw97pXiue6dCX1ruV6Z0QdqzF70WhSYIb8oq4h9vz9qUhZZP9gsvkCTr5Ouf3/d4hfw4BnIpenOu7yjw6J9SmRwK/Huru2lC6O9YVzV1E4VJFymVbS2trveVYPKym8yjkZdgdKaoalgq0NieCvb0rnqaWbaTXigLw55zcYnNhAWEBYYE3IydXrgbKm7Fuc3mj1w0pt9sGFQpC1vZ8KtYb2T/qpQJPh77HeXlP06ckhRXy4ihMyS15bI0T/KmC5guWPV1dq9DcuI4JtyI2/fNhjUhHaWO9t5ZIRbxQJRotHbklN/mLvq6OnUh/34oUCGRk2fO8GC1mt7CAsICwwFtvgQPvyWH7Bgky2abqyvpAYWW7CaCMXWop4EeFA9RBjvoZUbCSvTD6jXNsdT1Lp5GD092bX+N3PVwq8LTSAbvXkR2ixN4HNumFaS70qGIrQK27KRfp7phH0EpSiwhD193m9nZfZX2zz8jnA3gy7KQhen2WqymcDg4OzLt7eudVzSu0Kt/6S1UYQFhAWOCHWODge3IWajzGUx3WwnrUWkggqxI7tYHb9uEI4BzaSN04Tm6OM3ZP88qoe1F9kH/25O4FnP0jogk3RNXtkgNH7RILAhrcZV9XSzrQ0bEm+bxpEmQu5jKSvrXdrm/F2uVMMYJ1jxLtwwKt5m5uSXkHBqagtX0eFJdQOfkhs1u8R1hAWOCtt8DBB7la1Qtb253G8sawkc43ItRgTouIJlypxv4b+XUUeKyXENQr4R6cA/UcHL2DticSCDu8dZWUOvg5+6H3MY/T0brk/TrhR92jlINt7SkflgRg2xy7g3u1UNJysVhnJZFugZyOosxcOC41eCvB1pZ0pLNzFULBXUX6fhptb/1sFgYQFhAWEBZ4yAIHGuRMbNOAtXERWFnrds9uDFiQ8xGnkUOUBDvki5EHRqBXLwZ3wOdJs4EDmizMRQDH5QTY2+0JJQgMgKYtA12w+x4xKGJfW3wXHY+qV1sbdwMDfUtyY1NMdrNqiY71cXos0eCKZYPYGRebpJKQs9dU29Dj6+nd8nS2r4PXS/I3YggLCAsICwgL/AALHOicHLpsLj2Ta4H1rQF9ItWB7fVQI4aAif0pzoc9rEXpkP2f9JOluCijt59ZyUD24HscexMLk3OAjsfI3iO/h8KWnlqoNboZGeqb8Qb8tvakqetSOZ8LFzKZgFGsuO2iPgJGv7sU7oxmuwb61sJRLB0gNW4xhAWEBYQFhAV+kAUOtCcHFcNtbO1E1fmNjjDsYEvYgl1j5mTEWGuEPDEigjhflXGdeoXv7+rtKJQw2YQKx9U9D+7B5qkMXDxoz/Qo4p7K4MWf1NCHPEbeP/t3HktpCGc9R4bnYXz0ru5y2yQSqWqoUirXJqdyAfdu1UOEFRNcViXqz2Nj1HX3yOCs1NgQw+4TglX5g6a2eJOwgLCAsADdiw/yqFYDqVi8zb2924yqkJhAI8jhijhujEruETc8fXSwx8bDUUThvx4OS9bb9DyqmFIHxyfJOytmsLUx1zEyMgU9XXPYMbVatbDXezLbnN7Z7cmmsxFDN5z2Bobb780HW5o3VAxrWqKtzkGeneLYhQWEBV4DCxxYkDMtS4KFjai1vNUpTScC6EdhtTSVfvNXQlGsPcBiR4gyag6EMZBROJP+JWCsm2F/SHL/+aGQpDO4RJx6CpC3J9l5uAK+yCUD9B+FOil46YNKKFRu7OtIeEaGUZorEncpioEgF4TN2Kg5szCor8aDMuSwES5BraemtzdvV/u75yDatGpJKrdPEENYQFhAWEBY4AdZ4MDm5BCyEBtyDblkMlJOlYKPak8yfeTlDsrBkRf4cGeD7zw+y+Vx6ZHGhmJDY2MKN7PzcToqnVhbW2Pbq2vDuWwuxKBL1BjZaG1t3W3u7pq3Av6kwn2XxBAWEBYQFhAW+IEWOLCeHMKIDKlci3s71aJAEZVCqD0NqUVSU1lmUlJGjnJkTmk3+1rcc5SKtfePuge333ni9jr0GvcF4DUBMy8tyKMnR1sTM4T9Qh7c74D8OdmotAXTamd0w2htWgaXUjONmmSWCj5YWT7qWl3ttLazYWJgYk7PUodaY6HR4QXfQO+85eU2PGIICwgLCAsIC/xwCxxYkDMNQ1YKhZBRLAWR14jsxMcT/Ou9vp9sJBZxfjQXx53CHaB79P1O5u9JpQUItIYn6M+1tLfvWv5gRZIVyzJ1KZfJeisbW63FVCaCAIf5OIRNRSmFoo2lju7uHW8Ten2KYtfSiSEsICwgLCAs8MMtcGBBTqacXE13SZWaF3/B5nHkt9FgVqRTPOC0zGGxZa53o7EfmPZLdTFf8uk95zLI1iS/jnJxrFDiyHcx+YTfjVlAn6dUa2uMoyDzWs2LBEoahbKnPL80nJmdbZZiCfLi3OhfWqWoO2d1tSY83Z3rciCSUZS97X/4uRXvFBYQFhAWeOstcGBzcjZrUra9HdPRfHT6bzOIcY2a46HtVyt5Fog9a1YQnBJhhQDOaYjqMDkZ4MiseIQ+raA1Nm5Da8uaoigSkmU01NnsXpuZPbQ1t9Sib+f8JOVlN0j1e8u+jraYq7E5LqkujqmKISwgLCAsICzwQhY4sJ6cJUuW5NOKtbCngoLIdo0A5dlI24RBjnNxjvrIw10InCq5Z/UJ3x/GLNg96gw7q0cf6JQpOKDqiDHzsagmRHw5pTO6BS1N61QZh0fmV5Lpruricp++vhPwVAvUMIHAUldaG5Ku3s4FaIjELEl+XM3DC51o8WZhAWEBYYG30QIHFuRsnkfQl5EbQ7sSuFlFxH6w98a5uAfJIPtPsOPNPUnD8uHJQN4WFSWwWBh/DlNQHhxMVCE/zqV7IoGip7NtEyLBHcvC9qiW6VW24yPVrVivnCr5sURdIhCWwaMHWlsSWnfHEgT8KdyrALm38WoU31lYQFjgR7fAgQU5C+n1UlM4KbU2JsyIp1hLc3sdIpGwzJYTOHRkvdh23ydUyaqVlOXj6jria1ItHcVGnRzfk1ru0KfaCBX0lUId0XSwr2cNAr4U9o4zrXzeb05NX9A3tvrVclUjYgvxQV3UO649Gve0ta6RVqVLQi9QDGEBYQFhAWGBF7bAgc3JIR/SgEgornW2bygdoZSBPdgoR0b+FsEc0/ypkMDpIeCA3MOBy4c9Me46R4NKumv4V9nu9M0tdKpPIaZwuJKYmoopRQPFhp6u3XBX5xJoWkGqVaX06mr3+s07I7Wl7XYJih7aG3py1CC17GuNJlzNjTumJtrqvPCsFjsQFhAWEBbYs8CBBTmN2s9gLVmgo3XdO9SaqEKoRl0ACNooYMmhSg5g1sWS6yLLzgxgz4zYkpTDo9o6yuu5bDAjcKP+cBSmtBkue/D3JC+Ow6RUHu6qSu0tqaaBvlUUWU4gQcawMtnm2P3pIxv3Z6O13QwWr5OYNAIy9pXzNIT1UEtz3h0MZvbINGKCCgsICwgLCAv8CBY4sCBH391yK0UNC621Q/0rhWBbvogCxwRTlOVyBhWIcz85x4MjmUh+YN7MDkPSg6GQPbcSvr+Iz+UQ8OhRtP+mEGhdxfJxtmeAQ4+vzZczejs33UNDc2owlMO3+eTN+KHMncmT5fnNkCddwrY6ZWRV1rCAQK1pkcaap6klJfkDeQk7hv8I51XsQlhAWEBYQFgALXCgQQ7Fjiv+5uZtbah/QTvRsYlMFIM8OCovcIrDKT/nhC736086hBECPwIvyo2Rt1a2PThSvnQa9ji9xb9Pmow+12W6myOJcH/vgtbZsSQragl03Q9rG0dii0t9eqrs4Uwf9ykwg5rhb2osBBubMprbU5Yl5WGFMjFRhQWEBYQFhAV+oAUOLPGEvq+seoyaVUyqY4MzxRND87XbK+1KLtlEYUcKQBLg1ZD27zAiCa4coWaCQgpqUosbCkdWEOo4TMnCX7QlV2+zv0frgQeFwB61OLbKwa29VU9n14ZyePwydLbfw+Bp0SxWOmFh5YSyGhvUoIQSZFWbVYksTasaCRWhvWNHbWzZAJe79APPo3jba24Bc3NTMbIFFfIV2TINXHntLZoU1ZRUFSsoXfgTdbrxd8mF7ZU0F6htTWLB85qfV3F4r78FDjTIkXkVUCvQ3raImo8T+vjUsPTtWsTCtjsUsmSOJJP6OYRJipL0LEUEWbTLybM52TsOa7KD+6wauodPL3mE7qA319zRkWzo7V2HcCRjVCpycm29pzA9219J5ygXh+osPPAOZgYagplAW9uSFAnuWoosug68/tfM9zpCo1pT5FI5ZOzGG3Prm8HC779o39ndaZFj6XC1VtVN0zJlSdINVSkoLq0mezVD9WiS4vFWNL+v5PL69Mw//M70eL1Vya3pqsddNXzuEoazKwiIuuJSDZSJw+g4lpuQzoAsY3klRsBlGR/IzlUw5UvPBf0CKL/XGRMbvakWOPAgJ0uagYLHS5X3jn5lLS31GN9udxiwEWnHBqoEZSUbyogpySvn/B47EvN3CHWG/Td5b+xZ8TaOsJfbfifHdJ3SgadNhHKDvyId6djwHhm65+lBVqWF4mMLyyfTn37+QfHzKx1NM5thC7J4ByIY9YIHGmqohrIDXc3z4Pck8dO/T0z0TZ2Lb8z3snazXphc7YWZ+XHlyq3Tkbtzp+DrlQGzmvR5IOPSv+tcoZhY6mKwoLhaw58S1nwaKnhMFz4gio+g24IGfxmFBapq0FtGD68CAXcBPO4UuFUiNWVAdWMuV62CpmYQ3JL4MwsolAAeT8n6n35TAS/WkSJYglurQVDDgAOKJ2j4sH8qltTfKYDwjZl94os8bIEDD3L0hUxNy0a7Omfg6OHb1XfnBvOXkmdRJNJWE3l4OO13KAtHHh0pozAf88XxxR305Hv6+3YGxw8vQ1OjbibiA/Gbt96/euXqiaaZ1Q48FhcHSL02FQYDUnpTc2Pc29K8Cm5PViXGqBgH1gJmrarpqUxzdWJiNPv1jV+vX7t7zntpbrC6m2uJQFoj2lJkrwsGB8Gp56CE55x+YpdB/F3HxRnORHsiWHHVtOKUU8ZQJna0wJlDP60aKuRgnMEwGxDYFMkwXJopKQRaUg09uoqhyXnTp2Zkj1YAnyfr8njyNZ97V9W0uB7WUm63u2oF/WXV7S7LAV9l5f/zP9e0YLCqBfzoMXoxau+qmKpcttxaxRP01uSwv+r2BXTJH3rxi+TAnl1x4AfVAm8EyKmKyzT1Ukw6f/xqMrk7FpfKjdI3d0cR/pDFUbTXzQk7A2fZ9W4UuqTnqHSgtsepJG/N8dj2n0wntOgomTztRKuYbcOHDolEBL789meFW3fHip9e+mX01vSICqkAr9TDNqimccUeHmxPqCMD942etknL504f1EkkjhsBKZnxw+V7R1xf33wf/nTlZ5FP755xw07YDUmvigwpbH6IZqLLjcCNmvtyvACTcDgnePZx2YsLf3OTZ4cPFDzlLDIm6yqIYk6kwZYcsCBVtzwt0vZWSBb+prNqjo2VCIyAAEoxegJJCT1GGWtKFVPZ8yBd4MXD8FSVdo8kh906hUPxiBEgvUloCceht2kJWpvnrf/4D3EIhXYgGEqiV5hCkYOKdHRQhNjFBfBaW+CNADmysKx6K1YyOdty+uTvm5fjqvJNLJqCWCN6bpikICij8CQHCmndzMon9OAbx34w4w7fdeIpU1Se7WSVc2Xv4vx8X043/iyvukuJ2aVh97crw3q1ijQCCW9mTF/BfVmq31PsGurZbhwaWvA3NcXxfsatzMU4cBawdnYa4hN3R6u/+/rfFT+/9Y58aWk4CvGQirJtqHaKp51mFGEBRQ8csQLSQaUwOM2r/ZIFxNAlaMMWujaRiWYNXaasm7pv7E1Zrs586HneuT3fGf64mRQP9Bq/C79zP8QUVHXJMtYQ/NZUBECeqXgUCJaaXurzFVwhf7baHk65Az7KNW+53O77hUhgZf7/+j/satHmZCjatKP0dmaDRw+LEpgDN4Pf7AN+Y0DOvmGEggnr+KEvMBNWzSpKcO6zS+9Ebs92YSm3jPL/9pks4yqZLncM+exd6GwCp1UP8yjtve0BoaNQ+aByyv5p4dw+vPGcF9KLA7nJWCtubQV2S0GstsMwFd1oaGVOtzmqyzNrheO9y+q7p276x0bvuYLhtKxgJFOMA2cBa22zGf7p658FPv3mL8r/fOuiL73caULRq0MRXSkKNRJY0L8BG2qI7+vIFXC9JmOVc/JZuKBszxhSxOF8Hc9KZ6HFwMfP8Nx1Zmt9wVZftNFyjiQO6q/R7x67hIXgjxaAJGtODp/DifquBAc9SMldW5Z9+BEt1buSJYN6MgWNOfxGZZU0Y5s9Kb87lA63hP9gXRz9Z+vv/zgt/TefiAXbgZvJb+4Bv1EgJ6suZGdXU9L46I1gyQiMWkaqervwX+/CVlQDU+UbBntw+5up8nMPCi4/ijh84T9+8PO4HsfqgIrb3K0hWwCwMN2SqDidBoEqDSKX+KExGTwyPtN8+tQlTyvqVaoucVM4gNcYAlzT6tVrJ92//ezfVn5/74KW3mwLQN6tY4lIDSlNNN8IyBAYbL+sztt90iwi2CFvjwCJgI6LVpyoAnOF9wsd8H5oNvOsdpRZuTKUh9OVg0Tq6sCo2J4hDYJinp1cUcqgzCDJc5e8UXqvhm2haDMLGiON/Z1QK5uQ2NrtrUISUhvKkVQp87Owpvw/rM+vfCZ9+E7+8d9SPCss8NNa4I0COTKdrGimVa3FpTPjXwV9ai7v82mZ6zePh35/a6wCJS/qlyDwUBiIwzhOkQG99+GQ5P6/mV35pKICLkDgsBLvCW9HdniSciwUKsqhtiaGKquZ8ZbtQyeOTjX88qN/ch8/clkKhRLUMfynPe3i017UAtZ2PAL/8vV72u8++9eu//Xauz7YQlZvVUWfSGIZuIDtaZGvRjlg1kOlWed5AKjoOB72ungGMXg5rxO8OR6cc+wPL7rqDOD9wUlnRvIUI/0fGo5nR8BGBBj+HM4KOltwmJ5CqfQgDVcPfh8v7P77M1LTO+dBi6Wt0jdXwfenSckFO83+mcq7PoO+uCRZn13+k/TRBQF0LzrRxPtf2AJvHMjZFyvSo02jti0fPXzDr3mk4c6WZS9opdjk0lBhY6UBwzMu8rL41sNF48y0dFbEj4o4M2A9uxzc8Qj3blTEmMPlr7vsioaqjW3NOy0Xj0/2v/fel+6zp6+r0eimpLnLL3wWxQ5+UgtY6Zx7+/rNYd9vv/rz0j/c/YUX1tv8kHJRv0EiNlFQksQEuOMggYcDR05XeqeTvOOVOdWaDtw92sKJ6zy/31ro4a2cQHsdBDlbR8fF89+JUpDnVs/vseQd+5/0k0QS/Eicanr3JMAnFwEW1iVjbRmfncQ9ZSSkMwf1+bnju7+F/4uhWkXrd19dkX71vgC6n3R2ig972AJvJMjRl8Qcl2Hp+o46Pvptc0tkA6LNW56ZmZPypbtjW2sbwzCx04rtTxHsivZtiderdYVLuqidrt/OTYPpJ/WbQD1ERGFQGnRTYPXMKlYLmKqrqA/+/9t77+e6si09bJ1wz7k54CJnkADBTIKxyWbu8F6/MDNvRtKMNB6pJNu/uco/+AdV+R+wXC5bcpVVZTlItkYaj/Tm5dSBHdnMOQIgCYDIwEW4OZ/gtc7G7nsB5mY3myD2Zl0CuPfEdc7d31lrfetb0VhNa8OMv7djprmj8553z44rNRs23IL6hlFJ9wiFk1X2nTRNfGa51L8h99mF466fXn/TY0/VK1j7aEIW7wGiizBNHRYaJLBidxVv3ltNcOKB85UmYCHDiodH26kGn8fFE6rBrXo/DNLY4DlC/jkPtLNP+ZHz/h3Mu6P9Uy4ZqZbQ8OYWCG7bAnZrC0iTcVyH7nfyBUm1NYPlDzm/ccve4cqb/xxSpf/Z+PTMp+rxg6LT/Sq7z1+nw31tQY4uEsol0aPpnGWU0qQo4t3Wcz3UtX6nem9on7ru3pbE4FhXbmAyZEAS0w5lDC9amHvg5DBGFOFffX7Rl7MuK/kQBnBsoLRXUW+qSQa6m6ZdfRvv1W3acNXc2n0nUt8wojY1zdg+HxJNWKNXMVaXBcqZtE8/c/l46uy1wzX2VK0Xi7sVyC/dKvR4gxo8DijxohR2fry/IT9b+pSFBhmgVQ8emKxI0D1so0flhyuNgCvLc3IKu4+Z71Y9Hk2nYsFS3rODYIxArthRB3BwJ8jr1zHfdGoWivEkUrnoO0O5R0fGXPKDGlKGrDfSv7L+earWM2l/eemOdGiPYF2urlv9tTna1xrkvppQVK1gGeXJcCC4AP6apG/bpiHYOrJRv3t/28LgYGtsdKy5OLNQY2VyQStf8tilksvOmiiQ5OQqnNxa9TTFgY5PXCag9qCu2GZAK6k1/pSvuX4y3NM93r65955v99ZLKhaq23XRWVvTkoruzb42d88aOxErlZdT/bc3FL+48Fbh8vDuHKRr0EeT3RimZHo5FPSm/7lnzwxUnctlvlKlJIX8vGqQY9DCgpOsKyL76dyIVaSTlfnhx3t37JPHkabY/iqD/c6JWKzUhhdAWN31AH1bQQ2GwZ6dBenCLfBdn8ZMXdGxQKXOj0guCV9u8sGm/KcX/xl4g/8rbvTBGrtdxOm+IhZYEyBHtkbmJX1Xc1g1fldqrJmE9oZ76u7ec6GxnS3W8Mj23BiGMOcT9WY6FSmmUrXlZNanJrOeYq7oluNFuZTMy1LOwJo7Cm0SV06yrJBmaRHUFqzz5ZWwL0dNTz0tTWPBzs67/k0bbno72u9KrfUjtq4nUa3C0EWHgVfktv96hyHNLtbFz13f7/r49mZvaiZahAzWfRAgkXoNo28QT5FxIJdnxirgxkGOARgvZOFHxPJjLDjJAWgl4WRlzu1xAEfbrEQXqtmXvCyG5waX24OtUwFf5tf5QNrUBdDTiZUNEiQGRyD86S2IPpjGc6fGVAX8ZrCWVawjYx6jIka9fMr990w9kFz44OP/Mfq9t0R4/uvdemKtF7DAmgE5biNZRuFalLA0zXLe6w/M++sbpurWd09DPDkA6XQHZNJ1RirpK6YybjOe8KbiyUBhLulJJ5N6MZ5ylw3DjVvABt5aRqkJpkJ1NRm9IYotfyIZX0P9uNrYcB+iKNNVE5kGn5f0BdOS5OxTjFVsATtXlOHMtfXTN2/vjKRiEaTdozK4QerIjj4JC1zT14kFGcnLrzAVKye+ksHLSPtsrPS2WP6M01doiWqBgm9LYYtHFVkolfVQ9KG31gT1WzcBNGHIMp2BhbvDIN+cxrOlECUdJeORMkBmj4JoBfwjEV345N7bC+/c+I/4xr1VfAuIQ1+lFlhzIMevk0Jaf+jZ0cuwzZjU0njDkQGzDFUyyi7dMhWrWNIhm/P7k1m/J52uKS8ko+VSCZUsJNS31fJKNDjnCwYW1WAgr+ISqPuXRd0/7Lmq5LFKzkDFeAFuq/SL8dBhF0peuHNvv3xzeK8LUn6c3OXkEjOR/Hq3U+xNeVkGVSz/VSnCfpwZaFkGdI/y/JZ7WoyAwsHwSf7bixqdCg2ouo/0WTSs+KsD/7sbwbVnG0BjBODKINiDY/jJAhYUYLtEB9Qqhe2MXcq4yz6Y95QsCYWqb79r/+JkTPrJ28kXPTqxvrDA81hgzYJctZFUSSHAe2RiHMObMjRYeti0dCiU3WAa+G2WUVoQRXJ1Vxbb42CPVXygJ9aK5IRExXgNLWBlUhH53si+9Mx8SxhLUFhAkXoVMtE4AilWD8cG9+IeFv6ueGMVegcHugqj8lEmrA49viwTk4amrIQBNq4HFEHHWx+Pf3YOMjOxr3KF/FiYeBizQPV5I4tZy4xMfQ/u3L2OH335so5d7EdYgCwgQO4p9wGGN2k2o1yCyCes0e+MXShI9q07naXBez3e0blQBtI4k5MCqtfJQ6Ucr0fGv2RHR4Q8INa0lylWMtCrgBsDAa6AU8l9cUWTp1VjvozLwPKF5JnqkNoegvpObKIRDuEJ4RndHwXfyAyeYRYBnkuQsaJ3Gqz2jj8zUn5O9jZfmzwAbXd+bN8cuCJt20gRFDGEBV6KBQTIvRQzi52sZgsY5ZKamJ93F2fmvFgPJqOGDZIq6B8FEBmYMWYlBegoeMfbONFZs2a93LN5NPWfZfSYZ0fbrf5asv08TP2vhDfZOo8fjxYYJxh7FjjF49cRuoMYjlVUKKdRu+fBOBTmU3iWDOBW7p11TmDVc0vMZGzNkfdat0YPzA4P1eKOx1bz/SCOfXVZYPnj5eo6dnG0wgIvxQJyMuOWplF0++681w95JYuZKOxDg14MYy9mEYRSCExUGh3HaZ3KwmmC58BGAEhSX0yglEfG2U8GBtS+l//G4Iy/eI6Pclx8rCwfYHopT1JWZTmy6tfjJOoIoMgfpQ4INMgPizf40YvzYvMehPEEptRGpiE8nsSlsJ0dlg+s3DP9zSg4qBgLAcfDq4UZD4zc65VOXdlpn776LOj6Uq6t2MnrbwEBcq//NRZn+IIWMPJ5dS4Wi2QKaTd6Lah9yoS+V1I/eFubp+2Oq6Y++ieBYwXyyCv8LgYLNxJfVANfBMOUkQjSsrDcO4eRxnmi3LD0MwPXp9V5E6YpUg4WXPcGB/fA0IOm7+KcxD7XpgVEuHJtXndx1s9hATOT0RZnZuvdkENKLoEb6X+wCZ68I04gIc+OXpSnKyKvkPJzQQzpMYI9rUEeG43HMyMJ+CjwyZZi8lp8+Wpvjj5f+YTKCxmedGp8z6x0+9F1cky0WXH8tDJ6Ytb6NmRV1oJUwPBjbB5gOIZnl8FPKU1N/ikRcDjVhhXCM71LpudCv7nRZkUw3d4bI4dg6+DHuMjEc1wCsaiwwNe2gPDkvrbpxIprxQJmMulZWFjwFRHkWPk2A6HqbBTvzE2AR2zLkpOZq3g4y9uWPo/lKl4dC4FWwqAvUp/CQIn7ntV6rNVblcET9UNNMzpeRDoplmABmZWFmRSeAM+3PSwb/ajjYjYzdGMu0wXjM3sLg4MsHiqGsMC3bAHhyX3LBhabX90WsJMpKXvqjNvM5hHkQNa/kmA2lvoMVMt6s3Ml1RNqd0r9t5knQ3V0LOzIW9zQ74/PolVsxgrL2bocMklC7FGkkYqCyuNtzvZJeTcGRSzwSoqbFc+QtoMKPeiD+sC1LgJ2CzIrA36Q5hKgT8ziJ3HMSCaXYLLilfL8Ids7K6dgTXqozIIasypyKJcLw4PZPRIKLeDHomZudX89VsXRC5BbFZdJHOR3ZwEJu6NJmiLjDyyOJL+KuhES5HBlScYmrPgvnAhCPheFL1nTnWcr3mZAsZxG8rBnxIKmDw/uTz7NWkwemoUVeV0bC7qyrgM8K6hDsCECZm2U1cfNJ2BhbAKiTqgy55zz486KfcIAruIxEiGloMFMoiWfTvGurU87WPG5sMALWUCA3AuZT6z82luA3BxN1VTsNcCBhU3g7KvDuwjwMnCud8KFjamZGoEi95hYkJAIHeSXsWwBe285XCz3ilZauXIs1Z88GvjYEtVeIymxcOll7JixdA68zRQdExUHqKg+GYK6jibw1KLKCdXHDQyD3T+Kn5Yc9iVvtsr6LHIVTp4BYXugJVn3cfZ4gPk+jzGVC5npvAhXvvZfnlfjBAXIvRrXQRzFq2oBavCuKrLmIjE31sGdN9JZDjAcSJhIF035bJJn/dbcDgywib/aM6soozy7Adj6y0Hx6bVyle1XALVCmmGkFu6D0pG6wdqCTRY6WkALYj4ukwa40Q+Fu5P4GbWGJYxazvx8FFAzb5dRUBiNBgE2V/RahQL2WBVDWODbt4AAuW/fxmIPq9kCiHHYl9CSXaqBgTzs9M6CeuSHVWS2KrDFu2jTKfN3CRSLThiQPDCa9h3AdOCOgxz//VEBwGfJ3T3NxI8CIEb+Z54XwRrrfMB8UKejQGMYBZkxVKm7oDQ6Bsq1QZDG5nEJOhvSdOHTBw9Lcr5mpYMCB2QTlVPY2apSCcq6WUBdWDGEBV6CBQTIvQQji12sYgtIko0gZ8iaVkIQcOZsXiPHpLkq3QZYJm15Bo2HLQtLAUv6lMCOyCO0NpN0psq7J5Vzv7j9Hs14ZE1U6TzoOFjpAIM5Is8UfOitebElqmVCZjEO/vsxR5CZhoVAZyFw8bFSkYVRTviLKXyyQC0VHRiaUSgKkHvxyyq28AwWECD3DEYSi6xhC8iSbbuwo4SimExci7XKZdQMxh1kvtDDMMIpHfSTkfQZEYWROxhUUpaKtsJ+ssEDkdyDW+mFPcqze1Ziy8orSUfEQo+VwYAOA4sefN+F/JAyenkGLlcyHQ0T5onS+VMNIDtqOgN27OTj8p7mlfAskXAY4BOAmnKROnyIISzwEiwgQO4lGFnsYhVbwJnvlTKST4pEByw5k/iSIuNXp7VcfnkllZ/gj8swM/+NlRnQ8DhBPwYN9JMFMnlLncfb7WkqIxx8ns3yWBzhnBPv7k1/eUCpRZnJGiSdyApgd1hwoUeHup1Vm+T1dStVujjQkW9I8EYlFTr+Tn8754ptOywh7fVsF0cs9YIWECD3ggYUq7/2FsA5WrJkxfFOlnJyD5cEVPy4J1NAVvp7NPGTnHMl3McCnrxUm3l9yzUbWK+2J5eCV5cHPMsVqhSrM0jWg1gRSKUDYayTw41hH0Uw49VEE+KMPnwMPNzJlWAo58clwBi40zqusqLpz1ZT8SwHL5YRFniCBQTIidtDWODJFrBtZGVYLhmDdSxIR0UB1Y0Dud9V8ee4vPLDG2bBzkq/uYLzO/YZxxcF/BgZn/l95DWRV4dNDL8KCz75UCsl3RXSC29/s3zNSqXco3UnZQzOqjZujxDORAgsoX6LYwFW4s2KvYlMQnk8Aj/msbF8HhJVnBIDgjdanqmj0Oc5ZKiGGrx5vS4kWleJb95LsYCQ9XopZhY7Wa0WkNweJAQqhqyqGNPD/Bxz5hxg+iYGbYxeBDWkCUJSYKxRDzb1wf8pY8YghPUsYPSUx7144TXzBrnWZbW/xfdX+cn5lPxsCMBQezNbhMzCIkAi4QCUqlLHPKaOwoWlaW8EY0xtk35njwDsxVoHEQAS5BN3c6n5Tklr8Cd9ofCTXdFvwrhiG8ICzt0shrCAsMATLSB53UUsiJ4tqXreNPJ+kiOmwfiITx+MWM/W4dDI1yPfqLpurXprPENGuUBaj/J3BDJMIozyd8v3Tl5fBXorX21O7F+eG2RHw2r6eEEDrc3635EMVyGVBGw7AJJLAk1TUZQLl7QIQHWnIJxcMeapURUgG6wsgdYn2xBUszrBMh4tkm7ssSZ3obanYSJaG0k83XJiCWGBF7fAN/M4+uLHIbYgLPDKWsDlcefr6uoXgm3BGB7kY3vf8P5x3/SJVIt1Md+JMRUfVfv2Yvtm4s/kfVFRg+ZB8MIX7cfEXnKWxdoAVZRfHh3q5CLS3KNjnilvoiplo7XRoUg4/CzPBy92OmJtYQG0gPDkxG0gLPAUC9g+f1HvaJsq9m0YXkgmmpsXkxH0U2T68tBETqjHY2/0kwCC0TKITsIgiYUZWd6KeTzsJ1+OhftWDkZHKTgFBqygvDJY6QEN4i1SaTn9TctRNoy8v+U+IluWe5QsR0bHzrVZWCiSlzZkI1jLF0QNZT9mBEtFmE8n0XcrOg1iWVZRd/5mlXXsfCwnV7lUY+d4c6SNwsKUBafFqlGeavJP5dc1XfNH/HFx4wkLvAwLCE/uZVhZ7GNVW0DVXKX65ub57s2bh3y1oXn0ZizuzbAJn4f5+M/lp8sq4ugfwSJbhr/DluT5q5W5Nr5tVmfHiC/8xfiQzO+q5MYIUhiwVjcCqhxPJXTJqvd48XqlgetSZ3IJ37EZgYaWKWOdHIUoySNjXhkv7WZMU+5VsvwilX5TPtFwcoyVfJ1k+ILB+Whdw4RL04lzI4awwLduAeHJfesmFjtY7RaQXQHbziRisH/HbWNkYJ15d6ERoSWI9AxECvJdWASTKz/mvbpZDnlN9K5MNWbJZbOItI2yhH6S5MKftCz+dPw8PtgXkXlJ3MtivhfvdsBAjgbz+VhpOv2jKrei44Uxj4p8M95Kh5UgsG3S8rzsm3l6lRcrayfgIiYk/m9jBq2IWTfsISepLnD7gwAtQchPIhnF8SxtZEpSKJMdN72oPQ97ofcpsW56Fn4kIUvTtBVbCupZubvrvtKzLiap7u+m5flqvxnF8T+3BQTIPbfJxApr0gKanoP1XZc6t2yKFpuud+emEz3o42CxF/N2OOsQvTU70Bpd8K1rnw/p/mRpLu1KzsXDdiavl3MFl51MagghSOWwVPTFZAQUxBoFocDG3xkAcr+IysSXcnAIkFQmzmj5DOp44UJ1hRsXWWaAxkGMwRCBGIdPBkkssMo1WyjkyVRcaNumgRVuWPyNyThQEKLDkQgojVgzNznmLEXQS41hedkAQS9rFEvhSvT8EE2Ro+IMCT1CBDrDGw3N12/ZPKi0t845rFUxhAVeggUEyL0EI4tdrH4LSJrHNpOLD0K7d1xf3H7h7iIM1ESnjUaEBESWSpdsWVJMT0fjTP1bBy7U9/TciWcLaSs2GzDSWXcukwliTzbsG5qrNRO5UKmQi1jFom6UDR2lszSMCWqKYSqKQW4P+UC2bZmWYhUN1SqZil0qOdRHNYOq0YgdCB6OJ8mAxsYAIyOG4Hu4AGXpOLhR/o6RRHhGTXFAk/MrCdoIRnmtHjIr/cg5QdhF5xNsBf1QJKDkwm6Yx6X8DhDaTn7O8RPpT8JDGSEYX449ECQVC4EYGZmmItnZRm+qYXPXUOuuXdcBSTyr/44QZ7BaLCBAbrVcKXGc37kFsJQgU9/bczfYt7V/an6u05xO1yDdws29K0dKC9GmhEdaDngW9N7uO6Ha6H13NqNDJu8r53JuOZ4Nl/P5kJTMhsxcrh5y+YBRyPvtQsmLIKcrZQNUw1Rty5JN21Qs05TL2Zw7n8vrRjrjwp+aWrBUBD+suDYU27BkCzWkDcOUTKMom1ZJQSakapsENxgnJHCk7RTKKir/K4ZlECShZ8gGgR8WBzgBSKKOkKAk6VOWEaBcJUybYS6OhqVIUFQVBDZqfEqgiMFa8tlwBQk/c5ahrSLGSUWEPgI45038iUfsbggvbNy987a/p2dU8frIRGIIC7wUCwiQeylmFjt5HSwgu7yWWUjN+N/YddO3MNMGU4moMZ1soWY8FKijQb5MYWIumrk6sM6oax317A9Oe6L1I9DoQtaG5YMivswyAhp6bobhh3IZvbiy10YPDj9XJdNEZgnqOtroydk2lsJhTi9XcBfyebmUyWj5fN4lFUoahhMVq2wgFmJWzjR0o1TWy+WiZpbLCIxlzTZKLhM9Q7uEn5mGu5zLetLJTKi0GA8XCyUPxkoVxCbFTGf1crGguVMFTc0WFd0wJKp6y0lIHZmbh+LUJGi5beD3+iDf2QSZ9UFwDyWWOJkUhkRnrYT/oSwMupboTzL+Jp4F/k6gp5p2XXDB27f5cu2b+y7a0ej863AviHNYPRYQILd6rpU40lfAAoo7WLDvD1xqj8/r5dHF+vnCoLccN1Dk0cLAnpMTkwtjicjcpTs7BmXVdJVKxci6dQG1q2XS5/NnJJ87L0luQ8bPJFkexRXKtjMILshJohzdUgrN8QvRKzJNjcDHVS4pbhODf+idIbhJ+MIGdyQ6hmBmWLqFwGaXTZeN3ppNQFcmT890WYahmtlCKJ+MN5dm5lsz6VRYtyUXoqiSjcWC8zMzoeLEZENxfr6hnEzpRspCZwwLBKZnYPzuXWjatw98qGNp9G0B7f4AGNOTIBUYDQajkSBjpz0qEnd8RwRdh9/pOLWyrYT8uVB7+2TdgX0XYEvvDVnH3KYYwgIv0QIC5F6iscWuXhMLNDVNtr2x/1p5OtmalKxg6ULRBfFkCOd19GMsScnmtfzwVOO4UdwjLSwGCp3tI4Ftm0Zc9XUxyRvIaJpWAK8vJ7m9+NOTldxIp1e1LChOF3JsPadgQ3EU6nf8JPzpUjOKrePvWLfmuIsIbEu/4Q/irjCvz7SRmYJhTKIzUr7O8QgRNOkzAz3HQiEA2ZzPKBRCqhOdtNzF+bmamcmJ+vj1G71jV67tywwON0Oq6JUKSP+fW4TZoRHQp2bAt2MHhLf0gvtSM8iXMEaJgs00eUhlBDRy5BzPDc+ecnIWBUARvYPuotXVMNO6t+9G467dVyFaN/2a3AHiNFaRBQTIraKLJQ711bCA5AsVjFLuvnoiezUglaN2MuHNnytstCDjpnJolN9StbgRsOIZjzk4V59oubM9e31wMl8TnrcCgYxb9yzaoWDGGwrF1fq6uBoNJ8DvW8AO3DnJp2eUQCDn0j2ohKWYiuoqyi5XXkE6CvqKLEFmm1QJgPFBxZQoRigjTwU7JUiKjEk0BT1FfI+grcpcS8xK8q9UdAFdmMcjeHRphU5vXXZjKBwJHU+lU43pySkPemNeFT01dSEL2bFpmBsahbbeTWB2NAJ0toBKjVQz2FsORZyJZIJF3o4fS0CH+IbAh6xNdCDtcGjRvWPjYNPRN8+4u9f3S+5g5tW4guIo1pIFBMitpastzvUbs4CqeXP24uKVjnxemX8wHRmZT4aL90uYnzMwDOiwD8m3cdmFjJIdyumFbMEfc8nrithhXJGVkuXz5T0Bb06vCad94VBW9nvSoGsFxe9NeKI1i/5QKK+63SWX251xB/wJ3Y1hTlWj9qVILDG8TnBTUWVsAYTi0ZpBBevYwbwsoSeIdW0GuJQSNnpFfS7shScrWB+gYnwRXS0iSzqMUAJHGUFTMr2yZoLbY/lxPdXxxtjHdrEICczL2cNDAAtzAI010NDWBLnaMOQyRdDT1EiHBmlaYn4Oz1hCJxM3YlthbyLU3T7c8sa+U+Ht2y7ZvoBQOPnG7j6xoeexgAC557GWWFZYoMoCdjg4p2zfci00HeuQ08lmA3Nl5liiCan8GA0kSWJiKxYpV6d7Z2JYH2ehd4UJLBwoeYzxRAV/d9voE9mGTzJtHfkrQVexFPbm8l5fWXZrhsvtybuCvrTH7SnIGnJVLFMznPybpcouzUCQK2KeK4vLJSS3lpE9elr1aDnUnMwjQBbA58nLXk/edntzCILI63c4/rKlqGVFd+fsYt5VWlxoKl67sSX1YLTOzhe9GPB0QEs2ELLTaSg+GAZrZBigIwpNPR0w2daMnJs0uNMpPD9enoBnRlwZ9CKNxkDSvaFzouHwgcs1h9/42G5rHpJlnXmhYggLvGQLCJB7yQYXu3t9LIDkESQy5ue8O7Ze7V5cDE+nC5AuDEAplqxHgNOw9kwiij6R6RHgnKIzBLclA2CM0SntLjK5rCwCRFayzUXbb7iUkKWx+jL0zCxbx+5uqoqZNVyGCI0YjHSCjZLLqUQ3MawpuVwly63mQcdwpQvzei4XUiX1guzV8ygwXZIx/4feHhYaOORHzOq5im58v1zIavGFxaAyPrnemI21QrEQUKkkAAFLov1hH7nE5BQ8uHUT2nesh7aODoCuDhgdHlkqTGcSZXQg5MFJQW+mpqt1qv3A3gubDx/6DDrWjUmaX/SOe31u+1V3JgLkVt0lEwf8KllAcXmKRjF/zevW05GAP55tjJbyt+9tUoZjddJiASvCUghmBHAlBDgmhkz/qC0O/Y1skSUlEqdYm4KFyNgwVBvFT5jyCVWvcfEsnmVjvd1oMPURh+eI+iQS8RzRM6QXEi/Z5/gDpbbcWDrnwvc0ikXSLjU7p1J9OUqTFQqqncM0oEuSZA8hKx6njHtFXRYlnwfPwBjMec+Da9sGaDuwD1q2bbSlG9dBHkjhkoxNiS87X+MveDZ0zkWPHbwcfO+tX8DWrZdsb0AUfr9KN+waPBYBcmvwootT/mYtoOqenFXKD9YcPmx21NRBquXGYvzmQGt8dLIGpudrCvGcxyygpJeF4UqNOPbUapvkRJx4pQNhWGdHiiUIQI6KiVOOgC9SLkGoodQX1RiQkglhFHJHlk6BSXc57hn6X+g4Lv3NIJBpUzqtWIuWbZLIJSqISTJpSSKIUd4NnUEJj0LRFII21lKB9kiCKw7qypDP5uHB4LCdun4D2trawKO7IeDz4Q5l27RLEhJP0EHUcrWdLTMbD+y/0H782AcIcDdtf2ABfVnRUuebvd3E1p7TAvy78JyricWFBYQFVloAYURGer6/OBeLpsYn6+YnxtvyU5PrUgvxNjlZDKMSiYYApyJxxFUql+gBEwN8mP4ykKZoIvaVyi6jWHAbhaJLKiE/pVh2YcG3W0rlNaNY1rVcWUUWpeJKIxiatqqhqgmJamH+z/GoeIHdUgeCpe82b/az/GhLS5QR8sFo8N7ejmgL5uRYkQKyJFHSS0k7nQ/swLGtsLOvD9LxRenGpWt2BsWa7RK2ke2ozdZ0dz1oO3bw866jh35b1917xw6GZhGiH91wTtw6wgIv0QIC5F6iscWu1oYFrDKGAMslD4YAg1I6VQfpTJOUMYNYl0b1ay4EOmzGVqIyAPToqI4NvTuqfbMsHfL5gJ3N6XY+r1q5vFpIZ7yFxaQrm8lErVTWUywWgkYyrRZRBcVOIWkkncefRZeZKyomFNFtKqKXRyqSjudHLBMMPJIYNLjwPRW9PccbJDEvyhGuBDkCOAI6LFTHLaD+ZcEGF1YsYNbQjrcEba/fh50JiniKRSvo8eeaW5oXIn3bhlp27jjp27Ptgt3ZPogLxRRVFx7c2rjdX/mzFCD3yl8icYCr2QJ2GZNrNhVpk0SXE5lEnCFAc+oMEEWc1BkBAqXjiFmCCISenYEak0ZZNRAMS7mCWiwUNLuQ14qFYsDMZFAOM1tjZ1LufDYbKmcy3nw2Eyhncj5c1ltCcEVB6CDKdXmNbNZbQu9Szhbc5RJm5oqoioJeoFzCvJ9lykoR6S2KpaCECgYfEQHJk0MHzGlA4HLKvW0LV7E0rCjwuE2PF3OQrbXxhuaGmH/bpoHOjRtuhXs2XPY1td7VAoEFS3XlsKavukRvNV8+ceyvgQUEyL0GF1GcwuttAbNUQtUsbMWDkl7o9Lls1Km0DXyVCh7UvdSwk4Eb8oUg0v89dgHfy+U9qGwSRm8wUE6nvdlUKmgkUr5sNh1BrUof6mA676M3qNuFolou5NxGvqjZGEZ1Wv5QSg5LATBE6eiUYe83rNfTi8HWlkRbe/u4e+O6u4GujgFpfdsoFrOPyP7wnKLpGVlx2J5iCAu8UhYQIPdKXQ5xMMICz2cBBEBZtlFnxKLOpORv0U8Dc39lbCaAccZyGdv0FDUUedYK6A1aCIL4M4jeYADFnn3lfEEt5HNe9AI9BgpFo99GFQTYh4dUwajlj1yWNU/R5/NkQ02NC83NrVNKY3RC9odi4HWnbVVNUzH68x21WFpY4OVZQIDcy7O12JOwwHdmAbOUx/puauFjq/jTheFQl4kvJL247GLBYyGxBdvzkO4lenKYu6NaBFJYlrAkXNWKikstqH5fRvegMoum5RDYRHH3d3Y1xY6fxwLfGchZ2aKKTbC8mICnPlr01MnKGShbgZJEyGkuozBt2ZEl0rDAVRWhkOe5sGJZYYHntQDKeDmlCks1CayejurOHS1M1MZ0uQRb8nmNKpb/zi3w0kDOKpdlpEf77GQ6mMvmgmo8jQnzbBTiiVo7l/dhw0cdnzIR4NQSShNlFZ+nYAeDOY8/kIT66KwnFFi0Pd4kpgmwTYkjTSSGsICwgLCAsICwwBMt8K2DnL2Y8UIiEYWx6S6IxXpgYqprcWGhTptP1hZTmYC1mAhZyPwyyyUUvcNUt6Zi0ywtr/q8ZTkSLvtqa1LW+tYH7o72m9DTdQtqa8ch4puXFGJFiyEsICwgLCAsICzweAt8ayBXzqfV8nyiTro1uiV9b2izfunOieLETI92f7IxN5byIwUMmVwGMpbzTtUOFt/gq0DdP/BvzJ8DdvwAH8ZOvKXUpvoF38b2gfTh7ZdrN20+Y+3ovqZHgvO2pmELEk0wusQdLiwgLCAsICzwSAt84yBXKpQlV3wxWh4eXh+/0b9POXPjR1P3R1v9Z8faCpBHMaAkxhoxzYaHgxQuLBTC7PZXWn6k2sAU/ixH1Q8193C5BPgMFTzZ+O7Oid6tm4ato7vO+Tb1noXutn4IBuYk3S1yBeIGFxYQFhAWEBZ4yALfKMjZmaJSmplvKV65trP44Rc/il+8sTd8/e6mMsS1MJCYK3YUdmDLRAUFjwNt1JGKVcg6XanwHeo4nMHf2T82AiipV8ZlsecV1BaSu7dNePfvuFj6wf4P3Fs2nFYaa2ds3ZWXZRR1EENYQFhAWEBYQFhgyQLfmECzmcvrMDK+IXX28t7RT7/4nvX5lYOliVitCxZ15CUjXBHAkY6RU1/q6Kuz3x811CWtdo7BJA+B4hAo05eDGW/sstLquznnyhbmtbbYXFTZu+Mzqa15GPN6GcUlwpfi7hYWEBYQFhAWYBb4Rjw5O5NTSqPjPfDB58fT//nkj2fP3dznhqka0s+j8CMhab0jb04i545QOvprFKhkB1BRTGfhS9I/qgyKRLJ1PY7ykYl/kRdo23loTwe29Y5Lf/bmKenI/l9Km9ffsmpRfQEVGsQFFhYQFhAWEBYQFnhhT84ukQc30TPy5ZmD8x9++iP93M1dAKkwAhUW11BWjbwyerG0GWXb2E/y5AjwWISRgI512iIvj5bhXh7BJBsk7cfed9aTCpAJZG/eXL/oyquNqYS/Nn/oA3MXElMKuUlsEklMFjGEBYQFhAWEBdawBV7Ik7OzBRlGx3vhFx/9cOLvPvz+9NVrfTJMRGxwS0UnwIi/UW03/osuGVl1vDJqs6gvwRv7gIKRrEkk/c7ahrAXQSF3zFjIk/J4NGjb9FcZ/KYHWpLwzs5heO/Q7+HQrpP25s4bKD2UXMPXVpy6sICwgLDAmrfA1/bkbNtUYHiic/Ds2b25U6e/V7w6ttOCckhnLbIcwzIfjaCu2jOj94ylfBwLXVa8tsr14AwSWpcvxT8lggoFQYmdyWBQU7KwEJn56Nq6kpF+O5pZCIFy1LCTiXtSKDy/5q+yMICwgLCAsMAatcDX9uTsqfEW+PnJH9/4zYdvpT64ekiDuQYEOamMdW+sOEBzIIjaU2noedUtGZjl24pf5eYoC8cCkk4n5K8uA71Dy9JPWp/BZSXUSUtbyLqU8V3ZyfoRdBqIjVZJhtZ51z/ae1156+DHcGTPb6G+flQKifDlGr3HxWkLCwgLrGELfC1PDvtYee9dON+ZOnPm4PiNwZ0+WIxoWNi93I6cRUm+GOXZUM0EIc/G0OOjkZXn4thWGF2FeYMM6hgMsvco3EnlB2UnmMlgzoVg6MJOWCV9EQE3/tsLu3yJRd0sJFztu3ddKOey11S3J4HNIEWZwRq+4cWpCwsIC6wtCzw3yFlWWYb+u83Zsxf35q/19/qnY80qFLUS+lGsKMDlFHIbS5BEEEceGgEd99d4OJMDVoVlyfGHQpwGghgrFKeqOjaYJ8cUUshbpD1SBZ1vaS/MbwxgJ2RPaqHB/H0iqFyZ7YLjg8fVHxz4FWzZdNpOpUakYDC9ti6zOFthAWEBYYG1aYHnBjmjmHMX79zZMX77zi59dK5dB8ONntRXzll1yJEgi7c9xlCmE2AkUOJe2uNNzssGCDApoLl8sPo6yuvxsoSi4ydSOFNBkNPx5QYTQ6clb2FmtCP1/yWCU4V5ufP+g/Wpt/f+1poYH5bqG6YkTfTBWpu3vThrYQFhgbVigecCObuYk4ujDzpS568cg/6RzUo2FdQAmzY6PlcJ/ydQYkJdbJAHJzlwVHSyZ1RQwACMlQ9QWPLRBeHV3h4rHWBlB9Xr0BYIOCVH85IAj8rOKRfodX6nAKYMZaUAsWjgF7l95scPNqr3HqyT+rZfh2O7P7Rjc3chHFpEsBMhzLVyx4vzFBYQFlhTFngukIN8MTzRf3fzwo07O8zJ+TZUltQpnEhBQ86kZEzJStaNPmVEf8aJXDl4OPNRVl/5WYW1yQKfBKGVjF0Jj6GM71D4kkgq+hKsyhjM9Eg6lELl1Fgw9Td53e6f7EhlYqGGfbs+17ZvvmqUilOqpovuxmvq1hcnKywgLLAWLPDMIGeXSyrcGuxZuHB1T3rgQZsey0WQ+oHOFCeMUME3gxweoqwYkPwsgiQZw4gVsOOQx0sMCMR4UQBblzw+OsTlHhzbQ0UijMEogSvrZkCqKPQiQgqFL4nwojqS0LYUhHidfTUesnLJiDowuUk9NvsJ7Nr5hb2weFeK1sTXwkUX5ygsICwgLLBWLPDMIFfOZoLmpRtvzl2+tU8bi9eiZ6QSbDElE1bCzevdlntcTMmE3CTGtySoI6BbHiHkSigVDiW/BCwMSYOHNhkQLu+wQ38zH5JCpzQyuE8XenUkIEZeHbXwkaHGOdiSrg5OdBiD8drETDzsGZ9rVt9944PiYuyy6g/MK5pHhC/XyjdAnKewgLDAa22BZwI5K5fRsoP3uhOnzx3L3XuwSYeCGwFOIphZzpRcbisWxmRwRsQQ9juDI5abqwyOKkzei/Emq0f13ysBjpajPCABKCsOZ2FM8gRpXywjqCPYEdARGCuYtbPlMiz685/f3gRT8bA7lwwp2MBV3tJ71UqlJ22PnkOxZwF2r/XtL05OWEBY4HW3wLOB3MJieObGzR25czc3+obitRpS9FnPNx4yXJ6HY6UEPGzJPC4mxcUArkJLqQAdBRcZCPLQYyV/x4u9WQ6OjUfV2lWAjsuCEaQxwKN8HR2DhWFLor+Qb4iQJ7VCImTeSwYy/yoZzY3MtBjH9nwKb/Z97u3sGCobxQWXqoteda/7t0Ccn7CAsMBra4Gngpydzynlazfbhq7f7HYPzISxZzcCHPe0WADyaYMgx3TCiE8XWFku1/ywR/f4fXEB6AoArnTDGJGFCCoUAqVqPgI86m1gyyWYrSn9KrvXXlwIu+fmOr1v7P5E2rHpsp3OzEgBf/Zp5yg+FxYQFhAWEBZ49SzwVJCDfMFtjIz3pO+ObPTAvM+D3g+BRAWMVlaxVU6SaZ0wv40Xh9PvlfzbwwZhQEiAxTw7GtUe3LOYkIdIH6esQgBHkGth6QFl7WQEu0YoKhZ2T8ifim+HUzNt8OPxXvMHc39Qdm37spxJ3FE0PSVrnqcj+rMcoFhGWEBYQFhghQVKDyYlrbNFpEi+4TvjqSBXKmQ9mYnJTam5+e46KGOUb3n3gOrjedLV4UFITjyhjnKPEmZmIMhYljw3t7K56qNzcpyB+Wz3CAdCw+lETp4dwjfo2L1ccmdhtm7hN0UlW07b3fNzXXnp0M+DXV2DOaM87VVdVKEghrCAsICwwHNZwF6M66XxsWAmmYx4DTuiSLJbLhTduVRKKWVzWvz3H2qT//rfFlSP29JCgbyrJhzzRaPzUBeOg8dXlMKhZ5vcnuuoXv+FnwpykM7VKjOxbZ65eLMMhkJZLiKRPG6sDEnyJZknRxQQ4kiykm2mZ8mLwhllhKmkcI1K1kNu5ZVdufdq0srjjmtlyTlfh3KBrAiCQJdK1DUIQ1H1QbIu9P7cQXh/pNc9NNEFbx/9nXZiz4d2NjUu+YK51//WEGcoLCAs8E1ZwB6aqIXPLu7Wfv3pUf/QxHEtW64FFypFZfOKNpN0u+ZzOBeXFJz7sC5Lt+TGQNFeX7MAXS0XYGf3Kehqv2RevjqNkoRZuWe9qOl9jgvzRJArFwtSfvCup5DNR82yiYVmiHFLg5d/EzQ9PdPG5L04u5J7a+znoxVPKh4da6S6fBAs0eCSzc9xxo9YlAk+8yo/VmauYE88zCTqCzBdO/PJhU1dyZSV0I1Cx7YtN8v57KCk6QlVUcWT1YuZXqwtLPBaW8AqliQ7FmuDj8/9xaVTX/69uv98qTuZS4Q8kJeYtDyxFUxJw7QJTcZ8nizOqHZuRmuyTw90FvtvHKrraL6X6Wn9IlobHZz85S+nmlpbJ6T2poRU3yIiS0+5g54IcpKJDxWFYrCUzfqVIhV+M8ku0qFkgzEmGZuSLg+rnOMXiumSLPfOco64F1Wu0fsu/I3n4B59pEQVKaP/Vz1YGJNII2wsLyB/tu/M8nXoZmNQbTptgOivIu6BWrvKWu1Yuk0aG2vQL8zsgBM776p/evRvYNuWj+xiaULShf7ls1lcLCUssLYsYKdzMtx4sEP66LOfmP/i1z+Ipu5vDUNMi4KCAJd3HqZ5h5WKXAbNRTQ3mliiJdH8HFYu3w5Jl/UNEtQdB/AWLGjJSofazsPbO/6d/etPrsD29YtSZ4fgCzzm9noiyCFYqWXDUAq5gm6X7ce6XCtr2p52K7N6Nt5O59EM/Uru7mlb+2Y/Z34jkVEqYI46LXjD5fXJyfF6718ntFEl+aPt8cV6/Z1DPzWN8pCiukSZwTd7GcTWhAVWtQWQy+Aqj0ysL3/x5Z9c+/SLP2lJPegJQNAVxGmvAETWpr6b7LGacxDoLyauQQ/ZVOjEH70VnH8stQRZXD0bnIWirXw53RjLT3XXD939UlrY87eZ29fv+LfsEN1VHnHXPDknV7A1KVP0Q7akuFK2THLH5EORX0XeGmWzuPoII4ow6KoerPybVarRIE+O+Ul0McmXY1tYuQ79zcGQOfIsZ0eD0JZerBrv6z3AVOf+qvdNT1EUrGRHRJlDps5JowtiqgkzUeX/iR/1np7qhXTeB8cO/tTOZAckv4/ftcvORfwhLCAssLYsYM8vqHB5YA98cuYn6v9+8h80TI635ra1QceBXdJ8jQL37t2H5p9dxXkljfn/FM6B1FaMuA7UPoyY6HwupXmI5iP2DC3h7EmjAUq4mOQJXF7YoV2+32teHjrmOzzwa/unv/6/YO/2CamzU6RRqm65J4KcZVvkxblKhZLzgMH6wpGvw5RM2HgyyFTAr7I0bYx6xFHHAtpepTycLfPwOtUl5GyZb+sqProrAnNiZUc5BTB+ngum7/Vr4x/5jzZbZdMvH/wt5un6XR5fam19ncXZCgsIC1RboJRc8BXvDG2Nf372r+Y/O/t24+RQO06yktpcC/DGbojuXg/BK9dAGzNg+uIdXDXnABlL+PBG03yLDORYSRUNxjdRHeeCUkc5lwUZ1+IdaVNiPh3M5hPuQCb+b0u3bo5oW7fxJpxr/gI9OVxpIxzZpm1ZJlrZsgmaOAgxx5pl3Vj70uXAs5IsUl1NRxezgNkuUiBxO0XZrBcc51E+DjY5sJJYFxV1s8ap5FHS/tkxPMzFfPQ15hD9NLBktX7siPhd44Ysrp711P72yo5Qf7JRmk00w4mDf7CnZs/b9cEpWfWI8OWa/2oJA6w1C9j3h6Lw8flD8Nn5Pw7+4tz3rfGRBi8sYv4tBPMl5DEUkVve0wlaxA/wIAlz5Rw0X8tjl5S087BPgctqdno1wDE5RDaL0kxJMybR5Whm8sCcbsYWu7R/H/+nyr2JdmNw5P/MfvrJWd/xEyK65KDEEwY+V9iUb1JdagnN6eBBRe2EVEwstLGMn9kmvk+4oeNlQhosr4pjG68OSPJEKwEkC2NWNC2f5J9xoGHHQE801PWA7aci+rw87MlumcdzP7m25pO/jCysym4u6mRAoErF8BbqX875ikOljsRvzXe0dMrjziW89r4tX5rF7ISi+8ST1Fqb5cT5rkkL2IWslJuZrk19eel44tNzf9/87PqRyPj9Oi9kJBc+Ghv4QB+fikHu5m2QFvaBp6ERYNsmcF27CfK1IUdTlyVnys5Mw2atR4nYs7mMzWssBkbzENX54ksqIRM8ezb7w5lStk5WzH+Z/fzT076jxxNr8qJUnfST2ZUuxdB83oIWcBdtr2xIubyLWI1L2GjnagOz7qbIqKz7zEIu7zPGF1tc6UwUc1rYSJVR8lcOnlejPuHkyRFEEZuRPDrujVUTWR5+sqGtMt+NOJ60FfLnGIeT9zqorr3jx0Bbelid5fEQSNtiLFJe5kDeI3uCcjl7ozLyPBSUzK2hBmUufcKYX6zxzyzUy/t2fWals7flgMjTrfUvmDj/19sCllGQYGSyTT598S31Fx//se9XV49ZsIDNpDNUgrQEQkWoHZwBSbkB5R/dAc9B7IWyqQvsNzZD+ZNhSKUtnP9yCIUEiOSfVQabRemd5XPXSkeC/EACOszzBeByaY9hlf+7nGkFs+dP/9a3/801TUh5sifnUsrukC8XiASzakAt2rmSh/llPrp4ptocne3Yt/N8TVNLbnZ6NjR34fpu40ZRQ9gK4JMGOoIVYsjK8CX5R3TpCEboQhJQMeh4+uAEF/rJChC4V8j2Vw1mHMQYcLKY9vLPH7dP9n71pwSrNgZaLcBwg3PT6WiJCP7ldeVmSzWJD1HEOpFxRdJ5TUGOsJ1MD0uoXPD0MxJLCAsIC6xGCxTjC7XaxWvfi588/Y7rV9cPhmA4xEhxPABJs2AZCSZpMO48gFHMx21r7wRoaoaG/bsheGIUMr/K49JUUkDdM4lmQvMMp+wR6D1aI5jPqYyRSTMSI6b4YC6Uv2rsm9JdLlckMGddvXRO7tuTWY32/SaO+ckgpyim2+8vlqORIgTdRXNWstGNxicU5/nCVvy+XH1P73Bk/+5ryuKCZrj15IziknIj0+sCiVQU/S2UyWJ6IhwsuJYl7+jNQQ6Fn53nHs5rfJSYM/fwVnpftH3W5YCFL9ntQVti3iEDNv7TqUF5yKtj+2MEkwowkr9ZrbXJzJWAIG7dC8k966B512bwh2vAnJxS5VP99fDBbTWbK7vcspSBIyDbpdIdSdNEju6buFvFNoQFXiEL2KPjTcVTVw4Zv/vsJ/Dra/ssmItU2o/xtl+MvaDhw7EJc5A/dQ0g2grwR9+DaO86gHf3QrqYgPL7GZxT8k5kis8/rDMmm8+q50M+l1Z+EhWFImJUUs4BL+9LnxvdakbP/VcZf9DOTg597mtZm0opTyaeyCgx49ZLatBfNL16mbnNvHYDnz2wVrokK15obpx1b+ycbtJ0xdK8asxzedZ1ZvgICiAHZaS78hY4jJ3Jy+0Y7LCO4ZLT1pTdFjy9WrmbHwVuK0Oa/Ng4N5NtteJJVmujsJuGk2hYGICFJHmYk9fxVXxGuoUAgwq0fQPqwXuwG1w/2Q3GgV3ohnql8oWr4B+YAM/Yg2jm1MBWw+srQLCmYPS0j+JKgnX5Ck1O4lCEBV7UAvnYZNQ+eeFHyQ8/+6HrP55/0w/TGL0qSCyqRP/zoCOb5XQEMCoT8HxwDyB0EUr7d4Crtwekg9vByC2AMjoHVn8S5yEqKSDmJPPTKkIb1XKHK7kH5P2Rv0ilWQSUNs5UeSSkJELxc4MnRnSP4WpvfGDPTQ1Ldc3PFi57UQO9Qus/JVzpsu3JSXRLvNhAFDklDgiwinz8X4F4tqE4PrPVjCc+8bRsuu/ds+us2+0teQO+D9Muz/3Y/bG/kiZjUbxg6NFRPosRX9mohAPpgpJHl8Mt684yjI7Cuw88rUUPhyIOdCwdS5fd9RWocl+S3T4Vr45fiwo7lD0/MVIMI5rQTUq3bRxDkwFkSul/sQfCRw5C+M3tAK0NAGOzoGSw8i+N8Xln2WzIuD/ZA6MTW60sFXAKkHuF7nlxKMICL2QB+8F4Q/aLS0fKv/zoLzNf3NjhhVhAhSLOcYzuz+cPNsvRTMKmWXqM9kAGjPP3Id9/D5SmRlDaW6B+Xx+4B6Yg05/AtSdw1ko5cyWrj2MzUfXg4vKMpMLreFnVMGnvshIt+mlJxYXFyINrNw/Inze+3R2q+RWuMvNCJ78KV36qQLOlYIE+tpmR3G6sQNSwjIDRKCnhps3kopk7D7bP9d/fFmhpnvY1NEy4Duw6UxMNtyrhusnU2fOXXadu7clOJ8IeiDvizsoSEZ+6uvEQISspYJ3e6MK5lsgkVCTJbpuHD5PHo3ldWzXQVTiXBMZsVIctGdtz+QMNe49BIQuv0jvEeqL3qau4F1K9G8DftxHMv3wXjF07QPV5obC4CMrVO5A/fwuMuzHnCQqBWrKG0hFYTEQwdum1yoYku4TO5Sr8fohDFhZYZoHi3GwQfn3mR7nfn/wz/89O722CReQpFB2SCU+X0AqUXVs+GM2uFXNz6ugI5M5fg0AThi13bwFl2waAtxcgk8GQ5X9ikvGmE+MqLG2CRCkqaZTyEuhVomK0GIuAabhfIsQVna3QDFZQC8MzLYkzF//JVCSayo4N/czXvn5NMb+fCnKSqmflUGBR8ulZ9K8cZGC5LvyZLOqx+w+i8cvX+ta3NI/5dE/ZWxOe9W7Y+KBWD/+uPhLKLiru8tDtgc3GDaMVL5wLWZSOG0VlAJUnnoo8Mr1bci4XJVyZP8dumuWDO+ysEWr1MkxLk4EU/caegrgnV2ElsZ51rNCSzMC3Q8vzFBrdKBTnroVwSzt0/eQIuPfvgVDfNrx7cJ3rg5C8dgPMzy5C9tM7eEMtLu3PREPl8M94fT6VCvtIA5SzXlach/hTWEBYYHVYwB4bD6cuXzsg/er9fzLz4c2+Vkh6fPhAywj9fEaqzEfVZ8WiTKwHSxHnidlLt6Chth7zc37wdLYD7NwGtWkkjszlkHFZxDlnAWee3FfxrCdFs1gekHt1rLSA/ElW/ET+naxlZ2K9Axeu/Hlx766LdiY5JPnXTtuep4Kc5dGTRlv9sNXRNGSCZwMmNhX3Es0D60Bk+0Guzjxz/T3DH5HKLl2zt288r9c0zhvl0qBeE8j66+uSrjPnDpiB0+/MjU231Y0nPMS8pAtIl4JfIGPpRmEcSBXdelY9QoM9k7AiSBorm6guZ24y950xnOiZh6kGMMefnqWci+68R74jC5DypyQKStKR8KawxCKthek/xvDkscOQ/7PjoDXUgzxXgvKFW+D6D++D/2+v4LZHMYwZx2V5x3F6jkq48w8mMZw70ehb1+XDXSRXx1dZHKWwgLDASguYsRkvfHzpnfIfPvorz69P7+uGtK478wY9lDOafzXUPbT+UkzJ5QCdAuvO3AH5LpYMaCoobx0CaX07FN47AFK5BLliAYqnb0MHzik05zHeJafqsRmQQSp7GKeZjPxENkuyZA8vgKLoGB6XVDOWCOelgb3xi9ePwrreGC64ZngCTwU5UF0FV0vL9c6eDR12U9P++emZRtQqWWKPOE8tanIq1jB45uxb07JhRctZ2RgbuiWbxpinsXncnl/85dGa8B8wUff55StX/puydasnP5WqseyihwUnq/NjDK64L8Wi25VQI79xVrIrq28o7tlV8m48Rk5POHS6zLtbvg1e8M2JJ8RWIogNgr+1EzadOAzwzgmINGN4IYv3xqXrcP3jzyD68/O4xWkKZDodC/g26ZZE2TI5M70YTExPN9SkMyEBcmLiFBZYnRYwF+Y82Ru3dugffPLPBk5f3rcd0prb0bUl7SV6Ma0SNldVs7Er51uJNvHZrQCp+btw/9NTsF7XIBTyQbitCWBvH+gP5iE7vADW9KwTtmQklmouAYM29v/KfB0X2GBrMOjFEKipyPmFTHB4YPD4/vGJ67jqpdV5NZ7/qJ8KcqqODQgSC0OhvX1nsgdvHI5duubRR6fCSOBAuRp6KilI/umiz5ye6U5NTtf7hka3l08ceV8+fvi3Fuo5Ft2eghXeUbDbWj5079+e1rpPvzt9584h38XBLfZ00otFkLLqPJEwniVdMopEExGliF4WQU3IudDkc7FBUWeCKiZk+jDksZwaA6wK0YX+YgQSNtg2WG6OflLzH4qHe3GfKMaD1SaxDZ2w/seHIflHhyHa3gbSdAIAw5Pwv/0d9J68iMcxgbc6teZh5Q9UR8deGMTAreZHU17XyEQTzM5HbcsYl2SRl3v+W1SsISzw3VnAnp9X4cy1A9pvPvyH2v/z4Rt9EAt5HSwrOjMIkzosf5X7f9yRcrlBXv+GbExc1ILWD1QIkl8VjWBTHay/3dgFuT89AmkjDfa/TKEXN42xJIoS0SzF63zZX3yOY4UGvME0i0NRcW4Bf5Zl/BSFqbx2GQoJy5u8O7S/dLP/MHYpvyXVRHjS77sz8EvY81NBzgEKrzfV09t7G44cupxOpQP26MIWZBB6WUiQPWfgE4eSicX981dubBq2MIvlkrM7Dx9y2evXD3lVPWmXS5m+UOgURBpi3Ze6UinUdxy/fLurMDqL5f85ojF+hVac6UiQx56RCJpYqPFFB90oUlVSmD3rsIAm43VSCNXE8GMYPG8gzffIAahtwiesPIoGXLsOn3zwEWw+eQmXj6OfR70UGEmFhUAJWKmQk0XEsaWGnFqMRyCRQk/OaVUk6uVe9AKK9YUFXpIFSqm4K3uzv9f44OR/efPchUO7YT6oA1YKOI/hxa9A5useDs0aNNcsXn0AcZxbghs7oH7rVqjpXgc1O7aBvfEOTA3EcBlq/cUf8Z9nb9y7XErzYNlyNpltvHf//ltNC7Gf4pYmnmdrq3XZZwI5WfPYVrk8Lb139JeKWirljLw2N/BgXXQ67nODIZPUMlKMwJ8quKzURG15NLfHvVhscCfKW+HH7v9gZ4qXTUXNgVctyNs33rDa6vv96xv/FVy8HC2fvfQP04Mj/61rbKHGlyuorOFEyUEDSrsS/JCYswvfbXZqQKiEgRdIsovIA4XVpQFPhkPyttg2WD0dPRP58OWBKSwTyGxbDw3v7YfCP3wHPN09gI9VAOcuAvz3/xF23kRZHhhZyieSDA9/uiJT8hILCnYayLQsq3o8F4BsEZN7WEcvhrCAsMCqsIA9O6fC+5cOwy/f/yv9bz774TZIBLBNs0x+kuGUXNPD9/OTFHn0iOY0mq/qnFR9Bsx/cxaCNnpyfw/nkU0dqG25DuZ+0gf3fjkPm/pTOPtRk2i+P/LRyCugMgEKl3rxRYq6xHJgsSRakjELmMQ8wTIlmfRk2psaGumunZ1pFiC34laUXS7Lzqau7zt62LITudA1/Vy+mLm93kzPh9GTw6gieTTORZCsYsYzMTDUmHd/ul/X1djGvr5ofvP6s/5AIO5WVWpHx18p89/99b++9/kXLTPlKz8yh6aw6MwpTkNKLjn4FLRksjZ0axl4qVSnIPvJZEXmXT7cnmflt4t5XqxEncXMFYhCE9S+dQA833sLjN5ex9U3b92Bc598Bttv3sQlM86ttFLJpbJtCrB+1YNOtg0zhNvwoUDMi7uhq2J6EAcpLLC6LVBMx9XS5Vs7sx9//l+Pnr16rBviQTegbK8zG2WXQpTsHHnU6VnPmJcuVR7I2VaT2WlkaF/EvFwE1KYABJobIbB7J3TcewDu/jGcMGneKTgeHSO5PHk8xEZHNWEZXQjbtKTpqamQZ3q6qbQ459Jq6phA72s8nsmT4+cv+YJZu1C4AX/mMkMb2m8k1p89Mn7jzl71zkSrZyHjQbliZE2W8DIUJHViOlRMZTeVEoma2JUbx/w/ePtv9N19X1pmeVBWXARyzlD+6V8lR9//8H/QorUwc+7SkdL9ifbIbNqP8COTaCm58xQUJDhawCAi+XERB8DoOYaKDeh5hToSVDJslfKCCt+JIwx5ijRIE4C2ynw5Gyska8Du7AD/Tw6C+vePgmdzD6jYaB5u9IPy//4GWn51Cs/rLu6ThSJR7AV/svoVVujOGl+wG5CesMiXw3tKwaYMkoPZYggLCAu84haw5+ZlOH1zl/Xrj/6x+998+nYLxJDkT6XBBs5DxB6gdATDheratWc9rUptGxOa4A/jLSgWKGFXAjvqAbkJe88dOgjKgR0QNAsYv1Jh5Opt6B664yRGXEvhy5LzGwtm0qxGsyG5GTQbscZlSwklzMtJtoHkEwn8CVSgsub9haGRXuhb/NKZVl/z8Vwg51xYtztnFzK32yLBmbZQ3Wxtc0ssF7h4AJX41xXH5sJYH4bBY2rdjtmpVMaVvT3WMDgb91iK/e4h23Zb7r1Fs1SYKala2iPLDjWosa9vulbW/kW9LzA16734I+P0YG8plwrhTYTPH6wEgJ5M6IIyaizvoVu50aqfXDhnkxcOrLyGDAQJNlk6WEHACzW1g/69/eB75yiYW7A4EwMThf778ODTL6D+r0+DZM46PQdolBwQ4wKqjOfESLt0U9HWmVnxN0nRdVxcx0QgZYDFEBYQFnhVLVDMxWX76sDm+Cdf/sniqcvH62GmJggqTUN4yCTLRTMQo3lUZLte5GzoIZuVHWHaB39fhOkLI6BsuQRN0ShoWCge3rcbHT0NdCSleIYWkAkw81VpFSVZuC4w50YwfgR71/EWKUsiLVU425hGwVd5Pu2am5hstxfiyIcQIPfIKyi5/TnDKBaUPR6jsbUxlu1edzt/9fqb2as3thUHR7qksXQ4bBVxpjfAE190mfFUjamfOTq7sNCrz0w0hPp2XtI2brxUNooTLlUvyzURybtnR66uLnJSWdfmi627mF+81b9dGxytIaksT5EEtMlfYiO7BCMk28WEmR9WMOGNe3hDn4dvSubRxTAq7q9vB+2/OALKD0+Asr4blATu6c5tcP/hDIROngPVHEYaCvmUywfnZfLg6BKw4Q+6cV3k0Zl2JJCEYCCLcCdIJy8yH4h1hQW+ZQtod0ba4f2zf6L93Zl/4Bl+0IGJB9nlzC/kxVG2K+c8Gn+dp1UeYOSEf94ajD+4c60IPY0P0z89D3YOeZt5TM9s3QxwfBd4sTtd1q3AwOVrsOHsAB5DAWcYqvMlUMO6XSeYqTpHWHScAfIRbWzwiZRAPOCSU3SMvecQ9DA2JmdnZ9qlubmmpcLw5XUI37KdX/bmn9uT4weoqjoZZtoo5pJqJDy7vq1lsrm5eWKx9uqhudBgt3J9vB5zaLoLclhqgIpgA7PhqZmUN51L/TA/OdXqLxWlus2b9XK5NGmpsm2Fg6rH2yM31IRiwYbGmYa2tnAucsE/cXdYl+/SUxRdNgpLUmaOHHXKzi3V8z/mtuMgxIvDq41L27Ed+n8AtEO9EDh6AGD7RrATGUhgoXfi8/NQ+x+ugpKexH1ROeZXebaHrlGl2o+BLY+7q+A19UgoCQE/9XP6Ot+Nl30/iP0JC6xJC9g3bjfHP/7ySPmz8+95hsfaw2CrVAtHYFTAf4YjlkXMbFZs/XUGm4/YQznPq3ElJp5Y0SnnNz0Ck7/BPXpdsM6NlL4ju0HZvQN8CLnd7Y3QsKjAzOB93NYsbomJIbKWq5ZT1MUq9yhCxRIyzLsjbw7dAjwIPAKlkE432JlMG3ZMo7jpa11K8LVB7iuw0705s1weC/sC6Zq6ukX/us4h+fK1nfGmq28kkMXjuzdTQ93CNQNbTcyXtdLl290zM/O1wUzGXzs1u8m1ZXM/NDWOobdTljVXraupaZ3HH6wPtzZBqqMllrhytSUbuiTPTc+AfyLhQAg9i1Bujm4MUuwmsCOfjrElKzcgi5kz0OEen+qEEm28laJOTZzxwy0gv7sfXEjbNVOYA/zyCti/+BRKp26DlR5zWmSQvjeFIM0lGm9Fc3P5zc7a+3DGJwVa3WW1JpiCgDuO7F0Bcl9nZhDrCAt8yxawh4fC8Lsv3rJ+9+U/K566v9MDqN3kfJfp0Zo43pmldMTXOxAGbmxwl4mxCiqtwOgzRmIpOX6YPTsJ2ifI6Mayc/CiImV7O3p1G6CtuQ4X0iD2yRegfnAN14g78xMToGBg5vDFcbqxUEGROAsOuY6ilibOl5YjjiEVSkYUcoV1YJhEjBcg97RLq7hcZN95wyin3PXR0aaWlnv+puZJ5fyFdwzrcl96aD4sQ0YjeArPLur2bLJ+rlA6Njw+/YYyMrLg37pp0NfbO+VuaXFrXu8Guybcawd8EU80Ine0tWDDHuzXhnUkinIL0rNpKBToeYUpmZA2Cc+PkUfObpwKy2PlMxfVyJEXZ2IAMrh3M8jvHQXtyB68kdwQvzMI+U/PgfsXV9G/iyGkUZUmA0rm+XGhseUWYXV3RNxlR8Kq+/Bsoy5TDnhS4FYp3iqGsICwwCtmAXt41L949lKf8sHpn8gn7+zxQ85LBUtERzMwgkMgR/k4JveHZeAvMLgXR5vgXh17EGfQx0u8iUZCKkryrXuQw8xJxiyCb9tmKL7ZBzUdbQA/eht8Phe4MaSZPD2CKbcF57GdRbsY0NlIBrWxORq9wb1EGZFOQbY4um6SXSh5yvl8o8ZALv4Cp/XKr/rCnlz1Gaqqi9JmMTufz4VDoWy4sT4WC4dmUzdvbitcvL0uHy/6g5DC5FRJMvqnAuPTcY8xMxuoG7i3LtK33VXX12dq3d1Zqa42gKr9sl5XLzW7fTYEMP3b3QGZxjoYGOyH8sAwmHOIG3jx6QQY0DGWJPWlYx4dYxaxZyXWfIcG5fHoaanQVgveo7sgcGAftstpAbg7Bub5m5C5Mojbm3WYm1QPw9YhJmVFXYV7a+wn7Yf6mlekd+gpDf1KW3ZjuYRby2Du+vkLal75W0ccoLDA6raAPT7pgZNn38ie/PzP5fcHDwUhj4+6mvMoy/JcSScAyB+ZH6Wu9CgLcK+tOjxZ8eTYY3clTMmKmPioeH0UfIxD6u5dyGYxXXJjCHLJNNScOAbQ2QLdx9/EhKEKo9vvQAq7oCSujUMyF3fCqtgDBeQiD6qyimDVoHAl67NCcG0XDdXIFf1QNr5RDHgV74hv5QQljydjGka/OxyciTRGJ5p7Ow/Yft979/rvdpn9843oXisB25AkJKWUzmZchetT9tTwpFS8PyHXv7k3oO/eYfuaWsAOBkAKByUbn2IiHa0QxFfq/AUo+U/D3NAolKdjUE5Qvow8MwZkrIZNdoCP3U5MkJlgiAa1l6cG8bneRiht7QEP9oPLoyCqih0F5M9vge/6OPjx5qaleZddrrTCvUKCzQrQ0VYp8k1fDdbdiUoaqJ+TEvGUXAEvblxhFeNiCAsIC7wSFrCHJ7T0mcvb3T//6B/6fnPzj7HBaI1nqRaOqZkQvY15cNWg9awHz9mNTKiwMnjahMsLMj52JZPBWZKU+VPxGIhcEpzMgjU5C4kSBh9ROjf9F4chhPOW9ccnwL2rB+yuFlhsuAjm4BBgey+UXkbx+1zKCbhSlInIMrrFzoMKIOg3q2zKFgIdmDbvRvasp7bqlvtWQM6Z9lW1jEA3F92y6WptbU0OPD4tW/P5LqOU356ZXGyUCjkkpTBXupRLSKmr9yGOFyg2P6s0zc7a6/buluSNm0AOYJWK5gJ/BNmufTtgT20UiqEI3Lx0CeJXbkDqwTQU5tG1d8oKKA/GCPx0sxD0sHDAUvgQP8cEGf4LQnDTelA6UXAZR+beMNjnr0DxE2ItUd6vcmPT51x8tRJZZ7pxDNB497kl/82RaqZqumBRb4rGfbW1i+B2f1UXuOruEHHAwgKvmQWKs1Nu+PDCvrlPv/gz/Tc333NDIoxFT0vPsPRoS0S36jQVzVRPr5le7sEx6Kru+VYdDeImZRC4PKnCZhXyJrmyEyVAcpA+fw9iiTQsuhLYsPkNkDdtgMYNWO6k+sFfUwMzXUiYm5iALPIXkNwHhWQeXHkEavTilBJzAnhtX9kllw2XnLYpWfeaj28N5JaAjq5VwjCM67LXvVjfXHuzFPL/SeLarTeMy3fbyomE5sE2ENhjDnR0ta1+dLf75yAxNCFhV3HQj89DcPtWkNCDU11Y+IjBTnvTJvDVRKFh/TqsHYlC6sx5yPY/AGsh7USkiepLKm/UJIeyb6zwoAJHU5iL6/reTvC8fQDsLZ1YJYJhT2x4Kn12HYvM7+E2KLa9HJNYSreaHslq7NiNX6kMoGcmOmGMUdpZtS4Z3tA+Bs0Ns7ZHf60Tu6/5d0Sc3mtkAfTglPznl7bCv//9X4Y/uvOnLpitQUl2/DKT9BU9DFMOLrVE3yBw43n4p0+V1eQS1k2Ftb9hWfpK0LPanNWkFA53TNGSHttpFqP16bgwVFkaAPPmIJQyMcjfHgX7738f3H3bQe7pBE9bHTTu3w6+WAwS94Zg/upNSIyMQGlqGkoLWMU0mVx68Heaq9pWjRe5d4EFS1Nf+1TK06/cN3CDq6pasIu5B707+9Lgcuvh5pZkUvUcmrlzt8MYXwhiuBGfJ1hQsIwgM3PjAcRyWPGRSsDm6WnwH30TajsRkNCro2EhyJ7uRJMAACXZSURBVHX17XIKHRVsOj9hoeo25tQK86jc7RBA0D1fejpiT1J021AA0wDXjgaoOYZ5uO3b0d1EOLx3HZKoRynfnUOWJj3pUM7uWRyvCrgxf5ECAcTxpFtSKylba2Pyus5xf200KWHj2G/AjGITwgLCAi9gAXNuSoMPLuwfOPnpn9d9dO3H2DUbS6x9MpNVJw+OKswoB1cJMfLyoOoyIfbA++jSsoryEgM1Ru6vcAIqh0+fV4KZ1a16qsOXzny3NJcxsMRw5cg09KeLUPDL0ItzpB9r6bz1WO/b2Ah1TShJ2YWkSfTwkveHIN7fDzPDD8B8MAGJyXkwY1nyE81QKJwM1dXGFd392qdSXgrIOU8oupcm+hnLMn4R6Fl/RWlsujf+2Rd/ap69tjkzEIvoRg6bsZadcgB3OQVmPzKbRuMQ6x+G7NQMRI8dAQlJIi5MDZuowWZEkIyybw8EakJQ29wA05euQLp/ALJjSL1NYPq1RB4de7ZyOTQSkjh1w+JbO8A4vhdUDHlmsQ2978PzEPjtTbx5qOaEwK1y8/JmrdXvsZu0+kvAAM7pw0AlCViJkoXIQmF350DLlnXXTX9w/gW+l2JVYQFhgW/AAvbQqGyfPLcF/qef/WXL9Vv/QIc4tszxIdEeK3kdGCGHJotwRCVDLGpTARd2ACuBrVLgzUJ+FU+OwSSj9DOAq2ZWVk6HCSpXkh6VB2de/sSXZdEk9vDdQBGj+QTk/w4b8aDsoHtzN9R2dYF3fSdI6zoAmptA3rMTots3QyhxCCI4f6av3oDFL06D/eubUC6WDH9bW8xuaRkB/fVnfr80kOMXS5bVvGWZ98OH31QCXq+VUt0/HFMv9WRvTDZbluVmimvsEpeRPzuJ4qSLrs8hFV+EELIpN23bDmpjPRgIdOD1QFfvRugKhiGNdSTjH38CD8qnIZ2ZAhNBjjcMZD2fdKhvaITg1m2AdQn4OJRC9YAroFy4BEqMgpjLPTN261WoJpUbkztllXKCarFV7EtnBNpr54O9G7C1bxvqdKoiVPkNTFJiE8ICX9cC1vyMar9/as+Zk5/8Vef1K3+EEZ2gH3T04BSEtLLDoyZwY2UCPCNGe1uZK3v4CPh3v5KPq3hwvMvbo467QjXhAMogkQ3eBXNlvoxxRBiTHCEZUzRz55BdOTsFCva5lFoaINDZBg0beqAW83X1tbXgCwWxdc96CCouyGDociQwSJsvNzQ2jcqR8JgtK6/9/PTSQY4ukiwrhmUbA67a8ExNe9vg3Obud+KfnX4ne/X+Bnk87g6XC3h1DYQljG7mkCN0aQDiIxiOnJmCrgPYIeC9E6B2dGJvnwACHYLNemxo2hTEaCbetlYRktZ5UG7OOCWSTLzUBYndbRA5iqykg6gFh+QVwKJv99nrUD7/APeTdKi3Cee5im4kt3OzU6H5ysGe5oiryaguBKDUcJV4TFkIYKllNOM/3DOs7992GVrqR2VJfa0lc77uxCPWExZ4GRawh8Yl+O2XG+B/+cVfbLxx9R9h7WsQK8xkkpMggCN/jckaMyYljepYTvUxriwh4AxJTi7h69H7LAdXoZUw8n614slyACOGOE95cIJKhR9OYU0NZ0OfczhJR/wdCXs0CyE5MjxMZW5xrCVGdmUAo1UNIcgj4C3U1YCKQNdYVwdYiAXpu/dh0V2C5g3NSb236wZEAuPYRu21lxv8TkDOATpJNS2zuCht6Lm80+/PbvWEykPyZ6lx6/pW+8E0ope9RHfCS63gc1Y8C2O3+iGVRCZlIQW9u3dDZMcWCKF3pmka+Dw+8CMpRZ6ZBwVfuXsIWVg0zmLiFtRj64q2PbvBwk4DchkfXkZHIRWbR3iipzheS8dKuXnJANXTcdJJ9c3OlAkqxZv0GQNHqxRuD880bugeg9ZWjJtijZwYwgLCAt+JBezpKTn/xaXewS9O/ePOG7d/UoBcwOMopbPYDhPBYvxoFpxkvSVpMCnAr8euZ/m1Z3u2rTC3KybifG2WB6wcA5vLWNiUvYgHsNRpAJdTcJ40S2XIYygzVshBeXQMK/90cLuwWyaCYRHr7cA07baO9nhjR+eojKVe38mFeck7/c5AzgE6RafruGCXi9dVrzfha627oa9veGf+9Nk3Mw+mWiLjiz4EHEkvEtigAza5gCzKDBRjeBHP3QLz8G4I7NsLgG1xpDr0zvxe0BpqQY+GIBV14XIYwy6jvndUg2JHI3p8Lbg1CWbv3QP54hWAgVGEsbwj2sPKD9xOoIBFysmrp1ueOJpMVYWBGYUKWMiSvUdBD8r+KWYsUj9XfHvLALKcLlrN9WOKW7AqX/L9LHYnLFCxwNlrbZ5//4c/j/7u/F9qMN6IQhEKkzKmbzV5bixnxmUcqjuL0Eb495zmA1YBy3NvvKCb/WTbqKjW8gdrdiCspc7jBt8HC41S6y4qTiIwYxQ2ar2ccB7FUVLKG8ByqwIs1uA85UFVFr8Hy9xQHQVrhV0ZfFi3ULDZxAgYAp06j+FXJObJJunkLzVzxjjTYl9zQlvf1u9rqh/CHqGvfaiS7P6dghy/8JJLz1jl4t1Gz+54rd+fiaNayoMvz+3OZa5vysVTQXT+8RkFQaiEUFfCIIO8CBPJDIwYWZianYXw+GYIY9I1YMkwgwAWW1gA00CWpRchK4VPOpoKegidw2AQVdryMDQ4CBI2Qk0PL+AtRMXkrDkFAzF68WJvgjm6gdkNR6PylFUhJeEtaeMeMvUbW8eCO7degK72W5KuYdmmGMICwgLfhQUSH38Suf/rkz8M/O7qn5kQr0OIwrmOe2m8wTP5UQQsPAf2Ykdayct9ndqzisdGHiUBHYVUiRGOkOXwPvN5fGjHh3S9NghtXZ3Q1NmOsl9FSA3cx7KBMShn8ujN4QyFfASazhxRjDJtjep+6SFeNUN10bHWdV396FSkZdX/2jMrXxmQowORXXrZNoxpdfu2s5G6mli5s+3mZEvDO1M3bu7x3Z5st0qGolCYkTJgRaxlodeAAcmxGchdvw1ppNC6PTokFuNQvP8AXIs5ULGI3NTw4vpQng1ZmICEYUCX3ZqcgQIWnhtmCePbtiPeQ/3G6XanWjd69mLPbRz4WAdxkgyrdGuSHL+PouJzEMp4N3WMhd/ed0F7c9dpu6V+RJZdomzgxeYMsbawwNeygH3mvJ7/+R/6XL898/0A3G3Fx1uNfCL6VrOnegI5EmxgQcVKrmwlHYQediuDe3I8V8b6y7GsHo/qcDn4px14tWJSdXkC895IVIz6EVD/E4Topf4Hi+si0IRavt7De6Fz+zasFe6CTBI7zP32JMyX8lAeRjhMYabOxjCmhueIB2dICJJYZpUJ6KA3RhaDu3dc0nZu/dx2Bxafdoyvy+evhCfHjSmpqhO+NArZXIPPF/cGAgk9Eskn81+8Nftgok4qImQhJ0pClqWD0PP4tCNj+HIuBWnfBMiooUIa3lI6Bxpd4SJ6YCqmmf0+8GESFgKYuJ1LImszh7FrWpL1+LXdeDMj14WpDDAVb9ZOlXlvTEGFQhzswYcVizs3NjavkPPeloapuiO7r0YPvfGFtL7rnuzH9jpiCAsIC7x0C2QmR6Xk7z7eWDhz5R9bQ5M7vZAPoh8jUXdt9qjKW92w3iQVRZJH8y8e551RLS0Rz2hUwphckfLJp80bnbJ12ajkAln1HIVVsQmlQy6hzCFV//qRV7D3+FFQfvwWBFqaQcMyKN/cFHp2UbDcOlgKEuIQ4JxHdJTxwvJhZweWjupMUW+pfXPPePMb+y9Be9uArKHc4BoZrxTIcZurbl8ew5cjkX27SnI4mIt5vJmZi5feNK7c6SkViu5gKo89xVF8C4mLFoKZWkRttxJqzaHX5lIwR2aio6+ROBeCoBv7zmF/39raBvwcPbr5UTBmFxHo6NbBWxzdfxtbUlhYjl7GbTrl/0h5kWyENRJCQKFTjAA4gFjJ0josJ3savIVge+O09709l/UfHH5f27rpBoi6uDXy1RGn+SpawB4cDRrnb35fOzN8QoFMM3KkZcp7sTo40kKqgFxFkYRTyeiMWNiQ3uFF4TxdwQHRcJYhcQkW71np/z2LXSp1cwxcCTDpQZrAuIBeZga3nnCOWoV4YwgLvesgfOhNaHznbYDerXgqeC6YkiEBjOwsFnmncA27CGUkS1rUfYCODwknhoy8zcZAWdu5abTzneOfRnftPAuh0Jqq3X0lQY4uOoYvDdMsjAe2bcmqurdoNtQtFBT9+yN373cr8ckwXjoJu0YQWwgRCH0vVN7GJkoYk8Z1TeRLYixaUvC5DYvHg6iQUluLfZjoqWh0AuIT05iopVsJ3yHtNnqhJZB4hNk/fOn4N65rEwDS9wJb61ISt7QUwZawByzekIbVUxPr2Lfzet07Rz717N52BepqJiRVWxNx7mf5IotlhAVepgWoXGD+Dyebs7dG9kdhoVZDxkVFCJnl12kwvjWP3DDZLAZ+9NXlKQrGtqTBw5mVcGUFKNnnlaDmkyDvcSop7JiYYi5V69HDNHX5LmO6xY76IdLbDZv2YMeU770LgHq+tsfrzE0y8hFGb/fD1PAIlBHksAEqCmVgqBJPh2JMdFZ22GfWrVs/Gz385hf1hw7+QWlovCu5PGsqlfLKghxdeEVx0102b6fSVzaFI/l8MJRLnTt/JOu/2BefjdW6kjlVRiaRkyez8OJiCFJCwX8LmwpaEtawoftuo6vuRhaSD5mXWOoPqfFxyM1hFg3Xc5qvYiNBujkAqS1OsAHFTLGIBkGP+ucyFW8pt1QgKuP2EFDTEW/ZE/In/G/03W1699hHkd19l6G+flzSsAhFDGEBYYHvxgKxeb89MLLZvjbbrkIO+1fSd5q+1S6HSkbDmfiX+NMVpRH+SXUGjuvdciZlpcbtSSf3cDseDprVmbfKFsgrpGMinRWaPEg5k/ofOI/g7XVOUXf42CHYvG8fUDcWE1MvMs5Bpfl5KJ09D/OnzkJuGHV+F6n1GBWz4znjrkx82i8Evaa+vjXW9uYbZ5uPHvmZ1rXuKgIc1hGsrfFKgxy/FFIwsGgZ5hVvwLfQ1do8VAiGEwNXrx40+u83WfNpbA+ICTUEKwk9OJTcdp5kLLzFTQxnOk9hCGAkkAK5DGRnUL4rnUZwo/o4ohPjjYErGPgQZ6M3KGH406mTo+2RJ4gUXCr9pnRwwVLQn9NKUlvrYsvGDUM133/npHZw/zlobhyUtLV386ytr4o421feAlOxeu3e1BvlYqJVB1SRQGoYfcMZjYzNBbx6jVWacV+NzuxhRiSnnvHygWftJ7fcTjzXx0Fued0bARs9pjPvDWcyBL08RpasphDU9G6ATSdOgOsHx0FpbYMCKjw5LPN4AkavXoPk7z/APnI3QJ6YAzVdWPJQKQeHoO7xmr625vnI/j3Xmo+8+fvAho0XJX9wzZBNqq/BqgA5OmBZVfJ2uTzU2deXwNY1mtxUPz8d8u+Z6r+7wZidi6j5vEx62lRmYCNgySZjPFHAQsanGhd6dZBKQWZ+Du8oJI6gu8bKQFlk3SkGJXSsutltBE2CwiKua8mamW0JxLGofKxu/56Bbfv2ngvs34X1cE33JV0A3Cs/AYoDfK0tYM7Ny/Cfft9uj80dRriIEP2eAoDsJ327mVfHIYeHMR9nFJo7eOeACrGEUfH5eFo+bnkhN/ckWQaPSgK4B8fUS8jLRF4AEkig0Q+h3vXQduxNaD5yACwsF7BUDVT04BSMVsGdAXhw6gwkUI+yMBWDAIo1s3ZiWHIgYR4u4DXd3a2x9v27LzW/dezXNVu3nAKPd00CHNl61YCc86zlcmj5M3ap8LuGxvq7WPg9VDp3/kfpqze3FUcnI/ZC0qXkEKvo9sSYtI2+fwm9OAUJJHK+AEUsLyjMxEDHpoI2MjRNCUOcSDBh3cMNxxjsCY/+Z20LURLMzrf6i8FodBF2bLzdvrPvXPDQ/lOejs5BG7ueK6rrWVoWvNYTjDg5YYHv2gJWJqvKM3Mdav9cG6o0uog3SQDHSP4OxYwelZd6lFRYjU86bk40IbCk4TSpYY/Dz3i6yxmbBIqkUUIjjSQY1tiHONs0Y1E2Dx+q67EvwtZe6DpxFELvHgcbu6+YSCBRMMKk5LOwMPIASh98CtnTF0F+MAe+NBaCY1SKQToen+a1tI6WWMPhg1c6Txz7lX/vrg8hHJ2SlLUrL7iqQI7fWZj7SlhG+WboTbVc39hQSra2TY5cvdoTu3N3XWl8utZczGPLVgOpKXjpUdorNYs9lkiFG4vEsyj55cLPEN+cUbldKTZOXwyXQ8W13Jpphv05T00oHuzpivVu2Xw3cGDfZzUbNlyG5pYxW1cXUXz52bR7nvErIRYTFhAW+HoWKOZyipVKtRhQ9OCXUmLfZfLeKr0kactUCMTGo7+61SHJiqRfRe3kUUf3OOIJvc+F3nm8qLgElBQhYuVKHISxBAB7Zvo7mmHdgb3QewQd0vU9DsDZlEJBsXoDmztf/fgk5D79DJITM+DPo8IJkuLonIhhUAy5LU9Hw2zr/r6zXW8d+03Nzp1f2KGaaUnVX3t9yifdNasS5OiEZNVVwLY9Nz210VGtq+NMadumbXDh0tvTV64fSw6PNrim4i6rWJbd01lp7mo/SIkUlIrovWGvukA55+iN041HnCsS5mJSrZJthLyWUR8sqw01CWl9+0htT8/tSN+O800be6/ZLW0jtuZOybK8pthJX2/aEWsJC7xEC+QLLqOYD2ANq8OoLKKnxHrEVbqFVIMb06l82KNjoU0m40fRHPYgzLwvltaoDCbkxcKMKwcWMy1tgYEt5doIzhaXZL7YfENlA8xLzIWx8Q/KDkYOvgHeY4fB7u3B0KUXSSZYXJBOQhYboeZ+8TtIfvY5qOf7IYplT1gr4JxBQcP2Yz6vld/YPB8+sOdC3btv/62+b9dnViQ6r0iOdOKaHqsW5JybTlbpCSVul/L5Dr8/3tHQZKY712VHr17fMH9zoDa1MI8tuguBXLHkH7g35LYMQw1ghwMENQkVwIiGi3UASlnz6CUl4i14/N6y1hjN+tpbFlFk+V6gb9vlQFfXFWhtG8bu3vOo2L1mCijX9LdCnPyqs0C5UJLtfBGrxEiokXlppG/Cq9B4fVy1B1cp9GZQxiggrNnXo0gmj0KLxyEIe5/l9QgyCQjpZ4XR6Qi6O14Yktkg2NEAGw7sgY7jx7AOrhfre7GzJtVIZXOQwRzc+U8/hdwnn8IcNj9twPo4pt3Ctmm4VdPfVjvfvWfPpa533vm72l19Z+1IZB5Vf9c8wNFVWNUgx7+JyGwk8BmzTWPWs67js5Z9fY36gwctvplYozyX6EouLm7Jx6Y6k4l0OJNJy8Vi0augGgpm6kxsapcJRmtm3S1No97W5nuR1taRcFvzRE1z44SM79uoqylLLlEasOqmPXHAa8kCZqEs2bkC8RLpIRZPnUT6+CC/inlnFMGhwWf/St6NAIM8q0fn26rFm5kccyU3t7I2ji1L+T8qCSAPTsIcHNPAZRMJHQ87gkXVB96OOvAcPwCuP/4BwI4dUMKG0ArWAWgIcCZq7Ob/9pdQ+OJL8Fy7CV1L4vAqeCDh86MgBkpWbm2fajx04EzTD9/7T76dOz+XgtHEWrr2TzvX1wLkvgI7RSUSyLRtlOcjTc0PANVRIFesh2SqDxNyOyGZrDfTKSlfKLilvIHNJ+SMFg5MyfW196ChbgTqohMQ9GP/HWyRI8lliWRTxBAWEBZ45S2AjZgRxZyvKxLPKl9bXgD+uBzct31iBGy8a93y3B3rZuJr8MOmvs3QfPhNULduBiuMAEcpFGRRLoyMwFX03lLIpExNz0EbAjfR4gzURXHocbZu1LW3zWw7fOiLznfe+s++LVsuCIB7+Iq+ViD3FdipDgszvvQ3gp5xx7bX/wwplbpimIrPNPFBysLHNsmQdDVvU/durCK3JKmkKo5+phjCAsICq8gCqGlLla05BBV8eDUQDggMuBpJhWTCywJWMiSXSzFXTpw30KkW8GKyXqzFDi8jYF4iK1VgImJMSIxq3wjoCOrI+/NSLwD8l8AGqEoI84Yn9oD2g++BdAB7XdZEnGXkPNZro5KJ9PPfgH3yEwhdHYCQs0eSpvAgxEVpv6XsgU1Dm04c+7j5++/+TOvtuSz5Q+lVdMle2qG+liC30noo/EygRy9xE7y0W0vsSFjg5VnApWOjAY+eQh1+0jBywIK9HtWW9PHH9ShZLh7ArJSOM5CrFJgzdUsCTgI+Kl0gIGQdCip0FXp6Ji/NKW7wabBh72YIHT0MoV19IEUijn6uguLxc9jB+8Gnn0Pyy7MoQRhDSKPMImX1qG+lo0tptO5om9jx1lsnm98+/lOtp/umIgDusRd1TYDcy/uqiT0JCwgLfCcW8HsNMxiYzoMvJ0PS74a0xPJfbIqjWrTqEE11qxv6nLEtK7KzlFPjjVArrXUYU7PoiDOzp2ants3hY2JNLgIRbYHgiF4EjlgYsASIrE5vRvOBjkzK0rv7wP3WcXAdOQhGSxO4UKdSxd5wMHgfzN98CMmTn4H15V0I26RiSceP7XLQ+0OPsLxwtKd/84ljH0bfe/cXrp71NxR/sKId/50Y/9XeaaV8/9U+TnF0wgLCAsICj7VAqG9r2RsKTiiyByWNSH6PwRTnSVb6drNNcE+v+ndHp3bpxbsR8B1W59NYHzpHcmKp1o31K2B/s71yYOR/LfXmBm97Lew4vh8O/fgHED18APTmZpA06ihgoNc2AffOnoP+L89B8v44nkWRicjjvohMY7tcZmNv5+SeE0c/bzt25Jf+9V03VQFwT/1WCE/uqSYSCwgLCAusBgu4mqIT5rbIUOn69IYy+kbkafGaH9bK5klqJVzfkvl0TLeSShB4UTnrUUCDCPyMAMI8OdalgMKT3FskugsLlNKypJSSwVyavz0C7h8egaZjRwHe2A8yhihRb9BBXHk6BpnT52Hmk8+hcH0AvLH00t7RL1VqsJuAXsq8senutjfe+DT8o+/9rbuj86YcDIv0yzPcmALknsFIYhFhAWGBV98CcnNjTG2tu5W/7jpUgnzUxGAhEUC47gjXN3pUlo75fQRpDAiZt0Z/E4GE6V5S+JPgi4NbtWYK7YOBHAM3Yk7ymjtHsgv1KJt3boSat46Bum8vmLX1WNFHJBQEy3wOSoODMHnuAiz2D4I7hqpMztoEpBhEjeql2p6Osea3jn/UdOzIT5Xe3uuy10sNC8R4BgsIkHsGI4lFhAWEBVaBBVqaEsb65gupiP+PXXGrBiEJ83KMAMKk1ynrRhkaAg/mgS2viqNqOt6eh86XFCFZvRvLvbHlWW6PBSQJ9Jgnx+CRoIne53m0AnZCkFuD4D6wC9owB+fZuwd7xNWhkAUuh7Vw8sIilAYGYOHjU5C/cB2U+6SJQpCqYssdt11q8uelXb3DHYff/Dz4vRM/87R33ZYEwD3XzShA7rnMJRYWFhAWeFUtgDR8Y/pf/h83pA21NzPnPb3oVbkIzFhDUh6CpKNnMlsc5BjQcV+MwReX7OJwxoCML0l/kebIcmkwFqRkQEiCgY7cV70Xajd3Q/Ddt8B/+BCYDU1LUIhU70QCrEtXYBTr4DKnzoF9aRxLDEiy2UJyi2TbrZFE444NI573jn9Sd/CN38rdXVck3b/m+sG96P0mQO5FLSjWFxYQFnhlLOBGMfVg97pPSufvv43S7HUENRQ+5PVx/ECrPTjumVXLfDFx5cqo1knhUEde30rlE+bZUWcBzN35gqBt6YGuI4fAd3A/SO2t1IfZOSJpMQGZK9ch/ocPYeryVayLm8DgKhV5Kwhwil1ur1/wvrGjv+fokS88Jw793t3c3C8A7uvdZgLkvp7dxFrCAsICr6AFtO7OfM3WjedS6wZP54ZH3tMhjdTFakpIxRurBqjlcl48t8aZjY/Wh2AEFeb5sSo58t+IYUnTqg6+zR3gP3oIwsePg7W+E2wNuZLYFieXSoN2+TqGKD9BweUzoN6ccKCNPLgShijl2nA81LflbuD7b//Be/Dg+9K6jn5J04Ru7te83wTIfU3DidWEBYQFXj0L+Db22PbvTo5K+wZ/NRNPbjbi2R5kN5JkvwNEHMwoM7c8J7cSyBjQ0eCfcM9u5ZI8u8cq7RQo1WBHgQ1t6MG9ATUnjoG2cQMCHBZyWxg8xRY50zewmzfWwU1g+y/5zjSCW97JBZZAtY3WmoVo38bb644dPuV7442P9LbWewLgXuw+EyD3YvYTawsLCAu8YhaQfvh2eu7//utzVjr+qfm7xdYSFLwso4YAtARZpAJJ/hdrVlqhk/DcG/tJg2fZuJQzlRIs9wZ52XgOywTMWh/I2ztRcPlNiLz1Nmi7dqBWtBsxFvtbJlMgf3oaZv/wPsgfnQdPPI7+XgGZlDK24AnaUldNzHdo9/XAO0ff9+3d/5lrXdcdSddEU+YXvL8EyL2gAcXqwgLCAq+eBcI7d4xumJj+u8T1sZ0zExO7Fch/NdexbBvxLbkvx2S6njYe9uDYGoyRiTm4kAfCvR3Q/uZBiGKI0r+xF+vgMFqKSib24gLMYXlA+vMvYOLGHaiLLzqQizJk7EiaApn2PTvurX/n7VOuQ/tPSo2NQwLgnnZFnu1zAXLPZiexlLCAsMAqsoBr9/Z87vTp2/bcws/GPvjSX3vvwSYEIux2zKvbWN9jBm9Me3J5l4BKeQHrLV7pY8DVKJneCfUEqMHC7gBI+zZA4N2jGKI8CsomDFEiwNlYA2eOjIL92SlYvHAJiidPQwN2FHAjvFH4dE4K2lhikFGO7L+p/fC9n6lvHvwDtDQOL+ntriKLv7qHKkDu1b024siEBYQFXsACnu7uWffRQ59sWEjUJe/N1JYhV4dQ5UgZMm+OA9vyarmVu+Rhy+Viz1Q3R8FOFfTaADTv6IXGt46A7zjm4Lp7MAeHTU+zGUjdG4br6L0VfvU+zI5PQuv0vLNX0tJEqS5bawmkOnduHWp/+8RJ397dn8i10XEBcC9w0R+xqgC5b9aeYmvCAsICr4gFpIYGqxibvW1o0q/z6XTL7QvXDq2LTbYiLKHeP4MuLtX1uGaptEw1WYX+durfKI8WaQAFxZalw33gevcE+A4dBKW1DT9CDcxUCuwrV8H4+S+h+MVpUDFE2eawL6mTADZLxYo41efLWycO3Ir88L3fqMcO/rRU1zDmkdWKSvQrYsfVfhgC5Fb7FRTHLywgLPBYC+j1DQV7+MHVtreO/byUy5nWJ7PvoZJ/GHmQS3MfSSA/36BSARV1SRo6G6F7xzao+f5RcB3YB3IjFnpLCJ+ZBMwN3IX+L75APcpzkJ6cg0ZHapkFRqk/uAp+o3Pr+smGgwc/j+za9aEdrpnUBcA934V4xqUFyD2jocRiwgLCAqvTAtK6zmz5/v1P/E3BZKk+XBjsHzwQuT7ejZLNugdKEmmfsH+cZUlUkEpOjhNOrCWgKtHPoBu827sg9OOjoB/cBxAOYZvmWYDJKSjfGADjzGWQL14F/7V72CCn0pMgidk4CQEu/b2+e+F33vrYf+LQr+S2hkFV9wgW5bd0ewmQ+5YMKzYrLCAs8OpYwNXdHS+MjZ6TVU8xdPrsaKp86ieJO9MbbCj6UExZJm3K6sELB5YzKit1c6ZhQ75chBKyJEt3ByGJH+XGp2AKO3pnb/SDdnsSjMlFBLikUyQuYXiSBhJczKaelsmNRw+dajhy6Jdqc8s9xe0XYsvf4q0iQO5bNK7YtLCAsMCrYwF3e0fGnotdqW1rmPPW183Ezl38SelC/06YTtR7oOhyfyWyTLk6CizyWjkGgJye4qKSb4Ql+cYwjMcyIAd8UELSZjmZAHtqDvSJedByKfTZKHNH4EYlBm6q0TOSu9dN7Dh+7GzNu2/9ndLTc8PyuBOvjoVezyMRIPd6XldxVsICwgKPsIBUV58tZ1P3/B5/ZldD/WxO9/3R1MWbR82RGWSM5NyYUZOWa1iyjZA3xosIWK+4MhTvzsPMyAKDP1sGOUdNeaiTNxV4k44yCXVRHzsqVHDZgUhwYf2+vZeaTxz7pdqz/qbs9y7IivpozTBx9b4xCwiQ+8ZMKTYkLCAssBos4PIFyUmbMMfHcqWQP5PoqE8tnLl0OHlnfIMazwQ9UED2JescR4DGPDiSBOMwx96RSxmwS5UCA6Z8wvod2MiiJFHoEsKdAW4jt6l5duOuHdcCP/7ez919W8+Dzz8vKWp1S7rVYLpVeYwC5FblZRMHLSwgLPCiFlDa2hfNmckrbXWRfI0/MD3tv/xObmBkizQ6X2tCWlMxV0ehRtY4h5qikvxypexAWSpAoPc4ELLau0rjVRu8Re+6uhnv/r4bbe+89Tt1/+7Tdig8JauiVOBFr9+zri9A7lktJZYTFhAWeO0soDS2pOxE/GatN5B1t7ZMxm7f2Zu5P7IjNRVrKS3Go+VM0S/FMhqhnQfKWCBAvtpysWcyClPApLAkaaC47LLuNaHBl9Z6OobrN28c8B0/9HGwb+dZiERnJFEq8FLvoyeX+r/UQxE7ExYQFhAW+G4sYBdycm4xEclOTLTlRsc25EfHt5vjsz25WKzdmI3V5eLJgHsq6TdLhmbblmIj2i0ViduWRLVvJpI0LUuWJdOuDeXUpvpEoKttTN+143Lzrh2fu7ZuuBgIhuZll0cUe7/kSyxA7iUbXOxOWEBY4NW1gJ3P65DJRCGR7IS5xW5jcWF9YXa2dnFurrk8Od2SzWbDsgVBdOnwJcsIeOWyZRZLxWLRtK28rutxd23tdKS1fay2q3NA6e2+ITc33bWD3llZdgmSyXdw6QXIfQdGF7sUFhAWeLUtYNqmJFmmxyyXfVYhH8hls03lxcXD+WzuXbVkbZYUuU6RFFwEfTijbJVLpQyqnUyrbv2yHg6d9kZrb/hDwXHJ41mwJTknIx6+2mf8+h7d/w9pjLBd0u7xxwAAAABJRU5ErkJggg==;" vertex="1" parent="1">
          <mxGeometry x="37" y="-100" width="68" height="58" as="geometry"/>
        </mxCell>
        <mxCell id="-ClTl8FYW49d9pKGoOFr-22" value="" style="shape=image;verticalLabelPosition=bottom;labelBackgroundColor=#ffffff;verticalAlign=top;aspect=fixed;imageAspect=0;image=data:image/png,iVBORw0KGgoAAAANSUhEUgAAAQcAAAF9CAYAAAAJEq0AAAAACXBIWXMAAC4jAAAuIwF4pT92AAB9CUlEQVR4Xu1dB5wURfae2Z2dzQnYJWfJKigKHFFATwUTHiqC4UyInp7pzjOe+W/CrIfhDGfAeGblzAoGVBAEFCRnWJawbM7z/77qrqFZd3dmdnrS7it+/Ztlpru6+nXVqxe/53BIEwoIBYQCQgGhgFBAKCAUEAoIBYQCQgGhgFBAKCAUEAoIBYQCQgGhgFBAKCAUEAoIBYQCQgGhgFBAKCAUEAoIBYQCQgGhgFBAKCAUEAoIBYQCQgGhgFBAKCAUEAoIBYQCQgGhgFBAKCAUEAoIBYQCQgGhgFBAKCAUEAoIBYQCQgGhgFBAKCAUEAoIBYQCQgGhgFBAKCAUEAoIBYQCQgGhgFBAKCAUEAoIBYQCQgGhgFBAKCAUEAoIBYQCQgGhgFBAKBAsBa699lpXsH3I9UIBoUAzo8Drr7/eOj4+/q5m9ljyOEIBoUCwFOjZs+cV8XFxi0pLS9OC7Uuuj04KiFgYne8lqkdVW1vrjIuLG9O1a9eM9957bwgG+3lUD1gGJxQQCoSHAl9++WVaakrqN7hb2UknnnTPzp0748JzZ7mLUEAoENUUmDRp0mHp6embMMjanNycb1etWpUV1QOWwQkFhALhoYDL5bqRjKFT584efO769ttvDwnPneUuQgGhQNRS4LPPPkuGl+KL5JQUMgYe1aPHjLk/agcsAxMKCAXCQwHYGA7HnbbC5uBxOp2ezMxMT3JS8lKPxyPG7fC8ArmLUCD6KLB7924nmMJNkBzKwBCU5JCdnc3PHR9//PGo6BuxjEgoIBQICwXeeOONTNzoI0gLtaZK4QGj4FEO1eJukR7C8hrkJkKB6KPA4MGDj8KotsMgqaQG2h3IHNq2a0tmsbisrKxN9I1aRiQUEAqEgwL/B7WiPDExSdkbyBzSUtMUo0C05J5Zs2adFo5ByD2EAkKBKKLAfffdl+F2u79o06ZNTUZGhgd/78cc8F3toEED36isrBTDZBS9NxmKUCDkFAAzmACpYYu2NWhjpJYi+InvdiLXIjfkg5EbhIUCEvYaFjLH9k0YHp2amjqwsqoyGzYG9TBgFo49e/Y4amtrHG1y2jgqKsodPXr0SLj++utPiO2nldELBYQCflPguuuua4uT/wc7Q422MWRlqfgGZZCkO5OfsEHUwjj5A7wWCX53LicKBYQCsUuBdu3bHYPR76DqYMY1qE8GQlG9oA0CTEExC/x/1zfffDModp9WRi4UEAr4RQGES1MKuBOSQQWlBh02zcjIhIQExRzINMgoeIBBVB199NECAuMXdeUkoUAMU+CEE07ohuHPx1GrJQW6MZGVqdyZcGF6dNwDGYWpdqwrLi4WEJgYfu8ydKGAPxSYAuPjbi58ZVsAMyADoCuT35ExkGlQeqDdgd+BaRTPnDnzZH86l3OEAkKBGKTAP/7xjyQM+zGoCuVkANrwSKnBZAKKWVDFoN2Bn/wexsqaLl26vLh+/XqJeYjB9y5DFgr4pADsCweBISyiSqE9E9rGYDIBZXewREl6GQR+37J37952Pm8iJwgFhAIxSYFzsPjzqTpQZaCNgUzBemh7A6UK/TtVjty2uSUwTP5106ZNzph8chm0UEAoUD8F+vXtl4JfXqFKQXsCF7xmEmYmpmIY2vbAT55H9UK7O8EsliHmgf1Ii0EKSIRkDL60cAx5+YrlvXod0KuPI87pjnMamz8Wuzqsf2Pxm/+PU9GS5eXljvKKCvWd253Y9sknnxwcjvHKPYQCQoEwUOCGG25gbMP1kBp2UiKgXUFJDTA+UnWwHpQW+JuOeaDKwf/TOAmjZCmMk7PBQES1CMN7k1sIBUJOATCEkVjsS3Cjmt+pFGAQZBL6YFCUZgzWNG4zEYs4D6vmzZvXK+SDlhvYTgFRK2wnaWx3CEyGRCRZjXUnuDtg13e6kGgV73I5ElwJDiZdxdU5ykpLHa4E/BYX54DE4KiqrHQUlxTjPDW1nPBktP371VcLzkNsTwsZvVDA4Wjfvn2PVq1afQpa0HBghERDOqArU6sYlBT0wXN0KLU1UhL1LFS+BZiDQolauXIlk7ekCQWEArFIgcLCQm73Z4ARbMCCr+FiJ1OgiuC1OxiYkd6DzEHHOfBvzUTAYJTLk9e1bt1623nnnScRk7E4KWTMQgFSAMVxO0E9eBN/ljL9WjGBOjaGRv+P88lQtIFS2yLg3iwHA3kVhskMoXTsUEBsDrHzrkI60hUrVjjXrFkzFjaFw7C43bAlwL7YdCeDdnEiGApAMJXusrLSoTfddNPwkD6EdG4rBYQ52ErO2O3skUceycHoj0lNTWlVXV0dT6QnfPr/QCYj0UyBF/Jv2CyIEuWsqa1t+/Lsl6eh9kW6/53KmUIBoUBEKfDTTz/FYRGfDNvCJkgN5AgqJZufPtWKOjYIbY/Q6oWlbF4t7BArH3jggbERfVi5uVBAKOA/BaZOndoW9oGncUUZDkK9KcZA74Qv5qCZgNVIWddgSW+GGfdQjLDsRyoqKtz+j07OFAoIBSJCAdgZnB06dhyDmIZfMIAaSgxkCLrcnb/M4Xd5F6YhUwdJmZII3ZornnvuuWEReVi5aUAUEJtDQORqfifD1tAKxscjiwqLOoEhOCFBOGAfcGS3buXXw1qNlt6/zXwLduBGf1VVVSonAwyCFs6O986cefr27dtFevCLwnKSUCBCFECw0jjcejkkhCptH0DhGi82pC/JQQdD7adeWNyfWj1hLIQJM1cLdeU3tJ4RemS5rVBAKOCLAo899lgWznkQC7uQkYxMt+YC5oLfF+PAhKumH2QOmkHwU/UdF1cONeYFgbD39Ybkd6FAhCgAyPkxEPeXYyevJFNQ6NKIiNQZmIbU0HTGwGs1Q9ABUWbUJaWHlW+//fahEXp0ua0fFBCbgx9Eao6nPPTQQ222b9t+EjAXOsTHxSusx5qaGkd1TbWKT7CzJScnO2rRt26QSpyoqZn78MMPTywpKTFKaEkTCggFIk+BgoKCOEgJk2BbWAwjYaWuR6Fcl9aQafV38JKDNfeCEoTpIq2GZPILIjO7R54iMoL6KCCSQwucF88880wu0qr/iBqY3eOx+p1xTuzstUBygqfRKjXYJEEgdFpRGbEOjri4eAekBkdKamo8vCJdEGNxXl5ennguonAeCnR4FL6UUA4JDMHZq1evobA3HA61gtDzTk+tBzyh1lAnrPkUNjAH4jzQNcpPayP2AySKpLVr1xwH5vAsflsTyueWvgOngEgOgdMspq947733WqE69jHFhcVd4J1wcf2TKezDgnRid7dvWrgSDKGAn6zErVtVZZX6uqBgb0/A0k3btWuXbFQxPbNk8DFNAUoNsDGMxY79E3R/hkortGjGN+gIR20T2OexCM7moEvoabuDRrHWwDAYDy2VG5CQJWAwUTa77NsiouzBZDi/p8Dzzz+fVVRUdFxFZUW3Vq1bEUTWUVJc7KgEYrTHtDfQq1CDbEz1fxtaKewNjI4sKS1RqoXq25RUCDuHmppxAIPJGTRo0MP5+flie7CB5nZ1IaKcXZSM8n6Qfu1s36H9IAzzj8B8TMnbngdoSJdtTKChx1ew9hY7hhXantfQfQqVwg2k6j6LFi06EF/9FOWkbDHDE8mhhbzq22+/PSd/R/5k7Nad4ZlQO3SiOzH0T2/WutA1L+p+EjcCEkX8qpWrut53332nQ5JQEo00oYBQIAwUMAONToeH4lcsxEptV8CtfaZkBxvnYE3frgshx3EwWxNqBaOuGPewHjD2A8NAErmFUEAoQAqcddZZPbFjvwnjYCEWZK01KMlXYlWwzEEXwPHexwIOo0KpYQwlkyKTQFBWMapsPYE4CJEeomDqis0hCl5CKIcASPiE3r17n4DFNxTqRArSp51JSQxvYLk6tzIQhqPVwgip7A+WWAoaJnl/5HM4SktgsIyPS1m1etWxr732GkvozQ/HuOQeQoEWS4ELLrigN3btj0CAUqRn0wWh3JYahCXUksN+/ZtSg1Yv+ElXJ0BovZW7u3fvvrtr166Pg6kZHEyaUEAoYD8FysrKkiHW34aed6PytWIMJlybdzGGnDnUYQjWgjiMedAVuaFOaBWjBmNa/sILLwwlIrb9VJEehQItnAIsXos6FEe73cmLEhKSKuLjiaPgQhFcM5kK/wcCfdCJVcHaJMicyLRoB6F9wvx/cY8ePR7dtGlTdgt/jRF9fHFlRpT8obv5iy++2AaLa2pNTXWv6uqqBMYT1NTWqBwKfuL7wKDnQzTU5OQU1XOVGRzlhj0EHo4UjH0ikKqPCNFtpVuhQMukAGIF4keNGnUinn4DpIZqJSGYksN+O3193wWZoh2oJKHDq/WnRdWogMrxMYK3/AOzbJmvOqRPLZJDSMkbmc6feuqpNl9//fUp0O/bIomKMUbYjV2ofO1yOBHC7D2CqGhl15OVlzPFg4lZhuOM6dxMHYf04C7cu3f4sGF/uHjHjh3i2rSL4AH0I67MAIgVC6fC1hCPPIXh+GTxGHd1VeXvhk23os7CrJtKHalnrARCNZGviVRdWVEJpOo0RF3HJS9cuODU1atXv4xxSUp3mF+OSA5hJniob3fllVd2WvnbymmIHWjNmAYtJVBq0JIDU7LJFIKphWnXc2ibA+DxFRAMYy/IvKqrahzlFRVxYGI9pkyZctmWLVvEtWkX0f3sRyQHPwkVC6chqzExJyfndIjkY5GKrfInAPCkmIAKQALiE1aeWnwU3YHyEvLEK190q8EYmJ2pDKYwkiaAOVRWVMBYCrwHjHPAgQcm/7Js2QnvvPMOq39/6as/+V0oIBSohwIjR478A5jCN1TdcXiQS2EYInHAMOk9+H+6NMEtIu7K5DjpxqQL0+LKVFiWul4nzilp3779q8C+FOOkzHyhQKAUQLpzFhbXLFy3F0ftvkK4wYG1BOp9CPh8nWuhC+Hg/4yc1MFSZlm+WtTbzJs0adIVjN8IlDZyftMoIDaHptEtqq7Cgokb/ofh41AAdwQGloral06AukTVGJs6mDJ4M+DmdO7duzf7559/Ph5Rk12b2pdcFxgFhDkERq+oPHvmzJld0jPTTwVgbE/kJcRv3bJFjRMqRlSON9BB0T6CsG/XhvXrD7366qungxkKYlSgRJTzWx4FCgsLk5BEdXWnTp22Up1guftOnTtbcidiW61QuR9QNcw0c+JNrkPehVTpbnlTXZ44UAqccMIJXCiLoJtXDho00MsUGGlIu0PANoAwR0h6wWAasDnQ9qAxH/hMYIJFyC59G9KDEXctLWQUELUiZKQNfceffPJJ9meffnYKFlgv6OYJS5cucwCL0YHF5EhNTXU0B7sDVQpEZChiZmVnAZC2KBVwdyMuv/zyk2hrCT2V5Q5CgRijwPLly+OQ5nwShr0KCEpVzE1g+jN3WaoW+N6DStYxLzlolYKp5nhO9VzdunVjzPVCJGeJcTKE81Y4bwiJG8qu58+f3wGoSadBJ++EehQuQsCXlhp5CrDsO8AYHCgYE8ohhKVvBkilZaSpgjh4TgfS0B0oysNoyX7HHH307QieEuNkiN6EREiGiLCh7BaAsQm5ObnH4B4jU9PS3bU1gFtDhGEVogqrqwj7FgfGUIjPGAgJ8IYtmGNVFbhw4J/RPI6d+bsRRZmgojo3bNikoiiTk1KTVvy2avzbb789CvT4HGqUvaXBQ/kCY6TvGJg9MULJMA7z2AkTBnw9b95M4C4e4XDGJxlw7/tyJYyiMWbtSxvqXYbx0eq9FfNDFN4kGCAlCZcrQf2/CjX1PJ6aJeXl5ROAi7kj0uNsbvcXtSLG3uhvv/2W8b85c6bA2Dg0p21uIvMRuGjYmEwV74pXtS7JLJpD82aQKiZnihX8y8gsTYABtufgQw9l5GTzeOAoemmiVkTRy/A1FIYOI7R4LD5Pg9syffHin53ImVCJVTrDsqa6BuI3k5gM1Kd4ZDrGcuMzOKB6kEkoNYlJZPFx6uBvGzduzMQPk77//vtn8Lkqlp812sYu3Dba3kgj47n44os7YtH/BR6JLmAMLngoULXK7UhAWTtmXVabmY0GY2g+KrjBGIzsUoLWJEA6cgP7gbYHfo2o0HbDhg37JyWJGHqdUT9UkRyi/hUZA4QHIjUrK+tC/DmkqrIyEa49R2o6YxlKHahHoYx1lBhozTPSsw0bhF0FcSNNJvVMJoMw7CtQo/BJr8yGDRsyECw18v777x+JU76I9Fiby/3FIBkDb5LqBNpJkBhu7dC+fZ81a9YkUGqgd6I+VVuJ4mhKeohxCUIVwwGjMx8INpUE5FkY3svKSqBGVZY50tLSGPBVjq8+wTOfAVrRVSMtSAqIWhEkAcNx+W233dYZ/v2pQEvqCR07gRZ7Gh6Jt6gZAReQC9/rhaTBU8IxvlDeg89DhChtU6F0RPWJLlsCwqQAvZroUTgY+zAKgVI3VFRUiHphw0sRtcIGIoayi+3btycPGDDgdJSpP7J/v35JW7ZuVUFO8O2rMnLcPYHrBNVi/1EoMdwZ28ZILS3UwiOjG9WkynIKCUYrKS1RzAJ5JA7QKBPHsQDYfRs/fRvK99IS+ha1IorfMvz3TjCGMXnb8x5yJ7r7gym4lK8fu2kNFgkbEqui+AlCPzSiVjN6kq1f336O5SuWV+DPT6FeTBX1Ijj6i1oRHP1CejUMbB1gX/hLWVlpH9RvUIyBIrQGZeVu2dKbRtdGXgkZA8lBY+0RwLK4DQxCQGmDmCDCHIIgXigvhW0h5cGHHpwKVKeRkBLcwG1QojMZRHFJsZIemkPWZbA0pASFNG7mWzjIIGibgCSRAtpMevjhhwX3IQgCi1oRBPFCdSm9E2NGjx717XffPQJm0N/tTnSlpCSr23ERkDFQejCYRMtWK5KTkxQdAAbjqESNDhppmbKelpZaCqPle6h7MaNHj54FoXpXzblfkRyi8O0+8sgj7ebOm3cRgnx6w7Do6t37AOWFoKSAcvUO1pPkghC1wqHowJiPisoKxRjIJDIzMxzAfEhBxaw/Tjn99AsFlLZpk7xlbztNo1lIr0LxlrQ//OEPZyGoZzzqNyRmQVTOR6oyrPDqvsg1crAADBs9FS290WNDEFq6dykxkFkwOIwN0lXmD9//cOrnn3/+Dv67oqXTSp4/himwefPmeOA/TsMjrOrevbuqPUGYNH6ypgPrUPBvHqjjoD6jHgYuxLBzpAsPXYgXCNxe+hD0BlJFKfJR3oTNpnmg7YZxfotaEUZi+7oVoNf7bN606XKc1xXAJtAqUBoOWA20K8QhZiE/b6f6m8eOvPwWb28gPV2uRIX1UI76mqTLzh271P937NiJWBAFfpMMT8+Rhx92+HQERzWDwA9fs8i+30WtsI+WQfWEupbMD7gKkkPPosLCBAY6UVSOCcCWoJ48uIt1hGhDvTAGAtJEGtS1U66//vqPcd6S4O7Ycq4WySEK3jUMaXEI+52BIJ5RkBzSyRiYOxHreRHhIm19Gag63JruTQSROWGL6Pf8C8+ftXbtmrRwjSvW7yPMIQre4Ouvv34owqGnIYinG8BLlDSX3SrbGwUZBUOM2iF4GUM9CWbM3kxwG2kWYLZpO/J2TLn88iuOF2AY/16nqBX+0SlkZ61atSqnV69ef8MNeh108MEJmzZuUPeCcVK55crK9uURhGwQsd6xlTGYwDcaNq+kqERFlWZkZjiRh5H77rvvTr/rrruW4pGXxfpjh3r8EgQVago30j+g1d3jxo67qNZTeynCpHvgVCdsDo49u3arhCIGOxEsVloAFKjDHDyearg0kx2MMKWrE0gQJaDth1u3bj2vQ4cOzaOgaADkCeRUmXmBUMvmcx966KFBgJc/HYyhCwEbUMkJXog8iMKGQJeRSQQ0ab4oQMwHjRalz9XQeTD0OhKTEtXXZnxIyoD+/UeDMVyHoDKRnBshrkgOvmZeiH6HYSxnQP8DH0QAzyREPSZnZ2Y71q1fpwBaVJUnSA2c2C09PNoX+a1MwUhTN/A0NQYEITTJFCiRIWpSZ3DWImZk5cgRI69844035vi6R0v9XZhDBN48RNwEBDn9o2DPnssQxdcaWZfqPTBfgsyBKgUbdeWaaiM1W1oTKeCsg4blVTuclWAib3/99dd/HTJkSF4Te2/Wl4laEYHXe/fddw9EOPRkbHFZyAlwuhLcDh7MD+CBeAcV48BcAWlBUqCOsZISGUFqXQnwY7gS/jh58uSLgZth6B3S9qOA6FxhnhBz585tP3r06BkwNvZq1bqVa2f+TmQQGrADxcUVSnKg4YygsboeRZiH2Kxup9UOqhzaDkFYe4LT4jMTqfHngEEsxkO/1awe3IaHEcnBBiL62wXUieQjjzzyXEgFE9vk5iTvhleCO5nCRMShdjUcBpp0Hdw3f28i5zVIAbMQjgPWS8O2U1NLda7D4p9//suvv/7aXUi3PwWEOYRxRpx00kljoCqc2aN7j9aM2qPq4E5MdCD7Uh38G9gNymhGYyQShsI4uuZ5K0oMGtaeEac09lYDk5LI3VXV1Q54iOJ35e/8Q//+/YkcJe4hyzQQ5hCmNfHaa6/1QOrwZaiz0BXuywQGOLFRvDVqTqA6FUVdDcOO36x/h2mYze82Zr0L74OZDMLwCtUoD0ZGVkYKsjePb9+h/XR8L8lZJrFkawrDckDATUa3bt2uBPbA8KrK6kSqDuWQDghvtm3bdq+EwJ3MKGEHhsHCsfi/BEEF+YLqiZ7UtUQpUaTAvgMpjkje6WAUZ99zzz2f4I60QbT4JpJDiKfAjh07EkaOHHki1IlJaRlpafROEPcQJeMd69evh0eiAiXtEtXBv+mhoGrBQyNMh3iIzbp7a4CUEf9Au068KiFI5GomuQEbg4AxTryTLjPvm3n+nt17DLSYFt4kziHEE+DUU6f0nz9//syNGzcchQgdF7MEy2FfKDNjGWK90G2IyRfy7mtqq1U8CdU6gsbA1pOPm94B9eIR/j/kA4jiG4haEcKXA6bQ6qRJf5pRXFg0AolALoqxwDVUEgF97QrirMyAfJMWGQqQWRO0lw1Rk86kxKRWYBRnnXrqqcR+aNHQciI5hGhOQjRNhCX8vOrqmlvS0zNaY3dyUmUoRaUqMgd6IhjiWwOrubTIUYCSAxlEaWmZtzgORlMGg/F/tudtvxZ1OAsiN7rI3llsDiGgP9GOp515xiGAJ7skOSU1m/E3tI4z8jE9I10BuaiybpWSjh0C8gfcJVG96T4mijUZRe9evZOccc4p7dq2+ztsEi22MI4wh4Cnku8LZs6c2fHDDz64Eoau7jXVNfFMF6boStcZpQXlugSzcKFitLTIUoDMgJGoVPFopOR7WrlqpRNls7JQB+N8YE+eBCCeFilhi83B5rkJRpCEUmx/Qabl+G3btiW63ckwdAGRCLkTbGUoAltWbtgZ0tIyHEWFAilg8ysIqDttb2BBHAc0PCXdGUV5GSCVs2HjxvMef/zxxS3R/tAiOWJAsyeAk+G2jD908OBpwIG8G5butphczoryKkgLBpkrK6ocpTBAGrEMiI5EcRprxegAbiWn2kQB8G3lRk5GRTEgfqteYZh0bEf8iVmwuBjSxbMrVqy4pm3bti3KeixqhU2TjN1cffXVfbZs3nwZwqJzsAM5YZRUjICttLQcqdjF6v+QLFR6tnZn2jgE6SpACiAzU6XIFxQUGGUGoV6QMRB4h6ofkuDSIF1MHTZs2DlQL1pU9KRIDgFOpoZOnzdvXutx48bdBD/5dEgNiTRAKmh5j5DYJhKHphsr3oMXKAZgcgxlx/+ZgwHDMuMdlk2aNOn8t95664fQDCT6ehXJwYZ3ApDY5PHjx58MpnAK9FU361myMZFKWuxRwAp1D8ZAacLZunXrHmAMZ86aNatd7D1R00YsBsmm0c17lVkReyRiGC7Hl7nIl3CuXbtWRd1VI7NSWgxQgMlZZg4GGQPDrKn+AaxPDZ61OJHJmYLyeic/+thj61E56xF4M5o9Eo9IDkHO3VtvvbU/KmJfjolzQJ/efeLIGNgY8KQLqwR5C7k8XBSwMAgD+6FWeS+QScsROMvLK9r/smzZ5UjWOr8l2B9Ecghi4n322Wc5UCeuhHV7BIxYbibxdOjY0bF1yxajLDwCawQgNggCR+JSMgXLfYmrUVCw1/ymytm/X78OK1etuuBvf/vbd/hyUSSGGK57iuTQREqvXLky6a+XXnoOLj++uqo6nd0wJJqMgZZuHXHXxO7lskhSQEkNxkH1kI1RrZAOHb8uXx7Xrl27Hs/95z+Xr1u3LiuSwwz1vYU5NIHC27Ztdd57770jf/n117N69OiRDf943GGHHU6rtlIlCCDCiVTNwBppMUOB/epfmMyB0axUK+jupGmC7k5UI0vPyEg/FpXK/rl69erkmHnAAAcqzCFAgvH0776b3+OVV175K3aV3rAxuCgpLFy4wNGzZ0+127BBJxU8hibQNhousdbCIMOvrqpREoRSL8Ah4LlwAiCmTVpa6sl/+ctfjvntt9+apb9abA4BzsZFixZljhkz5i9lZWXjkXadQJvC7p174BOPd6xft8FrY2Dsk3/2Bl91KYR/B/iKAjvdG4dCrMk6l4LPu1xueCsqlDfDeJ9Iuy8sgU0pxVlRWdMR0H8XLly4kLU3Vwd24+g/u1lyvFCRHSG07okTJ05G+br7YF9oi13F6R8DaGxEwhxC9b7s6NcJNUJJgxpuzqymRUQpQtxXVZaXYR58BPfmGXBvGtWImkmTbSmAF4nqzH3AGP6KS3IACuKkXUFay6YAGENymzZtjujTp891sD01q6g3YQ5+zu2lS5e2++qrr67D6QMBBBJfXFKs8AeltWwK0FiZlJSUATzQaQ888MCI5kQNUSv8eJuwWCdCjLwTlupzc9rmZiCmwUm3JQFbgkeHFrXCj1cQsVN8qRXJSW7H7t27aYwuAoP48qOPPpqOwkXbIzZgG28skoMPYkKXdA4cePCJOO3UeJcrnYyhVatWCgOSCNHSWjYFygAvR/wHqJtpAI0Zfcwxx/wdxXlV3EusN2EOPt7gE0880Xvp0mV/RRRkG4RExzECklFzDHJizL00oQBh5hDvQhtUBmwQk998880/wKsV82tLXJmNzO38/PxWvXodcA3i6w+FxJAIw5OKgFSp2GisWlVWJjiQLZk9cIPgPDBzapyIh2h///33/33QoEFbQJdfYpk2YnNo4O2xLJorPv7vrgT31TU11VmwL7BMs2IMzPUnHmQtsAd92hwsGX/qVqoPl4q0ozuspLRITS4aOBmiy0i8tu3aOvr06etYvvxXVN4uMwvrmsV1LS41lT2o7B7SIkYB4EEQg5IbB5GkCORTCmQfvJs5W7ZsOSc3NzdmrdYxL/qEalJMOmlS36zs7NOQmZfJtGx9H52tZ835D3YMZAxkFqnpqSr8esaFMxzfz/9ehWGzIrS06KUAGQOZOpGk2AgmDBtEUnar7DEDBw68BsbKmEWvFrWinnn35ZdfZo8dO/Zq/NQfkgKjYBRkGDmpTshRhVj5XZCyF2HJkpKTFOrxjrwdjhtuuKEG4KbxCM393ciUpGD51k4GFb3LL7pHxpTuWrwVhllrDxbfJRhGNqTAcy+99NJ5eIIPo/sp6h9dkFM7Fh+58TED9zFh0CGDzkVyzZ3p6WnZGh3aYAT7k8v4zgesoA+1orqmypGVnYliN6UOGLZqIIpWHXTQQYnYcZyon+DYsHGzGvA+poSpqFULa5HY5vcqYuKJ4l2IkoSBWtclQREcbwWt7t27V8K9+fk333xzwfDhw40XGUNN1Io6L2vkyBEHA1L+r6g5kcFEG52EY2UM9X3X1HeeAtTj3bt2AxymCt16Xjz/ggucZAyYWKyf4GUMv+tfGENTSW7rdbrwMaU6MglmcTJylngeeI/ulOSUEWAM/8D3abbeOAydCXOwEPnhhx/OXrV69ZXJyckHQHKIZ/Vl1Qg8CpsAD2ur+/+mvC+KoIBG95x33rkfbNq0qXTOhx/W0m9O3ZV2CKvqwAlIY6hGmLJmDzbl3nJN8BTQ74LviQVyGDXLo1+/PuoTldUZ83DmkCFDzykvL48pSV1sDub8AHCHG7v1ufAU/BF2AIXwUbi3UKkSunS7Eu2ZeGMyDHobWPcymAZG4EGG52+PPfbYd7jPtfBcJNFvzsbdpxYGSYMp7JtXIjQEQ3F7r0WODaQ+ZG2qPWTfOyoqKlYeDKR2Ew8iY8GCHy947rnnvsJpS+wdQeh6E8nBpO3QYUMPA2M4e+eO/NbQEx2JSYkOV4LBO+vu2Nbvgnw1HjCClRBHp6CqUi6MWC4aJ1ErQRm36C5trIlBMkjq23A54xzg7lbvjGHUjJ7t2rUrIyYRKFeh/g/11AmposeMGTOugVcjy4bbhqWLmBJzQkWR8847r/Xsl2Y/ixd9LPRFF8VB6o3F5g7u133N3V3v8hT/2TIy05VLEqjUjm1btypJg1GWUCc8ZaWlm19++eVLp0yZMh/XzcfpXQmDrr0XVCt8xlH4NTg5KWQUqGOk/t19PDXqnevqWWD6s7AZXI/3HfXQ5C1erQCHT0A025+hG45Jz0x37S0oVLuAzrg0FmgjbT9x3+poNNQN4EuqICfYMFSZtQoAhyDKkj9umzBx4r1gDN9cc801dwJNKnf3zl1O7kSs20iVohoFVfbzXYZshkvHoaIA7UJEkaLhEvMqFRvCqZdffvmnuN/HobqnXf22aMkBDMDZrVu3IdjFZ4MJdAdRseHHKZ+1giTPzgLK0y7/mIPVEGCRImjBJowcC+ky9JrGRoCCFCNh5//2Fu59AvdKgPtrQU5OTgcYrOJ0YVeKo/zbp6vUrpkg/TSNAj4kBzdUU52DYyKTU1f8/Ntvvz0HXgyGWEdta9E2h4suuigHC/CqTp07d4Lo51Qif4cOxAhELctkI0LRR7MaobwApRZGQY9HFXYNMgZKEFAZyvfs3v06oiKfBmOohB76IKLsclCEN452DkoMbMXFrKsp0ZG+6B/tv5Mx8J0yipJzALaHeKR3DwNjuA3v14C2jtLWYtUKgIKmAL3nL7AtHImq2O5+ffs5ioqLHBs3bvS+KiOxqvHCylZXlvdCr4fDCJBivARL5OFcD6zX65599tmXoWYUgzkcAQv2EZAsEsiIiguLHYx7IGo1xVCfKk2UTioZ1v4UYJAbvRaUIPmesSGlwfh99MTjjpsKBvEfzotopFmLZA5YeE6I9mOwYE+vrKjIJFdfvmK59/1QciguLlHJUIEuULo+6eJ0IbmKn9u3b1cqCl1e8EzsGjly5KtHH330d5QoLrzwwj/DQJW9M39nHNUIWruz3dkKJ4I7DvAjHDXVwblKo3HStaQx0etExsCELDIGzqe27ds7IUW0nTd37jl0YYMev0UjTVqkWnHKKad0b5PT5lLkMnTDrh43ctRII/EJTIK5DshtUDu4Ts3298WpKEoTgJTX0hVK1aAjq2Bt3VqDHeNzVOO+D/coz8vL6w8JYlRWVpZbhd66E9RtqiphhDQTNhhtJy22KUD1lA2xLMowmQEvWN62bXRVx3tqPYcCl/RCQBBmRONTtjiD5I8//ph5+OGH34uXcRZeViJ3Z1iQ1bthyDKCodTfOvDJizrcwNuLAxNQwVHmQqZBMwGTwA1pgZIDA5pQW9GDOhbLFixYcFq/fv1WQGpJhnTyZVJy8kDsIG6qL8zuYzCNO8mwOZRjMrHf4NGto3HaNaMx+TBI1iB3hpIjomCVJKobNyJgAjDOZfe4ceOuQ2nFJ6ONKi1KciBGw7ChQ6fjJZyOF5ZYA69EZTnrWcapY+MG1p0w/lZSgB8GQe7uXNg0ZqakpipPB6trV+LQngd4IfKQ5fkOXKa/gTE4Ye8YWFlRecCeXbvdVCcIcU5jpvKU4DqOi4xFWgxQQMPWN/BpBLPVKpwO3bjxlENtxIbhhLrRCozhL0CP6httT9uiJAdYiSdv3rzlESzGtpAWLCCxTX8tOnyai5xSAncIukAZ1wAvCPTN7UVwVT4GieQ2qBClEC9TR4wY8S4Mn2PgzoyvBmNRwDFa8jCNmToLE/HaTR+cXBkFFNhfNeQGQLCfBDANJ9RHzhm40wthl/ho2/Zt52OOFEbBoNUQWsz29PTTT3dGwNPfwBhysTM7GeiU4DL0/GCaEg+hWkASUFl5FB3z83eqLuEFqYJh8qNffvnlTjIGpGM7wRwO+Hnx4oFkDIyEpCpBxqCKpJjSgmYUIj0E82ai8FrTWE1JkQehQtgQrp8BA/RRRx31xz9Tuo2WkbcI5oBFmYQQ6b8ecsghfSExxNFNSM5tB0AsxUWqFWQKtEhTZGzVKtuBUu0eiJSbZ1w043XETqjdAIFOcSOGj/hnalpahnFdtWIsbgRIofaBkjoUQzBtGBLnEC3LJIhxmEZq1QPeK+cKVUcanqsqq1WYPluXLl0yfvzxh/Oef/75fkHczdZLW4TMijoC4z/99NNnIPp3RviysxzI0S5IDUSQDtRVWZf62iBJW4PGETTP2Qu14oZNGzc+oePolyxZcjDal7hnNt2VlBwoVlKCIZMgM2DotIFNiabsHi3iFdk6qaOqMx3CsF85vX2ubnei22ubAoL1HkiWr3z33XfXQtWIOPZks5cc7rvvvk5gDJciU649QVQyMjO8Lkq6LYNtXMhkDFzcdIEypx9MoRCej8d+Wrjw35oxAHw0YfKfJj+KcaTSTlEDOwMNlryWqgUZVoWpYgQ7Jrk+iihQp86m4eJOUK7rBLdLzQF6MxhWDwRrIo9NPn3q1GnR8ATNmjlA10+56qqrLgShxyMcWRkYiBBMtYIL0g61IgkMhhZpQ2r08GVX7i0oWHDOOefMBvKwF7ceMPcHAczloA0bNriZgEUXKlGmOTEoISiPByUGTibTPSZxDtGwRGwcA3FHsTHU1hhHDQ62zjBcMwaCDXXbW/3w/fd/fu+993rZeOcmddVsZVYsROfFF198DOpbPgT97gAwAuWdYDOqVSWowJRgod0pBVACMTEmPYlJ7l8R5/BPBFi9DalBvX0keMUPHzFizs6d+WNhlcbGkaByN4j2REmDxkxKDWosFsYgcQ5NmtNRdREz9xUYMd6ttiGpGBrTFkF7EzcqziNGzQKikMF4gBQt+QDnn41zI1Y5qdmGTyMCsdWHH354flJiSneYhp3JSalqAfMlVVfTKFRtTqLGhada5OPrSEnu7PybC1shDXtqVd4EGIL6RNtTXVP9n8o9BXM0Y+CXAP1ojxiKPpBeFL1TU1PU+WQShXsN1CejcSaZfxG4ttmy7qhavyEdDKYIGplBPe8T75rSq7FZpCi1lA2MIQUZnEeMHj36AjCIRyKVe9Es1Qq4FJ2wQU7AYj4C/NrLAO2y/iPsVTEGagDMuDMXeiVsDe+/9dZbs63cHtJJ/Nlnnf03GB7bcrdgFCbPp/GSrk9pLZsCVCe0C5wbF13sPIoKC1tDLT7hjTfe6BkpCjVL5vDkk0/2xAK8GIs0SxEWi9kuMFYdnERsR6U/wrBoALNUb+nWtevrxx133H45+rBv5M6dO3ccRuEmnBgh6Ni4Syh7g7QWTYH4uH1hDSrHBhIpD2J7wIA+5Lprr7sAf0dEwm92zGH+/PnpV1xxxWWHHz7EKEhjMgZr3YdAZmN90gaLmNCgxOhG6o+IVyjtdUCvf7/77rv/q9s3MCPOhJjYA/kTTqoTtDHQt81+4ywTI5AxybnNhwK0N1BV1aprCXA8UE5Pxb5grqStWr3qdNTePCIST9zsmMMVV175B+zWp2zZuiWdbkIaeryhyE2k8H4MgnYLWpqhVjAHAqqLB8fPt95268uIo9CGDHUnXJc+e/bsU/BnCmDoVEo2A6VoiKTNgkFQ0lo2BTg/GfhGZsCm3NzYdBhBCXcnoAWS2t58881/Q+Zm23BTqlkxhzvvvLPtd99+exUWYA6yHZU5z8oYaCfwNl/AoI28CfajGQNe6vqBAw9+/LTTTjP0BUsDNuQEcP9OYBpOVOlWKeFUKzgmlrsj85LWsilAiYHqqQ6jV9gfMHijyJHCf4BXzY3NbgQYxDRgg4RVvQjrzUI5DcBt4yC6T0H04ajklGQFuVZaXAoX4f5Gv2CNksplaUa74aUWIMpx1heff/lqXYsyFn4SpIPz8cw52rbQrUd3xy/Llqn4hpKifVl6oaSL9B39FKBqap2XKFvkqIYty4ACUMVyUv773/9OnTRp0ud4msXheqJmIzlMmDDhEPiLLoRYlsy4gYI9BcomYG2/YwxNlB5MaaQcnx89+uijz6GislHVxNLuuOOOw4E01RXWaKTtu5TUQMZA6zSRgRTSE3YNaS2bAlQhGD7PYDp6s+i5UOH9kCA4Z5izgzgdrtP+11x77bX4PfiwXj9J3iwkBwQ8JSMu/SrEH/SKB3CKKjEHD4ILi29fPEP9FKGOZw1KqVvApgbJMXyBBGThi2K/sCZ78PevMEL+a9q0ab9DoQXTQDfOv+COXckAVOQjGhkDrdPsg/YGpVv6KsTr54uU02KTAiqjF/k0qoE56A0D8IXqK1TL0g+WlOh2j4D0MAlfzA7H0zYLyWHa1Kl/AGbCuIqKShcNhWxcfFaAjYaIaUWPtp5jlTKoFmD7VwChZDgwLu5AvMLNH338v2/r6/ftt99uA67fB16JhP3Qqc2cCm37qFu1OxwvXO4RWxRgTAzxTMk6tm7Z2hob4fGYm6nheIqYZw5wH7aaO2/exUiDbk0jX1JiotrlNXZfU4ioFy8ZBBc3LckscsNq2ClpKdUwLn5//vnnf9ujR89669U99NBD43HfLqiYBWwPo/CtFzFKgbsINmRT3ktLvIbeLaodDJqDKpr0888/Hzl+/PizEFQX8vjZkN8glC8U6Equ4yZOPPeXX3+dCXEsnYSkSqFFeSWiBZLybKIwGRKewTdd8WAOSKsFpBdfkgfupZXAfzwP9/6mvmeDuzIRCVezYJA8k5dbVQgjVwL9Wm0dgYwvlMSUviNDAR+o9NxcaIfg3E4FDCGKO1dDDfkB8TynDh48OKRFcWJackA6dn8whksA/5am9Xr1hk1vgvYd+3zrFkAOrU4Y4dG1ynBIqQFGR+Iv7EWMwiNAjf6xoT4hNXQGYxiiDJGIZaC/Wts0GlJhfI5PTmixFNAh9oyNYZkDMAbgVrsGgDFcgJydkG7uMcscfvrppyTo9mfBzdML1n9WMVbiOndqWn6V+9CEeG90ZtXjsagbNEU1BT7nakglXyGe4b0jjjjCtCD9vmd4KY6HEakLOINTxzEwEpLYgUrF0J9+Ati22FUhD+6lAKUGSpycl9zwIMkSyv5EIKl3DSWZYpY5oGT98F07d02GxJBEL0J5Wbna4ZnrQEMkOa6GnG8qAfkymEabYViMNw3o33/mq6++uq8kVp2OP/744zQwhHFICU+23ttb6EYhPrHYjeHCtCvfo6nPJ9dFPwVoa6DUQK8aJVHE8HCeO7EB9USBpKtWr16dEqqniEnmgLqS2UiuuhpRZZ1IOLgxlW+YDTUiDCMi3Ib+JDYZrkvjqK9RlEO0ZTlUl5dPmzJlcWMv4tZbbx2J34fCuqxcxHyxutGFSRWD3g7xUoRqOje/fnUaN6VX2hwIVsS/kfiXBmZx9IsvvnhgqJ46pDpLKAZNrP8ePXvMRN9nQZ1o40ScgHex6QWuIxgZzegj0Kmmtlr5kjW+ApmEKpduQsjB5uABhNeSzKysM4EmvbShZ4KUEYeX9bQ7MfEMnOOi5KAwH8QxEYpp0HL6hMFSb1zKHmYihREDFRsNQWHexPczcI7tIbcxJzksX768PTjnGDCGbLtmSFGRUYmI4j5doAoRGh4K4jwCFXgX3Eb/eujBBxutZ4jgtc5QcYaiUlW8VinEAGnXG2rB/TCEuk5xJYuBOwWxNONRkHdsKCgUc5IDjDNPQZWYhmSmZGY5Bis5sJ4lUajZKC0AyUnZKxi6Cq7sAaOYO3HixPMQT7GmsRcAhnUlXuItuCaN5xluVMI6xRz/DcU8kz6bSAEikWlIOdUFY29YcpGSA+YuNi4axwkpdxaYxr56e028n/WymJq5UClyMHgGGBkFJW1oNGAqSQE2CkoK2nWk7AMuVz6kgafggdjQ2K1QLCcBRtHhqempKu5dQcmB0ehqWDYMU7pooRSoL1FQSaTwxJmSqRueukNmzJhxmN0kihnmQJ8upIZZkBo6gghOSg26IEgwRCEzIJHJiZmGzUaYcLQqfD/nzDPP/PKggw5qNLf6nnvu6YLzD95bUKjoqVJwdbx8MIOTa1s8BepTTRXDUFCFBuBoeUVFzhNPPHE8kM2V1GpXixnmAByEHOziw5HfkMCYBhIN4clB04FxESQyC5typ1f/h48R4tom5Gs898ILL/iMQnv55Zep83WCeuKkJZn90aip0a6DHqR00GIpoGNjrEyC80uBJZvQ9iAO3ZnjEIDX305CxQxz6NOnzzXY0VsDrdnJEGlfXgh/iUT1QZUps+Q7QEUohVrwCqSGRb76+eKLL9yQZsYiSCVJV63SNQiCxY7wdW/5vflTQOfm7CdBKBR1I0cHsAAoo5hA22HPRx555DS43m1TuWOCOaAgDLPQjgKSs7sa4jrjF4yqUcH7CelZYD/skweYBWW1FQMOPPD1hx9+2GdJMryQ7mAMQ9CHkyHcDMBiwRoiCO8X0t3857E8YQgooDwTjLA1Y3GUxGB6MPjJ4D+zLEIaMCCOuuWWW/rYNYyY8FYgAOlPyIR8BguPYaPKeEix3ahz6YO/+YhzYBcEY6mqrlJ2B3wWIcrx/z744IMH4KX4HYhLXcJDdbgI3zHuIqUu1qRxbkzwX7vmk/RjNwV8JGbpmq9kHvCw7YHUew/m7z2Yl0HvnFE/cxEeGrd127aJqCuorISHHnqo2pFpNHSjMnWwjYg7jK6kcROuIQ8IuxkRl1/5wxg+++wzDmAEjrCh8wT7vHJ986MAbVuwjxGMiHH+E+69914ayINuUc8cICZ1geg/CqITqlYlO5AqrZgDq1NbDDJNJgRrBHDHLygoYJ/lkEbmXHbZZQ1GQlpvhPwOinB/wBETEliTiSQXRi0FlJoNide0SXA994HnYjTWSdBzMuqZwyuvvDIRLsxu1OFZmZjGSDbaB0iYYBuZDL0fpn0gr2/fvu+AOfgVTIJEq+Nwf7pWpQkFIkYBwgqw3gUbUgEy4dk78fXXX28f7ICimjkAjjsXu/qfa6prXER4YpIVsyRpa8jJzbXFIEmpgRZhMIgacN95U6dN80tqQOCTG0FZo/ECjIID0oQCEaAAq6ix6azNosIiNw3kDzzwAJMAg2pRzRxuv/326ahYPZAxCIVIx6arEA+vCJGHasR2NNoamPkGq+/O3r16v3n99dcboomPBiyJjrBP9MVpQYtvvu4lvwsFGqKAlp65NpIIXAyvGSETUa37xGXLlikDflNb1DIHFBBNxeKbEu+MS2AFYnJIoD0rBGgj1LlWAb4G2yg1oHkgmq2Ydsa0BhGe6t7nueeeHYLvgh9AsA8g17doCmg3PNVipwluBGk4CWr4oU8//XTvYIgTtbsedKdzkC05CznsiVQnaBegvYGWWXJIEoL2gvg4H+j6vlK2a6occJUWIxz7RnhGHgI+pBGT6rs9D9fRGRWV+6C6xJXpm2hyRoAU8ANjkuhQjK/RLn7eAVLw3pWrVr6AIryXJyUl1QuE7GskUSk55OXlxUGdOAbcMBEPp0KaGeyhjJIqFqGaVYj9Ck8G2D+MjVXeAwB8UE+IBs26EVWKoEDWyUPiylx/GQMMkekIk+5ZWlbqTHAlwlKscRvi0Lcb48J3YFq1Ah7ra/7J774owDnU2IHrqXazUXqgR4/HmrVr6PofOXPmzF6+btHQ71HJHG688cauwGwczoVr4Dmi1L0ZS64+vaXCfMd5qIhFM0uSUgfTsxlA5XYnOjp16sRoRg/QdZagGvav/hLxvffe6w71preOced1TKOlO0l9Z0Zu2hXi7e+45LyWRwEmDupIYV1zkwF9CI6KA5Po/jgSsppKlahkDi88/8K5cFW2p5SgF5sRS24cimH4GTpNzwY5KguV0r6gk6HIJAgBl5mZUTZ61KgvAOpigDr40WAPmYDTMsm8+EL2hbgSBBSMzBwjGYY0oUAoKcC5xznNucj5ravKM34HeJPpQC87AZ61JlXojrrZi7DlJBgHj4PLMh5i++/wHb3I0H7WuSQStRK5sIjJZaGuKPWE0gTRofPzduy686673vX3BUKdccISPB4vwwVdTjECNjIhvhwyLa/kYALJ+tu3nCcUCJQCnMdGcta+pawhAzDf+WVfxO00CSkq6pjDNdf840g8UD8aG40YhH1JJ5pwXlBYP3ZmilgkoBb5mWjFg+GmkBYAC5eybvjw4X77RQEH3hrj6E7o+VL0I00oEEkKcIOjmkxJWHksmKiFg38jUZFgtNnvv//+ZBj1EwMdZ9QV0l26dNlpEJMStWeCD0SuqEV1K4Pg31AwGn1mArjoYrkUvdhXNRgGsSAQxORBsMgXuFeVv4RDKfSDYSBto3EiExKM/A4tzqm6FBrg1pQq/O1bzhMKNJUCZArcBKmKq83QdGuikHQ88pB6oqQCa1ysDKT/qJIcZs+enQYjyiF0VbLpepdWOwPFdi26+4WXYKofqhQd3aBJiaowCBczuG71JZdc8i6I6bdLd86Hc450uxO8tQKUKuE1ktL+QPXClFT8tIsE8sLkXKGAlQJUZ5lKQAM7a6IQ6pDFpHWNC4ZWV1ZWdb3rrrvGBEq5qJIcUN6OIZ89dal7ikVaHVAMwcxjV6KTkhqUXNHoM+sqWKwXwexLveN36tzZ0aNbNw/ErTbI3UiBilCCmheNiiEYjxMMazTOV3Rj7EV5WaWDPhNlIFW59wa2Xw1Qejhe8VgEOiXl/EAowE0uDnObhnDa1NSGCTWDSYlpptoNlSNj48aNx+K35zE3fcIQ6PtHFXNYuHDhnzEwlKRMVgtZ7fYWu8J+KLx8AoXh37jwA8g3cNUEFTCl0XTowoQV1/HF55/DqOv6FwSIN6C3zUKPjQLJIh4iBeNpD4biZOyFKtprDcIiohRUFt2EMQQyzeXcplCAc1p7zLQnjuuGqjNxVrl+2uTmxKGUQ18kMXbHPVb4e5+oUSuAqJSBBx3KuoCEh6e47k/FKl8PqmoMgkGw6cW6ZcsWVSUL/TshLfQAcS9GjsWFWPREnGqwff/99+1gU0g3pBnfMRa+xia/CwWCpUBjG5AyTEKyKCsto3jd7qWXXhoHaAK/VeioYQ4wDI4Gx+tIY4pGhNYuwWAISOIgxNlgDjTYQD8jZ/3zn//s6NixI7kuC96m4/M8ZH+egt8aJN4777zTC3pdCjk0DZ1WqSaYMcq1QgE7KOB181s6U+vJQFXP/OzTz46HF8Pv2ppRwxwg9hyFB0goLTVCQRVUPNwxdrRasx8drMQ+Tz75ZGW0ISMyQ6hzMjIzzof0cHBD9/z888+HQA9RObJa17NjfNKHUKDJFLAY3HUfXkM9oeNQX7MKNghsinFQ1bsuXbq0k7/3igrmAHE9MS0jTS3KRORC6KaqRgXZaBugxKAWNJgE/cHIoVAxDkbeRqJiEjigMcQNAmGn41Bltes2gGgQ9cmlmU2QQ5PLhQJBU6AuZL3Vg8ffVIVuzHvGQ2COt5o1axbnsF8tKpgD4NZ6FhcWD1DMAa5GNrpgzHRqvx7En5M0IU899VSFQakJSa8I/0+DI2wPR8NzcXRd9aK4uJgD6wgRzalj2f1ypfozMDlHKBAEBbwMggZ6M8bGyjRoxzPV6SyE/h8LZuHXuvfrpCDG7del0OWPRGYZIw8dFeUVXl1el6bzq5MGTqLVVtsuqKqwTZ8+XX0yjoLSAyPMTBWG9oZu4LD34PMJXHe17nbz5s2tIYUk67qaitgSxxDMq5FrbaBAfRWxdLf6N26y8Yi9wacb87wnwv8bNbzr66OCOcAlODIrOxvSf7wSgxispAvDBEs/EsYrgZhRY4MGDXIU7ClQ4aVUKYgGxb/5iajJeNy7Kz4vANO4GwxiBseANPLc5GToIGgkOhkL4xikCQWihQK6poV1PCwITZc7JXFKulCn3ahU38qfMUecOXz00UdpGPTBhGpjUBEbuRwfxKxZ6eM54FJEJeKGDvaTiOgxtmoYH4+dMMHBnIiU1BS1wLVdg7kWbHBtKkmDv5lZly6qGPPnzx8BBOxMnk+GQiaWAoQqaUKBSFKAwqvhYOMm6FIH/+Z3/I3xQtzMaHuDrcyJYKj2d95556H+jDnizAEh090xcJVSCn+ssSDNSMjSkhLfz+Bj96YhhqjVDKyimvIneCnIAPyxZ4Ap0Af0Pj7dQImiTUTFdTM8WjEbm7wpvh9SzhAKNI0CTBXgBlmD2CFj441LXbly5Vh/7A4RZw6vvf76uIzMdKUDEZglJQWl680HCbjcHd06dQ+Tpm7TCzJp0iSDSD48ISaOxC5ICeshScT99NNPh+MyZbRgrgev1+Ns2muTq4QCYaCATsDCJslNFxAGSbCfHYI7+4yOjjhzQK7DYJSjc2kbg45zqBs67ZOMdfAddFo3A5XYJ7wNSipp1cpQt7Sxxpu7YbHyWhCd4qlSQMqo/W3Fb53wPUMjlQSii+b6HJecIBSIIAUqYXDXGyHXFDZJ6iCZP/zwQ66vYUWUOSBuIBHi/oGwNzip8/Mh6DlQIr/Km/A70tP7nF6sB7PwKMFedK77kUcdhb8r1GFIAPtCoOtGlxmiWI0KukCf8UgGS6WHQqM70S7SmKXYF+Hld6FAOChA6ZtqtJ6rVLPJHJ599lmf2JIRZQ6ffPJJe3CyDtqVyIewtkAjJK3SgGYSqJqtuiTjOevMM1UwiJZSNHOoyxi05ID76ygsWjQRqo58D9Mdiv+JKzMcs1vuETQFlMfO3GhpjIc0nQlcEqrJjbaIMgeU7BoMl2Fr7sgIQFIGPnoCNACsr8HX9/s+ycGAzgLYhTJGshrx2LFjVUSkZiKN2R1MmwP1MifUCBWDwQIi2naB3m2puNWUZ5RrhAL+UoDriW56KwgtbA+pkNaHEIKgsX4iyhzmzZ13PHZyF1Oo2Yi1oN2OiUlEbQpcraj7sJXmgqYRMScnxwswq5O79Pn1RTviuxocCVBD0pUBEiKaTou1Y2z+vmA5TyjQVApwPXGzZdPYqZjT8aypiU250erwEWUOwHfsyUW2CdgKFPUpQRCDn9+hoI1fdSmsRDN3e5UxSbRpHlRNKJX07tVLxSboZs1916jUesGzH44FdpBqfJcMLtsR6FTKQFFaYuBGlgH8VrIymzpl5TrbKKBDphv4JIYqYxzYaJzkHMe8Bf5pWas5c+a0iUrJARGH1OezbCNSnY60jqVVh4GIiqxr0/Dj3lQr3JAc4pjazfPpDiKBJTrSD+rJKVFBAbrcuZHRmK7tbPhMR+xOo5W4IyY5AEufFXlS9SK2GgWbhKBkDYYyYx1UTLkZ0Th+/HglDdAgycNPtSAeRMyGXcQNABrlFybIC8en1BAb1J6omD0yiGZNAc53ZiZzzmsjPz4zFixY0GgtzYgxB+SVZ2OBpXOB7ect0EFMaiH6kbtgOV9npPFNa8MkOSUTpIYMYd1bI23bT8ZgCgqeNKgjCQg9VbTimLQ7M4B+mvXkk4eLXgroNYRYov0Gie+TF/y44MCoVCsQcdgRA0u26vlq4ZnxCXohBkx2Sx+UHMg1qQJ06rgP48IaFOKj/0qMJx3MoS1Lm+sx+RN6HfC45QKhQAgooJkD56zGmjQ9Fymop9lorEPEJIclS5f2wjbsZQ5q168TpWiVBBqiW0O7N/MfGKjExsw0lAZTxLEubD92fg/Or4JvmFlZ4ClGf7pfP64PweuWLoUC/lOAUrOykQGrnVKzBZc1Hhtnu6iUHNasWX0YBuZlTtrAZ5UcAjX6WftQdgszrrx1m9beqld6gfsZYMVcilQYJNMYOq2vFcnB/8kpZ0aWApQSWNMC4rMaCON81AaHjQ5GyiTEOjQItxYxyWH3rt0K+SmUjYFKZDbZ2Vle5qBVDT+BZOgDOgAcViWGicQQyrclfYeKAiyqqzdO7cLHOnAitSAOc9vwc9bTfGZmhWrA6DeHXE0XftE1KZSrxR9DpDkwq9FS98HvCG/vIMwD/j722AmqboWOjvRWJIaYZY2SrGsABWOJg4QxoV27djv4m5exxBvpr4ZbKPhArRDSWLpu4RTg/GZMjrG5xTkKEfPDT+KglteUpcExQLzUerERIiY5YEANciy73yeTusgx6zICP9QDrnwU5nbT7ar0NjapWWH3G5L+QkaBxjfaRKgVBspRPS0izIFl7Lkrh8ugh51fGWLq5lL4ef88BE8Z6Zum3qa9KiF7odKxUCAUFPg93kkCIOTqRVrn7SPCHIhCQ5wErf+Egg7WPpm7odKtTTepX/ETRgceXLMBcHWqmAaLlCoeQa8HCR2A+hPqZ5T+hQKNUqB+vBPnjh07MqJKcoAx0AUGkaDh1kL9WjujaK5uyq1junfq3Jc6gz6sP8UBeHajwRNMtxA/qbcJcwj1q5P+baaA3iDNzzikMTQoOUTEIIksMYK2Gj6VMDSqFVoVoJ2hjlpAa807OAi6Sa8E/8+EFEJG7cHxDSQH6mUwNRgSAw2pfqokYXg6uYVQwD8K6DlrCReI37lzZ4OSQ0SYAyUHPA5Ui/AUoyWqNV2XWrUgKU1CMZf1ehyP4CDI7Tgc23GMMb//Fef9BJtDR2XhNT0W+nojv8K/FyNnCQWigQL7JAdlUXCykFND44oIczCRb5npGDZ68V46QlJzUPyfEZCL8H8aE7bi/7PJtHAswDEeRz6OPDAVZq2oHI193Dci5pqw0Utu1CIo4IRzoEEJPiIzHBGHjMqqQcXq/cKZ9QLWr8UPV6MKCVVMhsZGpqWaiVzMqdCBTvxkjAP7s0ZG4v9kUJst96vFV9WQCPbieIxGBvyfDKQQ13kU5gQONuJSEmFKmlAgmingtYuZ5R64Voh3QlQz4J04vZ64eh4iIswBC5gigz0ltJv4ZkyPxQq4N9fU7QLfeeBJeYnSBM4bwbECMKNaMSHTnclrtPeiiUOQy4QCEacA5nqDinFEmAMWHhkD7HrB8wdKCtqt6E39pm3AdFtaczX4JrQb0/yk+tBYoz1iG6WGLp075+namLpPP/MzIj4BZABCgQYoQGnYwJCLFskBzEGFGgYQb9Dg290PGMaS2ckLGgONMe/9TWPTBraGIjCCtZAYavr17/ebN9zbrL8pzEEWXYxToCY1NXUfdmKdh4mI5IBFV0txJhxVqq1AMvuByhiEmOPny61B8d2fwCgwZEPaEVemn5ST06KZAjWI4Yk65lBDW2DA5e7qI7Ml8ut3VYbN37Sh0yqpcKHj2OrPm4PoReawGAwNQza8HsIc/KGcnBPlFKjJysoqiCq1gjkOdkVHqkVqAr5qyUBZaC2IUgoqrk40I5hTeSAvrnfv3mvgXVHMQXIrAqGcnBvFFKiC5MBAv3pbROIcKDXAHhC2e9fDHGjzaJBj1kep3Nzc7aieBb7jB65lFM8GGZpQwEKB6uTkZCOfu54WEZtDUlJSTXlFebyCy9bxCaaRT8U2aFXBj4VoxchT6DZKKjEeS/8GvEqlCjD2AfYOru5yGBM/CGSaoCBOIYru1OrYBl0oRMVWmIcatxXwNpAbyLlCgRBQQCGwm2AvNKC7E1AsivE+CABEq+rfv39RVDEHxhEYocfhiT3euHGjUcwjPp6EYIZlMZjFA4G8CzCDuF4H9MpjBS3dWEFImlAgmimgpWaFZwKmgE1ZbZomTFwt8oYaVK8jIjkQzAEEDT7Iwc+3smjRIiVNgEDfgVi8979hZPzVz8vVaZQUjjn2mIVW9yUsqoF0IecKBcJOATICoj65zArxalPGgQpuHEs58o6iK84Bg3K2bt3aL09BsNQkh6RaQe8E+vofVAsaYJb70y/Crp2sdsWCo1CFSo499tivcR2jJ9XlDKGWJhSIdgqo+BzrRmYa6xmFiPDpqGMOtQP69/+BiU+hJiyFlFWrVvE+y3DMxf8/xOdOf+5L+wSYQyYYA4Fpag866CD2Ucs+mWchtTL9oaKcEw0UYC6FThykFA31mGuilDFHDY0vUmpFzYiRI783DA+hbSTIrp27aJC8HUcZJIlFkB6q/LkrhkfjCAt/3IVrW4HLVsPOUMtELpXhadax8KcvOUcoEAkKmLY2hUHCIynZqN+COVybk5uzvrExRYQ5cEDDhw9fgQ+/FmkwRCVBWGkYtoJFJAi45np85nDh++oX12SBs76M8/6OwjZfwu1zzYD+A5QVlZ6PMPA2X0OU34UCjVKAc9S0L6jzEt0JKjMZ3xf37HlAo3a3iDGHXr16beIaC8e7NdGf2oMoFKHy8LkNnx1hS2jw+QlIAwbQBQyhB8eIPgbg72MHDz4Uth3WupEQ6nC8O7lH8BRIcO8LKQKus567xUgmbNT2FjHm0KdPHwKpVEJUdyS4EtQurMFfrFGP/pJmH8KNxT1qai3wNDg//fTTY7G4yRw2w16wGAt/l/n/em8BZpAGO0NvSAzqdxoht27d6rjzzjs9lBqQwu3Fi/B3jHKeUCDcFOC6qKg0BPQ2bdo4gDat/qZb//jjj1/Z2HgixhywYJl8VYLdm8YR5V5RARtmEJNduQsajv7bb789DMwnHQv7FNynGIu9wcgwk2BEculE5kXGRWmhQ4cO/HTy/zTwiEEy3FNd7tcUClRWVKjLYFxXn7Cb0dZX3bdv391RyRwAT+WAQWQDjXsKzclbHZtRkwbPaizluu5D6byK/ewARuCTOvX9Dz44FH/3xf1mgPH8qTGimLEQvFBBaHGsOr6BEgQ8LfuiIpvytuQaoUCYKMD5r+cuN2LFHJKSKP1WIjqywYxMtf7CNMbf3QZ+1+pDBh7yLX7wYjsYqgVh38z4qEAjKC3ODwUCY5YdZ8jz0iVLsnGvY/FdF9xnmo/npm5C2iQw+IkQc1QlSFy4NR1XXHklmI5LfSdNKBDNFOA8pYTLNaAhEjD/KULsBZaDwS0aaBFjDtmtsmvGjR+3AJytioPnQQ5HSUJ7AvxWLawgL14JxCiiy75S01QdXOeuXbuOhFqQjvuM8vFCtYu1Wqs5lBg0M5g8ebIKgLKUM4/m+SFja8EUqEHNWHrsEuCl0OkK5RUVpVlZmUt9kSVizIEDGz169HIsvkomhmhwWH6vQzz9Zg64pi6Wg2GgNC2zcYaR8quvvso1DZdZ+C+h6BtrDH/8Becraw6lEAY+sVGSQKqrSmKRJhSIZgroDa2mel+2QnVVVcG4cePn+hp3RJlDv3791jMwiczAzH1QEoT2VvgafN3flVpiqhZkDNpmUVxYrE59+eWX4ymZmOHPk3HvNBy/Sx0n4jROZ1jpZvT5Hgw5BKdRffAeVC+mTZuGSt5hSw8JlBRyvlDASwGuJ230Z9IjfiiC9PuzLxJFlDmwBiU42yaVJRYXr5JDKEX4A0lfH2P43cOaEkNZuaFaffbZZ8pia/bfBurFgfi6L+5fX0kwejO24NwbcNyEv+n+rGSOBtBzHJdeeqlU2/Y1u+T3iFOA0q7bnajCBEyjvwqbHjZsqM8UgogyB0YsHnHEEV+gFkQ1U0nLsSOrWAcwC5177pu6xH8AjkMcDS9kLKqYFvpB2me1R6kCOlGquLjYkZaWpjIsce9s3OO0oqKiyyEJHF73PlR38N0uMINNsC18jXOXwIBTxJBvjpHFeSmdgF84OnZsrz5raqoc2dmZ+N4DNYnw2mKw9P3+5IzgKMBFT2/fvgNKtpp/PDjXAVKkDJK0kWGjq0SW5rYePXru9XXfiDIHLNzaE044YR4UifKMjAwlsmMB7jOcmDu+r4fY73ezeAdL7dHrwQIeLERD4lClePLJJ2lYrEaNwD64X0cwjn5gBFPxm8phtTb8TnsDdYdS/B4HlyYlB8XAyHT++tdLHa1atVLBUcgydXTt2tUBo6fXk6HdqAGNX04WCgRCAbM0Q123v3bpc94DpEhttuamWIiw6Z/8uUVEmQMHeNJJJ/5UWlZaolUJA0jJ6UhNSVVW1kCaNkoqgAsT69GbrmqqGE8//YyDCVQwKh6MBZ6FBVyIIxv3H133XszKxFjKcPyI41WoJNRPKjXI7GWXXeagNEKmU16GWAjznjqVOxCDaiDPKecKBTQFrPa5+hiE8lKgmeuLgm/BhIkTGELgs0WcOXTt2m0HBrylsLBQuQ+LiorVg1AU8icCsaEFqAyTpnGS7hxyT4Y8L1u6lIs5CSAX7aBOjMNCH4n7d8VxMDhrg3UDwUxWg6kwFr2QGJhkBh07dnR07txZeS5KSkscWzZvdqSlsiC3Q32GA3rf5xuWE5o1BXTagHZT1mUQOvxfqRbIKAYxCk499VS/gI4izhyw0KoGDhz4FZOiqFroaC5GJbr8cBXWlxlJAiki4SBDYO4GW0oKRCyoKm+88QZVGCeYQzw0jFQcibw/WmOZmttN28PP+CwFR4azoqbyH//4h7JB6JaarmIqDHdsoEFczXoay8OFnAJ6vplgLjrOh3CGNMRXoTgmNtwdgwcP3uXPWCLOHPAAtXALfg7dv5xeADYdDMUdP5CmmIIJ9hrHyDBGMZqYj1bg2aefftpBjspEFCxscoWFWMzEl2gwhRzjLMBYPsR1n+Dzv7CNrARzWX7uuecuhFFTGXuYGrt7lxGuTknCZTKlQJ5BzhUKBEKB3yGrm4xBSd+m+x3h0sregE2wCAmP30AK9ssHH3HmQEJMnvynpViYxVxk3OnJHKwRiY0SyxodqZiDURPDRSRqF+LKsavTx8uFqwNC5n8337FlyxZ2WwmmsQTHMyDkLzga5UZgEDz3WVx3D8Z4LWwWj+H/10ydOhUuz3hWLVb2B4mcDGR6y7lBUUDPf298j7FBMjSAYQFsZrV5qu3bp51xxuf+3i8qmEP37j2IsbAV6aQeiv5szIYMqFlEKdoqFIHgy6FIRWZDnau83MhK466+YsUKehbywIRm4liEhV4AjuoTmQoSw04wiV+LCos+ARN4Lz8/f8V//vOfy1JTUyrJiHLb5gJQI1HZS/wEnAroMeVkoYCVAl4j/H55RVjWMMDDC6hO5aaL+VgJ29j6KVOm/OYvBcNWWKaxAUEfqjzxxBPf/eqrL/sVFBQYsLiwObAxrFq3/ewLdRHmTBemgsOy3IyxBvR8kEAwQqqcCMSVOyZNmkRJgtLCV1jsPn2+dceP3BB6LsqYwQkGsah9hw5bML7uRXuLlF2D92LufHKSYYPgS9yXOWrYKHSYuL8vS84TCtSlANVl7zwy51g1tGNnjZFbxLnPzdCdlFSGEOoVPXv6jm/Q94gKyQGZjrUzZsyYU1CwV7k0+cDMX7CjqR3cDHPWQBfsl8bPZcuWbd+8ebNf+ldDY2GoNaphbXj4oYeuRv8VZAyMdyAz0gVw6ru2PkOqHc8rfbQsCnjnkaWgkrY3UNUlY4Cq7gGmQ/7Zfz7700CoExXMgQM+5phjlkG830IVgMxBu2ACeZgGFzBUCjbaAnhUlFeq+IQHH3ywDSpZNVjxx997g0PXjBkzZm6PHj3W8poNGzYgEjNVSRBaavC3LzlPKBAMBZRBnjgmtL2Z8x6f9KxtOO+883zmU1jvHTXMAQ9UctzE417E4KroerQWjwmGWLyWuhcZDonGTEouWvb/0ksvjYSEYotqhf53PvroozfjdkpnaN26zX6MwapSeLl96MG3gyWdXB9DFNAxD4oxmDY3xtsgxqcYm+KPAwYM8JlPEZXMgYO64sor3sNHvsH5DGNisI02CxN9WrlzKGaxMewZ/894/PHHjwz2HryeLtmjjjqKkWc7odc51qxZ4w3iqleFEMZgB9mlDx8UwCZII/vWiRMmfuKPwT1qmcOoUaM2gMOtKC4p9tCAx0SsYBvdl8yvULUBeZhMh25OChU33njj37B4bZGgwCC2PfHEE/dt3bJVxUt07dbNC19vSA4I67a4XnV6ebDPKNcLBUgBLZ3WKDQ1GOYx3yAleyA9LJt+4XQWZAqo2bIoArpjIydDFCo7++yzX8Ip5fpB7eibHgyqE+npaSrqMgnGTh2shASsQc8888wwO+4Dm0nN9OnTX07LSFuDF+LJ257XYLfCGOyguPRRlwI6KEoxCKMEXlGfvn2+nzBhAtHeA2pRxRw48iuvvPJT7O4MVVYBUcE2jd5EO8PevYXKlckdnDYH4EnwSJ5+wQWPlZSU2EILpni/8vIrVyLeYZdWYcQzEexblOsbooA3t8gSDKUTAxH8S6khH96zxU2hoC0Loik3buia9u3a52VlZy9FVJeHEYdcxDRQMpWbgVFUDbzAFZYYiIb6o8oVHw8QGWI9EPcBfxcXl8FrkYRYCiNaGpJFv9dee224Xc+BENXvYXdQRXcTXHFgRqhzgcIiqanJCvOBsRdZWUxRD8qLatdwpZ+opgB3/8YOI92A0nF6RrrxJGAUxBvBGqrEpvjbs88+u6Apjxh1zAHBRRU33XTTAxSHdD4ERfDqqmoVr2BNcrJjR65EwY8uXbokXnrJpQ8iAMuIWAqy4cXsvu+++26D5FPoTjRwJpk6u3fvXsfhhw9R/2fMRfv27YO8k1ze0img8ycoaSNOSCX7cb3Ane5BLM9eBOMtRGRkk9z1Uccc+LLPOeecBYhiXE9jIh+eoC3Mj0BWmTK6eNNSbbD4M7mLCxVG0IH33HPPCXZNNtQEWIackReYr8HnaNe2nVJjfvzxB0fbdm2VYXRHXsM2CbvGIf00fwowD4kIZ2yUsPl/rJNawCCs/Oc///l8UylgqR3X1C5Ccx3CqW955513roPNwKUsr2aUozVfnRySqkKjTaexakbizcEw+CLFfTAGB92Pu3fv/m3hwgUjAKHlV0qrryeHWJcLhKiFyP7stHbtWhbxceTvyFchrfSW4OUpdUeaUKBhCjQOeGQFROLmw8hcNsy5PTC2P4q1cws2qCbpr1EpOfDhYJh8FWL5zn3BQ0Zugt1WfleCwVy4eKsqq3pdecVVf7drqkLU23H77bffjL6JR6lUo+7duzuAfKUYA3M8pAkFgqEANxqNkQr/v+qKCGbYTLdAanivqYyB/USt5ABGkHTAAQe8uX7dumPUOCkBmLu/ITHoofvgbz4kh+rqCoX/yMVKd2cVCuy+/PLscSeffPKSYF6avhbPkdW5S5dXNm/a9EfYIpzbtm1Toh/vR28MGYY0oUBTJQckVGEOodwCsEu4LghVgKC/cgT4fQopYjKkCSMVuQktaiUHuGjKzz///IcgNqn0TBXAxPx0C7qSNWOzCc+uLqE0AkOko2ePnkq9QMp4q7///e93b9q0yZbML4LErF2zZiputT0/f6eKtSBjIMfXWJNNHbtcJxQg/KGqEgfbGecTGAO8fJV7EFD4XjCMgZSNWubAwV1zzTXf42MdGQIZg6qMhb+1emEHgKuBu1Dt2Lhxo8qihHHSidDnI1599dVJq1evtkWygpi354477rgXL6+GFmXqhgZSlNgbZHkHRwHG8RAegAyC6wHRwBVIO5j/+uuvvxVcz1HOHLjrAkjlWojhUNNLFUisbknJBtS8z2ZFijJEBQX8WgtOy4MFP9iYf8FAKULHoSXdeuuttyCVvKPP/v04Ac/hue66697AqavgVvLQaETJgUyJoiBreTKiLZ4JZ/ikqMjPJDAraS2bAlo6VijqmCv8f5xZOV6hnMGDR2+b6aHwZGRmFnTr0vWbdu3aBRwRWZfSUS05cLBnnnnmPIjhaxEToKwt3HXZyCg00nMw00fHIdAjQs5L9GsuXNyzF0SzF/FpS0FMRk5C4jkDsQ7baGtISjaiPzVzSk/PUC7btNR0rx2ipNQo4ydNKEAK1EWW5ndUt4l+3ianjaNT584VQEX/ddbjs161g2JRzxxgbd2DMnaXwJCnxAYSQ4dEs0pWsI36v9EvIyidSm8jk8ACdq5bt27EnXfeeXaw99DXQ1JYfvnll7+C+1Sq4jfYBRgFWlJMFSNewcrRxYnANmSk2hKPZdfQpZ8IU8CqQmtkc35HUGbOYbjIPTB6lx3Qu9cXwBZRAKnBNlt06mAH4et6ECMTVtjv+w/o33vp0mVqzMRq3JG3I+g4AYYy677YL9PEKZVQj+MBN2Te/Pnzjxo2bJjPkuW+noO/41k6HDxw4FtgDodu3bIFRgcD+YrIVIWIoKTYaOR9pBk1PATe3h+yNt9zUFpRe+nUQ5pxOpYNR0m6kBzKKyorvv7i8y/ORoHqrXYQJOolB4Mezr3PPvfc1b/+8qvX6LBrJ8vO+QiA8oNC1NV0eXLu5MzYZCNSFCQHimq5UC/exqI2A9f96LSRU/AsW5f8/PPpYAxraX+gWkFDKHcB4FAq6SGBgDRlFd507+DuKFfHPAU0BJyxu6h5oTBPIO2yIeWgFuHSZR07dJzboUOHbXY9b0wwBz4sbA9z8UHkXA+NhgZ8vVGsJpjG8GyK+GxMXNE4k8x74EuAqOYE8bsjJ+LfYBi2WAjxYtcCQPd4xDisxG1ri0uKVN6Fxs2kakFjKR41mEeTa5sDBRpIESBz0DBwu3bvroT08B2QzZ7mhmPXY8cMc6DnYs7//ncp3IKICmW8AAx32GWDbbT2sqlCu5VGQJJKF8eOriMYcW/nggU/nozci+kIsbaFZvCErPxwzocX9OzRnSAciGirRvg2mZRTqTWUKPTOEOwzyvWxTQEN/6aTqig9sMI7Sy9gHXgwXwrHjR/3Qe/evW2TGkgxWyZ6uEg/YsSIpX379pkHg2Q1MzTtwJmkKkFrL92YjD2gVMJos1WrVzncUDH4G0FbYH9wwb15LfI9bEvOGjly5Pwjxo59BXiTRXzZe/YUmNByiHRLkBiIcM2rWLwPbVFO1KaAW7yyT+8+nz7/n+dfIhK6nc8SEwZJ6wOjBF3H5OTk7+DG7JyYlAgk6QoHP6kaMIed4cnkrNx5ueCDTWxKTk5B5KSRzJKakuZBePVGJGdNOuigAYvseBGQXNJgQJoFdeYUqBas2amMohlQcTSSlJZkOBmYYs4Sfzrhxnex4Zji/3aQNMb68FFJnoFNmBPcpKh66sb/V1ZUejDHt9x9992XoWbrm3Y/eMzNHIjj2y644IIXyspKK1T5PDAG3cA4lB2CwSJM8fa9cHyTk4yB4n1Obi4ki2JqGF0GDRxIA6UtWVOQgooXL158OdxRX4O5KR2HasWe3XuUF0Ul1kDN4QQhYyCKFYNg7Hg2308vZ0SaArpUg5UxdEB1d/P/5QMOPPAzABt/E4pxxpzkQCKgpkUO8BLeW79+/RAkTalnoOSgg6LAONTOqqLGfDBmX0Ql5mRFBYFuDVLpkGdILyt/+eWXP3Xp0ilg4M767glm0xaM5z9QX46ESzMekW54zjJHVnYmpKNy5b2gjUXXJdBp7L5dnTHH/329kmb2e+MTlBsBsRpU9TRIlEys4qYI6LcqGMvXffDhh6eh5sviUBAlJmcO4OLyX3jhhatAkAIYCFUYMkVvclmK3jq81A6kKAZFJSbSSeFRcQ9coAw8KSoq7D18+PD/4kX1tOPFgDHkYbxnYhLMhypTzcmA+ptKauGRwNwS03Wrn8s3Y7BjZNJHJCmgkqowv9mIxm5Wb2PAU8lxxx//1tFHH23L5lTfM8Ykc+CDwJj304SJEyneVzFCDOqGyo+g6K3rXtjzUj3M1FRd7dmzWwUr7dyZD3CYAxybN2/q1fOAnu9iDN3suBfGnb9w4cI/AVLuaxhGq8j4KDWwEWaOKeVsnCzMD7EjK9WOcUsfoacAvWncFMgg2rVvV4kN8OennnrqXsyZkOX8xyxzAFHK/vXYY3egBN1SEA1pqgaH5c6uYiCwkOzI2szMzFJMQbeaagB5Ig9izZrVjn59+zkRpdkftoG5GEIXO6bI4MGD8956660/w107F/aGCrpa6eZko1SkwW/sBr2xY+zSh/0U0OhO9F6p2AZ4JLZv277n+eeffwQ1Wm1BLGto1DHLHPhA0LvWX3LJJY+jetVejY1A0ZvMgUlMdjQdPdmmTY7qjslQ5fCQ9Dqgt2P5iuUqFqK4sLgzXtxCGBEPtOOeRxxxxIa1a9dMQZ//BbpPCeMvyisqYPswoiZpjKRKYYfaZMd4pY/QUUAXgaadQb1vj6f8oIMO/HLKlCkfhe6uRs8xzRyweGpQHPSVzp07f4xnqTFqXRjeCyV62wBAS28FPRVUJdioVjB6cdXqlbBBtFKIv0yvhqjXBpGUn6H+RTc7XhpwLHd+NferCxEF9wQmSCHFSR2wRZuKUilseD47xip9hI4COs+H8w6tNrtVq0Vff/3NVZj7IU/ZjWnmQGoRdhuuQOI+rmNaN92ZbIxzoFuTcQrERVD/h6pBzIQ4ZmCah6/XyqKku5nHgU8ezKBk499MlOIuzhcHUY+ZnLnAnpgPI5JRRTfIBhWj+I033vgnpKK7weh2QkLyJCHdm0YqVvGmR0bn+bdGyq7+Pz/TEEFqBR8NcihyeYgogBot6j2lADpQJd3hb/0uqTrSA0fjdElxcS3m+naoE3fj05bEKl+PFPPMgQ8ILorApIUXAM2pmIFQKpUVLkDaHxC0pCy8RkQl6maaIC8a7MUXgXz9TqbDcG42pl+DQeVCglmybdvWvr6u9ef3P/7xjyVgePfi3L/DQLkWUZy13VCDkxILA2EIc08JiRmqdHVBgjHGAgbCYsHSopsCpSVGLiGxRDlvCUdQgEhZNoIR0y3PlpqWVoaYhi+GDh36XbieKCbjHOojDgFphwwZ+s7ixYuOhFU/jiAu5Lhut+FpMAx5ZiFb4wtbaMyUbwLUcjfX2BCsk4mXuvnjTz65GPaDj2AHCToJBHaUOLhQx2IS3Y6ouMMRCBOPzE6VY0ImsQV/08UKBG2FhalbsBGithBJOmmQApw/fH+0Y9FuRtWYQW9UJ8gsOG+x4ZQi8ncJ/j4R3+0IFzmbheRAYoFo5T/88P1FWKQbuLuSEXDn1EkrDB7SMQNxUAmoVtjlCmQINxelDpCC29EJ8bDTaaed9ijyMS4GWG1usC8UDKY2Ly/vczCGK6DKfAGDZBV3GRqq+MlJxDEwP4T/Z2SltNigAI3elDqVBGFWhSfDoHGdxZnBGNZ+880314STMXAszYY5mAxiLRbJMYceeugSiN0exgboqsN6mmhmsZ8UEcQcYn/cqZnHwdgDeFCUxIIiOU6oG13uuffe26ZNnXo/dvZuQdxGXYrgL4o78w8fOvQiTJh/E2UYgVmeomIj9yMlLcXLFKhGcYJJi24KkJFz/pC5czPjJw3PlAhhaIdWXL0NpRVnIuCOtVelBUMBiN/x//73vy9E0Eghc9udzngPRGsPCuh6XC63Ovg3vwdvNH4L6lCZcB5Us1KfMEqyRqH6G25O/VkDJrJ6xYoVg4J5Nuu1Q4cNaw3GcBG+W0uvDWwNHjAkPIsxHn0E92zB0kau90V/SAbqXUHS87AYDf9mGjb+pi8+H+UZrqbKbNe8CaSfZiU58MEhiin35tRpU99AckoVJQQdMMS0aB52NhiKVHfEf+AuQL0RlmUGSCmjIcV7fMaBYfTo27fvh2+++eZpMDAGjSr1/fz5uwDd/wQMkhdj8nwDL0YlIypp7WY0HY2Tkpxl55sOTV9UIyjh0UZGu5WpSnjwdwlQyOY8/PDDs6gyh+buLbRXiPQdBvTv/wMkhFpKCjBMYldP8SQnpaq/lQQRlMRg7IpWCYGcn1yfB79HCLT65K7OT4iNzLIpPuyww18HLmUfLOqgDcI///yzExGa/XHvl9B3IT5rwRzU/TDRbHlGO+gkfTQgReEdYfFjTrrVO6OaiM9SGLlfA/JY6xa6fEP/2DDW9QKxV+NOtSS6CaGlFg0XLEVwLmiKdNhp1f/5ovidFveCndRUXWAu9aoyBkNx1vTp3e/bZ5/9z2TYRFLsoARyTRjC+TccS/EslfSY8Dmo7vC5+H/9jJyE/FsxEPzW+CGqQeNzwAf9MNc4lzjnSG998P9UQS0MQW0q+J6BOp8uWrSovx3zQvpohAJwL/YBI1hBBsEXwUXCxcAXxgWiuTY5N//mOVxUWv8LljlQaiFzoKRCOwelFv4fR22Hjp3zEAr7FiSIrnZIEbfcckscpJLBeIbXcBTg+dQzkxFqmwh8597nJFMU5hAs8/PNHJQEp6Q4nItPzi3OPS1h8v8wZPO9VEL9nPfEE0+MsWM+CGPwgwLwFAzFaZuRpKUWiyniW4x2xkvj92QQZBw8+HfQzMGQFBRzoBSRkZHp6dS5K5hUhlJxTKa17cYbb7wKE8IW/yOkpLbo9wxISkugylRRzSBzMEVWNUlhqxDJwQa10hdz1VLDfowB74PMgYdWJxC8R1/mbzfddNOJmAeCEejHurbtFBD8MHS2Di+pljsmGQHFOv3SvJzd5O77/h/czkI7BxkMmYIpMSjGkJ6eqQ7uGFy0zMDEmJZ89913h9kxOS699FLaM0ZQRMUz0tdZy52Kz66ZhJaiRK0I5h03Ljlw8e/baIxNSDMMbj70aDEFG+9n4/Tp08+w493btWiCNojZNZBQ9wP0KOe8efMmABzjGeykOXhJTpW9WSdyUkVSmnUJDTCV4Lwbun8maaFUGeIh9tX7JIhMRYURCUe0HwY0YaJsQFDVK3Pnzr33oIMOCjolF7tTR6AUHwuj5Tko0DMQFvBUAIXsh5rVOO2De/5Qv9fI9+8byYmxNt6I3DpFaRCYBwdTzfbjjz/+jv/+979PhRKfIfK0iuIRYOEno7zd37BgdkNqUCoGd1Jyd+p9lCT4qW0Ptlj7LTYH2h+oSmRmZivPSdt27fH/ZGUoNaUHreoQUfh12CNO+eqrr4JWNbAjcYX3RU7GHfjcgd2KPnRRK8KgVhiqqSExaKlBx8JQ5cN72Dpo0MDrMDf3gaFGyRpqMZKDpjdeQgbqVV79/vvvn4udtB3iA5wEoyVnjwcUG5tOjbYDg5IZoYxWNPAmuB6ZMZqEexjwczm5rVk4R8UkMImrQ8cOKmIOyNNwwcYXYUG/GeeMe/3xJx6fN378+KDSdMEUknLa5B4F2P3bkJvRB7kZSb5jIURyaHytNi45MO5E4W8gFFrjfjJ/ApJiFTapTdmZmY8s++WXR0ViiBKOiMCTtIsuuuhhcO5dYABeI6XVS8GVTIkiWIMk7Qy0MWRl0X9NHTPbk9uWcQ/G39oQynvRBqANhbRFcAyMrcdnMdSC9/F51kcffRR0ABUklQHo6zbccyttMGJzCJ3Nge9Qeyi0tIbPKrzr1VAh/4q8m4hEP0bJUozOYQBpqcO//vWva6BW7NWGSatKgcVoioIJ+4Ve6/DrYJnGvusbN2jpCcXgJhyUHD6ECnLEzTffnAVgmSZLfnfddVcCmMMZ6O89fO4BHbxMkpOZjMrwwxtMLDu7tRlyzoAdWNuVp8Ueb459tAxmkTftWqoNOuiM3gfSTW8s9BBB8lP/599mXEMVmPEqqI0XrVq1ypbyitG5wmJ8VIB1a40Q5PvwApkGqxYHGQSMduqFGoFEtEPsf9B2wAntzdsISnf1FYRk5EpwdzfdX7WQJnZjQX8MCeC0vn36tps9e3aTXV8ohtIJvvUbcI/v4E7Lh7pBJqQmPL0bySjko70srVq1QZQnoz5VnIaym8TywrZj7Hw3jITVLkm+J/4fdPS6yo888kgdP1OB35fAxnA6GHuT31mML7vYGT5sEJlI1DoHL5eegVqEraoXyU8aCbkArAcZhQ69Dgdz4KTTwVpaiiDTMnf6vVjEC6AeXYex9hs7dmwacjcCLj2+efPmhKuuuooReTfj+ApHASaxabR0IqGrt6dvn35KgiJTaN06B+43Tn47EteatmPbsbDt6ENLCnw3nC86eI6S50EHH6yZAl2WZWDqX5904knjILUGXwE6dpZYbI+UvuVPPvnkFLzQTXy5zKrUtgDunN6jTl5GOJgDJ532aGjmQPGU/nEzboESD2MkNuP4GMzkNizsMYCYa3X77bcnbN261W/VA5KUC8baTpjw1+H55+E+O+CChUXdCAEnU7REeIpaoeJXjAxcrUroeaM/zc2G1uhPkBA4OJYiH/2eOLG9/H2PHpZkJ3TAkcicfAWLrj0WmbOgoAD1Iiz2olqPgdkIQNn9YyF899/wGY1buxkn4S1eAx85cTFZ9agC4CC62Amt36jAxXgJD4BDysorygsBbrMWFvElyNT8hSG5ffv13fynk/9UMm3atCqoD41CcwPizjVr1uOdXnzxxTPytudPKC8v64txZMKbEsfiOowFYfl3l4s4moXBPHzMX0skJzZm5GovlwH3lkgasQI2QUdnP/7443fPmDFjbSw9sDCHOm8LwVJ9Bw0c9OamLZv7VldVASxqfwnQAI/BsV+gVDCvvHHmkI6CukWFRV6wWDICFrdJcKMKFibkzvydXoAXDQ+n4cXM3awa5+9EwNcKoA3tAHMrwPcrYSBbhMI8xeeec84uwJBVjRo1aidsGBU7duzwtG3bFuvfE5efn5/6/fc/9vzXrFknzkHZNUgrPXJz2iZu276NFb/UQxNot2U34/2RGSg0J7PwLWkPJrwZ6F3PIvhu5rBhwwxEnhhqwhzqeVlYGJ0PO+yw1wFaOxg2ht8ZjlRNDOye++3qTX7pvv3kXOxJkAyARoH6FeWqLoduWOSKQXA3J45DUnISMAhdDkKPlQC8lNW6iEzFxn4ghdQinqMKx+7KiooC9FUKNaI0KzurEPEe20uLS3eieM5y5KHsGTRoUPEJJ5y0A8xi78qVK0c8+dRTF87/7tsx7Co5CcmkrPptVuRq8uPH+IWUHFi7hLVMGctCbAZgeVZt2LBhOx7tAUhhj7Rv3yFkValCST5hDg1QF/p31qOPPXrlzTffypqcKVxYunEh2gVQazhJGm5kQAQA0SoEzyRcuSuBqgXK/2FxMsAGEHIsya7g6tgoYRA8hIFcvJZiLxkFi/MmQDWh5EEwGljWiZ6tvTPVYD4AyPGUQNooISOCETIOUpIHtTl4DrAwnakJkFzIIInk3dIlh7h4pxekhVIl6M4qZcuGDB1y/9yv5r6KMo32VFcKJRdooG9hDo0QHe6mRNSNuPjss8++EcbK7L0FhUrf56IhYC3Rn7gYW7cB+jQWqip+C+QngrxyQaOGhUKFiu0W7RGSQZZR10xfo5GbuQ96M1DoTIxeRS1WqJmKEWgpTBVvJiCsUdHdQykMjPWzM844475bb73lWxQmikmJQc9XYQ4+Vi4mgxML/TAwg3dwajvs2k7aAVirghOFIiV3YDZgKTgW/bRQ6Z2ULHTorDCHUFIgtMwBKhUKJtMR5FBqG1UpJLI5slplq7B3czOg63sTalC8fNfddz122WWXbQrlE4erb2EOflB63bp1TkySbrD2PzLnf3PG45IkFo8hJD0lBDIK6prArFTie6vWrVQFLDbfuQt+DCCip4jkgPgFlRdBnl9dVaNyX7gpQNtCvYlyaBGV6/GKHoXx8SnMk2aD9xjtbz6iy0LfnOhJ0OnXvTT7pTMQMHU1FvweLn6qETQUstEQyF2EALZmaTzU0syOivHLIJpOARYsoneKjJ8SIm09JmiwB6pkIRjDB4ABmA514l/NiTEo1anpZGuZV5ouvoH9+/efDQi6AzA5XKNHjXLMnTdPMQOiPu9FOTOdiSmSQ6jnSXjUCticHCVFJcqeBA9RLYy/1DVefe211+4HczDExGbWhDk08YVCzGwLzMZzcVyNyZIJfdSJWp379UZmwWK7sd2iXbgMLXPQBkmm8zPIqXev3sUrV61cArXiqXVr17+EyupBlzqM1vkhzCHINwM982CIk29CYuheVVkZR7ehWS5d1c4UySFIAvu8PLTMgaUTMzJRsby6xoNo0z0IKX9n5sx777jkkktYTMgA6GimLdq3hagnOxgDC5wOPe3UU+9HCHMeq0+RKSDS0sskov4hZIANUsAobusuAmP48dRTT71g06aNFwKfc01zZwwyJWykQEVFhWvNmjWHDx8x4g10mw+Vgj5ulZijIcj5f2v9DP6fBxOp+L014YvfKyBSn3UlfKd8B9dHlGdNatj3Bj5JR12vhH8zEUrXJGG2qwYb5qeuI8Hku9FjxvDdUGVYgSS2Oz777LN2Nk6XmOhK1AqbXxNAYtN//PHHwydPnnwbwpf7YufJxC3i6fpk0y5OXXCXrlAmeKmoS7MxArIGFnKWYY+8WhLlwqUPyZ4qHu0+jCJlYBPtBjQa5+bkOJCxqgLYivYWqd8Ylp6SmuLYtWsXX0Yh3tkH115z7YOoQbrkuOOOM8pgt6AmzCFELxuSRPaDDz44/vrrr78CcQ99C/YUZGNiOgEDp6zejLJkGDOZw74sR5eapDSCEYmaTZiDjxfkgzlwwTN4qRqh3ipHBZGOKu8EXgcdYs7v+V6KC4sZw1ABSW/5Mccc8+CTTzxJg2NMRzmGaHpLt3ZQAEEy2ZAiroAo+y36242YCaVuqBJ8Zk1L/p+qB0Bb9lMt9qulETH1IvbVCmRHejEXqDKwGjlprrEY+B2YcDUkipWAb7t3+fLlLAokTSgQHgrASJkFiPhzoPO+jTvuwMSkPqvgxKxoQvxOl+hTtRMjxhS0LSO2mYNGZiKGIworeyH3SGfAAdaCIZNZb4YK8dSvv/7aBRJflOtR4ZmvvIuoFeGjtboTSvNl3nPPPcNfeumlExF2fSyMYG2rqyoTARyhAFvYSktKvPgNolYEp1YY2BcJSKku8yZNAXfTs2rVSuoZm6B2fAFJ4f969+69AZJazGZQhmIaC3MIBVX96POnn35KQHTdsGefe/Zk6LpjgaXQA/pwGqQGJ7JBvZgNwhyCYw65ubmObdu2qU4I+19YUFgCWv8GgJuPFixY8AS8RFsSExOFKdRDZmEOfizkUJ4CUBDXK6+80uu5Z58bsXzF8uNxr0ORvNUOO5qLxjRhDsExB9BQg7wWwDOx8pCBh8xGjsyLsAHthWoXZARVKGeG9C0UsFDg6aefTkQJvCH46joc72MCM35foUDTN2+tr6EBTLVOTTsF/fnab89rCELLa7Q/X8On8zder1GteW1Dhy+bh65I7q0mbS03D3uJLi3Ie+rDWyIOv9f9Xj+nriHC8VtjEKzn82/9mx6HPh92nBocdPmsBV3eveOOO05AYJoUkAlgxYnkEACxwnnqDTfckHbvvTMHIE7icCzksQCOObSiorIT/g+8mXiVFk7AGbpFqxCybZTbcyjkJxgyHcUAmdHAJHrcdN0RoAYwcDi/Qvn8+V1jTRWBbaT9DiGL51piNohkZXxlfJpQdQbmBRrKEaoktepq2GdxDm0vKC6rkKZ0KDozItkY/5GSlqJS5TkuxiSgbKBKk2fuA+JCeBPGIxRAhVjRsUPHb1DT4ym3OyEPwCvNJpU6nPNQ7hXlFDjhhBNYTLcPFvLZ8G78F4s/D//3FsOlS5QRltzluQ550NNhraOgv6/7qQu8NvVT79je6y3eFauEoCUTXVSW12mph2PSEaLW8emIRXpz+Lt2/WppxjyX3IsIz1sgCX2J2h3XPfDAA8OAwZEWSzDwUT4FZXixQAGgRCdBlD4ci+tGjPcrqA7baGXn4qOITaZgFeW5sKhe6Cre+jddxs0XU7CqDfX9vd/1dRiDlTl41ROoHZoxUM0hVoZ1vAxvZgk5jlczDWs8CM6tBe5lOX7Px++Eev94wsSJl8O4eyDAXKVYjI2TWNQKG4kZ7q7OPffcHGBcHooYipG4d28cB2O37YR6CalAqnbGs64EksDYLLUtlEhOUZ6ttqZxtUGJ+/60elQJXsaaG1q1UPU3TIxGqkQExqE6RDUpPR2guYgYLS8rV0hLbFSRoGJ4cA4ZRRmYXD4AcgsRWbr0pEknfXz++efPHThw4CbEKoi3wZ93JOe0TArA4+EC6Ehf7LJnggL/wsL6FJ/roYYUwSCnKmlzJ+andaf2KRn4CsKiAbIeiYH3qntoSYL3pNSgE860cVWfz1J8kHhoN1iP85bgeB9ozv949NFHhwIiP6NlvuHwP7VIDuGneVju+O6777o/+OCDvi+9+NJIGCyPQqBVbwDeZmHhpbhQxguVqxIhYTi1ZNHUQVldrXWNj/X1qQySkBoMycHpgVGUhYHLYJjcg3GWQkoog4tx/ejRo/83ZsyYhUD+/g0QfcWo3tWssROaSv9QXifMIZTUjaK+YfFPWrx4cds5c+b0Rl3Qg1YsXzEYyUcDsGu3wTBRocbB0lUMHeaccFOq59/WAjr1PY5mDpox8ByWy8IH9RXqJPQS8JNHLW0GYAxwSsRV4++9ffr2/aZf375LIfUsGDdu3JouXbrsNSWJKKJeyxyKMIeW+d7VU2Phc5EmIxArd9myZR1XrFjRe/369b3XrlvXe82q1Qeg7F07ZIeScbiw3mns43zhwqeOr7MVtdeEi59/0zhag51+I0B3fwNc/49Ij96JZKc9wN3c2atXrwIkQu2FQbEY55FBiEQQpXNQmEOUvphIDct0/5EREIeih/mZhc/OOKjv00OwG+eVmtIBpQFKGnSvljE2Af8vw+5PVCw/rZmRelq5r1BAKCAUEAoIBYQCQgGhgFBAKCAUEAoIBYQCQgGhgFBAKCAUEAoIBYQCQgGhgFBAKCAUEAoIBYQCQgGhgFBAKCAUEAoIBYQCQgGhgFBAKCAUEAoIBYQCQgGhgFBAKCAUEAoIBYQCQgGhgFBAKCAUEAoIBYQCQgGhgFBAKCAUEAoIBYQCQgGhgFBAKCAUEAoIBWKGAv8PdDsagOOgsHsAAAAASUVORK5CYII=;" vertex="1" parent="1">
          <mxGeometry x="180" y="-90" width="45" height="65" as="geometry"/>
        </mxCell>
        <mxCell id="-ClTl8FYW49d9pKGoOFr-23" value="" style="ellipse;whiteSpace=wrap;html=1;aspect=fixed;fillColor=none;strokeColor=#67AB9F;strokeWidth=3;" vertex="1" parent="1">
          <mxGeometry x="164" y="-94.5" width="80" height="80" as="geometry"/>
        </mxCell>
        <mxCell id="-ClTl8FYW49d9pKGoOFr-24" value="" style="shape=image;verticalLabelPosition=bottom;labelBackgroundColor=#ffffff;verticalAlign=top;aspect=fixed;imageAspect=0;image=data:image/png,iVBORw0KGgoAAAANSUhEUgAAAZsAAAJgCAYAAABcJc6/AABg2ElEQVR4Xu2dB3hVRdrHSa+kQhJqAoEQuvQaqoAgUkR6E1FZ7Ii4q677WVBRLGsDEVRsCCog3UKR0LsgoZcQkpDeSCPl5vuPEhch5d5zz7n3lP99Hh93zZk5M795z7xT3lKjBn8kQAIkQAIkQAIkQAIkQAIkQAIkQAIkQAIkQAIkQAIkQAIkQAIkQAIkQAIkQAIkQAIkQAIkQAIkQAIkQAIkQAIkQAIkQAIkQAIkQAIkQAIkQAIkQAIkQAIkQAIkQAIkQAIkQAIkQAIkQAIkQAIkQAIkQAIkQAIkQAIkQAIkQAIkQAIkQAIkQAIkQAIkQAIkQAIkQAIkQAIkQAIkQAIkQAIkQAIkQAIkQAIkQAIkQAIkoAoC+fn5jqdOnWr98ssv33/27Fk/VTSKjSABEiABEtAHgYKCAofExMRar7322rNhYWE5LZo3P5aQkBCkj96xFyRAAiRAAnYnkJGR4bF48eIHW7dudd7Z2dmEBplGjRq1Kicnx9nujWMDSIAESIAEtE0gKyvL5aeffhrUs2fPg06OjiXoTZn4B//bhGO0F7TdO7aeBEiABEjArgRyc3Od9+7d23nixIkrvTy9csuVTPm/3dzcTWvXrh1i10by5SRAAiRAAtokgHsZx8uXL9f55z//+U5InZA0cVx2s6IR/9/f3z/vxIkTTbTZS7aaBEiABEjAbgSys7Pdly5dem9E04gzOCYrrUjJlP+38PDw+Ly8PBe7NZYvJgESIAES0BYBcWS2efPmfn379t3u5ORUWJWSKf/bkDvv/EVYp2mrp2wtCZAACZCAzQlAWTjBXybi0Ucf/cjHxyersiOzipTPnDlz5tu8wXwhCZAACZCAtgikpKT4LFy48LHIZpGxDg4OFd7LVLbDEc8vWrToH9rqMVtLAiRAAiRgMwLw/nfesWNH1MCBA7e5urqadWR2s9IR9zk4dhtss0bzRSRAAiRAAtogIELMxMfH13v66af/6+3lbdGR2c3KxsPTs/Do0aNttNFztpIESIAESMAmBOCY6fb1119PRHiZEzgC+8sxs7Jjsur+e2BgYFZqaqqfTRrPl5AACZAACaibAHYzTkeOHGk7duzYFdiN3OKYWZ1SqezvMI2+KPxx1N17to4ESIAESEBxAmlpaTXffvvtOaGhofF4mUUGANUpoaioqJ00e1Z8CPkCEiABElAvAThaOiHMTPfbb789GgEzr1WnOKT8ffTo0SvUS4AtIwESIAESUJTAlSuJ/nPnzn3Rz883Xe7dzI1KCX45byraEVZOAlYSYChyKwGyOAlUREBEAIA5c7+7R93zyv69e28rNZmU/NbKYCCQypEgARIgARIwCAFxb4LkZcGPP/74BwiMmSXlSExCGdP7779/v0EQs5skQAIkYGwCuJtx3rRp05Dbbmt7vLqgmRIUyh85ayr5p/Szzz4bZ2z67D0JkAAJGIBAbGxsvVmzZgnnzGyZFUlVSqb8byVr1qy5wwCY2UUSIAESMCaBq1evumzYsGFwhw4dfpPDOVOioir++eef+xlzBNhrEiABEtAxAXE3g1AzIbNnz34H0ZntsZv5a8eDFARFW7dujdIxbnaNBEiABIxHQATO/OWXXwa2b9/+CO5mrA41I3E385eycXFxubZ9+/ZuxhsJ9pgESIAEdEoA8cd8kZ55npenV6a1SkKu8iJSdHR0dFedIme3SIAESMA4BEQUgJ07d3br37//NuxmiuRSFHLUc13ZcGdjHHFkT0mABPRIQMQ0mz9//jN169W7gv7JGtNMDmXj5uZeCAfSjnpkzz6RAAmQgO4JCCOACxfOhw8eMmSzuBeRQzEoUcf1O5tOuh8QdpAESIAE9EYA+WZcly5dOjmkTsglNe5mblRaMLkuRpbO7nobA/aHBEiABHRN4Pz58/WnT5/+Ee5C8pTYiShQp/Cz6a3rQWHnSIAESEAvBGAE4AgHzb4IN3MEu4VSBZSCOdEApDxTgjA5VDZ6EUT2gwRIQL8E0tPTPV944YVnAgICUtR+bFaBEiz94osv7tHv6LBneiCgZNhzPfBhHwxAICYmJmLChAn/xb1H/9LSUlcNdtkBytJfg+1mkw1EgMrGQIPNrv6dQE5OjjOOzYYNHjz4rbi4uFD81UGrjKBsgrXadrabBEiABHRLADlnAp988sm3EAkgR0N3M5Xe5yBT5391O1jsmC4IcGeji2FkJ8wlIHxnjh8/3m78hAkLd+3c2RHHZo7mllXzczDV5jGamgeIbSMBEjAOAaQDcP7yyy/HBIcEJ+phN3NjH6KiorYJRWqc0WRPSYAESECFBC5duhSEVM1vI7RLrt4UjehP48aNL0LZ6GKXpkLxYZNIgARIoGoCSAfgsGfPntb9+vXbigCaxXpUNKJPgYGB2YhI7UN5IAESIAESsDEBKBon4X8SGhp6Aa9WXQBNORUf0lEXCBNuGyPm60iABEjA2ASwyvd65pln/o1jsyw5J3W11oVsncXbtm3rZexRZ+9JgARIwIYEjh492nTQoEHrcGym2kjNcistEV5nwYIFM2yIma8iAYsI0PTZIlx8WM0ERGyzrVu39h47ZuyCU6dPNUNbDWOdVVZW5oAAok3VPD5sGwmQAAlonkB2drYbEpzN0mhsMynBN28pM3To0PWaH0h2gARIgATUSgDRAGpPmTJlKVICFMh9PKWl+iKaRlwURhFqHSe2iwRIgAQ0SUCYNe/bt++2Tp06H0AHtJQSQJadzM2K0N/fP/fEiRPhmhxMNpoESIAE1EggNzfX+fvvvx9ev0GDi2ifrs2azd1dwfKueN26dYPVOF5sEwmQAAlojkBGRobn3Llzn/Hz880wdyI2wnOwvjPNmzdvtuYGlA0mARIgAbURSExMDJo8efKXuJ8pNIICsbSPkyZNWooYcAxbozbBZXtIgAS0QUDcz8B/pk3Hjp0OaSxlsyL3M5UpIaS0PpiSkuKtjVFlK0mABEhARQRwP+O4adOmvuHh4ed4P1OjSuWFo8WsI0eONFHR8LEpJEACJKB+AjgScnn33Xf/UatWrSRLj5SM+LwINvrVV1/drf6RZQtJgARIQCUEkOrYc/bs2a96eHrqMi2AQsrQ9Nhjj72hkiFkM0iABEhA3QTi4+P9hw0bthor9SKFJmWb3qXYsg9dunbdjUCkbuoeYbaOBEiABOxMAI6aLbp1776dhgBV389UpsB8fX2zfv/990Z2Hka+ngRIgATUSUAE0ty4cWMUwq6cRgvpqImkaBJ3RMXI4zNanaPMVpEACZCAHQkgpbHT4sWLJyLjZCIVjWQlU66cTPfdd9+7dhxOvpoESIAE1EcgMyPT/eWXX34S4VayJa7kpe4AdFuucePGp3Fv466+0WaLSIAESMAOBIQhAFbhH7m4uBg6YrPcShaGFYU7d+7sYIch5StJgARIQF0EkOyr7vDhw1chpTEtzqTfz1S2OzM999xzL6prxNkaEiABErAxAYSeadK5S+fdtDiz+n6m0qNAkXohKyvLxcZDy9eRAAmQgDoI4HinbWSzyGNoDS3O5N/R/KV8ELomZ/fu3e3UMepsBQmQAAnYiICIcfbdd98NqFOnDnPQKKhkyu9/sGs0vfDCC8/aaHj5GhIgARKwPwGRrviDDz6YiGySV8onQ/5buSO0craIJrAT1n6u9pcAtoAESIAEFCaAYJqu8+fPn+nl6ZVJBaO8grmRMZR7Jo4tOyk8xKyeBEiABOxLIC0tzfvpp59+zcPdg8E0bXB0drMyF0dp//nPf2iVZt/PgG8nARJQkgCyavpPmzbtM5g2X+OOxrY7mht5t2/f/khycjITqikp7KybBEjAPgQSEhICRgwfsRbOhSVUNPZTNII9Umjn//TTT/3tIwl8KwmQAAkoRADOmvUGDRr0I31o7KtkblDyphkzZnwgUmsrNOSslgRIgARsSyAmJiasa7due8RdAXc0qlE2ZcEhwdhsJtSyrTTwbSRAAiSgAAHkoWnetm3bw6iaisYOxgDVKPfiRYsWTVBg2FklCZAACdiOwI4dO9ogKkAMFY16djM3K59evXtvQ/gaZ9tJBd9EAiRAAjIS2L59ewcR0p6KRr2KRiiemjVrXsWigD43Mso+qyIBErARgejo6NvCwsLOUtGoW9Fc3+WYHn744f8iUR0NBWz0ffA1JEACVhJACmeH77///nZk1rxERaMJRfNHgM6GDRvGHT9+vJGVw8/iJEACJKA8ASgax6+//npgQEBA/M33Avz/6lY88HsqnTdv3mPKSwnfQAIkQAJWEBCKZunSpcOgaBK4o1G3YqlM8Xfo0OHglSuJNa0QAxYlARIgAeUICEXzySefjIaiYeRm9Zk2V5pE7Walg4gCBcuWLRuqnKSwZhIgARKQSAC5aJyWLFky3tfXN4VHZdrc0dw4bgMHDlyfk5PjJFEcWIwESIAE5CeAHY3TRx99NMXD0zODikb7ikaMoYuLy9Vt27Z1l19aWCMJkAAJSCCAHY0zFM1k+GikU9HoQ9FcH0fT6NGjvxZWhRLEgkVIgARIQD4C4uhswYIFk5HLPpWKRleK5o/7HSwgMvbu3dtaPolhTSRAAiRgIQGhaLCjmUhFoz8lU75wEMFSkW/oI2RSdbRQPPg4CZAACVhPQFidwRhgnI+PD3c0GrY6M2c3WjuodtLhw4dbWC81rIEESIAELCAgFM2XX3450tvLm4pG54qm/O7m8ccfn4+dLO9uLPhO+CgJkIAVBISi+eqrr+6kH41+j84q2u3UqVMn4ejRoxFWiA6LkgAJkIB5BJDF0XHFihVDqWiMpWjKdzePPPLI27RMM+9b4VMkQAJWENi4cWNPnN8z1pkxjs5uiTaAgKpJ2N00tUKEWJQESIAEqibw66+/dq3foEFsRUcs/G+G2emI9ANvYYfLuxtOGCRAAvIT2LlzZ1skPmM+GoPuaG5cTMDMPeXAgQPN5Jcy1kgCJGBoAphYWkc0jTgJCCbuYAyzg6k0YKfwu5k4ceKnvLsx9LTAzpOAvASOHDkS0Tyy+QkqGiqZGxca8K3K3LJlSxd5pY21kQAJGJLAhQvngzt16nyAioaK5uYdrdjdjBo1anlGRoaLIT8OdpoESEAeAvHx8QGDhwz5kYqGiqayo1NE987esGFDX3kkjrWQAAkYjkBycrL3Pffc8y1SA5fwjobKpgoZMPXt2/fn1NRUD8N9JOwwCZCAdQQwcXhOmTLlMyiaYioaKprqZAByUoj03+OskzqWJgESMBQBRPV1mTVr1itOTk6F1U0y/DsVUbkMtGzR4ih2w76G+ljYWRIgAWkERJbN+fPnz0BmxlwqEioSS2RA7IJfffXVWdIkj6VIgAQMQ0DEO8NRyD1IkpVmySTDZ6mUymUgNDQ0LiYmprFhPhp2lARIwDICIuzIpk2bejHeGRWHNYsHYQo9c+bMt3EUyzA2ln2CfJoEjEFAxDsLCwu7gN4yOgBD0VQaNcAcReTv758KR892xvhy2EsSIAGzCZw6dSoMl7vHqWi4qzFHmZjxjGno0KGr4OjpbLYQ8kESIAF9E0hJSfGCj8RmcfxhxiRi1YqX9RtHmTk7Oxd88cUXo/X99bB3JEACZhFIS0tzGz9+/MdQNPSl4dGZ7AsJBG09ceVKIk2hzfoa+RAJ6JRAVlaWy3PPPfe0WIFyx2GcHYeNx7r02Wef/bdOPyF2iwRIoDoCubm5Tu++++40L0+vbBtPPrKvntl+dSvK4JDghN27d7euTib5dxIgAZ0RKCgocFi/fv0AWAylcKJW90Stk/ERUaFXZGZkuursU2J3SIAEqiIg8tLUr1//ok4mMu6UNHDXhKjQ+TAWGMsvkwRIwCAELl265N+hQ4c96C4tzzQwSetpQdCyVavjFy9erG+QT43dJAHjEoCJs8fo0aO/ZLoAHp3ZQ4lB7kpnz579inG/QPacBAxAIDs7W1iePYvgmrQ8447GbkePiLmXDmOBlgb45NhFEjAeARgEOC5evHiSh7tHlj1WtHwnd1I3yIBIsvYjU0gbbx5ijw1AYPv27V1geXaFkz4nfTXIAHIkFcHs/j4DfHrsIgkYh8CZM2dCW7dudYwGAVQ0alA05W1AGoILsIoMN86XyJ6SgI4JIBSN54jhI1YiFE2pmiYatoWKT8ThQ8rxT3GX6KTjT5BdIwH9E0AuEWcYBDwPgwCmdaZBgN0MAqpaWHh7eed9//33I/T/NbKHJKBTAiIJGhzoxsEgIIe7CFXsIkyIP0e/pgqUPtJaxMTFxQXr9FNkt0hA3wT279/fMig4KJ6Kxv6KBr4lxXCi3Y3cLl/w3uzW8RDHaU888cRbIh25vr9K9o4EdEYgPj7er1v37rs4sdlf0WA3c23s2LELLlw47z14yJCNVP4Vj4mPj0/m1q1bu+vsU2R3SEC/BHJyclxmzJjxASME2F3RmNzc3LP/9a9//UckpkMqB7c6deokUdlUOi6m7j167EhOTq6p36+TPSMBnRAQxxDvvffefbinyeWkZldlY/L19U1dsmTJPUjj4CIibMfExDTHLieP41L5uMD3pviFF154BswcdPJJshskoE8CW7Zs6RxSJySBE5p9FU1YWFissLAqv4MQymbp0qX34m6iiGNT9djUqlUrGaFsbtPnF8pekYAOCCCScy1cQh/iPY39FA2USUnrNm0ORkdHRwlrwHKxEsrmsccee5djY9bYmIbceec6+Id56eCzZBdIQF8E8vLynKZPn/6BmOy4cjZrQlPC56SoS9eu248ePdpCKJcbJUwEQL399tu3cmzMGxscp11bsGDBdH19pewNCWicgFhBf/zxx2PhuMl7Gjs5bkLJX4Ol2bdJSUmBFYnT5cuXQxo1anSZysY8ZSM44Tj48rFjx5pp/PNk80lAPwT27dsXCSunOE5k5k9kcrISq/AJEyYshqLxqUyqdu3a1RVh9bkYsGwxYEKYpVVII+2mn6+VPSEBjRLAitm3f//+W3gXYB9FA+uywvvvv//9xMRE36pECJEcpgjHTjmVnBHqglWlOE67X6OfJ5tNAvogIOKezZkz53URqt0IE4/a+gjuBQ8//PCbqamp3lVJlLi/QWbKN7ggkLYgCA8Pv/j777831cdXy16QgAYJrF69+k4vT69stU3CRmgPdjT5CK8yD46aHtWJjlgUDBs2bI0RuCjRRxHKZvz48V+DtUt1rPl3EiABmQkg9EkDrPjOKvFxs86qV+A42rn6zDPPvAALM3dzhhVHnbVatmp1nFyl7WwEN+wiC5ctWzbWHN58hgRIQCYCmOTckANkqVjxcQKTPoFJYScUzbx582abq2jEkB8+fDgSjoqpUt7HMv8bX1jzXTh//nyoTJ8RqyEBEqiKgDBz/vTTTyd4eHrSsskyyyar/WpgWp73+uuvPyFiz1kipevWrRuAsgVUHFYvDEzTpk37BPydLeHPZ0mABCQQQArdSKTSjeXEZfXEZZHywR1Nwb///e//IGaXq6XD9sYbb8xCGTrbyrA4QKK13G+++WaEpWPA50mABCwgAKsnT+RD2YAiPD6TYeIyV2EjcnPBU089NQ8rarPuaG4cUmGJdu+9937CMZNvcdCiefNTp0+f5nGaBXMHHyUBswmI47N33nlnBnw1mN7ZhopGpNN+/PHH38rIyJAUpwsOiS69evfeZq5i43PVKyVxV/nAAw8sxL0Zj9PMnkH4IAmYSQDHZ01rB9VmNGcbKhoo9msPPvjge8hFU6UfTVVDeOVKYgAutnnsKfO4iTvLlStXDjXz8+FjJEAC5hDA6thj8B2DN/EopvpVr4w7gyKEoPkUR5eVhqAxZ+wOHjzYBnltcmRsl0V3TXp+L5T4WSRaqzJygzljxGdIgARAQORDwQXzo+I4R88Th5r6JsLKjBw58pv09HSrM0auWbPmTrFDUlP/dNQWEzLS/hdOs46cLEiABKwksHfv3pZ169VL1NEEoeqVuUjRMGjQoJ/i4+NrWTl0fxTHQmEO/lXK8VNmV4rgptmrVq0aKMdYsQ4SMCwBJI/yRBKpH+m8qcxEVYECMHXq1PkQ0jeHyyV0uMhexONPZccPCQMPwtmzjlxjxnpIwFAEhMnswoULp4swHVwVKztZXedrEuF/Dh061F4uQRNj2CsqKprjp+z4YTFWijh1r+E47W8J6+QaR9ZDAromcObMmYYIcULrM5mtmCqZ+E3IB5SIy3zZFI0QTigbp+CQYB6B2mAM4eyZuXbt2tt1PSmwcyQgNwH4D7hOnjz5Mx6/KLsiLlc8/v7+6TCjvUfucYyLiwuEie5V7mxsM4633db2MEzN/eQeR9ZHArolgHAcdyF1AM1lbbMizvnwww/vRxgaJ7kFavv27R14DGobRSMUurjbRKSHV8TxpdxjyfpIQHcEYmNjQ9q3b3+Uq2HlJylhTv4sfpYG1jRX6JYvXz4CzzKxnQ0WDeXfi5+fb/ovv/zSxdwx4nMkYEgCeXl5jk8++eRr8Mtg0EaFJyisgouQpmEREnJZHO/MXOF84YUXnsezNHtWeCxvXph16dp1F0zX/c0dJz5HAoYjsHXr1na4P0jhrkbxXU0J4pX9iOgAinmfi6Oc++67bwnv3RQfy1v8trBYK0Vyu//QOs1wUyg7bA4BYRQwYMCA9ZycFJ+cTIgafOLo0aMR5oyL1GdwB+TYt29fmj3beFdTvlDDoi11y5Yt3aWOH8uRgG4JfPLJJ+NwmZzPXY2yyiYoOCgJk1AfpQVJLB7gtxPL8VR2PKvga+rWvfsOBFG1OuSQ0rLC+knAZgQuXDgfIhwKOTEpOzHBwu8qlPo03I0pbq2UkJAQiCjd6RxTZce0Kr7i7vPFF1+cbbMPmS8iATUTwLmyE7yf3xRe0JyYlJuYMPEUzZkzZy6OtyxK6SxVdg4cONAacbuYuttOx2jl31JgYGAC4gtGSh1HliMB3RCAUUAnnC+nUdEop2jAtnTwkCFrkQBNcl4aSwVu48aNg1xdXRnt2c7KBuNmGjhw4BpE8LY4nbelY87nSUC1BESemuHDh/8gPggqG8WUjSmyWWTMiRMnGttSEBYtWiTi2tGE3f7KpkwofWS5vc+W4893kYCqCHz55Zdjkd+eRy0KTkiIL5f8448/9rP1wP/73/9+kdG6FVtAWJymArHvYpHttpGt5YDvIwG7E0AMJ//WbdrEcEej3IQkFPkHH3zwIBLQKW4QcKNACR+bmTNnfsCxVW5sJbA1DRs2bAWOUp3t/vGzASRgKwJiMnr99defEJfWEj4ai1d1RnwHdhXF06ZNW4izesUiBFQmLzB7dkamz5VG5K7mPos4dUuWLBlnq++c7yEBuxNA+oAG9Rs0uKTmD1PjbTMhAvC+ixcv1rbHYCPpnRd8PHZpnKEuFzVwMTiN76++PeSC7yQBmxKAj4fTY4899jZNnZU7YkFuk7QdO3Z0tenA3vCypKQkP0Qp4BGpgndxUhW5uEdD9tT34XLgaC/54HtJwCYEoqOjOyAybabUj4XlqlZSsDwqQMqAh219T3Oj8IiVc9169Zj4ToXKRnw/WIxkrV69epBNPni+hATsQQCmzq7jxo1bSSslZXY14FoCvl/hEtjTHuNb/s7Dhw+3gO8UFxQqVTZC4XTs2GnPpUuXatlTTvhuElCMwObNm3thVcWkaMpMQiLAZgx+TRQbQDMrxhFeF+TKKeAuVJlFhRxcYSxQjMjQz9sidJGZYsPHSEAeAsib4gbTyw2ojQ6cCigbxD3L+vbbb4fJM1rW1YLoAQNQA6MHKDDOciia8jpEOo/du3e3sW60WZoEVEZg7dq1dzg7OzOqswITkDBznjVr1nzEPVNFSBKY106B+NGsXYGxllPZiIVfv3791mMhaJN4eSqbktgcPRIQprDIHnhI5g9Fl6apEhiZwHY3QskrlgjNUpmcN2/eLJRhYFX1K5sy+LoVvv/++xMsHWM+TwKqJPDZZ59Nwq6GxyoKTD4BAQHpv/76aze1DLxw2H366adf4XGpeu9rbl7QhIaGnsFdX0O1yBDbcSsB2qmbIRXJycm+CJkyp6SkRBVHPGY0WTOPQIEXIz3D+x07dtynlkaXlZXVwKWzXa3h1MJCK+2Ii4tr8tZbb81C5AebhjXSCh+2UyMEPvroo2kMNa/IKlect28RylxNopCTk+MyduzYFRKOA3ksqsDO19xxgJVo5po1a6LUJEtsCwmYTQDZGv3bt29PT3IFJhFkwbyyc+fOdmYPho0eFGkjBg0atMncSY7PKbIQkaS44XsTHR8fr6rFi43EVvWv4TFaNUO0bt26UceOHbO734fqJcnCBuJSt/jRRx59t0OHDr9ZWFTxx01lJidEL7BZkjbFO2SgFxw5fKjrp59+OtVAXWZX9UBAWKAhGORxrlxlX7maunbrFg3rM1VO6MIqrl27dkc47rKPu6TdiqXjgPxHl0WgXD3MQeyDQQh88sknE+D/QQs0mY/QRAptpNJWjfXZzeKMIJy1WrZoccrSSY7Pq0Y5mcaMGfM5fLZ4cmOQuVrT3UQOFU/sak5wApF3AhHOm3PmzHkTE4GTWgUEaQ3qNWrU6CLHXt6xtyVPRKO4ikCdd6hVxtguEviLwNdffz0a9wrc1ci8q8Hx1G/nz58PUbOo4QgmjBGftatoypVa5y6do2Hg46dmWWPbDE4AdzWevaKimDhLZkXj4e6Rt3z58rvULl7Hjx+PxLl/qi1X4nyX/MoNgTqvwfdmhtrlje0zMIEffvjhDkyMjIEmr7Ipvfvuu7+FD4vNUzxbKspHjhxpg3xFWVQA8isAWzNFNt0Lp06dCrNUBvg8CShOQER2HjxkyM+2/ij0/j6EpEk6ffq0JsKJ7N+/v6OHp2ee3sfEIP0zTZ069UPcETKygOKzJ19gEYGffvqpl6+v71WDfIg2MUUVPjUvvfTSfywaCDs+vGfPns7IZVNIGdD+zkaMoUhdsW3btvZ2FCm+mgT+TgA5zZ0mTZq0DP+V+WpkPEITPiuXL18O1Iq8IapBFI1D9KFori8YTAMHDlyL7K/OWpFBtlPnBESkgMDAQF4My6hocByVC6OAIVoSnejo6D5oL3PZyCgH9t4lurm5F37++edjtCSHbKtOCYiw8k8++eTr3NXIuqItHTF8xLeINaZ6o4AbxRrKpheVjaxyYJPj2uoUWtu2bY8ibpq/TqcwdksrBBITE7GpCUysTmD5d/MnIRgFJO/YsUN1gTark0koGxE5mDsbHe1sxHcLU+iSl19+WSTF488OBBjO4Tr0VatWjUTUgNp2GANdvhKRAkrHjx+/DPc1x7TWQexyvbTWZra3egKlpaVOiz7++AlYRdav/mk+QQIKEBABNxF9WEyKqtju66EdQcFBl86ePVtPgeFSvEr4Wd2NlxTrYRzYh79/01gEmRAuaa7iQsQXkEBFBBBDaTCSoxXww5RH2Yr4Z6+99ppmjyuwyx0FWSihPMgjD2rj6OPjk3ro0KGmnA1tS8Dwx2hII+uCOGgPFhUVaeoS27ZiYtnbIppGnJ88efLnlpVSz9Mmk4kOgOoZDtlbgigWgQhj8yxcHQw//8kOt4oKDQ/73LlzTbZHb2cqWZmkDs6QRQ8/8vBb9evXz5CpSptX4+zsXGrzl/KFtiTgsH79+pEiUoQtX2r0dxla2SAboyOO0MakpqQGGF0Q5Op/y5YtYkaNGvWdXPXZqZ7yuzs7vZ6vVZoAdje+77333j9xskFHT6Vhs/4aNeLi4mq1aN78tNrOlLXaHjjOFSxdunSk1mXrl19+uR19oOmzzg1mvL28r+J+bqDW5ZXt1wCBr776apwIQ67VyV1l7TYhLcM2WPZ5aGDoq2zidT8byoXOlY34fvr06bMlNTVV8zKrhW/OsMdoeXl5TitWrJgO23tXLQyU2tsoAlfOfOih+cgDI6z6tP4z7Heh9YGztP179uzt/vPPP4udLH8koAyBmJiYxojunK2y3YFW/XxMXbt1+xVhaXSxQrweroY7GwPsbMT3j4yeeyC7LsrMNKy1nIAhV3AiDtr3338/DpeDNSkK1hNAhOTCOU899R//AH897GpqOCIdOPokFD9/BiBw6MDB9hs3bbzDAF1lF21NQKzAaRggm8OeKSoq6leE+tGNn9LevXs70MlXNvnQxG69ffv2ByDDbraei4z0PkPubHbt3tX94sVYTWSNVLswCgOLBx544D0EMRXJxnTxE75Cri6uIoIAfwYhgPQibdetWzfIIN21SzcNp2xgGOC4Zs2aMYXXCrmKkUHkELb99379+m2WoSrVVAGnTpOLqwuVjWpGRPmGlJSUuHy8ePG/kpKSGIRVIdyGUzbJyUm1Nm/ePLCsrIwhSawUKkzKRQhL8yGiBeRYWZWqigvLOigb4WfDn4EIHDxwoD3mhv4G6rJNu2o4ZRMdvaMfUhTXtSllnb6scaPGF++55561euuem5tbsbubO5WN3ga2mv4gPqLbx4sWzcLuRhdWlWobPkMpG1ifOSEm0mhsmelbY6UkwlqrZMrUKYsbNGiQaWVVqivu6elR4OXppQvLOtXBVXmD9u0/0OXXX3/to/JmarJ5hlI2WLHUid4R3VOTI6WyRgfWrpU6ZsyYFSprlizNcXR0KnHmnY0sLLVWybVrhR6fL/38IcROM9TcaItxMhTQ7du3D0pJTmHQTeslq2zE8BE/4K5GpNHW3Q8WdsVeXl5XddcxdsgsAmJns2/fvs5mPcyHzCZgGGWD3BVOq3/4YTTIMMqr2eJR8YMIYJh7//33L/D09DRZWZUqizthZ+Pv65elysaxUYoTKCgs8H7//fdnw3KVRkQy0jaMsklMTAzZu2cP81fIIDy9+vTeHhkZeUqGqlRZhbOLc7Gfv5/u7qJUCVuljdqyectA+N60UWnzNNkswygbHKENzMzM9NXkKKmo0TB3vnbftGkLkFpXt34ows8mICAgSUXY2RQbE8gvyK+JdBn3cXcjH3hDKBvEQnPEEdoYHqFZLzitWrU83bVr113W16TuGhCkVRyjMT6auodJsdYJP7w1a9eMhpsEI43IRNkQyiY2NrbuwYMHeIRmpdA4ODiUjhs3/nO9OXHejMXDw6MsODg43UpcLK5xAqnJKSHLli2boPFuqKb5hlA2O3fuHJCRnuGvGuoabUhwSHDanXfeuUajzbeo2fXq1YtDgVKLCvFhXREoNZkcVq5aNRkZfWvrqmN26ozulU1+fr7jTz/9dBeSpDnZibFeXlvWp3efX0JDQy/ppUNV9QNJ4FLhuEplY4TBrqKPp06eDEcIm94GxyBL93WvbJKTkwMPHjzYSRZaBq4EIfcL4cT5uZ4NA24cXm9v76te3t4MWWNgmRddF5l8cZQ2HWlJuFi1UhZ0r2wOHTrUJTkpmdtgKwWlSXj4OeRr321lNZopLgwEoFjzNNNgNlQxArt27or67ehv7RR7gUEq1rWyEekEtm3bdgectBgLzTqBLh09ZsxymAPnW1eNdkrXrFkzx9fHh1EEtDNkirUU84cndjdTFHuBQSrWtbJB1ADvXbt29sFY0hPYCoH2cPfIHz58+EorqtBcURwbXgsKDk7RXMPZYCUICDPoe86dOxeiROVGqVPXyubixYuNz509H2qUwVSqn926d9sdERFxTqn61VgvlE0RLNIMYQyhRv5qa1NqSmowMnnepbZ2aak9ulY20dHRA/Ly8zy1NCBqayt8a4pHjx69DBfmhrLMQjDOsrp1615A/+nYqTahtEN74OTpuGzZN/fBUICxFSXy162yQYhwp+3R0b2FkEhkw2IgEBISktK7d+9fjQZDOHY2atTokqOjI5WN0Qa/kv6eOnWy1YGDBzoQhzQCup2I8/Jyffbv28eoAdLkorxUGULTROs1lUB1aBo3bnze2dmluLrn+HdjEMjNzfX64c/I8fxJIKBbZfPbb0dvS0tLY9QACUJRXgRHSUV33XXXOqP41tyMCru6eA8Pt2tWIFSyaBmO+JSsn3XfREDES9u0adPwCxfO1yIcywnoUtkg8KbDli1b7gAOF8uRsEQ5AaR8TuzWrZvug25WNuLof4J3TZ8stUkEIhsUTZ48+YMWzZtfVFvb9N4eEZgzOnpHd733U4n+6VLZFBcXO+3avVuEmODST7rUlHXq1GkPjtASpFeh7ZLC/LlRWJiIkaaaH3YzpsFDhqyeP3/+nJ5RUZvRMN4p2XB0SkpKXH9Y/cP4rKwszi0WctelsklJSamLmEaRFrLg4zcQwOq5+I477lgL50ZDWaHdKAQ4RjQ1a9bsdxUJRlmbNm2Ovf7664/hiO8adp17MU66zSukIu5/a8qv27cNSEpKos+NhQOkS2Xz22+/dYA1mreFLPj4DQQCa9dK79Gjh2HC01Q0+MIiDcrmrFp2D/7+/mmvvvrqoy1btvzD2bRt27Z7a/rUzKXg2pZAVla2P4L7DrDtW7X/Nl0qmz179nRFAD1d9s1GIlfWuVPnHUa1QruRcevWrQ8JXyMbca/0NeKe5umnn56L+HR/3aFhfC6Ghze5YO+2GfD9jt9///14A/abXb6RAHY0zn379v3l+mpUnGfzH8sZFC9YsOBeSlaNGufPn6+LcD05dpYjU//+/TdkZGS43zgmIn3Gww8//CH+m8nO7TPcN4b7vOyYmJh6/EYMTODMmTN16jdocJkfn3Ql6+zsfPXkyZNMhwshQjBX14YNG563pzwhAnXKgQMHKryDXLFixVA3N3dhnm24Cd/OfS6FkcZ0A0+1Fnddd0dNUDYt0tPTAy0mwQJ/EcAl9HGY/cYTSY0aiCBQgruR4/ZigSO8kvvvv/+z5s2bn66oDWjb4eDgoCR7tc/A73XcsGHD2OzsbN3NoUqNqe5AwTigY0F+/t+OG5SCp9N6S2GF9jNioYmjGf6wY2jfvv3h66tom/OIaBpxZubMmW9iPCo0cUaw0NTIyMhjNm8YX1jj2LFj7XHM2ogozCOgK2UjzrAPHvgjKydt4M0b/1uecnFxKerVq9dPEovrrpiwSGvXrt0BmEHb3EhAjMXDjzz8VpMmTVIrAwvTdGGivlH43+gOvso7lJmZ6bd169aBKm8mm6cEgfj4+AB4VZ+6vgrlGbaEc3zcT8QmJCQwzM8NAor7q0a1atUS5sa2lCkTlNxRjIVvdd/Kvn37Wvv5+WbbuH22ZKHadw0aNGidCPpb3Rjx7ziS1hMEKJuwK0lJdfTUJxv3paxjx477sFoWExd/1wnUrl07KSyskTA6sdkPRhpFuKt5B8dk1Y5F06ZNzzWLbH7SZo3ji/4iEHPiRGvMO7RKM0MmdKVscH7aDKsMDzP6zUcqIICjmFL4cWxH4E0eydzAx9PT81rbtm2OXN852ER2msB/ZsSIEavNeRmO+goHDRy43pbtM6ddRngmGZEEDh061NkIfbW2j7pSNjAOaAdnTiY3kigVvr4++bgMPyCxuG6LQdmYunfvvkMoYxt1snTafdMWmrOrEe0R90qIzr0S90oFNmofX3OdAOIwuiKawBCkH+A9cTVSoRtlI85NYR3SEv3loEucCurWqRuPhGEiPAt/NxFAiJijfn5+NgkNExgYmDly5MhVlgwCjtIu3HbbbWqK42ZJ87X8rMO+vft6wATaT8udsEXbdaNsCgsLPU+fPt3CFtB0+o6yVq1b/xYQEFDtHYFO+19lt4RjJxRxrA36Xgbrsk1ISX3Fkne5ubkVDR8+/BuU4RGoJeBkeDY+MaHB2bNnI2SoStdV6EbZiCisqSmpTGokUVwRe6u0Z8+eu8SRjMQqdF0Mu5o87BzEEaOifETCukmTJn1iqZ/T9aO09Qitk6XrgVBh54Rf3969e5njppqx0Y2yESuLwsICNxXKoiaa5OnlVdiqVSvhvMhfBQTEvQ38j35WOqR/ixbNzyKCg6RxCAsNuxzVK2orB9DmBBx+/vnn/jZ/q8ZeqBtlg6B4bUtNJhoHSBTAoKCg1PDw8HMSixuiGJLJ7QuoFfhHeH8lfsIxc8CAgT/DMOCqlPr9A/xFGu/VYnckpTzLSCeAe5ueqampTGtSBULdKJtTp07ROED6t1IDXuon4LiYYUUVui9ap06d5MhmkSeU6qg7AmoOGDDALHPnytqA8tF16tZlXDulBqmSevPy87wOHjzYzsav1dTrdKFsEJnXEV7eNA6QLnqmLl267PHy8uLlchUMcS9SjPQVPykVGiY0NPQyAmtaZVGGAKpJffv0EeGGFL1bki5qui3ptHv37l667Z0MHdOFsoFvjevZM2cZEE+iQAj/EUxyRyUWN0wxcQl/5513bsIxVb4CnS7r2q3rbqQTELlzJP+wYCi5++67V3l4etLnRjJFSQUdkLQx6urVq3S9qASfLpTNuXPnQguvFTLSs6RvpEYNd3igIyOlVStqia/WXDFEWL4Q3jg8Vu6GI+imiN6wDcrC6h0JDBn2RDZrVmFKArnbzfr+R+B4zPF28PfzI5OKCehC2Vy4cCGijMYBkmU8tEHDy7ivscivQ/LLNF4QGRqLBg4aKCy+rFYKN6KAqXMB4tLtlgMPLOfyx44du8SGEQ/kaLbm68jMyPI/ceJEM813RKEO6ELZwOw50lRWpou+KDTOVVVbFtEsIkbcR9jh3Zp7JTiZBg8evFYEypSz8XVCQkT0Bll2TOK4b/To0Str1f4jUjV/NiJQVHTNGSGzGCetEt6an6ALCgoccIwWUVZWxrNSaR+VCfHQjtCZ03x4HTp02I/L/DjzS1T/ZM+oqJ3ivqX6J817AhEI0oYMHrJW7h2YeW835lNiDjp69Ohtxux99b3WvLJBIDwnhPgOrb6rfKISAiakHOZ9jQXigSOv/KFDh8o5kZugwGQNgIrFQ+kDDzywyMvTi+GHLBhbax+Fv1+7K1cSq81BZO17tFhe88oGMdE84i9fDtYifDW0GcdBxS1atFDMd0QNfZS7DdiBlOIobR0mclms0jAGJTDQkFXZiD63bNHyRK8+vX/h7kZuCai8vviE+IZJScm1bfdG7bxJ88omN/eqd1pGOmOiSZQ5+GUk+/v7Z0osbthiyKJ5KLJ5pMgKa/VPxF1r1CjsotUV3VQBIgpcmzplyqdQZjSDlhtuJfVlZmTWvHTpUmMbvU5Tr9G8ssEqIig/L7+mpqirqLEN6te/iBW6TULnq6jbVjcFCebyxe5GDgdPhKeJ8/Gxzr+msg717t1rZ/sO7Y9Z3WFWYBaBkpISZ1ik0cG8AlqaVzaIR1Q7Pz/f1SxJ4EM3EyhrHB4e6+ziLNvFtFEQC6u0YcOGrYbFl9W7QgRAPSqHf01F7P38/POmTJ6yQByXGmVs7NxPByibtnZugypfr3llc+XKlbomk8lJlXTV36gyxEQ7WbNmTVl9RtTfbXlaCMOK0127dN1lbW1hYWGXrK2jsvLCyhB5btbBEVWxdyjVdq3We/bcueZYBHtptf1KtVvzyiYuLq4xTA6pbCRICMKulMC344KEoiwCAsLXZvz48Z+AozW7hjJk2ZTl7qeyQUHmz+yp9059h06ethHbpCtX6l29muNjm7dp5y2aVjbCxwZJ0+pqB7e6Wurs7FKCnQ2VjcRhEbuGvn37bMXO5LLEKmqIpHX169dPkFrenHKIKFA2efLkZUHBQYnmPM9nrCOQnpZeKz4+gfPSTRg1rWyuXbvmnJScXAd9okOnhO/Dx7dmHi66rb5zkPBq3RQRdyJTp05dhA5JOoqs6VOzCNZoio8BwhFlPzTzoTewu+H9nMLSl5uX68JF8K2QNa1sioqKPDIyMmj2LPHjqR1Y6wqiDNPpTyI/UUzsbsaNG7cMR1WSFIZ3TZ8CKJt0K5pgVlHRzokTJ37XsGFD7m7MImbVQyLlCWOk6WlnA2Xjlp2Z5W+VWBi4cFBwcJII2mhgBLJ0HUnVkkaOHLlSyu7G29PrqpeXp01MzxHCJhXHaR/y7kaWYa+qEgfcJTdR/C0ae4GmdzZImuZ9NS+XF3HShK4Mk0+yMBKQVpylygnAmq8ER2kf498WKw0fP59U3J1ZY2Bg9kBgYWGaMGHCCsR1YyZPs6lJexAWaRHMbfN3dppWNhhMn/y8PJoYSvseyhA94BImSGbnlMbvb6WQfO7YXXfdtc7S3Y2/n3+qs5O8EaSr6g6sD+OnT5/+Hnc3Mgx6FVVcio1tUlJc4qLsW7RVu6aVTW5ubs2CwkI6dEqQOVhBmWrXrp0qoSiLVEAAhhZFmMQX4g4szxJAKJeFsDI2212KAJ24Y/qmSXgTyRZ0lvTPqM+KJGo5V3MCjdr/ivqtaWWDyAHeRYWF9LGRINFOzs6lQUFBSRKKskglBLp06XIgKirqJ0t2N/awBkR4nORp9017FwsOmyk5owlNYUGhKyzSGJDzhoHXtLLBzsa71GSi2bOEL9nF2UX4d/DsXgK7yoog9cC1J5544nVvL+8cM6stQ+bPQjOfle0xcXczZcqUz0IVjFwgW2M1WhHS1DtlZmbSeEkvygYrB2H2TGUj4YN0cXUuxuRo7qQo4Q3GLNK9e/ffBg8ZvAq9N+suzN3d3S5jAFPtnCeffPLf2N3ImnHUmKN+a69FVJOEhASmPtGLssnKyhLRnqlsJHzhrm5uBfY4wpHQVE0Vwa6hePbs2e+ArVm+M7AGlOQMai0U4XczadKkNe3ad/jN2rpYvmICsbGxTDWgI2XjR2Uj7VP39PDMhzPhVWmlWaoqAojifArHVCKqQLV3IoivZvNjtPK2Y/wLnnxy1kse7h7MdyO/SDukpaUFyV+tdmvU7J2NiIsG02emX5Uoe+5u7mJnY7FfiMTXGaoYjieLH3rooUUwM46truMiS2d1zyj594EDB27pGdVzJ95hlx2Wkn2zd93Z2dmMbqKXnU1paakzdzbSPikvb68C+FpwgpGGr9pScJxMnDFjxus4JrtW7cN2fAAx0wpnzZr1iqUm23ZssmZeHZ/AYJw3DpZmdzZQNA6wZWf0AImfHiaXLHFuL7E4i1VDAMnQTPfee+9yGAz8WtWuAZkd7e4n1rNnzz133HHHWu5u5BXrtJSUevLWqO3atKxsnHCM5qdt/PZrPc7rs+z3dmO8OSQkJPe55577N6I0VMpaxPezNw3hkAqT7TcCAgIkBRO1d/vV+v70TAYJ1sXOxlRqckSKAYaqkfallYmdjbSiLGUJATh5/gZjgSUoU1pBOQcRudyS+pR6tk2bNjFIBLcU9Ztlsq1UO/RUb3FRsRsWxHQ6vz6omt3ZlNUoc7xWVGT3IwitfhwIVZOs1bZrqd04Tit59tln57Vs1epERcdUWDCpwvFPtPOpp56ahwjWV7TEV81tNZlKHeGeQSMmrSsbk8nkhJWDMBDgTwIBtV9cS+iSaouI46nX582b5e/vf8tusri42Athl1ThKxYcHJwGH6EX4OhpkyjUqh0wmRpWitMXRKbn6YvWlQ08dB1KSooYVVXChyGs0OC5rmorKQndUm0RYYjRu3fvHTNnzvwIps5/m8iR/M8fCkcVRy0ifTSO0r6Do2eMamFqqGHiqB8LCVUck6oBm3aP0crKahRds//lqhoGUUIbqGwkQLOmCIwEih599JH5A24fIHxa/rq/wZm+GywrVaFsRP+w+8p57LFHX4WjJxcj1gw4yuL0xUEEC7ayGt0U17KycYC+UcXxg9akwfHPnQ29xm08cHXq1M18Y/4b/wgLC4vDq/8wO8eZfl2YP6tm9St2N0OHDl3fvUf3HeVttDEm3byu1FTqUFhYyKN+rR+jifZfd+rUjXDasiNuiI1my/fxXX8SaNKkydklS5ZML49LB1+x2jhGU9VxMO6YCp7Hz8/Pl+GMrBNcB85R/wOo5Z2NI1YOXDVI/BhwbyOxJItZQ0Dc3/To0SN6/vz5c7w8vfJz83LdEdYkwJo6lSjbqVOnQ3ffPWqZOA1Son4j1CnulaFsVLWQsCd3LU/W4hiCM6Y06SlzdHRk9ABp7KwuJbJlQsEsi4+Pb/bhhx/OwP9ugEpPW12xjBXAFLr4+PHjb2/YuGFkclIyQ+VLY4uj/jK6Z1xnp1llIyyqHB0cK3KUkyYWBit1s1WUwbpv9+7CqbYwMyPz/3CmXwhlE2L3BlXQgMaNG1948IEH3507d+5LmDQ1O1fYka1Y0Nk10Kod+37LqzUrQELZuLg4M/GTRGkCPx6PSGQnVzH/AH+haF5BBHNPueqUsx4YC5QiJ8viVatXT4k5fjxSzroNUpdQNvzOrg+2Zu9sxJ2Dk7MTB1L6V8tjNOnsZCuJHU4RYqhlyVahzBXB0TP96TlznndxcaEptDS2/M60rmxE+52dXXiMJu0DED4Aml1oSOwyi0kgIAwaEBF6E2K87UdxTpyWM+S9staVjThGc3LiMZrlsv9nCTU5EkrtA8vZhgB2N3mICv0KrOdoLm85ci7qtK5sYE1V6uHhnm/52LOEICC8m0mCBMwl0L9//22DhwzexN2NucT+eA4LYieevmhd2WAQi3GBmWfR0PPhcgIOcCSkSSblwWwCMIUumjNnzksIu8NU4mZSc3R0KoPzNIOa6kDZmCD42WaOOx+7gYAJzmbIo0JlQ6mwiABy3pwYO3bsl2JjbFFBgz4swkJB2dBiVgfKpgwhP1INKsdWd1sN6Yit7gQrsCkBGAuUPP744+/UrVePuZDMIC8cp8GMVnxaVzbCSgbmmGLVQAsZMwT/pkcc4NuhmuCPljefJexFIDw8HI6eD7wLAx3eRVQzCHDNKMXxY5a9xkpt79W0pQSyTaaoDagW2iNiNiFDpJsW2so2qosA7klNEydOXNo8MvKCulqmvtbgXtmE0xcGM9X6zka0PygoSKwauLOR8J3RGk0CNBb5g0C9evVS75s+/R1MpgzFUoVMCItZOO3mUGz+JKDpnQ3ypSeiD9zOS5BmJO3ykVCMRUightjdwFBgeatWrc4QR+UEPDw9C8VxPxnpQNnAGu0qAkpS2UiQ5vT09CAJxViEBP4gUKtWraxHHnlkrpOjI3c3lchErcCAdIrL/whoemcjElDhAo7WHpZLtEPO1at+lhdjCRL4k4BYsY8bN25NZIsWp8ikYgJBQcFXyEYnygb50jOwu6FjpwSJvpqTUxMWaYwiIIEdi/xJAN9e/lOzZ78sHKzJ5FYCOOaPJRedKBvhzezr48MLOAkSjXTEvhKKsQgJ/I3AkCFDfmzbtu0JYrmVQGBgYBq56ETZuLu75wUFB9P8WYJEFxYUesIEWtPHqBK6zSIyE0CQzpx//OMfrzMZ3y1gy+rWrZsgM25NV6fpyQZWMcUYUNr7SxDBgsIC98zMTO5uJLBjkb8TGDp06IZWrVry7uYmwahfv76wluXvOgGtKxsTbP4voy80L7RQpIuKixzy8/PdLSzGx0ngFgK4O706adLkD+l38z80wkoWu74kiotOjtFENyIjI08wdIblIn2t8Jo7fG1qWl6SJUjg7wSEZdrIkSNXNQlvIhZ+/IEAmBTD6Zwx5G6QBk3vbEQ/GjZseNndzZ3WMBZ+4sVFxa7Y2TA+moXc+HjFBGB5lTZm7JhPRVJDMoKy8fTIx86GBgJ6UjahoaGx3j7ezLFh4ReOTJ0uaWlptSwsxsdJoEICuD8tmzx58icBAQEZRISQPnXrJbi6unJe0pOyQeyhzNqBtbiCsPALLyktcYKyCbCwGB8ngUoJ4P40ZdiwYd/hAcPvbhAd+wSczhndRE/KBiuqaxERzU5yDrCMgKm01Ck1NTXYslJ8mgQqJ4BoHqUPPvjgR0j9YXRH6zIc78dSVv5OQPN3NiKMd/MWzU/xrNgy0S41mRyzs7MDLSvFp0mgagKRzSJP9ejRY5/ROcFwiabgNwmB5pWNsITp0KHDPqRg5ZbVsi/cMTExsb5lRfg0CVRNwD/A/xrubhYZOYSNGwyWGjVqFEdZ0dnORnQHoc5/d3RyYq5vy6Tb4cqVK3Wxu9H8gsOybvNppQn069dvW1hYmGG95/38fXNgnUczcL3tbER/hKcuzAxp027ZLOKANAP+xcXFrpYV49MkUDUBZNDNHDRo0EajHm3XCQlJDAwMoNGSHpWN2LJ37NDxMCcBywhkZGQEwLHT27JSfJoEqibg7e1dCifP5fh3oRFZNW4cfrpmTQYIvnns9XKEUtajZ49odM5kROGW2mfERhPKhlEEpAJkuUoJYPF3KCIiwoiX5GUwDjgJRcu5SI87m3IjAThRMZGaBRMgIgh4wfy5tgVF+CgJmEXA3cO9AD43q4x2lIZTltLbbrvtmFmQDPaQXnY2IkbaSeSPYOA7CwRY+NpcunSJFmkWMOOj5hEQC8ABAwasxwrfUF70cDLPhyXaefMoGesp3SgbkbGzY8eOR4w1fNb1VvjaJCQkhFpXC0uTQMUEWrZseRJHab8biU+dunXjYYl2yUh9NrevelI2pVFRUTt4b2Pu0P/xnNjZNLWoBB8mATMJYJV/DbluVuFxw4SvaR4ZeczPzy/bTESGekw3ykaMWqdOnfYhHpHRQ2VYIsAOcXFxofC1cbKkEJ8lAXMJDB48+GeErykw93ktPyfup5Ai+ziNAyoeRV0pG2zZTzRo2PCilgXW1m1PSUmuXVRUxCRqtgZvkPc1btz4AvLcGOKbhFItwVH+XoMMrcXd1JWyERkDO3fqJAbbMNt2i0f8pgJxcZcb5ubmellbD8uTQEUEEJyzIKpX1B4j0PHz98vGPRUt0SoZbF0pG0SANt1+++0bsMJg6Bozv2742vgh1QADcprJi49ZRgDKxtS3b99fUEr3sQtbt2r9Gxa86ZYRMs7TulI21+9t9teFRYhxhtC6npaVlTmdPn2aRgLWYWTpKgi0adPmEJKqXdU5pLKuXbvuhVUsnTmNsLMRfYSiSWvfvj3PTc3/sh0vXLhAZWM+Lz5pIQHESktspv+Q+6V9+vTZaCEaQz2uu50NLEFKYG75g5OjY7GhRlJ6Zx2PHz/eQXpxliSBqgngKK2wQ/v2B/CUbu9SYeadjUXuccpC5QR0p2xEVxHi/Fc/np2aLffnz58PzcvLczC7AB8kAQsIQNmUde7ceZcI5WJBMU092r1b9x2IYKL3o0KrxkSXygbpBjJxKSkCc/JnBoGExITGWVlZvmY8ykdIQBIBhJOKEZZpkgqrvBD8a0wDBw3cqvJm2r15ulQ2sEorvfvuu5eDLo/SzBCx9LR0YZEWYMajfIQEJBFAzqlLIcEhuoxd6OXplS92bpLAGKiQLpWNGL9evXr9ihhFuhRuueWzpKTE+ejRo23lrpf1kUA5Aexq8sPDw3UZoLJpRNNzTZs2Pc3RrpqAbpUN4hPljBgxYiW6r9tLSbmEW5g/nzx5srVc9bEeEriZANJ/mJq3aH5EhykHyrp167Y7KCiIYbKqEXvdKhuRLfCee+5Z4eHpyUu76uc+h9+O/Na++sf4BAlIIyBSDjRp0uSCo6OjrhZ/Hu4eRUilsEEaFWOV0q2yEcOIoHjHYHJpiFAZ1optXPzlRikpKZ7W1sPyJFAZARw1nXF2dtHVPWrDhg0T2rVrt5+jXj0BXSsbGAoUjBo16itnZ2eGr6lGFpKTkuonJyfXqV5k+AQJSCNQr169yx4ebrr6Frt267oTR2gZ0ogYq5TelU3ZnXfeuUUIubGG1fLeXr2a63X27NlmlpdkCRIwjwAs0q64ubvrxvxZRHlGCoW1IiajeQSM/ZSulY0Y2gYNGqQgosA6HV5Myiq5164VOp84caKFrJWyMhK4gQAm5+JA/wDd7AIwtyQiHhr9+cyUct0rG1xMlk6ZMmWpr68Ps+dVLRROBw4c6FJQUMBIAmZ+PHzMYgJlyDelm1MGuFdsgQN5msUUDFpA98pGjGuLFi1O9erVW4Q515UljNwye+78+YisrEw/uetlfSRwnUBZaGioXhKpleA+eJmwsuPomkfAEMoGYb+vPfTQQx9gG59vHhZjPpWYkFA/Pj6hrjF7z14rTUBMzLVq1UrQw6KvUaNGCV26dKGlqwVCYwhlI3jgbHV/7969d+hB0C0YX4seRcZOb+S2aW5RIT5MAhYQQHIxPdzZlCEc1nd05LRg4PGoYZQNIgoUPvzww2/BDLrQMkTGebq4uNj52LFjtzECtHHG3NY9xXeYZet3yv0+nJBcg8P4Mrnr1Xt9hlE2YiC7d+++p2fPniKxGs9ZK5Zsx4MHD7aD0nHSu+Czf/YhgERqqXizplMN4JTkUERERIx9CGr3rYZSNrAcyZs5c+Zbbm76sfWXW/RiTsS0xXGav9z1sj4SEAREQE4tL/ZETh7sar5G7hpdOafaQjoNpWwEUMQx2tajR/fdWhZ4JQUjIz0jMCYmJkLJd7Bu4xIQvjaYsDXrBFmnbt1UOHKuN+4ISu+54ZRNQEBA/iOPPPImAujpxpNZ+vDfWhJHaC7wt+kqZ52siwTKCYj7Dq0G4xSO4XcMGrQeEUmERR1/FhIwnLIRfG6//fboXr17bebupkJpcdq9Z093C+WIj5OAWQSwqynRajQPuFDkjxs37mMcBWp2Z2bWIPEheQls3ry5K9IPiKgCwliA/9zAICg46DLSRLvKS5y1kUCNGvv372+FO1OR+0Vz31xUVNQOfhfSpdiQOxuBCxYlh+8aOnQN/idXKTfJT0pySm342/DeRvp3xZKVEEBWWBeTqVRzIZGwGyudPn36Aphu0zBAonQbVtkguVrRc88991pIHX3mRZcoD+XFXLZt29bXyjpYnARuIYA7QVeTyaS5eadJeJNLMAzYyCGVTkBzgy69q7eWRObAsw/NfGi+k6OjrhI6ycDIcdeuXT1hAq25FagMfWcVChIQBihQNlqTK9PUe6cuhOsEg/kqKBu6rzo2NrY2Mu0dvH6cprlzZKXOvhEw8VxcXFyg7gWAHbQpgY0bN/bDC68pJbdK1Fu/QYN4HCs3tCkoHb7M0DsbMZ6Ib5Q+a9as1+jo+XfpTkpKrnfq1CkmU9PhR2/PLiUmJopAr1qad8rGjB69AonfdJMawV7jr6VBV4SRyLI3YsSIDcOG3bXy+u5GkfdorVIkU3Pbs2dPlNbazfaqm0BaWlptLSkbRKlOnzRp0hKYOzPElZWiZXhlI/j5+PgUvvrqq8/WDqqdZCVPPRV3wL1NFEw9GSdNT6Nq576kpKTUQxM0cWcj/IFGjhy5smnTpmftjI2v1xMBZKh0fOeddx6A05mICs27GzCoW69e3O+//95AT+PMvtiXABKOLdfK94V0COnY3be2LzG+XZcEUlNTvQff8UfcIxGV1vAKB4r32vLly+/U5WCzUzYnIBZ0MMY5opFvyzR16tRPYJHJnb3NJcUgLxQrmeuXgYZXNhhyExzZ3jXI0LObChO4evWq+3W/NtV/Wzhaz0S6jZYKI2H1RiaQn5/v9Pbbb//D1dW1PBS66j8MJVeKLVu1OnTlSqKPkWWCfZeHwJEjR5piEs9VUl5lqtt03333LcZOjLsaeYaetVRGABYzXjhb/hp/L5FJeDWrsBB8MDs6Oro9pYUErCWwcuXKIYj6LMK9qPp7gAVa8uHDh5ke3doBv6k8rdEqAAphy5s7d+4zDRs2jL3+YciMXTvV4ejDe/v27Qxdo50hU21LT5482dZUWuqs2gb+2TDT5MmTv27WrNlplbeTzdMLAWyhHb777rtBcPbMVPtKTOn2denadStD1+hFsu3TD8iPI/xVvlBaVq2tPzw8/OKJEyca24cS32pYAljVuz711FMvOjs7G9oc2svTK+vMmTPCP4I/EpBEAP41Xq3btDlsrTJQsjysL4vnzZs3B/e2mvADkjQQLKReAgiv4Tdo0KB1cPAy8v1N8cKFCyepd5TYMrUTgHFABPxW0pRUFtbW3aFDhyOXLl2qpXaWbJ+OCRw6dKg5ttenxHmutQKt1fLDhg0Tznj8kYAkAt98880onBCoNgAnDBcKv/rqq9GSOsdCJCAXAeGM9u23396B46R0rSoLa9sNo4kkrvrkkihj1ZOXl+f4+OOPv63ixZoJqeJ/yc7O9jLWyLC3qiQAheM8f/78mVidaTKlrbXKBv0u/vLLL0epcnDYKFUTEPc1MDLZb60MKlUe5v3pcOBkWBpVS5HBGpeenu4FZ6+PcX8jkq2p2ldAifZNmDDhcxhN8PLUYHJvbXcRX6+Zn5+vKq06kTixBEZAb4vdl7X9ZHkSkJXA5cuXA/v3779V5CRXYkJXc52NGjW6cP78+SBZgbIy3RP49NNPp6GTqnTmbNmixUnIdIjuB4Ed1CaBo0ePtmge2TxGxWfQiuy6YBpahLurEdocNbbaHgREIMsxY8Z8q8ZvxcPTM3/p0qVj7cGF7yQBswgIh8/du3e3Q1DBeDV+RErujuBdvZBHaWaJCR8CAZFaXI2BbcXJBI6Fl8EowIMDRQKqJiAs1FasWDEMZ9GGslALCwu7cPbsWR47qFo61dO49evX98fErjqn6NDQ0FhECmikHlJsCQlUQQCXis4LFiyY5u3lnaXkbkJNdeNCtWjZsmU8SuOXUS0BcQLwwAMPfKS23T9kuPCTTz6ZXG0H+AAJqImACGmDlNJPwylMC6HTZbnLQarc5YyVpiYpVGdbkpKSfESsMTUtltCWUpEtFOnOeXymTrFhq6oiAMH1fPrpp1+FwjFEDpzAwMCk06dP16VUkEBVBH744YchyAulqiM0HAPHnjp1iqnOKbraJZCZken50EMPvQ+LrQKVreRk2c3c1KcSHB9O0e5oseVKE0AwS8eJEyeKnFCqCfGECCDC+oxyq/Tgs37lCWRkZHiLvOVQOKpazSmh/Pr167eR0XGVlymtvuHcuXMh9Rs0ENaaSix2LK4T9zSl06ZNW0rrM61KFNt9C4Hk5GQf5O34HMKt2qCDckwAwiMcIT4iKAIkUBEBcQEvglvKIWty1NG2bdvfY2Nj63C0SEBXBBALyufee+9doucdDsxZTc/hp6uBY2dkIYAjZVek5dgsh5KQow6R2gCpzbvL0jlWQgJqIwCFUxNx1BYLM0s5Phg11oHV4m9paWnuamPP9tiXwN69e1v5+PioIhaaMFB48803ZwkzbPtS4dtJQEECmIhrTp8+/WO9ZvrEhWveunXr+iqIkFVrjIAIaDl79uw3xM7X3gskkfBQHGkjgK6nxjCyuSRgOYHU1NSasFJboFOzaBOU6QcMX2O5XOi1xJUriX6NGzc+Y29Fg/ebkHnzIAwVmM5cr8LGft1KAGfY3nPmzHnNzc39qgo+QosteapqMyyOYvFB0+eGgv8HgcWLF0/Ev+x+dBwUHJS0c+fOrhwWEjAcAaz+3d97770ZCG2ToSeFg6OKog8//HCS4QaUHb6FAJyb3bt267ZP7CrsKeMe7h65CKk0gfc0FFLDEhCx1MTKLyAgIMneH6Sck0GvqKjN8DFyNuzAsuN/ENi0aVMf7N7tGrYJ96NFzz///Ev41pw4LCRgaAIiv8f3338/pGHDhuf1onBg8ZO7a9euNoYeWIN3HnLtPHbs2OX2lGlhEDB+/PivxT2pwYeD3SeBPwkIz3uYh7Zr0bz5MfxfPWT8NM2YMeNtjq9xCezZs6cNYualyLljtrAuE6JaRMNxs7ZxR4E9J4EKCIjzZASzbNS3b9/N8MUptvDDkvWSX453161XL/7CBaaMNqKwiyMrLDY+sOPCyYT0zmeOHTvW0oj82WcSMIsAwrD7wfnzE62bRovYU++++67INc+fwQgcPny4WZ06dRLlWLRIqQMLnSvYWTFCgMHkjt2VQECcMc+bN+9ptXhdS/ngRZkuXbvuhSOrmwQELKJRAmJX8+STT84XaZalyo015RCKJgPZQIdrFB+bTQK2JwDTaGcYDozAKi0Ob7er6ajUj19EFFi7dm0f29PjG+1FALlhQoNDgq9IlRlryvn6+uZ89tln94qoBfbqP99LApokIO5xjhw50ga+CnsQxFOT9zj33HPPMkYU0KT4WdxokbMGoWnmoaDNdzU4BbgK/66HaeJs8bCxAAn8SUAonLi4uKD7779/kYenZ541Kz97lBUWSfv372/B8dQ/AUSOaGAPCzTxXYjgmuI0QP+U2UMSUJiA8MbGyu2hWrVqJWvpWE0EYPznP//5ksJ4WL2dCYijq6eeemqurQNuCkMacb8Jvx5XOyPg60lAPwTEBw1/nI4I5X8EvdLMsRocVmMvX74coJ+RYE9uJvD77783trUFmlA0r7zyyr9ycnJcOCIkQAIKEIB5dAD8GBbiAt6uoUDMPZYTntyIAzdZARSsUgUEcHxlc78aYXzyxhtvzMaOhopGBTLAJuiYAFZzbp9//vnEpk2aaiLMTevWrQ4hjwiPOnQok7t3726PqMpp5i4+rH2uZs2aufPnzxd3NFQ0OpQndkmFBK5bqzW766671qo9IZtIif3NN98MVCFGNskKAuIIa+rUqV/Z6h4RVmfZ77zzzmNUNFYMGouSgFQCcAL1fuuttx6BJZDwb1CtT87tt9++CdGguRqVOtAqLPfLL7/0wU4jy9rdihnlTfCjSUeU9GkieK0KUbBJJGAMAiKYJ8KEtBgwYMAmte5ycM5+9ccff+xpjBHRfy8x6bsjlt8OGyxwTEjKd2n16tVDYSTjoH+y7CEJaICAyAKK8+zHRSBMG0wClgYANd19993fwIybK1MNyFJ1TURCsjE4Hi0wY1diqZzc+LypWUSzmB07dvSorj38OwmQgI0JCBPpffv2tcLE/h1yy+QrPBlYNJEgdlX6li1bOtkYCV8nM4GEhITaiKwco6Rsifhq3Xv02CGiaMjcfFZHAiQgJwHc5XgsXbp0PPxczqHeEiUnBgvqNk2ZMmUxQ9jIOdK2rUssZv7v//7vWexqiiwYd4sWJaLuUaNGfYM0FXVt2zu+jQRIQBIBYbF25syZhkhb8JGw5FHD0Rp2N2kIAc9cI5JG1P6FcDfYPKROiGLBNkX4mX/9619zU1JSmGHT/sPNFpCAZQREOA/khB/Us2fPHfC8vqbUitTMev/Y3VjWAz6tBgK4b3OdPHnyMoUWLSaEY0pasmTJFDprqmG02QYSkEhA7HKwWvSHn8LjoaGhscKz30zlYNERiDl1ent5ZyOTYlOJXWExOxFYs2bNHdh55JgzxpY8I+5nbrut7eFff/21p5BTO3WPryUBEpCTgDhzR96R8CeeeOJNPz9f4fltF9+cBx54YAFNWeUcWWXrQpgk33bt2h22RImY86ww1Z8wYcKX4rhX2R6wdhIgAbsQECHZYbXWERexyz3cPa7aWukIyzS8v7ldOs+XWkRA+HE9//zz/8QORE6jAJOQgbfffvsJOPt6WdQgPkwCJKA9AuI+Z926dYNxn7Pdzc1dab+Jv47kRDh6GC4sQsgTZlZUudjAoCMS9ymJ5uxUzHkG1mYlnbt0PrB9+/aeQpGpvPtsHgmQgFwEyu9zEA7kvvbt2x/B0YZNjAgCAgLSd+7c2UGufrAe+Qlg1+Ex5M47V8u18xVZNR955JH3Ll26FCx/a1kjCZCAJggIpXPlSmKt999//x+IKH0Guw/F8+ZMmjTp8+zsbEYVUKGEiF3HggULpmDHK8zmrTUUEdEATq1cuXIEA2mqcLDZJBKwBwExySAddd3XXnvtqfr1619SUukgkGP21q1bGVXAHgNdzTtjYmJCw8LCTli5qzGJO8GZM2e+L3YztDZT4UCzSSRgbwJiYkBokuAXX3zxGbHTcXJ0lPOC+K+VMo5p1mG1y7sbew/4De/HbtN19OjRS/GfJO9uxd1M127d9m7YsGEQ7gadVdQ9NoUESECNBLDTcTx37lwD7HRmt2zVKkZupYNjmvyffvqplxr7bsQ2iUXGF198MQZ3d8JKUcrxmQlpolNeeOGF/2CxEmhEhuwzCZCAFQSE0kG8qnrIn/MYfC5kNSTo37//NkStZjZPK8ZHrqInT54MCw8PPy1F0YhwMxMnTvxm79697eFHxbs4uQaF9ZCAEQmIlS+c/AIR6HNqp06d9+K4RESXtso5FLubIrGaNiJPNfUZIWncoSy+Fl79ligbPH8NsrDvhx9+GI4jOA819YltIQES0DgBoXREEi0cgfUdNmzYamRTzBT+M5ZMUjc+27pNm5jLly8HaByLZpsvdq6wPnsAij/X3DHEQuNa88jmMSg3HeXpnKnZ0WfDSUAjBHDB7wbnv06PP/74+7BgErHXLPbVwcRVOnfu3Gc10mXdNfPAgQOtkRUzzkxFUwQlc+L1119/CguEECw8aOChO4lgh0hAxQRwTu98+vTpMHGvA0uknddXyWbvdjDZJeDOoJGKu6jLpqWlpXkPGjRoY3U7UxHANaJpxFmhZC5evFiHEQB0KQ7sFAloh4CYhHCvE4Ajtv4ItPgVogUko/XmRJo2PfroowtwPMeVso2GWxyfCZ8qWBlWGq5I3OFgJ3MOi4h/nj9/vr4oY6Pm8TUkQAIkYB4BTExOZ8+ebYiJ6glcIh9AioHcqlbQsGjKFeHmzaudT1lLYPPmzV3gXJtS0fGZl6dXIdIz//bpp5/+Izk5OZBOmdbSZnkSIAGbEIClkiciBvQQuxeELzlXWfDPfv367cXRDrM1KjwqCO3foG3btn9LHYAdjql2UO10JEpbtX79+mEYM178KzwOrJ4ESEAhAuIYRjj8rVix4u6pU6cuR1icpBuP2ZBRtHThwoXPYSVNXw2FxiA9Pd0TWVO/L99lCgONjh07nXjppZdeOXLkSGvcv9HvSSH2rJYESMAOBGDJ5oTL5nrLly8fDx+PH6B40jABFsCxMBHxubrZoUm6f6VQ9sgl8zJ2loUNGza8gmR2m3C/NhhHZQG8j9H98LODJEACwutc7HjgHDjswQcfXDtv3rz3YSzAnCcyiwbScofMmDHjx2+++WZOfHx8A2FFKPMrWB0JVEqAHzSFQzUErl9EuxYVFTnAWbRQNQ3TSUNwD+OIo0o37CALPTw8RPwz/kiABEiABEiABEiABEiABEiABEiABEiABEiABEiABEiABEiABEiABEiABEiABEiABEiABEiABEiABEiABEiABEiABEiABEiABEiABEiABEiABEiABEiABEiABEiABEiABEiABEiABEiABEiABEiABEiABEiABEiABEiABEiABEiABEiABEiABEiABEiABEiABEiABEiABEiABEiABEiABEiABEiABEiABEiABEiABEiABEiABEiABEiABEiABEiABEiABEiABEiABEiABEiABEiABEiABEiABEiABEiABEiABEiABEiABEiABEiABEiABEiABEiABEiABEiABEiABEiABEiABEiABEiABEiABEiABEiABEiABEiABEiABEiABEiABEiABEiABEiABEiABEiABEiABEiABEiABEiABEiABEiABEiABEiABEiABEiABEiABEiABEiABEiABEiABEiABEiABEiABEiABEiABEiABEiABEiABEiABEiABEiABEiABEiABEiABEiABEiABEiABEiABEiABEiABEiABEiABEiABEiABEiABEiABEiABEiABEiABEiABEiABEiABEiABEiABEiABEiABEiABEiABEiABEiABEiABEiABEiABEiABEiABEiABEiABEiABEiABEiABEiABEiABEiABEiABEiABEiABEiABEiABEiABEiABEiABEiABEiABEiABEiABEiABEiABEiABEiABEiABEiABEiABEiABEiABEiABEiABEiABEiABEiABEiABEiABEiABEiABEiABEiABEiABEiABEiABEiABEiABEiABEiABEiABEiABEiABEiABEiABEiABEiABEiABEiABEiABEiABEiABEiABEiABEiABEiABEiABEiABEiABEiABEiABEiABEiABEiABEiABEiABEiABEiABEiABEiABEiABEiABEiABEiABEiABEiABEiABEiABEiABEiABEiABEiABEiABEiABEiABEiABEiABEiABEiABEiABEiABEiABEiABEiABEiABEiABEiABEiABEiABEiABEiABEiABEiABEiABEiABEiABEiABEiABEiABEiABEiABEiABEiABEiABEiABEiABEiABEiABEiABEiABEiABEiABEiABEiABEiABEiABEiABEiABEiABEiABEiABEiABEiABEiABEiABEiABEiABEiABEiABEiABEiABEiABEiABEiABEiABEiABEiABEiABEiABEiABEiABEiABEiABEiABEiABEiABEiABEiABEiABEiABEiABEiABEiABEiABEiABEiABEiABEiABEiABEiABEiABEiABEiABEiABEiABEiABEiABEiABEiABEiABEiABEiABEiABEiABEiABEiABEiABEiABEiABEiABEiABEiABEiABEiABEiABEiABEiABEiABEiABEiABEiABEiABEiABEiABEiABEiABEiABEiABEiABEiABEiABEiABEiABEiABEiABEiABEiABEiABEiABEiABEiABEiABEiABEiABEiABEiABEiABEiABEiABEiABEiABEiABEiABEiABEiABEiABEiABEiABEiABEiABEiABEiABEiABEiABEiABEiABEiABEiABEiABEiABEiABEiABEiABEiABEiABEiABEiABEiABEiABEiABEiABEiABEiABEiABEiABEiABEiABEiABEiABEiABEiABEiABEiABEiABEiABEiABEiABEiABEiABEiABEiABEiABEiABEiABEiABEiABEiABEiABEiABEiABEiABEiABEiABEiABEiABEiABEiABEiABEiABEiABEiABEiABEiABEiABEiABEiABEiABEiABEiABEiABEiABEiABEiABEiABEiABEiABEiABEiABEiABEiABEiABEiABEiABEiABEiABEiABEiABEiABEiABEiABEiABEiABEiABEiABEiABEiABEiABEiABEiABEiABEiABEiABEiABEiABEiABEiABEiABEiABEiABEiABEiABEiABEiABEiABEiABEiABEiABEiABEiABEiABEiABEiABEiABEiABEiABEiABEiABEiABEiABEiABEiABEiABEiABEiABEiABEiABEiABEiABEiABEiABEiABEiABEiABEiABEiABEiABEiABEiABEiABEhACoH/B10ilEsoOh04AAAAAElFTkSuQmCC;" vertex="1" parent="1">
          <mxGeometry x="410" y="-94.5" width="60" height="89" as="geometry"/>
        </mxCell>
        <mxCell id="-ClTl8FYW49d9pKGoOFr-25" value="" style="ellipse;whiteSpace=wrap;html=1;aspect=fixed;fillColor=none;strokeColor=#67AB9F;strokeWidth=3;" vertex="1" parent="1">
          <mxGeometry x="400" y="-100" width="80" height="80" as="geometry"/>
        </mxCell>
      </root>
    </mxGraphModel>
  </diagram>
</mxfile>
